<svg width="210" height="35" viewBox="0 0 210 35" fill="none" xmlns="http://www.w3.org/2000/svg">
<g clip-path="url(#clip0_2_47)">
<path d="M73.5 0H85.6109C87.559 0 89.1481 0.279289 90.3784 0.837868C91.6086 1.39645 92.5571 2.09466 93.2235 2.93254C93.8899 3.77041 94.3385 4.68443 94.5691 5.67465C94.8255 6.66486 94.9536 7.57888 94.9536 8.41676C94.9536 9.25463 94.8255 10.1687 94.5691 11.1589C94.3385 12.1237 93.8899 13.025 93.2235 13.8629C92.5571 14.7008 91.6086 15.399 90.3784 15.9576C89.1481 16.4908 87.559 16.7574 85.6109 16.7574H78.3058V27.1925H73.5V0ZM78.3058 12.8727H85.3417C85.88 12.8727 86.4311 12.7965 86.9951 12.6442C87.559 12.4918 88.0715 12.2506 88.5328 11.9206C89.0199 11.5651 89.4043 11.1081 89.6863 10.5495C89.9939 9.96555 90.1477 9.24192 90.1477 8.37867C90.1477 7.49002 90.0196 6.75372 89.7633 6.16975C89.5069 5.58577 89.1609 5.12876 88.7252 4.79869C88.2894 4.44323 87.7896 4.20203 87.2258 4.07508C86.6617 3.94814 86.0594 3.88465 85.4187 3.88465H78.3058V12.8727Z" fill="#02111B"/>
<path d="M98.529 0H102.912V10.0925H102.989C103.527 9.20384 104.322 8.46753 105.373 7.88357C106.449 7.27421 107.641 6.96953 108.948 6.96953C111.127 6.96953 112.844 7.52811 114.1 8.64526C115.356 9.76243 115.984 11.4382 115.984 13.6725V27.1925H111.601V14.815C111.55 13.2662 111.217 12.1491 110.601 11.4635C109.986 10.7526 109.025 10.3972 107.718 10.3972C106.975 10.3972 106.308 10.5368 105.719 10.8161C105.129 11.07 104.629 11.4382 104.219 11.9206C103.809 12.3776 103.489 12.9235 103.258 13.5582C103.027 14.193 102.912 14.8658 102.912 15.5767V27.1925H98.529V0Z" fill="#02111B"/>
<path d="M118.415 7.50272H123.221L128.411 22.2035H128.488L133.524 7.50272H138.1L130.372 28.259C130.013 29.1477 129.654 29.9982 129.295 30.8107C128.962 31.6232 128.539 32.3341 128.026 32.9434C127.539 33.5781 126.924 34.0732 126.181 34.4288C125.438 34.8096 124.489 35 123.336 35C122.311 35 121.298 34.9239 120.299 34.7715V31.1154C120.657 31.1661 121.003 31.2169 121.337 31.2676C121.67 31.3439 122.016 31.3819 122.375 31.3819C122.887 31.3819 123.31 31.3185 123.643 31.1915C123.977 31.0646 124.246 30.8742 124.451 30.6203C124.682 30.3917 124.874 30.1124 125.028 29.7824C125.181 29.4523 125.322 29.0715 125.45 28.6398L125.95 27.1164L118.415 7.50272Z" fill="#02111B"/>
<path d="M143.85 20.8705C143.978 22.1399 144.465 23.0286 145.311 23.5364C146.157 24.0443 147.169 24.2982 148.348 24.2982C148.758 24.2982 149.22 24.2727 149.732 24.2219C150.27 24.1458 150.77 24.0189 151.232 23.8411C151.693 23.6633 152.065 23.4096 152.347 23.0793C152.654 22.7239 152.795 22.267 152.77 21.7084C152.744 21.1498 152.539 20.6927 152.154 20.3373C151.77 19.9818 151.27 19.7025 150.655 19.4994C150.066 19.271 149.386 19.0806 148.617 18.9282C147.848 18.7759 147.067 18.6107 146.272 18.4331C145.452 18.2553 144.657 18.0395 143.888 17.7856C143.145 17.5317 142.466 17.189 141.85 16.7574C141.261 16.3257 140.787 15.7798 140.428 15.1197C140.069 14.4342 139.89 13.5963 139.89 12.6061C139.89 11.5397 140.146 10.6511 140.659 9.94015C141.197 9.20384 141.863 8.61987 142.658 8.18825C143.478 7.73123 144.375 7.41385 145.349 7.23612C146.349 7.05839 147.297 6.96953 148.194 6.96953C149.22 6.96953 150.194 7.08379 151.116 7.3123C152.065 7.51541 152.91 7.85818 153.654 8.34058C154.423 8.82299 155.051 9.45775 155.538 10.2448C156.05 11.0065 156.371 11.9333 156.499 13.025H151.924C151.719 11.984 151.232 11.2858 150.463 10.9304C149.719 10.5749 148.861 10.3972 147.887 10.3972C147.579 10.3972 147.208 10.4226 146.772 10.4733C146.362 10.5241 145.964 10.6257 145.58 10.778C145.221 10.905 144.914 11.1081 144.657 11.3874C144.401 11.6413 144.273 11.984 144.273 12.4157C144.273 12.9489 144.452 13.3805 144.811 13.7105C145.195 14.0406 145.682 14.3199 146.272 14.5484C146.887 14.7515 147.579 14.9293 148.348 15.0816C149.117 15.2339 149.912 15.399 150.732 15.5767C151.526 15.7544 152.308 15.9703 153.077 16.2242C153.846 16.4781 154.525 16.8208 155.115 17.2524C155.73 17.6841 156.217 18.2299 156.576 18.89C156.96 19.5503 157.152 20.3626 157.152 21.3276C157.152 22.4955 156.884 23.4857 156.345 24.2982C155.807 25.1106 155.102 25.7709 154.231 26.2785C153.385 26.7864 152.436 27.1546 151.386 27.383C150.334 27.6115 149.297 27.7258 148.271 27.7258C147.015 27.7258 145.849 27.5861 144.772 27.3068C143.722 27.0275 142.799 26.6086 142.004 26.05C141.235 25.4662 140.62 24.7551 140.159 23.9172C139.723 23.054 139.492 22.0384 139.467 20.8705H143.85Z" fill="#02111B"/>
<path d="M160.596 0H164.979V4.11316H160.596V0ZM160.596 7.50272H164.979V27.1925H160.596V7.50272Z" fill="#02111B"/>
<path d="M178.866 27.7258C177.277 27.7258 175.854 27.4719 174.599 26.9642C173.368 26.431 172.317 25.7073 171.446 24.7933C170.6 23.8793 169.947 22.7874 169.485 21.518C169.049 20.2484 168.832 18.852 168.832 17.3286C168.832 15.8306 169.049 14.4469 169.485 13.1774C169.947 11.9079 170.6 10.8161 171.446 9.90206C172.317 8.98803 173.368 8.27711 174.599 7.76931C175.854 7.23612 177.277 6.96953 178.866 6.96953C180.455 6.96953 181.865 7.23612 183.096 7.76931C184.352 8.27711 185.402 8.98803 186.249 9.90206C187.121 10.8161 187.773 11.9079 188.209 13.1774C188.671 14.4469 188.9 15.8306 188.9 17.3286C188.9 18.852 188.671 20.2484 188.209 21.518C187.773 22.7874 187.121 23.8793 186.249 24.7933C185.402 25.7073 184.352 26.431 183.096 26.9642C181.865 27.4719 180.455 27.7258 178.866 27.7258ZM178.866 24.2982C179.841 24.2982 180.686 24.095 181.403 23.6889C182.121 23.2825 182.711 22.7493 183.173 22.0892C183.635 21.4291 183.967 20.6927 184.172 19.8803C184.403 19.0424 184.518 18.1919 184.518 17.3286C184.518 16.4908 184.403 15.6529 184.172 14.815C183.967 13.9771 183.635 13.2408 183.173 12.6061C182.711 11.946 182.121 11.4128 181.403 11.0065C180.686 10.6003 179.841 10.3972 178.866 10.3972C177.893 10.3972 177.046 10.6003 176.328 11.0065C175.611 11.4128 175.021 11.946 174.56 12.6061C174.099 13.2408 173.753 13.9771 173.522 14.815C173.317 15.6529 173.214 16.4908 173.214 17.3286C173.214 18.1919 173.317 19.0424 173.522 19.8803C173.753 20.6927 174.099 21.4291 174.56 22.0892C175.021 22.7493 175.611 23.2825 176.328 23.6889C177.046 24.095 177.893 24.2982 178.866 24.2982Z" fill="#02111B"/>
<path d="M192.545 7.50272H196.696V10.3972L196.773 10.4733C197.44 9.38157 198.312 8.531 199.388 7.92165C200.464 7.28691 201.658 6.96953 202.963 6.96953C205.142 6.96953 206.86 7.52811 208.115 8.64526C209.372 9.76242 210 11.4382 210 13.6725V27.1926H205.616V14.815C205.565 13.2662 205.233 12.1491 204.617 11.4635C204.003 10.7526 203.04 10.3972 201.733 10.3972C200.991 10.3972 200.324 10.5368 199.734 10.8161C199.145 11.07 198.646 11.4382 198.235 11.9206C197.825 12.3776 197.505 12.9235 197.274 13.5582C197.043 14.193 196.927 14.8658 196.927 15.5767V27.1926H192.545V7.50272Z" fill="#02111B"/>
<path d="M51.1994 7.07718e-06H21.7493C20.8787 0.00331567 20.0254 0.24098 19.281 0.6875C18.5367 1.13402 17.9293 1.77254 17.524 2.53456L4.52218 27.0088L0 35L12.4469 27.069L22.1825 7.89975C22.4436 7.38413 22.8445 6.95051 23.3406 6.64743C23.8366 6.34435 24.4081 6.18373 24.9912 6.18355H37.3116C37.8674 6.18345 38.4132 6.32914 38.8936 6.60578C39.3738 6.8824 39.7714 7.28007 40.0454 7.7582C40.3197 8.23636 40.4607 8.77784 40.4541 9.32746C40.4476 9.87709 40.2938 10.4152 40.0083 10.8868L35.2914 18.6686C34.8411 19.4117 34.2036 20.0265 33.4414 20.4535C32.6791 20.8803 31.8182 21.1047 30.9421 21.1045H22.7836C22.2521 21.1069 21.7313 21.252 21.2765 21.5241C20.8217 21.7963 20.4502 22.1853 20.2013 22.6497L17.8647 27.0088H41.7168C42.5843 27.0085 43.4353 26.7755 44.1794 26.3347C44.9235 25.8939 45.5327 25.2618 45.9422 24.5056L55.4344 6.97305C55.8248 6.25034 56.0192 5.43982 55.9984 4.62063C55.9778 3.80146 55.7426 3.0016 55.3159 2.29911C54.8893 1.59665 54.2857 1.01558 53.5644 0.612621C52.8428 0.209664 52.028 -0.00140886 51.1994 7.07718e-06Z" fill="#02111B"/>
</g>
<defs>
<clipPath id="clip0_2_47">
<rect width="210" height="35" fill="white"/>
</clipPath>
</defs>
</svg>
