<svg version="1.2" baseProfile="tiny-ps" xmlns="http://www.w3.org/2000/svg" viewBox="0 0 200 33" width="200" height="33">
	<title>Clip-Path</title>
	<defs>
		<clipPath clipPathUnits="userSpaceOnUse" id="cp1">
			<path d="m0 0h200v33h-200v-33z" />
		</clipPath>
	</defs>
	<style>
		tspan { white-space:pre }
		.s0 { fill: #02111b } 
	</style>
	<g id="Clip-Path" clip-path="url(#cp1)">
		<g id="Layer">
			<path id="Layer" fill-rule="evenodd" class="s0" d="m70 0h11.53c1.86 0 3.37 0.26 4.54 0.79c1.17 0.53 2.07 1.18 2.71 1.97c0.63 0.79 1.06 1.65 1.28 2.59c0.24 0.93 0.37 1.8 0.37 2.59c0 0.79-0.12 1.65-0.37 2.59c-0.22 0.91-0.65 1.76-1.28 2.55c-0.63 0.79-1.54 1.45-2.71 1.98c-1.17 0.5-2.69 0.75-4.54 0.75h-6.96v9.84h-4.58v-25.64zm4.58 12.14h6.7c0.51 0 1.04-0.07 1.57-0.22c0.54-0.14 1.03-0.37 1.46-0.68c0.46-0.34 0.83-0.77 1.1-1.29c0.29-0.55 0.44-1.23 0.44-2.05c0-0.84-0.12-1.53-0.37-2.08c-0.24-0.55-0.57-0.98-0.99-1.29c-0.42-0.34-0.89-0.56-1.43-0.68c-0.54-0.12-1.11-0.18-1.72-0.18h-6.77v8.47z" />
			<path id="Layer" class="s0" d="m93.84 0h4.17v9.52h0.07c0.51-0.84 1.27-1.53 2.27-2.08c1.02-0.57 2.16-0.86 3.4-0.86c2.08 0 3.71 0.53 4.91 1.58c1.2 1.05 1.79 2.63 1.79 4.74v12.75h-4.17v-11.67c-0.05-1.46-0.37-2.51-0.95-3.16c-0.59-0.67-1.5-1.01-2.75-1.01c-0.71 0-1.34 0.13-1.9 0.39c-0.56 0.24-1.04 0.59-1.43 1.04c-0.39 0.43-0.7 0.95-0.92 1.54c-0.22 0.6-0.33 1.23-0.33 1.9v10.95h-4.17v-25.64z" />
			<path id="Layer" class="s0" d="m112.78 7.07h4.58l4.94 13.86h0.07l4.8-13.86h4.36l-7.36 19.57c-0.34 0.84-0.68 1.64-1.03 2.41c-0.32 0.77-0.72 1.44-1.21 2.01c-0.46 0.6-1.05 1.07-1.76 1.4c-0.71 0.36-1.61 0.54-2.71 0.54c-0.98 0-1.94-0.07-2.89-0.22v-3.45c0.34 0.05 0.67 0.1 0.99 0.14c0.32 0.07 0.65 0.11 0.99 0.11c0.49 0 0.89-0.06 1.21-0.18c0.32-0.12 0.57-0.3 0.77-0.54c0.22-0.22 0.4-0.48 0.55-0.79c0.15-0.31 0.28-0.67 0.4-1.08l0.48-1.44l-7.18-18.49z" />
			<path id="Layer" class="s0" d="m137 19.68c0.12 1.2 0.59 2.03 1.39 2.51c0.81 0.48 1.77 0.72 2.89 0.72c0.39 0 0.83-0.02 1.32-0.07c0.51-0.07 0.99-0.19 1.43-0.36c0.44-0.17 0.79-0.41 1.06-0.72c0.29-0.34 0.43-0.77 0.4-1.29c-0.02-0.53-0.22-0.96-0.59-1.29c-0.37-0.34-0.84-0.6-1.43-0.79c-0.56-0.22-1.21-0.39-1.94-0.54c-0.73-0.14-1.48-0.3-2.23-0.47c-0.78-0.17-1.54-0.37-2.27-0.61c-0.71-0.24-1.35-0.56-1.94-0.97c-0.56-0.41-1.01-0.92-1.35-1.54c-0.34-0.65-0.51-1.44-0.51-2.37c0-1.01 0.24-1.84 0.73-2.51c0.51-0.69 1.15-1.24 1.9-1.65c0.78-0.43 1.64-0.73 2.56-0.9c0.95-0.17 1.86-0.25 2.71-0.25c0.98 0 1.9 0.11 2.78 0.32c0.9 0.19 1.71 0.51 2.42 0.97c0.73 0.45 1.33 1.05 1.79 1.8c0.49 0.72 0.79 1.59 0.92 2.62h-4.36c-0.2-0.98-0.66-1.64-1.39-1.97c-0.71-0.34-1.53-0.5-2.45-0.5c-0.29 0-0.65 0.02-1.06 0.07c-0.39 0.05-0.77 0.14-1.14 0.29c-0.34 0.12-0.63 0.31-0.88 0.57c-0.24 0.24-0.37 0.56-0.37 0.97c0 0.5 0.17 0.91 0.51 1.22c0.37 0.31 0.83 0.57 1.39 0.79c0.59 0.19 1.24 0.36 1.98 0.5c0.73 0.14 1.49 0.3 2.27 0.47c0.76 0.17 1.5 0.37 2.23 0.61c0.73 0.24 1.38 0.56 1.94 0.97c0.59 0.41 1.05 0.92 1.39 1.54c0.37 0.62 0.55 1.39 0.55 2.3c0 1.1-0.26 2.03-0.77 2.8c-0.51 0.77-1.18 1.39-2.01 1.87c-0.81 0.48-1.71 0.83-2.71 1.04c-1 0.22-1.99 0.32-2.97 0.32c-1.2 0-2.31-0.13-3.33-0.4c-1-0.26-1.88-0.66-2.64-1.18c-0.73-0.55-1.32-1.22-1.76-2.01c-0.42-0.81-0.64-1.77-0.66-2.87h4.17z" />
			<path id="Layer" class="s0" d="m152.95 0h4.17v3.88h-4.17v-3.88zm0 7.07h4.17v18.56h-4.17v-18.56z" />
			<path id="Layer" fill-rule="evenodd" class="s0" d="m170.35 26.14c-1.51 0-2.87-0.24-4.06-0.72c-1.17-0.5-2.17-1.19-3-2.05c-0.81-0.86-1.43-1.89-1.87-3.09c-0.42-1.2-0.62-2.51-0.62-3.95c0-1.41 0.21-2.72 0.62-3.91c0.44-1.2 1.06-2.23 1.87-3.09c0.83-0.86 1.83-1.53 3-2.01c1.2-0.5 2.55-0.75 4.06-0.75c1.51 0 2.86 0.25 4.03 0.75c1.2 0.48 2.2 1.15 3 2.01c0.83 0.86 1.45 1.89 1.87 3.09c0.44 1.2 0.66 2.5 0.66 3.91c0 1.44-0.22 2.75-0.66 3.95c-0.42 1.2-1.04 2.23-1.87 3.09c-0.81 0.86-1.81 1.54-3 2.05c-1.17 0.48-2.52 0.72-4.03 0.72zm0-3.23c0.93 0 1.73-0.19 2.42-0.57c0.68-0.38 1.25-0.89 1.69-1.51c0.44-0.62 0.76-1.32 0.95-2.08c0.22-0.79 0.33-1.59 0.33-2.41c0-0.79-0.11-1.58-0.33-2.37c-0.2-0.79-0.51-1.48-0.95-2.08c-0.44-0.62-1-1.13-1.69-1.51c-0.68-0.38-1.49-0.57-2.42-0.57c-0.93 0-1.73 0.19-2.42 0.57c-0.68 0.38-1.24 0.89-1.68 1.51c-0.44 0.6-0.77 1.29-0.99 2.08c-0.2 0.79-0.29 1.58-0.29 2.37c0 0.81 0.1 1.62 0.29 2.41c0.22 0.77 0.55 1.46 0.99 2.08c0.44 0.62 1 1.13 1.68 1.51c0.68 0.38 1.49 0.57 2.42 0.57z" />
			<path id="Layer" class="s0" d="m183.38 7.07h3.95v2.73l0.07 0.07c0.64-1.03 1.47-1.83 2.49-2.41c1.02-0.6 2.16-0.9 3.4-0.9c2.08 0 3.71 0.53 4.91 1.58c1.2 1.05 1.8 2.63 1.8 4.74v12.75h-4.18v-11.67c-0.05-1.46-0.36-2.51-0.95-3.16c-0.58-0.67-1.5-1.01-2.75-1.01c-0.71 0-1.34 0.13-1.9 0.39c-0.56 0.24-1.04 0.59-1.43 1.04c-0.39 0.43-0.7 0.95-0.92 1.54c-0.22 0.6-0.33 1.23-0.33 1.9v10.95h-4.17v-18.56z" />
			<path id="Layer" class="s0" d="m51.01 0.58c0.69 0.38 1.26 0.93 1.67 1.59c0.41 0.66 0.63 1.42 0.65 2.19c0.02 0.77-0.17 1.54-0.54 2.22l-9.04 16.53c-0.39 0.71-0.97 1.31-1.68 1.72c-0.71 0.42-1.52 0.64-2.35 0.64h-22.72l2.23-4.11c0.24-0.44 0.59-0.8 1.02-1.06c0.43-0.26 0.93-0.39 1.44-0.4h7.77c0.83 0 1.65-0.21 2.38-0.61c0.73-0.4 1.33-0.98 1.76-1.68l4.49-7.34c0.27-0.44 0.42-0.95 0.42-1.47c0.01-0.52-0.13-1.03-0.39-1.48c-0.26-0.45-0.64-0.83-1.1-1.09c-0.46-0.26-0.98-0.4-1.51-0.4h-11.73c-0.56 0-1.1 0.15-1.57 0.44c-0.47 0.29-0.85 0.69-1.1 1.18l-9.27 18.07l-11.85 7.48l4.31-7.53l12.38-23.08c0.39-0.72 0.96-1.32 1.67-1.74c0.71-0.42 1.52-0.65 2.35-0.65h28.05c0.79 0 1.57 0.2 2.25 0.58z" />
		</g>
	</g>
</svg>