<svg width="20" height="20" viewBox="0 0 20 20" fill="none" xmlns="http://www.w3.org/2000/svg">
<path d="M10 0C4.48918 0 0 4.48918 0 10C0 15.5108 4.48918 20 10 20C15.5108 20 20 15.5108 20 10C20 4.48918 15.5108 0 10 0ZM10 1.53846C14.6815 1.53846 18.4615 5.31851 18.4615 10C18.4615 14.6815 14.6815 18.4615 10 18.4615C5.31851 18.4615 1.53846 14.6815 1.53846 10C1.53846 5.31851 5.31851 1.53846 10 1.53846ZM10.3606 4.66346L9.25481 5.72115L12.6262 9.23678L4.61538 9.23077V10.7692L12.6082 10.7752L9.25481 14.2788L10.3606 15.3365L15.4868 10L10.3606 4.66346Z" fill="black"/>
</svg>
