<svg width="17" height="17" viewBox="0 0 17 17" fill="none" xmlns="http://www.w3.org/2000/svg">
<path d="M2.89925 0L0 0.0149385L0.00830256 1.71461L1.76844 1.70631L4.56973 8.42365L3.55183 10.0519C3.21176 10.5958 3.19417 11.2829 3.50534 11.8429C3.81651 12.4029 4.40692 12.7508 5.04795 12.7508H15.2999V11.0512H5.04795L4.99316 10.9516L5.99278 9.35149H12.3426C12.9607 9.35149 13.5295 9.01556 13.8287 8.47676L16.8924 2.96612C17.0395 2.70267 17.0354 2.38131 16.8824 2.12127C16.7294 1.86207 16.4494 1.70299 16.1485 1.70299H3.60995L2.89925 0ZM4.31733 3.40266H14.7038L12.3426 7.65183H6.08909L4.31733 3.40266ZM5.09777 13.6007C4.6468 13.6007 4.21431 13.7797 3.89543 14.0985C3.57655 14.4172 3.39741 14.8496 3.39741 15.3003C3.39741 15.7511 3.57655 16.1834 3.89543 16.5022C4.21431 16.8209 4.6468 17 5.09777 17C5.54873 17 5.98123 16.8209 6.30011 16.5022C6.61899 16.1834 6.79813 15.7511 6.79813 15.3003C6.79813 14.8496 6.61899 14.4172 6.30011 14.0985C5.98123 13.7797 5.54873 13.6007 5.09777 13.6007ZM13.5996 13.6007C13.1486 13.6007 12.7161 13.7797 12.3972 14.0985C12.0784 14.4172 11.8992 14.8496 11.8992 15.3003C11.8992 15.7511 12.0784 16.1834 12.3972 16.5022C12.7161 16.8209 13.1486 17 13.5996 17C14.0505 17 14.483 16.8209 14.8019 16.5022C15.1208 16.1834 15.2999 15.7511 15.2999 15.3003C15.2999 14.8496 15.1208 14.4172 14.8019 14.0985C14.483 13.7797 14.0505 13.6007 13.5996 13.6007Z" fill="black"/>
</svg>
