<svg id="checkout-img-2" xmlns="http://www.w3.org/2000/svg" width="69" height="23.699" viewBox="0 0 69 23.699">
  <path id="Path_2852" data-name="Path 2852" d="M56.993,23.7H12.007A11.928,11.928,0,0,1,0,11.85,11.928,11.928,0,0,1,12.007,0H56.993A11.928,11.928,0,0,1,69,11.85,11.928,11.928,0,0,1,56.993,23.7Z" fill="#b2fce4"/>
  <path id="Path_2853" data-name="Path 2853" d="M59.078,9.2l-1.51-.853-1.531-.865a1.521,1.521,0,0,0-2.278,1.3V8.98a.291.291,0,0,0,.153.258l.711.4a.3.3,0,0,0,.441-.254V8.924a.3.3,0,0,1,.449-.258l1.4.792,1.392.788a.293.293,0,0,1,0,.512l-1.392.788-1.4.792a.3.3,0,0,1-.449-.258v-.228a1.519,1.519,0,0,0-2.277-1.3l-1.531.865-1.51.852a1.494,1.494,0,0,0,0,2.605l1.51.852,1.531.866a1.521,1.521,0,0,0,2.277-1.3V15.1a.291.291,0,0,0-.153-.258l-.711-.4a.3.3,0,0,0-.441.254v.461a.3.3,0,0,1-.449.258l-1.4-.792-1.392-.788a.293.293,0,0,1,0-.512l1.392-.788,1.4-.792a.3.3,0,0,1,.449.258v.228a1.519,1.519,0,0,0,2.278,1.3l1.531-.865,1.51-.853A1.494,1.494,0,0,0,59.078,9.2Z"/>
  <path id="Path_2854" data-name="Path 2854" d="M49.174,9.488l-3.534,7.2H44.174L45.5,14,43.415,9.488H44.92l1.335,3.023,1.457-3.023Z"/>
  <path id="Path_2855" data-name="Path 2855" d="M13.838,12.045a1.41,1.41,0,1,0-1.409,1.464A1.406,1.406,0,0,0,13.838,12.045Zm.013,2.558V13.94a2.086,2.086,0,0,1-1.636.745,2.511,2.511,0,0,1-2.5-2.639A2.559,2.559,0,0,1,12.246,9.4a2.083,2.083,0,0,1,1.606.736V9.487h1.274V14.6Z"/>
  <path id="Path_2856" data-name="Path 2856" d="M21.321,13.466c-.445,0-.572-.164-.572-.594V10.6h.82V9.488h-.82V8.239h-1.3V9.488H17.761V8.98c0-.431.166-.594.624-.594h.288V7.4h-.628c-1.078,0-1.588.349-1.588,1.412v.685h-.724V10.6h.724v4h1.3v-4h1.684v2.506c0,1.042.406,1.494,1.462,1.494h.672V13.466Z"/>
  <path id="Path_2857" data-name="Path 2857" d="M26.007,11.585a1.237,1.237,0,0,0-1.287-1.063,1.274,1.274,0,0,0-1.3,1.063Zm-2.6.8a1.284,1.284,0,0,0,1.339,1.188,1.373,1.373,0,0,0,1.222-.663H27.3a2.535,2.535,0,0,1-2.592,1.778,2.538,2.538,0,0,1-2.666-2.631,2.681,2.681,0,0,1,5.362,0,1.6,1.6,0,0,1-.031.327Z"/>
  <path id="Path_2858" data-name="Path 2858" d="M35.714,12.045A1.41,1.41,0,1,0,34.3,13.509,1.427,1.427,0,0,0,35.714,12.045Zm-4.105,4.646v-7.2h1.274v.663a2.07,2.07,0,0,1,1.636-.758,2.532,2.532,0,0,1,2.5,2.64,2.559,2.559,0,0,1-2.53,2.648A2.016,2.016,0,0,1,32.922,14v2.691H31.609Z"/>
  <path id="Path_2859" data-name="Path 2859" d="M41.613,12.045A1.41,1.41,0,1,0,40.2,13.509,1.406,1.406,0,0,0,41.613,12.045Zm.013,2.558V13.94a2.086,2.086,0,0,1-1.636.745,2.511,2.511,0,0,1-2.5-2.639A2.559,2.559,0,0,1,40.02,9.4a2.083,2.083,0,0,1,1.606.736V9.487H42.9V14.6Z"/>
  <path id="Path_2860" data-name="Path 2860" d="M29.309,9.987a1.368,1.368,0,0,1,1.68-.478v1.3a1.653,1.653,0,0,0-.921-.233.9.9,0,0,0-.72.99V14.6H28.031V9.488h1.274v.5Z"/>
</svg>
