<svg width="55" height="55" viewBox="0 0 55 55" fill="none" xmlns="http://www.w3.org/2000/svg">
<g clip-path="url(#clip0_1545:345)">
<path d="M27.4989 54.9997C12.3354 54.9997 0 42.6622 0 27.4986C0 12.3351 12.3354 -0.00244141 27.4989 -0.00244141C42.6625 -0.00244141 55 12.3351 55 27.4986C55 42.6622 42.6625 54.9997 27.4989 54.9997ZM27.4989 1.4369C22.3444 1.4369 17.3057 2.96539 13.0198 5.82909C8.73401 8.69279 5.39361 12.7631 3.42106 17.5252C1.44851 22.2874 0.932414 27.5275 1.93801 32.583C2.94361 37.6385 5.42574 42.2822 9.07054 45.927C12.7153 49.5718 17.3591 52.054 22.4146 53.0596C27.47 54.0651 32.7102 53.549 37.4723 51.5765C42.2345 49.6039 46.3048 46.2635 49.1685 41.9777C52.0322 37.6919 53.5607 32.6531 53.5607 27.4986C53.5523 20.5892 50.8039 13.9651 45.9181 9.07942C41.0324 4.19371 34.4084 1.44525 27.4989 1.4369V1.4369Z" fill="#80C5EF"/>
<path d="M30.1299 23.0316H24.8691C24.4368 23.0311 24.0223 22.8591 23.7166 22.5533C23.4108 22.2476 23.2388 21.8331 23.2383 21.4008V19.7594C23.2383 19.5686 23.3141 19.3855 23.4491 19.2505C23.584 19.1156 23.7671 19.0398 23.958 19.0398C24.1488 19.0398 24.3319 19.1156 24.4668 19.2505C24.6018 19.3855 24.6776 19.5686 24.6776 19.7594V21.4008C24.6776 21.4516 24.6978 21.5003 24.7337 21.5362C24.7696 21.5721 24.8183 21.5923 24.8691 21.5923H30.1299C30.1806 21.5923 30.2294 21.5721 30.2653 21.5362C30.3012 21.5003 30.3213 21.4516 30.3213 21.4008V19.6205C30.3213 19.4297 30.3972 19.2466 30.5321 19.1117C30.6671 18.9767 30.8501 18.9009 31.041 18.9009C31.2319 18.9009 31.4149 18.9767 31.5499 19.1117C31.6849 19.2466 31.7607 19.4297 31.7607 19.6205V21.4008C31.7601 21.8331 31.5881 22.2476 31.2824 22.5533C30.9767 22.8591 30.5622 23.0311 30.1299 23.0316V23.0316Z" fill="#80C5EF"/>
<path d="M28.5099 25.8469H26.4877C25.8845 25.8464 25.3063 25.6065 24.8798 25.18C24.4533 24.7536 24.2135 24.1753 24.2129 23.5722V22.8336C24.2117 22.574 24.2559 22.3162 24.3434 22.0718C24.3713 21.9784 24.418 21.8917 24.4805 21.8168C24.543 21.742 24.6201 21.6807 24.707 21.6366C24.7939 21.5924 24.8889 21.5664 24.9862 21.5601C25.0835 21.5538 25.1811 21.5673 25.273 21.5999C25.3649 21.6324 25.4492 21.6833 25.5209 21.7494C25.5925 21.8155 25.65 21.8955 25.6898 21.9845C25.7296 22.0735 25.7509 22.1697 25.7524 22.2671C25.7539 22.3646 25.7356 22.4614 25.6985 22.5516C25.6672 22.6423 25.6515 22.7376 25.6523 22.8336V23.5722C25.6523 23.7954 25.7409 24.0095 25.8988 24.1674C26.0566 24.3252 26.2707 24.4139 26.494 24.4139H28.5162C28.7394 24.4139 28.9535 24.3252 29.1114 24.1674C29.2692 24.0095 29.3579 23.7954 29.3579 23.5722V22.8336C29.3587 22.7376 29.343 22.6423 29.3116 22.5516C29.2586 22.3746 29.2757 22.1841 29.3593 22.0193C29.4429 21.8546 29.5867 21.7284 29.7609 21.6667C29.935 21.6051 30.1262 21.6127 30.2948 21.6881C30.4634 21.7636 30.5966 21.9009 30.6668 22.0718C30.7533 22.3165 30.7974 22.5741 30.7972 22.8336V23.5722C30.797 23.8719 30.7375 24.1686 30.6223 24.4453C30.5071 24.722 30.3384 24.9732 30.1259 25.1845C29.9134 25.3959 29.6612 25.5632 29.3839 25.6768C29.1066 25.7905 28.8096 25.8483 28.5099 25.8469V25.8469Z" fill="#80C5EF"/>
<path d="M31.04 20.3401C30.8491 20.3401 30.6661 20.2643 30.5311 20.1293C30.3961 19.9944 30.3203 19.8113 30.3203 19.6204C30.3203 19.4296 30.3961 19.2465 30.5311 19.1116C30.6661 18.9766 30.8491 18.9008 31.04 18.9008C31.5242 18.9002 31.9885 18.7076 32.3309 18.3652C32.6733 18.0228 32.866 17.5585 32.8665 17.0742V10.7929C32.8665 10.602 32.9423 10.419 33.0773 10.284C33.2123 10.1491 33.3953 10.0732 33.5862 10.0732C33.7771 10.0732 33.9601 10.1491 34.0951 10.284C34.23 10.419 34.3059 10.602 34.3059 10.7929V17.0742C34.3047 17.9401 33.9603 18.7701 33.3481 19.3823C32.7358 19.9946 31.9058 20.339 31.04 20.3401V20.3401Z" fill="#80C5EF"/>
<path d="M31.0402 20.3401H23.9592C23.0932 20.3395 22.2629 19.9953 21.6505 19.3829C21.0382 18.7706 20.6939 17.9402 20.6934 17.0742V10.7929C20.6934 10.602 20.7692 10.419 20.9041 10.284C21.0391 10.1491 21.2222 10.0732 21.413 10.0732C21.6039 10.0732 21.787 10.1491 21.9219 10.284C22.0569 10.419 22.1327 10.602 22.1327 10.7929V17.0742C22.1332 17.5585 22.3259 18.0228 22.6683 18.3652C23.0107 18.7076 23.475 18.9002 23.9592 18.9008H31.0402C31.2311 18.9008 31.4141 18.9766 31.5491 19.1116C31.684 19.2465 31.7598 19.4296 31.7598 19.6204C31.7598 19.8113 31.684 19.9944 31.5491 20.1293C31.4141 20.2643 31.2311 20.3401 31.0402 20.3401V20.3401Z" fill="#80C5EF"/>
<path d="M27.4999 39.4616C25.47 39.4608 23.5057 38.7428 21.9538 37.4342C20.402 36.1257 19.3624 34.3109 19.0188 32.3103C18.6752 30.3096 19.0495 28.252 20.0758 26.5006C21.1021 24.7492 22.7142 23.4169 24.6275 22.7388C24.8075 22.6751 25.0054 22.6856 25.1777 22.7679C25.3499 22.8502 25.4824 22.9975 25.5461 23.1775C25.6097 23.3575 25.5992 23.5554 25.5169 23.7276C25.4346 23.8999 25.2873 24.0324 25.1073 24.096C23.5133 24.6604 22.17 25.7699 21.3149 27.2287C20.4598 28.6875 20.1478 30.4016 20.4341 32.0682C20.7203 33.7347 21.5865 35.2465 22.8794 36.3362C24.1724 37.426 25.8089 38.0237 27.4999 38.0237C29.1909 38.0237 30.8274 37.426 32.1204 36.3362C33.4133 35.2465 34.2794 33.7347 34.5657 32.0682C34.852 30.4016 34.54 28.6875 33.6849 27.2287C32.8298 25.7699 31.4865 24.6604 29.8925 24.096C29.7125 24.0321 29.5653 23.8994 29.4832 23.7269C29.4011 23.5544 29.3909 23.3564 29.4548 23.1765C29.5187 22.9965 29.6515 22.8492 29.8239 22.7672C29.9964 22.6851 30.1944 22.6749 30.3744 22.7388C32.2878 23.4169 33.9001 24.7495 34.9264 26.501C35.9526 28.2526 36.3268 30.3105 35.9829 32.3113C35.639 34.312 34.5991 36.1269 33.0469 37.4352C31.4947 38.7436 29.53 39.4613 27.4999 39.4616V39.4616Z" fill="#80C5EF"/>
<path d="M19.029 35.588C18.8536 35.5877 18.6843 35.5235 18.553 35.4072C18.4216 35.291 18.3372 35.1308 18.3157 34.9567C18.1565 33.8075 18.4508 32.6415 19.1363 31.7055C19.1879 31.6205 19.2566 31.547 19.338 31.4898C19.4193 31.4326 19.5117 31.3929 19.6092 31.3731C19.7068 31.3534 19.8073 31.3542 19.9045 31.3753C20.0017 31.3964 20.0935 31.4374 20.1741 31.4958C20.2546 31.5542 20.3222 31.6286 20.3726 31.7144C20.4229 31.8003 20.4549 31.8956 20.4665 31.9944C20.4782 32.0932 20.4692 32.1933 20.4402 32.2885C20.4111 32.3836 20.3627 32.4718 20.2979 32.5472C20.0978 32.8193 19.9448 33.123 19.8455 33.4458C19.7166 33.8687 19.6814 34.3146 19.7424 34.7526C19.7682 34.9417 19.718 35.1333 19.6029 35.2855C19.4877 35.4378 19.3169 35.5382 19.1279 35.5648L19.029 35.588Z" fill="#80C5EF"/>
<path d="M27.0865 41.3831C25.5507 41.4021 24.0336 41.0452 22.6674 40.3435C21.0556 39.4913 19.6772 38.0667 18.6819 36.2212C18.6064 36.0553 18.5966 35.867 18.6545 35.6942C18.7125 35.5214 18.8338 35.377 18.9941 35.2902C19.1544 35.2034 19.3416 35.1806 19.518 35.2265C19.6944 35.2723 19.8468 35.3834 19.9445 35.5373C20.8157 37.1534 21.9583 38.3402 23.3366 39.0704C27.3011 41.1642 33.17 39.4408 37.6058 34.8766C37.7389 34.7396 37.921 34.661 38.112 34.6583C38.303 34.6555 38.4873 34.7287 38.6243 34.8618C38.7613 34.995 38.8398 35.177 38.8426 35.368C38.8454 35.559 38.7721 35.7433 38.639 35.8803C35.1943 39.4282 30.9037 41.3831 27.0865 41.3831Z" fill="#80C5EF"/>
<path d="M36.1207 35.8256C35.9789 35.8254 35.8404 35.7832 35.7225 35.7045C35.6046 35.6258 35.5125 35.5141 35.4579 35.3832C35.4033 35.2524 35.3885 35.1084 35.4155 34.9692C35.4424 34.83 35.5098 34.7019 35.6093 34.6009C36.6177 33.5833 37.432 32.3903 38.0124 31.0804C38.3594 30.2957 38.6184 29.4749 38.7847 28.6331C38.8221 28.4459 38.9323 28.2812 39.0912 28.1752C39.1698 28.1228 39.258 28.0863 39.3508 28.0679C39.4435 28.0496 39.539 28.0496 39.6317 28.0681C39.7244 28.0867 39.8125 28.1232 39.8911 28.1758C39.9697 28.2284 40.0371 28.296 40.0896 28.3746C40.142 28.4533 40.1785 28.5415 40.1969 28.6342C40.2153 28.727 40.2152 28.8224 40.1967 28.9151C39.694 31.4495 38.4539 33.7789 36.632 35.611C36.5653 35.679 36.4858 35.733 36.398 35.7699C36.3102 35.8067 36.2159 35.8257 36.1207 35.8256V35.8256Z" fill="#80C5EF"/>
<path d="M39.1297 34.9143C38.9738 34.9148 38.8222 34.8638 38.6983 34.7691C38.6229 34.7122 38.5594 34.641 38.5115 34.5595C38.4635 34.4781 38.4321 34.388 38.419 34.2944C38.406 34.2008 38.4114 34.1055 38.4352 34.014C38.4589 33.9225 38.5004 33.8366 38.5573 33.7612C40.2143 31.5689 41.3089 29.004 41.7453 26.2909C41.758 26.1956 41.7897 26.1038 41.8386 26.0209C41.8874 25.9381 41.9523 25.8658 42.0295 25.8085C42.1067 25.7511 42.1946 25.7098 42.288 25.687C42.3814 25.6642 42.4785 25.6604 42.5734 25.6757C42.6683 25.691 42.7592 25.7252 42.8407 25.7763C42.9222 25.8273 42.9926 25.8942 43.0479 25.9729C43.1031 26.0517 43.142 26.1407 43.1622 26.2347C43.1824 26.3287 43.1836 26.4258 43.1657 26.5203C42.693 29.4652 41.5052 32.2491 39.7063 34.6281C39.6387 34.7171 39.5516 34.7892 39.4515 34.8389C39.3515 34.8885 39.2414 34.9143 39.1297 34.9143V34.9143Z" fill="#80C5EF"/>
<path d="M33.5161 26.4723C33.3676 26.4722 33.2228 26.4262 33.1015 26.3406C32.9802 26.2549 32.8883 26.1338 32.8385 25.9939C32.7887 25.854 32.7835 25.7021 32.8234 25.5591C32.8633 25.4161 32.9465 25.2889 33.0616 25.195C33.3554 24.956 33.6632 24.7346 33.9833 24.5322C34.3391 24.307 34.7096 24.1059 35.0923 23.9303C35.2645 23.8572 35.4585 23.854 35.633 23.9214C35.8076 23.9889 35.949 24.1217 36.0273 24.2917C36.1056 24.4616 36.1146 24.6554 36.0524 24.8319C35.9902 25.0084 35.8616 25.1538 35.6941 25.2371C35.3696 25.3873 35.0553 25.5588 34.7535 25.7505C34.4823 25.9232 34.221 26.1107 33.9707 26.3124C33.8424 26.417 33.6816 26.4735 33.5161 26.4723V26.4723Z" fill="#80C5EF"/>
<path d="M33.5599 25.1189C33.4067 25.1206 33.2569 25.0733 33.1325 24.9839C33.0082 24.8944 32.9157 24.7675 32.8686 24.6216C32.8216 24.4758 32.8225 24.3188 32.8711 24.1735C32.9198 24.0282 33.0137 23.9023 33.139 23.8142C34.3777 22.9346 35.7859 22.3226 37.274 22.0171C37.3674 21.9961 37.464 21.9939 37.5582 22.0106C37.6525 22.0274 37.7424 22.0628 37.8228 22.1147C37.9032 22.1667 37.9724 22.2342 38.0264 22.3132C38.0804 22.3922 38.1181 22.4812 38.1373 22.575C38.1565 22.6688 38.1568 22.7655 38.1381 22.8593C38.1195 22.9532 38.0823 23.0424 38.0287 23.1218C37.9752 23.2011 37.9064 23.269 37.8263 23.3214C37.7462 23.3738 37.6564 23.4097 37.5623 23.427C36.2706 23.6926 35.0481 24.2236 33.9724 24.9863C33.8519 25.072 33.7078 25.1184 33.5599 25.1189V25.1189Z" fill="#80C5EF"/>
</g>
<defs>
<clipPath id="clip0_1545:345">
<rect width="55" height="55" fill="white"/>
</clipPath>
</defs>
</svg>
