<svg width="25" height="25" viewBox="0 0 25 25" fill="none" xmlns="http://www.w3.org/2000/svg">
<circle cx="12.5" cy="12.5" r="12" stroke="#767474"/>
<path d="M6.79625 8.37988C6.35984 8.37988 6 8.71402 6 9.11926V15.9199C6 16.3515 6.37516 16.6999 6.84 16.6999H7.98625C8.11969 17.4372 8.80984 17.9999 9.64 17.9999C10.4702 17.9999 11.1603 17.4372 11.2937 16.6999H13.8837C14.0905 16.6999 14.2753 16.6186 14.4175 16.4968C14.563 16.6156 14.7489 16.6979 14.96 16.6999H15.2662C15.3997 17.4372 16.0898 17.9999 16.92 17.9999C17.8442 17.9999 18.6 17.2981 18.6 16.4399C18.6 15.5817 17.8442 14.8799 16.92 14.8799C16.0898 14.8799 15.3997 15.4425 15.2662 16.1799H14.96C14.9075 16.1799 14.8277 16.1464 14.7675 16.0905C14.7073 16.0346 14.68 15.9676 14.68 15.9199V10.9799C14.68 10.8824 14.855 10.7199 14.96 10.7199H17.2C17.4198 10.7199 17.7294 10.9382 17.9438 11.1749C17.9459 11.1779 17.9503 11.18 17.9525 11.183L17.9963 11.2399H16.64C16.1938 11.2399 15.8 11.575 15.8 12.0199V13.0599C15.8 13.2762 15.905 13.4661 16.0538 13.6043C16.2025 13.7424 16.407 13.8399 16.64 13.8399H19.44V15.9199C19.44 16.0174 19.265 16.1799 19.16 16.1799H18.6V16.6999H19.16C19.6248 16.6999 20 16.3515 20 15.9199V13.4174C20 12.8222 19.5538 12.2961 19.5538 12.2961H19.545L18.39 10.8661V10.858L18.3813 10.8499C18.1231 10.5604 17.7359 10.1999 17.2 10.1999H14.96C14.8605 10.1999 14.7686 10.2192 14.68 10.2486V9.13551C14.68 8.73637 14.3409 8.37988 13.8925 8.37988H6.79625ZM6.79625 8.89988H13.8925C14.0128 8.89988 14.12 9.00754 14.12 9.13551V15.9605C14.12 16.0824 14.0161 16.1799 13.8837 16.1799H11.2937C11.1603 15.4425 10.4702 14.8799 9.64 14.8799C8.80984 14.8799 8.11969 15.4425 7.98625 16.1799H6.84C6.735 16.1799 6.56 16.0164 6.56 15.9199V9.11926C6.56 8.99738 6.66281 8.89988 6.79625 8.89988ZM16.64 11.7599H18.4163L19.0988 12.6049C19.0988 12.6049 19.3525 13.0081 19.405 13.3199H16.64C16.593 13.3199 16.5175 13.2874 16.4563 13.2305C16.395 13.1736 16.36 13.1036 16.36 13.0599V12.0199C16.36 11.8889 16.5262 11.7599 16.64 11.7599ZM9.64 15.3999C10.2623 15.3999 10.76 15.862 10.76 16.4399C10.76 17.0178 10.2623 17.4799 9.64 17.4799C9.01766 17.4799 8.52 17.0178 8.52 16.4399C8.52 15.862 9.01766 15.3999 9.64 15.3999ZM16.92 15.3999C17.5423 15.3999 18.04 15.862 18.04 16.4399C18.04 17.0178 17.5423 17.4799 16.92 17.4799C16.2977 17.4799 15.8 17.0178 15.8 16.4399C15.8 15.862 16.2977 15.3999 16.92 15.3999Z" fill="#767474"/>
</svg>
