<svg width="65" height="65" viewBox="0 0 65 65" fill="none" xmlns="http://www.w3.org/2000/svg">
<g clip-path="url(#clip0_1490:160)">
<path d="M32.4983 65.0001C26.07 65.0001 19.786 63.0938 14.4411 59.5224C9.0961 55.951 4.93021 50.8749 2.47019 44.9359C0.0101746 38.9969 -0.633475 32.4618 0.62063 26.157C1.87474 19.8522 4.97027 14.0608 9.51579 9.5153C14.0613 4.96978 19.8526 1.87425 26.1575 0.620142C32.4623 -0.633964 38.9974 0.00968629 44.9364 2.4697C50.8754 4.92972 55.9515 9.09561 59.5229 14.4406C63.0943 19.7855 65.0005 26.0695 65.0005 32.4978C64.9911 41.1151 61.5638 49.3767 55.4705 55.47C49.3772 61.5633 41.1156 64.9907 32.4983 65.0001ZM32.4983 1.33266C26.3334 1.33266 20.3069 3.16084 15.181 6.58599C10.055 10.0112 6.05996 14.8794 3.70094 20.5752C1.34191 26.271 0.724906 32.5384 1.92795 38.5848C3.131 44.6312 6.10005 50.1851 10.4596 54.5441C14.8192 58.9031 20.3735 61.8713 26.4202 63.0735C32.4668 64.2757 38.7341 63.6578 44.4295 61.298C50.1249 58.9381 54.9926 54.9424 58.4171 49.816C61.8415 44.6896 63.6688 38.6628 63.6679 32.4978C63.6585 24.2348 60.3713 16.3131 54.5276 10.4711C48.684 4.62913 40.7613 1.34416 32.4983 1.3371V1.33266Z" fill="black"/>
<path d="M14.8362 57.5062C14.6595 57.5062 14.49 57.436 14.3651 57.3111C14.2401 57.1861 14.1699 57.0167 14.1699 56.8399V45.4151C14.1699 45.2384 14.2401 45.0689 14.3651 44.9439C14.49 44.819 14.6595 44.7488 14.8362 44.7488C15.0129 44.7488 15.1824 44.819 15.3074 44.9439C15.4323 45.0689 15.5025 45.2384 15.5025 45.4151V56.8622C15.4968 57.035 15.424 57.1988 15.2997 57.319C15.1754 57.4392 15.0092 57.5063 14.8362 57.5062Z" fill="black"/>
<path d="M14.8362 39.6626C14.6595 39.6626 14.49 39.5924 14.3651 39.4675C14.2401 39.3425 14.1699 39.1731 14.1699 38.9963V25.4793C14.1699 25.3026 14.2401 25.1331 14.3651 25.0081C14.49 24.8832 14.6595 24.813 14.8362 24.813C15.0129 24.813 15.1824 24.8832 15.3074 25.0081C15.4323 25.1331 15.5025 25.3026 15.5025 25.4793V38.9963C15.5025 39.1731 15.4323 39.3425 15.3074 39.4675C15.1824 39.5924 15.0129 39.6626 14.8362 39.6626Z" fill="black"/>
<path d="M14.8362 17.977C14.6595 17.977 14.49 17.9068 14.3651 17.7818C14.2401 17.6569 14.1699 17.4874 14.1699 17.3107V6.29448C14.1699 6.11776 14.2401 5.94828 14.3651 5.82333C14.49 5.69837 14.6595 5.62817 14.8362 5.62817C15.0129 5.62817 15.1824 5.69837 15.3074 5.82333C15.4323 5.94828 15.5025 6.11776 15.5025 6.29448V17.3284C15.4979 17.5021 15.4256 17.667 15.3012 17.7881C15.1767 17.9093 15.0099 17.977 14.8362 17.977Z" fill="black"/>
<path d="M50.1722 59.1498C49.9954 59.1498 49.826 59.0796 49.701 58.9546C49.5761 58.8297 49.5059 58.6602 49.5059 58.4835V45.4151C49.5059 45.2384 49.5761 45.0689 49.701 44.9439C49.826 44.819 49.9954 44.7488 50.1722 44.7488C50.3489 44.7488 50.5183 44.819 50.6433 44.9439C50.7683 45.0689 50.8385 45.2384 50.8385 45.4151V58.4835C50.8385 58.6602 50.7683 58.8297 50.6433 58.9546C50.5183 59.0796 50.3489 59.1498 50.1722 59.1498Z" fill="black"/>
<path d="M50.1722 39.6626C49.9954 39.6626 49.826 39.5924 49.701 39.4675C49.5761 39.3425 49.5059 39.1731 49.5059 38.9963V25.4793C49.5059 25.3026 49.5761 25.1331 49.701 25.0081C49.826 24.8832 49.9954 24.813 50.1722 24.813C50.3489 24.813 50.5183 24.8832 50.6433 25.0081C50.7683 25.1331 50.8385 25.3026 50.8385 25.4793V38.9963C50.8385 39.1731 50.7683 39.3425 50.6433 39.4675C50.5183 39.5924 50.3489 39.6626 50.1722 39.6626Z" fill="black"/>
<path d="M50.1716 17.9769C49.9987 17.9758 49.833 17.9076 49.7095 17.7866C49.586 17.6655 49.5144 17.5013 49.5098 17.3284V5.86357C49.5098 5.68685 49.58 5.51737 49.7049 5.39242C49.8299 5.26746 49.9994 5.19727 50.1761 5.19727C50.3528 5.19727 50.5223 5.26746 50.6472 5.39242C50.7722 5.51737 50.8424 5.68685 50.8424 5.86357V17.3284C50.8377 17.5028 50.7649 17.6684 50.6395 17.7897C50.5141 17.9109 50.3461 17.9782 50.1716 17.9769Z" fill="black"/>
<path d="M32.7288 64.5646C32.5521 64.5646 32.3826 64.4944 32.2577 64.3695C32.1327 64.2445 32.0625 64.075 32.0625 63.8983V57.8616C32.0625 57.6849 32.1327 57.5154 32.2577 57.3905C32.3826 57.2655 32.5521 57.1953 32.7288 57.1953C32.9055 57.1953 33.075 57.2655 33.2 57.3905C33.3249 57.5154 33.3951 57.6849 33.3951 57.8616V63.8983C33.3951 64.075 33.3249 64.2445 33.2 64.3695C33.075 64.4944 32.9055 64.5646 32.7288 64.5646Z" fill="black"/>
<path d="M32.7288 52.5801C32.5521 52.5801 32.3826 52.5099 32.2577 52.3849C32.1327 52.2599 32.0625 52.0905 32.0625 51.9138V34.9764C32.0625 34.7996 32.1327 34.6302 32.2577 34.5052C32.3826 34.3803 32.5521 34.3101 32.7288 34.3101C32.9055 34.3101 33.075 34.3803 33.2 34.5052C33.3249 34.6302 33.3951 34.7996 33.3951 34.9764V51.9138C33.3951 52.0905 33.3249 52.2599 33.2 52.3849C33.075 52.5099 32.9055 52.5801 32.7288 52.5801Z" fill="black"/>
<path d="M32.7288 29.2239C32.5521 29.2239 32.3826 29.1537 32.2577 29.0288C32.1327 28.9038 32.0625 28.7343 32.0625 28.5576V15.0406C32.0625 14.8639 32.1327 14.6944 32.2577 14.5694C32.3826 14.4445 32.5521 14.3743 32.7288 14.3743C32.9055 14.3743 33.075 14.4445 33.2 14.5694C33.3249 14.6944 33.3951 14.8639 33.3951 15.0406V28.5576C33.3951 28.7343 33.3249 28.9038 33.2 29.0288C33.075 29.1537 32.9055 29.2239 32.7288 29.2239Z" fill="black"/>
<path d="M32.7288 8.74189C32.5521 8.74189 32.3826 8.67169 32.2577 8.54673C32.1327 8.42177 32.0625 8.25231 32.0625 8.07559V0.666302C32.0625 0.489588 32.1327 0.320121 32.2577 0.195165C32.3826 0.0702091 32.5521 0 32.7288 0C32.9055 0 33.075 0.0702091 33.2 0.195165C33.3249 0.320121 33.3951 0.489588 33.3951 0.666302V8.07559C33.3951 8.25231 33.3249 8.42177 33.2 8.54673C33.075 8.67169 32.9055 8.74189 32.7288 8.74189Z" fill="black"/>
<path d="M15.218 22.0991H14.2319C10.7227 22.0991 8.3018 19.9803 6.16519 18.1013C5.77874 17.7593 5.39671 17.4261 5.0147 17.1108C4.94703 17.0551 4.891 16.9866 4.84981 16.9092C4.80861 16.8318 4.78305 16.7471 4.7746 16.6599C4.76614 16.5726 4.77496 16.4846 4.80053 16.4008C4.8261 16.3169 4.86794 16.2389 4.92364 16.1713C4.97935 16.1036 5.04785 16.0476 5.12521 16.0064C5.20257 15.9652 5.28729 15.9396 5.37453 15.9312C5.46177 15.9227 5.54982 15.9315 5.63365 15.9571C5.71749 15.9827 5.79546 16.0245 5.86313 16.0802C6.25402 16.4045 6.64492 16.7465 7.0447 17.0974C9.09691 18.8965 11.2246 20.7532 14.2319 20.7532H15.218C18.2253 20.7532 20.3485 18.8965 22.4052 17.0974C24.2575 15.4761 26.0077 13.9436 28.2553 13.9436C28.432 13.9436 28.6015 14.0138 28.7265 14.1388C28.8514 14.2637 28.9216 14.4332 28.9216 14.6099C28.9216 14.7866 28.8514 14.9561 28.7265 15.0811C28.6015 15.206 28.432 15.2762 28.2553 15.2762C26.5096 15.2762 25.0127 16.5822 23.2803 18.1013C21.1481 19.9936 18.7272 22.0991 15.218 22.0991Z" fill="black"/>
<path d="M50.555 22.0991H49.5689C46.0597 22.0991 43.6388 19.9803 41.5066 18.1013C39.7742 16.5822 38.2772 15.2762 36.5315 15.2762C36.3548 15.2762 36.1853 15.206 36.0604 15.0811C35.9354 14.9561 35.8652 14.7866 35.8652 14.6099C35.8652 14.4332 35.9354 14.2637 36.0604 14.1388C36.1853 14.0138 36.3548 13.9436 36.5315 13.9436C38.7792 13.9436 40.5294 15.4761 42.3817 17.0974C44.4383 18.8965 46.5616 20.7532 49.5689 20.7532H50.555C53.5622 20.7532 55.6855 18.8965 57.7422 17.0974C58.2086 16.6888 58.6306 16.3023 59.1059 15.9336C59.2431 15.8223 59.419 15.7701 59.5947 15.7884C59.7705 15.8067 59.9318 15.8941 60.0431 16.0313C60.1545 16.1686 60.2067 16.3445 60.1884 16.5202C60.17 16.696 60.0826 16.8573 59.9454 16.9686C59.5012 17.3195 59.057 17.7015 58.6128 18.1013C56.4851 19.9936 54.0642 22.0991 50.555 22.0991Z" fill="black"/>
<path d="M21.5486 62.7212C21.45 62.7208 21.3528 62.6987 21.2637 62.6565C21.1746 62.6143 21.096 62.5529 21.0333 62.4769C20.9774 62.4094 20.9354 62.3315 20.9098 62.2477C20.8841 62.164 20.8754 62.0759 20.8841 61.9887C20.8928 61.9015 20.9187 61.8169 20.9603 61.7398C21.0019 61.6627 21.0585 61.5947 21.1266 61.5396C21.5708 61.1798 21.9884 60.8067 22.4059 60.4424C24.2582 58.8211 26.0084 57.2886 28.256 57.2886C28.4327 57.2886 28.6022 57.3588 28.7272 57.4837C28.8521 57.6087 28.9223 57.7782 28.9223 57.9549C28.9223 58.1316 28.8521 58.3011 28.7272 58.426C28.6022 58.551 28.4327 58.6212 28.256 58.6212C26.5103 58.6212 25.0134 59.9271 23.281 61.4463C22.8368 61.8194 22.4192 62.197 21.9706 62.5657C21.852 62.6645 21.7029 62.7194 21.5486 62.7212Z" fill="black"/>
<path d="M43.2392 62.7212C43.0842 62.7229 42.934 62.6676 42.8172 62.5657C42.373 62.197 41.9288 61.8194 41.4846 61.4463C39.7566 59.9271 38.2597 58.6212 36.514 58.6212C36.3372 58.6212 36.1678 58.551 36.0428 58.426C35.9179 58.3011 35.8477 58.1316 35.8477 57.9549C35.8477 57.7782 35.9179 57.6087 36.0428 57.4837C36.1678 57.3588 36.3372 57.2886 36.514 57.2886C38.7572 57.2886 40.5118 58.8211 42.3641 60.4424C42.7817 60.8067 43.2036 61.1798 43.6434 61.5396C43.7512 61.6278 43.8287 61.7477 43.8649 61.8822C43.9011 62.0168 43.8941 62.1593 43.8451 62.2897C43.7961 62.4201 43.7074 62.5319 43.5915 62.6093C43.4757 62.6867 43.3385 62.7258 43.1992 62.7212H43.2392Z" fill="black"/>
<path d="M33.555 32.9553H32.5688C29.0596 32.9553 26.6432 30.8365 24.5066 28.9575C22.7742 27.4384 21.2772 26.1324 19.5315 26.1324C19.3548 26.1324 19.1853 26.0622 19.0604 25.9372C18.9354 25.8123 18.8652 25.6428 18.8652 25.4661C18.8652 25.2894 18.9354 25.1199 19.0604 24.995C19.1853 24.87 19.3548 24.7998 19.5315 24.7998C21.7792 24.7998 23.5293 26.3323 25.3861 27.9536C27.4383 29.7527 29.5616 31.6094 32.5688 31.6094H33.555C36.5667 31.6094 38.6899 29.7527 40.7422 27.9536C42.5989 26.3323 44.3491 24.7998 46.5967 24.7998C46.7734 24.7998 46.9429 24.87 47.0679 24.995C47.1928 25.1199 47.263 25.2894 47.263 25.4661C47.263 25.6428 47.1928 25.8123 47.0679 25.9372C46.9429 26.0622 46.7734 26.1324 46.5967 26.1324C44.851 26.1324 43.3541 27.4384 41.6217 28.9575C39.4851 30.8365 37.073 32.9553 33.555 32.9553Z" fill="black"/>
<path d="M63.7568 32.0313C63.6519 32.0315 63.5485 32.0072 63.4547 31.9602C61.9851 31.1342 60.623 30.1302 59.3992 28.9707C57.6668 27.4515 56.1698 26.1456 54.4241 26.1456C54.2474 26.1456 54.0779 26.0754 53.953 25.9504C53.828 25.8255 53.7578 25.656 53.7578 25.4793C53.7578 25.3026 53.828 25.1331 53.953 25.0081C54.0779 24.8832 54.2474 24.813 54.4241 24.813C56.6673 24.813 58.4219 26.3455 60.2742 27.9668C61.416 29.0529 62.6871 29.9943 64.0588 30.7697C64.193 30.8372 64.3004 30.948 64.3637 31.0843C64.427 31.2205 64.4424 31.374 64.4074 31.5201C64.3724 31.6662 64.2892 31.7961 64.1711 31.8889C64.053 31.9817 63.907 32.0319 63.7568 32.0313Z" fill="black"/>
<path d="M1.09298 32.0093C0.943612 32.0099 0.798368 31.9604 0.680553 31.8686C0.562738 31.7767 0.479189 31.648 0.443324 31.503C0.407458 31.358 0.421346 31.2052 0.482772 31.069C0.544198 30.9329 0.649591 30.8213 0.782033 30.7522C2.13015 29.9812 3.38258 29.0538 4.51334 27.9893C6.36566 26.3679 8.1158 24.8354 10.3635 24.8354C10.5402 24.8354 10.7097 24.9056 10.8346 25.0306C10.9596 25.1556 11.0298 25.325 11.0298 25.5018C11.0298 25.6785 10.9596 25.8479 10.8346 25.9729C10.7097 26.0979 10.5402 26.1681 10.3635 26.1681C8.61775 26.1681 7.1208 27.474 5.38841 28.9932C4.1818 30.1403 2.8392 31.1354 1.3906 31.956C1.29729 31.998 1.19506 32.0163 1.09298 32.0093Z" fill="black"/>
<path d="M58.786 50.1325C58.6246 50.1377 58.4667 50.084 58.3418 49.9815C57.2269 49.0709 56.0009 48.2269 54.6194 48.2269C54.4427 48.2269 54.2732 48.1567 54.1483 48.0317C54.0233 47.9068 53.9531 47.7373 53.9531 47.5606C53.9531 47.3839 54.0233 47.2144 54.1483 47.0894C54.2732 46.9645 54.4427 46.8943 54.6194 46.8943C56.4229 46.8943 57.9421 47.9337 59.1858 48.9509C59.2937 49.0392 59.3711 49.159 59.4073 49.2936C59.4435 49.4281 59.4365 49.5706 59.3875 49.701C59.3385 49.8315 59.2498 49.9432 59.1339 50.0206C59.0181 50.098 58.8809 50.1372 58.7416 50.1325H58.786Z" fill="black"/>
<path d="M6.20054 50.3235C6.06234 50.327 5.92649 50.2874 5.81181 50.2102C5.69713 50.133 5.6093 50.022 5.56049 49.8927C5.51168 49.7633 5.50431 49.622 5.5394 49.4883C5.57449 49.3546 5.65031 49.2351 5.75633 49.1464C7.15557 47.9737 8.70584 46.8943 10.5626 46.8943C10.7393 46.8943 10.9088 46.9645 11.0337 47.0894C11.1587 47.2144 11.2289 47.3839 11.2289 47.5606C11.2289 47.7373 11.1587 47.9068 11.0337 48.0317C10.9088 48.1567 10.7393 48.2269 10.5626 48.2269C9.22999 48.2269 8.004 48.9998 6.60921 50.168C6.49509 50.2656 6.35065 50.3206 6.20054 50.3235Z" fill="black"/>
<path d="M33.555 11.2427H32.5688C29.0596 11.2427 26.6432 9.12385 24.5066 7.24488C22.7742 5.72571 21.2772 4.41976 19.5315 4.41976C19.3548 4.41976 19.1853 4.34957 19.0604 4.22461C18.9354 4.09966 18.8652 3.93017 18.8652 3.75346C18.8652 3.57675 18.9354 3.40727 19.0604 3.28231C19.1853 3.15735 19.3548 3.08716 19.5315 3.08716C21.7792 3.08716 23.5293 4.61966 25.3861 6.24099C27.4383 8.04001 29.5616 9.89676 32.5688 9.89676H33.555C36.5667 9.89676 38.6899 8.04001 40.7422 6.24099C42.3946 4.79289 43.9582 3.42475 45.8727 3.13158C46.0494 3.10507 46.2294 3.14985 46.3731 3.25607C46.5168 3.36228 46.6124 3.52122 46.6389 3.69794C46.6654 3.87465 46.6207 4.05465 46.5144 4.19835C46.4082 4.34205 46.2493 4.43768 46.0726 4.46419C44.5445 4.69073 43.1231 5.93449 41.6306 7.24932C39.4851 9.12385 37.073 11.2427 33.555 11.2427Z" fill="black"/>
<path d="M15.219 42.5589H14.2329C10.7237 42.5589 8.30282 40.4401 6.16621 38.5611C4.43383 37.0419 2.94131 35.7315 1.1956 35.7315C1.01888 35.7315 0.849404 35.6613 0.724448 35.5364C0.599492 35.4114 0.529297 35.2419 0.529297 35.0652C0.529297 34.8885 0.599492 34.719 0.724448 34.5941C0.849404 34.4691 1.01888 34.3989 1.1956 34.3989C3.41661 34.3989 5.1934 35.9359 7.04572 37.5572C9.09793 39.3562 11.2257 41.213 14.2329 41.213H15.219C18.2263 41.213 20.3496 39.3562 22.4062 37.5572C24.2585 35.9359 26.0087 34.3989 28.2563 34.3989C28.4331 34.3989 28.6025 34.4691 28.7275 34.5941C28.8524 34.719 28.9226 34.8885 28.9226 35.0652C28.9226 35.2419 28.8524 35.4114 28.7275 35.5364C28.6025 35.6613 28.4331 35.7315 28.2563 35.7315C26.5106 35.7315 25.0137 37.0641 23.2813 38.5611C21.1491 40.4267 18.7282 42.5589 15.219 42.5589Z" fill="black"/>
<path d="M50.555 42.5589H49.5689C46.0597 42.5589 43.6388 40.4401 41.5066 38.5611C39.7742 37.0419 38.2772 35.7315 36.5315 35.7315C36.3548 35.7315 36.1853 35.6613 36.0604 35.5364C35.9354 35.4114 35.8652 35.2419 35.8652 35.0652C35.8652 34.8885 35.9354 34.719 36.0604 34.5941C36.1853 34.4691 36.3548 34.3989 36.5315 34.3989C38.7792 34.3989 40.5294 35.9359 42.3817 37.5572C44.4383 39.3562 46.5616 41.213 49.5689 41.213H50.555C53.5622 41.213 55.6855 39.3562 57.7422 37.5572C59.5945 35.9359 61.3446 34.3989 63.5923 34.3989C63.769 34.3989 63.9385 34.4691 64.0634 34.5941C64.1884 34.719 64.2586 34.8885 64.2586 35.0652C64.2586 35.2419 64.1884 35.4114 64.0634 35.5364C63.9385 35.6613 63.769 35.7315 63.5923 35.7315C61.8466 35.7315 60.3496 37.0641 58.6172 38.5611C56.4851 40.4267 54.0642 42.5589 50.555 42.5589Z" fill="black"/>
<path d="M33.555 55.503H32.5688C29.0596 55.503 26.6432 53.3842 24.5066 51.5052C22.7742 49.986 21.2772 48.6756 19.5315 48.6756C19.3548 48.6756 19.1853 48.6054 19.0604 48.4805C18.9354 48.3555 18.8652 48.186 18.8652 48.0093C18.8652 47.8326 18.9354 47.6631 19.0604 47.5382C19.1853 47.4132 19.3548 47.343 19.5315 47.343C21.7792 47.343 23.5293 48.8755 25.3861 50.5013C27.4383 52.2781 29.5616 54.1571 32.5688 54.1571H33.555C36.5667 54.1571 38.6899 52.2959 40.7422 50.5013C42.5989 48.8755 44.3491 47.343 46.5967 47.343C46.7734 47.343 46.9429 47.4132 47.0679 47.5382C47.1928 47.6631 47.263 47.8326 47.263 48.0093C47.263 48.186 47.1928 48.3555 47.0679 48.4805C46.9429 48.6054 46.7734 48.6756 46.5967 48.6756C44.851 48.6756 43.3541 49.986 41.6217 51.5052C39.4851 53.3842 37.073 55.503 33.555 55.503Z" fill="black"/>
</g>
<defs>
<clipPath id="clip0_1490:160">
<rect width="65" height="65" fill="white"/>
</clipPath>
</defs>
</svg>
