<svg width="55" height="55" viewBox="0 0 55 55" fill="none" xmlns="http://www.w3.org/2000/svg">
<g clip-path="url(#clip0_1545:392)">
<path d="M13.9437 41.77C13.0167 41.7703 12.1107 41.494 11.3416 40.9765C10.3446 40.2947 9.64677 39.2567 9.39168 38.076C9.13658 36.8953 9.34363 35.6618 9.97022 34.6292C10.394 33.938 10.9906 33.3694 11.7013 32.9793C12.412 32.5891 13.2121 32.3911 14.0226 32.4046L14.4791 31.7391L14.2935 31.6112C14.1345 31.5016 14.0254 31.3333 13.9902 31.1434C13.955 30.9535 13.9966 30.7574 14.1058 30.5981L17.6229 25.4792L15.1232 23.7729C14.8323 23.5745 14.6083 23.2927 14.4808 22.9645C14.3532 22.6363 14.3281 22.2771 14.4087 21.9344C15.2213 18.413 17.8213 14.6357 20.867 12.5498C21.1598 12.3497 21.5062 12.2427 21.8609 12.2427C22.2156 12.2427 22.562 12.3497 22.8548 12.5498L31.3073 18.3576C31.4668 18.467 31.5763 18.6354 31.6117 18.8256C31.6471 19.0158 31.6055 19.2122 31.4961 19.3718C31.3866 19.5313 31.2183 19.6408 31.0281 19.6762C30.8379 19.7116 30.6414 19.67 30.4819 19.5605L22.0294 13.7506C21.9801 13.7169 21.9217 13.6988 21.862 13.6988C21.8022 13.6988 21.7438 13.7169 21.6945 13.7506C18.9218 15.6574 16.5757 19.0828 15.8292 22.282C15.8156 22.3393 15.8197 22.3994 15.841 22.4542C15.8624 22.5091 15.8999 22.5561 15.9486 22.5892L19.0498 24.722C19.1288 24.7763 19.1964 24.8456 19.2486 24.9261C19.3009 25.0065 19.3367 25.0964 19.3541 25.1907C19.3716 25.285 19.3702 25.3818 19.3502 25.4756C19.3302 25.5694 19.2919 25.6583 19.2375 25.7373L15.7225 30.8561L15.9081 30.9841C16.0668 31.0945 16.1756 31.263 16.2107 31.4531C16.2459 31.6432 16.2046 31.8395 16.0958 31.9993L14.991 33.6054C14.9123 33.7072 14.8081 33.7864 14.6891 33.8351C14.57 33.8837 14.4402 33.9002 14.3127 33.8827C13.7062 33.8147 13.0929 33.9208 12.5444 34.1886C11.996 34.4564 11.5352 34.8748 11.2158 35.3948C10.9201 35.8749 10.7554 36.4241 10.738 36.9877C10.7206 37.5513 10.8512 38.1096 11.1168 38.607C11.3824 39.1044 11.7736 39.5235 12.2516 39.8227C12.7296 40.1218 13.2776 40.2904 13.841 40.3118C14.4045 40.3332 14.9637 40.2066 15.463 39.9446C15.9622 39.6826 16.3842 39.2944 16.6867 38.8185C16.9892 38.3427 17.1618 37.7959 17.1872 37.2327C17.2126 36.6694 17.09 36.1093 16.8316 35.6081C16.7713 35.4911 16.7439 35.3598 16.7521 35.2284C16.7604 35.097 16.8041 34.9702 16.8785 34.8616L17.9812 33.2577C18.0353 33.1785 18.1046 33.1107 18.185 33.0583C18.2654 33.0059 18.3554 32.9699 18.4498 32.9525C18.5441 32.9351 18.641 32.9365 18.7349 32.9566C18.8287 32.9768 18.9176 33.0153 18.9965 33.07L19.182 33.1959L22.6991 28.077C22.808 27.9185 22.9751 27.8094 23.164 27.7734C23.353 27.7375 23.5484 27.7776 23.7079 27.8851L26.5852 29.826C26.7391 29.9367 26.8438 30.1029 26.8772 30.2895C26.9106 30.4761 26.8701 30.6684 26.7641 30.8257C26.6582 30.9829 26.4952 31.0927 26.3098 31.1318C26.1243 31.1709 25.9308 31.1363 25.7704 31.0353L23.484 29.506L19.9648 34.6249C19.8548 34.7841 19.6862 34.8932 19.4959 34.9284C19.3057 34.9636 19.1092 34.9219 18.9495 34.8126L18.764 34.6846L18.3076 35.3501C18.5912 36.0615 18.6961 36.8317 18.6128 37.5931C18.5295 38.3545 18.2607 39.0838 17.8299 39.7171C17.3992 40.3504 16.8196 40.8684 16.142 41.2255C15.4645 41.5827 14.7096 41.7682 13.9437 41.7657V41.77Z" fill="#80C5EF"/>
<path d="M37.6351 38.8694C37.2799 38.869 36.9332 38.7603 36.6412 38.558L35.08 37.4916C34.9204 37.3818 34.811 37.2132 34.7758 37.0228C34.7406 36.8324 34.7825 36.6359 34.8923 36.4763C35.002 36.3168 35.1706 36.2074 35.361 36.1722C35.5514 36.137 35.748 36.1789 35.9075 36.2887L37.4666 37.3551C37.5153 37.3885 37.5729 37.4063 37.6319 37.4063C37.6909 37.4063 37.7485 37.3885 37.7972 37.3551C40.5123 35.523 42.8649 32.0955 43.6519 28.8237C43.6663 28.7654 43.6626 28.7042 43.6412 28.6482C43.6199 28.5922 43.5819 28.544 43.5325 28.5101L38.1619 24.8203C38.0024 24.7106 37.893 24.5419 37.8578 24.3515C37.8226 24.1611 37.8645 23.9646 37.9742 23.805C38.084 23.6455 38.2526 23.5361 38.443 23.5009C38.6334 23.4657 38.83 23.5076 38.9895 23.6174L44.3579 27.3072C44.6493 27.5096 44.8731 27.795 45.0002 28.1263C45.1272 28.4577 45.1516 28.8195 45.0703 29.1649C44.2043 32.7673 41.6108 36.5446 38.6248 38.5665C38.3328 38.7645 37.9879 38.8701 37.6351 38.8694V38.8694Z" fill="#80C5EF"/>
<path d="M26.0804 35.3758C25.6957 35.3712 25.3195 35.2628 24.9915 35.0619C24.6635 34.861 24.3959 34.5751 24.2171 34.2345C24.0383 33.894 23.9549 33.5114 23.9758 33.1273C23.9967 32.7432 24.121 32.3719 24.3357 32.0528L27.6203 27.2709C27.9399 26.8071 28.4307 26.4892 28.9846 26.3872C29.5386 26.2852 30.1104 26.4074 30.5743 26.727C31.0381 27.0466 31.356 27.5374 31.458 28.0914C31.56 28.6454 31.4378 29.2172 31.1182 29.681L27.8314 34.4629C27.6355 34.7457 27.3737 34.9766 27.0687 35.1357C26.7636 35.2947 26.4244 35.3771 26.0804 35.3758V35.3758ZM29.3692 27.8105C29.2614 27.8105 29.1551 27.8367 29.0596 27.8868C28.9641 27.937 28.8823 28.0096 28.8211 28.0985L25.5365 32.8803C25.4621 32.9884 25.4215 33.1162 25.4198 33.2474C25.418 33.3786 25.4553 33.5074 25.5267 33.6174C25.5982 33.7275 25.7007 33.8139 25.8213 33.8656C25.9418 33.9174 26.075 33.9323 26.2041 33.9084C26.2901 33.8929 26.3721 33.8605 26.4454 33.8128C26.5186 33.7652 26.5816 33.7034 26.6306 33.6311L29.9152 28.8513C29.9648 28.7796 29.9997 28.6988 30.018 28.6135C30.0363 28.5282 30.0377 28.4402 30.0219 28.3544C29.9939 28.2019 29.9132 28.0641 29.7939 27.9651C29.6746 27.866 29.5243 27.8121 29.3692 27.8126V27.8105Z" fill="#80C5EF"/>
<path d="M38.1996 24.961C36.4485 24.961 34.6185 24.3596 32.7288 23.163L26.1169 23.2099C25.4584 23.2116 24.8256 22.9542 24.3552 22.4933C24.0054 22.1486 23.7657 21.7079 23.6665 21.2269C23.5672 20.746 23.6128 20.2464 23.7975 19.7913C23.9822 19.3363 24.2977 18.9463 24.7041 18.6706C25.1105 18.3949 25.5896 18.2459 26.0807 18.2425L32.7416 18.1956C33.8655 17.6367 35.0893 17.3066 36.3419 17.2246C37.5945 17.1426 38.8508 17.3102 40.0381 17.7178L41.0299 16.9543C41.1834 16.8363 41.3776 16.7842 41.5696 16.8094C41.7616 16.8346 41.9357 16.9351 42.0536 17.0887C42.1716 17.2422 42.2237 17.4364 42.1985 17.6284C42.1733 17.8204 42.0728 17.9945 41.9193 18.1124L40.6182 19.1127C40.5205 19.1873 40.4057 19.2362 40.2842 19.2548C40.1627 19.2734 40.0385 19.2613 39.9229 19.2194C38.8459 18.8016 37.6925 18.6176 36.539 18.6793C35.3855 18.7411 34.2583 19.0473 33.2321 19.5777C33.1334 19.6267 33.0246 19.6522 32.9143 19.6523L26.0892 19.7014C25.8866 19.7026 25.6888 19.7639 25.521 19.8775C25.3533 19.9912 25.223 20.152 25.1467 20.3398C25.0704 20.5275 25.0516 20.7337 25.0925 20.9321C25.1335 21.1306 25.2324 21.3124 25.3768 21.4546C25.5727 21.6424 25.8328 21.7484 26.1041 21.7511L32.9293 21.702C33.0736 21.6975 33.2157 21.7394 33.3345 21.8215C35.7852 23.4232 37.9841 23.8775 40.0509 23.2078C40.142 23.1784 40.2381 23.1673 40.3336 23.175C40.4291 23.1827 40.5221 23.2091 40.6074 23.2528C40.6926 23.2965 40.7685 23.3565 40.8305 23.4295C40.8926 23.5025 40.9397 23.5869 40.9691 23.6781C40.9985 23.7693 41.0096 23.8654 41.0019 23.9608C40.9942 24.0563 40.9678 24.1494 40.9241 24.2346C40.8804 24.3199 40.8204 24.3957 40.7474 24.4578C40.6744 24.5198 40.5899 24.5669 40.4988 24.5963C39.7562 24.8377 38.9803 24.9608 38.1996 24.961V24.961Z" fill="#80C5EF"/>
<path d="M28.3744 36.9537C27.988 36.9531 27.609 36.8469 27.2785 36.6467C26.948 36.4465 26.6784 36.1598 26.4988 35.8176C26.3193 35.4754 26.2366 35.0906 26.2596 34.7049C26.2827 34.3191 26.4107 33.947 26.6297 33.6286L29.9143 28.8489C30.0709 28.6162 30.272 28.4169 30.5061 28.2625C30.7401 28.1081 31.0025 28.0015 31.2779 27.9491C31.5534 27.8966 31.8366 27.8993 32.111 27.9569C32.3854 28.0145 32.6457 28.126 32.8768 28.2848C33.1079 28.4436 33.3053 28.6466 33.4575 28.8822C33.6096 29.1177 33.7136 29.3811 33.7634 29.6571C33.8132 29.933 33.8078 30.2161 33.7475 30.49C33.6872 30.7638 33.5733 31.023 33.4122 31.2526L30.1276 36.0345C29.9703 36.2646 29.7688 36.4612 29.5348 36.6128C29.3009 36.7644 29.0391 36.868 28.7647 36.9175C28.6361 36.9422 28.5054 36.9544 28.3744 36.9537V36.9537ZM31.6654 29.3864C31.557 29.3872 31.4504 29.4145 31.3549 29.4658C31.2594 29.5171 31.1779 29.5908 31.1173 29.6807L27.8305 34.4626C27.731 34.6077 27.6931 34.7864 27.7253 34.9594C27.7575 35.1323 27.8571 35.2855 28.0022 35.385C28.1473 35.4846 28.326 35.5224 28.499 35.4902C28.672 35.458 28.8251 35.3584 28.9247 35.2133L32.2114 30.4336C32.2796 30.3339 32.3193 30.2174 32.3263 30.0969C32.3333 29.9763 32.3074 29.856 32.2512 29.7491C32.1951 29.6421 32.111 29.5524 32.0077 29.4896C31.9045 29.4269 31.7862 29.3934 31.6654 29.3928V29.3864Z" fill="#80C5EF"/>
<path d="M30.6697 38.5322C30.2847 38.5279 29.9081 38.4195 29.5798 38.2185C29.2514 38.0175 28.9836 37.7314 28.8047 37.3904C28.6259 37.0495 28.5426 36.6666 28.5638 36.2822C28.5849 35.8978 28.7098 35.5263 28.925 35.2071L32.2117 30.4273C32.5329 29.9695 33.0219 29.6569 33.5723 29.5576C34.1227 29.4584 34.69 29.5803 35.151 29.8971C35.6119 30.2139 35.9292 30.6998 36.0338 31.2492C36.1384 31.7986 36.0219 32.3671 35.7096 32.8311L32.4229 37.6108C32.2664 37.8415 32.0654 38.0386 31.8317 38.1906C31.5981 38.3426 31.3364 38.4464 31.0621 38.4959C30.9328 38.5206 30.8014 38.5327 30.6697 38.5322V38.5322ZM33.9607 30.9606C33.8528 30.9605 33.7466 30.9867 33.6511 31.0369C33.5556 31.087 33.4737 31.1597 33.4125 31.2485L30.1279 36.0304C30.0284 36.1755 29.9905 36.3542 30.0227 36.5272C30.0549 36.7001 30.1545 36.8533 30.2996 36.9528C30.4447 37.0524 30.6234 37.0902 30.7964 37.058C30.9694 37.0258 31.1225 36.9262 31.2221 36.7811L34.5067 31.9993C34.575 31.8997 34.6149 31.7834 34.622 31.6628C34.6291 31.5423 34.6031 31.4221 34.5469 31.3152C34.4908 31.2083 34.4065 31.1188 34.3032 31.0563C34.1998 30.9938 34.0814 30.9607 33.9607 30.9606Z" fill="#80C5EF"/>
<path d="M32.968 40.1084C32.5401 40.1091 32.1221 39.9796 31.7694 39.7373V39.7373C31.3077 39.4166 30.9913 38.9265 30.8891 38.3737C30.7869 37.8209 30.907 37.2501 31.2233 36.7854L34.5079 32.0036C34.6519 31.7431 34.8488 31.5156 35.0859 31.3358C35.3231 31.1559 35.5952 31.0277 35.8849 30.9594C36.1746 30.891 36.4753 30.884 36.7678 30.9389C37.0604 30.9937 37.3382 31.1092 37.5834 31.2779C37.8286 31.4466 38.0358 31.6647 38.1917 31.9182C38.3476 32.1718 38.4486 32.4551 38.4884 32.7501C38.5282 33.045 38.5058 33.345 38.4227 33.6308C38.3396 33.9166 38.1976 34.1818 38.0058 34.4094L34.7212 39.1892C34.5258 39.4735 34.264 39.7058 33.9585 39.866C33.653 40.0262 33.313 40.1094 32.968 40.1084V40.1084ZM32.5969 38.5344C32.668 38.5845 32.7485 38.6196 32.8335 38.6376C32.9186 38.6556 33.0065 38.656 33.0917 38.6389C33.1775 38.6235 33.2593 38.5913 33.3326 38.5441C33.4058 38.4968 33.4689 38.4355 33.5183 38.3638L36.805 33.5819C36.9046 33.4368 36.9424 33.2581 36.9102 33.0851C36.878 32.9121 36.7784 32.759 36.6333 32.6594C36.4882 32.5599 36.3095 32.522 36.1365 32.5542C35.9635 32.5864 35.8104 32.686 35.7109 32.8311L32.4241 37.6109C32.3249 37.7563 32.2873 37.9352 32.3197 38.1083C32.3521 38.2814 32.4518 38.4346 32.5969 38.5344Z" fill="#80C5EF"/>
<path d="M43.484 28.3268C43.3554 28.3262 43.2292 28.2917 43.1181 28.2268C43.0071 28.1618 42.9151 28.0687 42.8515 27.9569C42.7879 27.845 42.7549 27.7184 42.7559 27.5898C42.7568 27.4611 42.7917 27.335 42.857 27.2241L44.7232 24.0803C44.7962 23.9595 44.902 23.8619 45.0282 23.7987L46.4295 23.1056C46.6008 23.0355 46.7922 23.0332 46.9652 23.099C47.1381 23.1648 47.2795 23.2939 47.3609 23.4601C47.4422 23.6263 47.4573 23.8171 47.4032 23.9941C47.3491 24.171 47.2298 24.3208 47.0694 24.413L45.8771 25.0123L44.1132 27.9749C44.0478 28.083 43.9555 28.1723 43.8452 28.234C43.7349 28.2957 43.6104 28.3277 43.484 28.3268V28.3268Z" fill="#80C5EF"/>
<path d="M27.4261 55.0002C21.8828 54.9981 16.4714 53.3086 11.9117 50.1564C-0.580492 41.5717 -3.76058 24.4214 4.8263 11.9292C7.38679 8.20271 10.8268 5.16521 14.8417 3.08582C18.8566 1.00643 23.3223 -0.0506602 27.8434 0.00818862C32.3644 0.0670374 36.8011 1.24002 40.7605 3.42321C44.7199 5.6064 48.0797 8.73239 50.5423 12.5243C53.0049 16.3162 54.4943 20.6569 54.8786 25.162C55.2628 29.667 54.5301 34.1973 52.7452 38.3515C50.9603 42.5057 48.1784 46.1555 44.6459 48.9777C41.1135 51.7999 36.9395 53.7073 32.4937 54.5309C30.8224 54.8421 29.1261 54.9992 27.4261 55.0002V55.0002ZM27.5391 1.46543C25.9286 1.4663 24.3215 1.61479 22.738 1.90905C18.5278 2.68862 14.5748 4.49465 11.2293 7.1671C7.88382 9.83955 5.24917 13.2959 3.55877 17.23C1.86838 21.164 1.17443 25.4543 1.53841 29.7206C1.90239 33.987 3.31306 38.0977 5.64544 41.6885C7.97782 45.2793 11.1599 48.2395 14.9097 50.3066C18.6595 52.3737 22.8613 53.484 27.1428 53.5391C31.4243 53.5942 35.6533 52.5924 39.4551 50.6225C43.2569 48.6526 46.514 45.7753 48.9381 42.2457V42.2457C51.6204 38.3393 53.1861 33.7751 53.4665 29.0448C53.747 24.3145 52.7316 19.5973 50.5297 15.4013C48.3279 11.2053 45.0229 7.68958 40.9709 5.23278C36.9189 2.77597 32.2734 1.47121 27.5348 1.45902L27.5391 1.46543Z" fill="#80C5EF"/>
</g>
<defs>
<clipPath id="clip0_1545:392">
<rect width="54.9659" height="55" fill="white"/>
</clipPath>
</defs>
</svg>
