<svg width="60" height="60" viewBox="0 0 60 60" fill="none" xmlns="http://www.w3.org/2000/svg">
<g clip-path="url(#clip0_1490:200)">
<path d="M29.9979 59.996C24.0651 59.9952 18.2657 58.2352 13.333 54.9385C8.40041 51.6418 4.55611 46.9565 2.28625 41.475C0.016382 35.9935 -0.577125 29.962 0.580806 24.1432C1.73874 18.3245 4.5961 12.9797 8.79156 8.78481C12.987 4.58992 18.3322 1.73328 24.1511 0.576125C29.97 -0.581031 36.0014 0.0132624 41.4826 2.28386C46.9638 4.55445 51.6486 8.39937 54.9446 13.3324C58.2407 18.2655 59.9999 24.0651 59.9999 29.998C59.9904 37.9518 56.8263 45.5769 51.2018 51.2007C45.5773 56.8245 37.9517 59.9876 29.9979 59.996ZM29.9979 1.19818C24.302 1.19897 18.7343 2.88873 13.9987 6.05377C9.2631 9.21882 5.57237 13.717 3.39319 18.9796C1.21401 24.2421 0.644258 30.0327 1.75596 35.619C2.86766 41.2054 5.61088 46.3367 9.63877 50.364C13.6667 54.3913 18.7983 57.1338 24.3848 58.2448C29.9714 59.3557 35.7618 58.7851 41.0241 56.6052C46.2863 54.4253 50.784 50.734 53.9484 45.9979C57.1128 41.2619 58.8018 35.6939 58.8018 29.998C58.7933 22.3617 55.7558 15.0407 50.3557 9.64139C44.9557 4.24209 37.6342 1.20558 29.9979 1.19818Z" fill="white"/>
<path d="M34.438 50.7464H34.3941C34.1097 50.7396 33.833 50.6529 33.5956 50.4961C33.3583 50.3392 33.1699 50.1187 33.0522 49.8598L30.0008 43.3817C29.9631 43.3101 29.9402 43.2317 29.9336 43.1511C29.927 43.0704 29.9368 42.9893 29.9624 42.9126C29.9881 42.8358 30.0289 42.7651 30.0826 42.7046C30.1363 42.6441 30.2017 42.5951 30.2749 42.5605C30.348 42.526 30.4274 42.5066 30.5082 42.5035C30.5891 42.5005 30.6697 42.5139 30.7452 42.5428C30.8208 42.5718 30.8896 42.6158 30.9477 42.6721C31.0058 42.7284 31.0519 42.7959 31.0832 42.8705L34.1385 49.3525C34.1628 49.4092 34.2028 49.4577 34.2537 49.4923C34.3047 49.527 34.3645 49.5464 34.4261 49.5482C34.4879 49.5525 34.5496 49.5381 34.603 49.5067C34.6565 49.4753 34.6992 49.4286 34.7256 49.3725L36.443 46.1375C36.6008 45.844 36.8498 45.6097 37.1523 45.47C37.4549 45.3303 37.7946 45.2926 38.1204 45.3627L41.7149 46.1614C41.7745 46.1748 41.8366 46.1714 41.8944 46.1516C41.9522 46.1319 42.0034 46.0966 42.0424 46.0496C42.0808 46.002 42.105 45.9445 42.1121 45.8837C42.1192 45.8229 42.1088 45.7613 42.0823 45.7061L39.1508 39.3599C39.0841 39.2153 39.0775 39.0501 39.1326 38.9007C39.1876 38.7512 39.2998 38.6298 39.4444 38.5631C39.589 38.4963 39.7541 38.4898 39.9036 38.5448C40.053 38.5999 40.1744 38.712 40.2411 38.8566L43.1726 45.2029C43.2915 45.4608 43.3361 45.7468 43.3013 46.0286C43.2665 46.3105 43.1537 46.577 42.9756 46.7982C42.7976 47.0194 42.5613 47.1866 42.2934 47.2808C42.0255 47.3751 41.7366 47.3927 41.4593 47.3316L37.8648 46.5329C37.7948 46.519 37.7222 46.5278 37.6576 46.5579C37.593 46.5881 37.5396 46.6381 37.5053 46.7006L35.788 49.9356C35.659 50.1816 35.4648 50.3874 35.2267 50.5304C34.9886 50.6734 34.7158 50.7481 34.438 50.7464Z" fill="white"/>
<path d="M24.9138 50.7462C24.638 50.7484 24.3668 50.6751 24.1296 50.5343C23.8924 50.3935 23.6981 50.1906 23.5679 49.9475L21.8465 46.7124C21.8127 46.6494 21.7594 46.5991 21.6946 46.5689C21.6299 46.5386 21.557 46.5302 21.4871 46.5447L17.8926 47.3435C17.6152 47.4045 17.3263 47.3869 17.0584 47.2927C16.7906 47.1984 16.5543 47.0313 16.3762 46.81C16.1982 46.5888 16.0854 46.3223 16.0506 46.0404C16.0158 45.7586 16.0603 45.4726 16.1792 45.2147L19.3743 38.3293C19.441 38.1847 19.5625 38.0725 19.7119 38.0175C19.8613 37.9624 20.0265 37.969 20.1711 38.0357C20.3157 38.1025 20.4278 38.2239 20.4829 38.3733C20.5379 38.5227 20.5314 38.6879 20.4646 38.8325L17.2695 45.718C17.2429 45.7726 17.2329 45.8339 17.2407 45.8943C17.2485 45.9546 17.2738 46.0113 17.3134 46.0574C17.3504 46.1059 17.4006 46.1427 17.4581 46.1632C17.5155 46.1838 17.5776 46.1873 17.637 46.1733L21.2314 45.3745C21.5567 45.3033 21.8963 45.3405 22.1985 45.4804C22.5006 45.6203 22.7487 45.8552 22.9049 46.1493L24.6262 49.3843C24.6524 49.4397 24.6945 49.4861 24.7472 49.5174C24.7998 49.5487 24.8606 49.5635 24.9218 49.5601C24.983 49.559 25.0427 49.5404 25.0937 49.5064C25.1447 49.4725 25.1848 49.4245 25.2093 49.3684L29.0754 40.8654C29.1082 40.7938 29.1548 40.7294 29.2124 40.6758C29.2701 40.6222 29.3378 40.5805 29.4116 40.553C29.4854 40.5256 29.5639 40.5129 29.6426 40.5158C29.7213 40.5187 29.7986 40.5371 29.8702 40.5698C29.9418 40.6026 30.0062 40.6492 30.0598 40.7069C30.1134 40.7645 30.1551 40.8322 30.1826 40.906C30.21 40.9798 30.2227 41.0583 30.2198 41.137C30.2169 41.2157 30.1985 41.293 30.1657 41.3646L26.2837 49.8596C26.1656 50.1183 25.9771 50.3385 25.7398 50.4953C25.5026 50.6521 25.226 50.739 24.9418 50.7462H24.9138Z" fill="white"/>
<path d="M38.3933 13.9028C38.2687 13.9026 38.1472 13.8635 38.0459 13.791C36.9549 13.0173 35.7594 12.4027 34.4953 11.9658C34.4208 11.9395 34.3522 11.8989 34.2935 11.8462C34.2347 11.7934 34.1869 11.7296 34.1528 11.6584C34.1186 11.5872 34.0989 11.51 34.0946 11.4312C34.0904 11.3523 34.1017 11.2734 34.1279 11.1989C34.1541 11.1245 34.1947 11.0559 34.2475 10.9971C34.3002 10.9383 34.364 10.8905 34.4352 10.8564C34.5064 10.8223 34.5836 10.8025 34.6625 10.7982C34.7413 10.794 34.8202 10.8053 34.8947 10.8315C36.267 11.3124 37.5645 11.9847 38.7488 12.8284C38.8536 12.9016 38.9323 13.0064 38.9734 13.1276C39.0144 13.2487 39.0156 13.3798 38.9767 13.5016C38.9379 13.6234 38.8611 13.7297 38.7576 13.8047C38.654 13.8798 38.5292 13.9197 38.4013 13.9188L38.3933 13.9028Z" fill="white"/>
<path d="M29.806 40.9535C29.3108 40.9535 28.8275 40.9295 28.3722 40.8856C24.4013 40.5238 20.7229 38.644 18.1033 35.6378C15.4837 32.6316 14.1248 28.7307 14.3096 24.7476C14.4944 20.7645 16.2087 17.0062 19.0954 14.2554C21.9821 11.5047 25.8186 9.97357 29.806 9.98098C29.9649 9.98098 30.1173 10.0441 30.2297 10.1564C30.342 10.2688 30.4051 10.4212 30.4051 10.5801C30.4051 10.739 30.342 10.8913 30.2297 11.0037C30.1173 11.116 29.9649 11.1791 29.806 11.1791C27.4735 11.1773 25.1759 11.7465 23.114 12.837C21.052 13.9275 19.2884 15.5061 17.977 17.4351C16.6656 19.3641 15.8463 21.5848 15.5907 23.9033C15.3351 26.2218 15.6509 28.5677 16.5106 30.736C17.3703 32.9044 18.7477 34.8293 20.5226 36.3428C22.2975 37.8563 24.4159 38.9123 26.6929 39.4186C28.9698 39.9249 31.3361 39.8662 33.5851 39.2475C35.8341 38.6288 37.8975 37.469 39.595 35.8693C42.296 33.3316 43.9044 29.8431 44.0803 26.1412C44.2561 22.4393 42.9858 18.8141 40.5376 16.0317C40.4851 15.9727 40.4448 15.9039 40.4189 15.8294C40.3931 15.7548 40.3821 15.6758 40.3868 15.597C40.3914 15.5182 40.4115 15.4411 40.446 15.37C40.4804 15.299 40.5285 15.2355 40.5875 15.183C40.6465 15.1306 40.7153 15.0903 40.7899 15.0644C40.8644 15.0385 40.9434 15.0276 41.0222 15.0322C41.101 15.0368 41.1781 15.0569 41.2492 15.0914C41.3202 15.1258 41.3838 15.1739 41.4362 15.2329C43.3378 17.3996 44.5969 20.054 45.0719 22.8974C45.5469 25.7408 45.2189 28.6603 44.1248 31.3275C43.0307 33.9946 41.214 36.3034 38.8791 37.9941C36.5441 39.6849 33.7837 40.6904 30.9084 40.8976C30.521 40.9415 30.1615 40.9535 29.806 40.9535Z" fill="white"/>
<path d="M24.2465 35.4774C24.0217 35.4761 23.8002 35.4226 23.5996 35.321C23.399 35.2193 23.2248 35.0725 23.0908 34.8919C22.9568 34.7114 22.8665 34.5022 22.8273 34.2808C22.788 34.0594 22.8008 33.8319 22.8646 33.6163L24.5141 28.1686C24.5273 28.1203 24.526 28.0692 24.5104 28.0217C24.4947 27.9741 24.4655 27.9321 24.4262 27.9011L19.8892 24.4663C19.6499 24.2855 19.4728 24.0346 19.3828 23.7485C19.2928 23.4624 19.2943 23.1553 19.3871 22.8701C19.4798 22.5848 19.6592 22.3356 19.9002 22.1571C20.1413 21.9786 20.432 21.8798 20.7319 21.8743L26.4192 21.7585C26.4691 21.7568 26.5174 21.7404 26.5579 21.7113C26.5985 21.6821 26.6294 21.6415 26.6468 21.5947L28.512 16.219C28.6094 15.9347 28.7932 15.6879 29.0378 15.5132C29.2823 15.3385 29.5754 15.2446 29.8759 15.2446C30.1764 15.2446 30.4694 15.3385 30.714 15.5132C30.9585 15.6879 31.1423 15.9347 31.2398 16.219L33.1049 21.5947C33.1228 21.6412 33.1539 21.6815 33.1943 21.7106C33.2348 21.7397 33.2828 21.7563 33.3326 21.7585L39.0199 21.8743C39.3198 21.8798 39.6105 21.9786 39.8515 22.1571C40.0926 22.3356 40.272 22.5848 40.3647 22.8701C40.4574 23.1553 40.4589 23.4624 40.3689 23.7485C40.2789 24.0346 40.1019 24.2855 39.8626 24.4663L35.3295 27.9011C35.2903 27.9321 35.261 27.9741 35.2454 28.0217C35.2298 28.0692 35.2285 28.1203 35.2417 28.1686L36.8911 33.6163C36.9745 33.9025 36.9674 34.2074 36.8708 34.4894C36.7742 34.7713 36.5928 35.0166 36.3514 35.1915C36.1101 35.3663 35.8205 35.4624 35.5225 35.4664C35.2245 35.4704 34.9325 35.3822 34.6865 35.2138L30.0177 31.9628C29.9769 31.9336 29.928 31.9178 29.8779 31.9178C29.8277 31.9178 29.7788 31.9336 29.7381 31.9628L25.0812 35.2178C24.836 35.3875 24.5447 35.4781 24.2465 35.4774ZM29.8739 16.4466C29.8233 16.4453 29.7736 16.4606 29.7325 16.4901C29.6914 16.5197 29.6611 16.5619 29.6462 16.6104L27.7771 21.9861C27.6798 22.2643 27.4999 22.5062 27.2616 22.6796C27.0233 22.853 26.7378 22.9496 26.4431 22.9566L20.7559 23.0725C20.7047 23.0727 20.655 23.0891 20.6137 23.1192C20.5724 23.1493 20.5416 23.1917 20.5256 23.2403C20.5097 23.2889 20.5095 23.3413 20.525 23.39C20.5406 23.4387 20.571 23.4813 20.6121 23.5118L25.1451 26.9465C25.3794 27.1255 25.5538 27.3714 25.6451 27.6517C25.7364 27.932 25.7403 28.2335 25.6564 28.5161L24.0069 33.9598C23.9902 34.0088 23.9902 34.062 24.0068 34.1111C24.0234 34.1602 24.0557 34.2025 24.0987 34.2313C24.1393 34.2628 24.1892 34.2798 24.2405 34.2798C24.2919 34.2798 24.3417 34.2628 24.3823 34.2313L29.0751 30.9843C29.3175 30.8167 29.6052 30.7269 29.8998 30.7269C30.1945 30.7269 30.4822 30.8167 30.7246 30.9843L35.3934 34.2313C35.434 34.2628 35.4839 34.2798 35.5352 34.2798C35.5865 34.2798 35.6364 34.2628 35.677 34.2313C35.72 34.2025 35.7524 34.1602 35.769 34.1111C35.7856 34.062 35.7855 34.0088 35.7689 33.9598L34.0994 28.5161C34.0154 28.2335 34.0193 27.932 34.1106 27.6517C34.2019 27.3714 34.3763 27.1255 34.6106 26.9465L39.1437 23.5118C39.1848 23.4813 39.2152 23.4387 39.2307 23.39C39.2462 23.3413 39.246 23.2889 39.2301 23.2403C39.2142 23.1917 39.1834 23.1493 39.1421 23.1192C39.1008 23.0891 39.051 23.0727 38.9999 23.0725L33.3126 22.9566C33.018 22.9496 32.7325 22.853 32.4941 22.6796C32.2558 22.5062 32.076 22.2643 31.9787 21.9861L30.1095 16.6144C30.0951 16.5638 30.0639 16.5197 30.0211 16.4892C29.9783 16.4587 29.9264 16.4437 29.8739 16.4466Z" fill="white"/>
</g>
<defs>
<clipPath id="clip0_1490:200">
<rect width="60" height="60" fill="white"/>
</clipPath>
</defs>
</svg>
