<svg width="65" height="65" viewBox="0 0 65 65" fill="none" xmlns="http://www.w3.org/2000/svg">
<g clip-path="url(#clip0_1490:143)">
<path d="M32.4983 64.9999C26.07 64.9999 19.786 63.0937 14.441 59.5223C9.09609 55.951 4.9302 50.8748 2.47019 44.9358C0.0101781 38.9968 -0.633476 32.4617 0.620628 26.1569C1.87473 19.8521 4.97026 14.0608 9.51577 9.51529C14.0613 4.96978 19.8526 1.87424 26.1574 0.620141C32.4622 -0.633962 38.9973 0.00968489 44.9363 2.4697C50.8753 4.92971 55.9515 9.0956 59.5228 14.4406C63.0942 19.7855 65.0004 26.0695 65.0004 32.4978C64.9913 41.1151 61.564 49.3768 55.4707 55.4702C49.3773 61.5635 41.1156 64.9908 32.4983 64.9999ZM32.4983 1.29796C26.3265 1.29796 20.2933 3.12816 15.1617 6.55711C10.0301 9.98606 6.03062 14.8597 3.66898 20.5618C1.30734 26.2639 0.689642 32.5382 1.89401 38.5913C3.09838 44.6445 6.07072 50.2045 10.4351 54.5683C14.7995 58.9321 20.36 61.9037 26.4133 63.1072C32.4666 64.3107 38.7408 63.6922 44.4426 61.3297C50.1443 58.9673 55.0175 54.9671 58.4457 49.8351C61.8739 44.703 63.7033 38.6696 63.7024 32.4978C63.6933 24.2251 60.4026 16.294 54.5526 10.4448C48.7025 4.59552 40.7709 1.30597 32.4983 1.29796Z" fill="black"/>
<path d="M38.9917 46.391H26.7991V43.0378C26.7986 42.2272 26.5977 41.4293 26.2143 40.7152C25.8308 40.001 25.2766 39.3928 24.6011 38.9447C22.1606 37.3269 20.2679 35.0073 19.1725 32.2918C18.0772 29.5764 17.8307 26.5926 18.4657 23.7343C19.1006 20.8759 20.5871 18.2771 22.7291 16.2808C24.8711 14.2844 27.5679 12.9843 30.4638 12.5519C30.549 12.5394 30.6359 12.5438 30.7194 12.5648C30.803 12.5859 30.8815 12.6232 30.9506 12.6746C31.0197 12.7261 31.078 12.7906 31.1222 12.8646C31.1663 12.9385 31.1955 13.0205 31.208 13.1057C31.2205 13.1909 31.2161 13.2778 31.195 13.3613C31.174 13.4448 31.1367 13.5234 31.0852 13.5925C31.0338 13.6616 30.9693 13.7199 30.8953 13.764C30.8214 13.8082 30.7394 13.8374 30.6542 13.8499C28.0217 14.2469 25.5712 15.4317 23.625 17.2482C21.6788 19.0647 20.3281 21.4278 19.7507 24.0267C19.1734 26.6256 19.3963 29.3384 20.3903 31.8081C21.3843 34.2778 23.1027 36.3887 25.3194 37.8631C26.1737 38.4281 26.8746 39.1962 27.3593 40.0985C27.8441 41.0008 28.0976 42.0092 28.0971 43.0335V45.0886H37.6937V42.6484C37.6882 41.6699 37.9166 40.7043 38.3599 39.832C38.8032 38.9598 39.4485 38.206 40.2422 37.6337C42.3603 36.1291 43.9867 34.0322 44.917 31.6062C45.8473 29.1803 46.04 26.5335 45.4709 23.9984C44.9019 21.4633 43.5964 19.1529 41.7185 17.3573C39.8406 15.5617 37.474 14.3611 34.916 13.9061C34.8308 13.8914 34.7493 13.8599 34.6762 13.8137C34.6031 13.7674 34.5398 13.7072 34.49 13.6365C34.4402 13.5658 34.4048 13.4859 34.3858 13.4015C34.3669 13.3171 34.3647 13.2298 34.3795 13.1446C34.3943 13.0594 34.4257 12.9779 34.4719 12.9048C34.5182 12.8317 34.5784 12.7685 34.6491 12.7187C34.7198 12.6688 34.7997 12.6334 34.8841 12.6145C34.9684 12.5955 35.0557 12.5933 35.141 12.6081C38.3556 13.1978 41.2791 14.8497 43.4429 17.299C45.6066 19.7484 46.8853 22.8533 47.074 26.1161C47.2021 28.5506 46.7118 30.9779 45.6489 33.1719C44.586 35.3659 42.9849 37.2551 40.995 38.6635C40.37 39.1162 39.8621 39.7116 39.5137 40.4002C39.1652 41.0888 38.9863 41.8507 38.9917 42.6224V46.391Z" fill="black"/>
<path d="M38.4647 53.0972H27.0508C26.614 53.096 26.1953 52.922 25.8864 52.6131C25.5775 52.3042 25.4035 51.8855 25.4023 51.4487V50.1507C25.4035 49.7138 25.5775 49.2952 25.8864 48.9863C26.1953 48.6774 26.614 48.5033 27.0508 48.5022H38.4647C38.9011 48.5033 39.3193 48.6775 39.6275 48.9865C39.9357 49.2956 40.1088 49.7142 40.1088 50.1507V51.4487C40.1088 51.8851 39.9357 52.3038 39.6275 52.6128C39.3193 52.9218 38.9011 53.096 38.4647 53.0972ZM27.0508 49.8132C27.0048 49.8132 26.9592 49.8222 26.9167 49.8399C26.8742 49.8575 26.8355 49.8833 26.803 49.9158C26.7705 49.9484 26.7446 49.987 26.727 50.0295C26.7094 50.0721 26.7004 50.1176 26.7004 50.1636V51.4617C26.7004 51.5077 26.7094 51.5533 26.727 51.5958C26.7446 51.6383 26.7705 51.6769 26.803 51.7095C26.8355 51.742 26.8742 51.7678 26.9167 51.7854C26.9592 51.8031 27.0048 51.8121 27.0508 51.8121H38.4647C38.5105 51.8121 38.5558 51.803 38.5981 51.7854C38.6404 51.7677 38.6787 51.7418 38.7109 51.7092C38.7431 51.6766 38.7686 51.638 38.7857 51.5955C38.8028 51.553 38.8114 51.5075 38.8108 51.4617V50.1636C38.8114 50.1178 38.8028 50.0724 38.7857 50.0299C38.7686 49.9874 38.7431 49.9487 38.7109 49.9161C38.6787 49.8835 38.6404 49.8576 38.5981 49.8399C38.5558 49.8223 38.5105 49.8132 38.4647 49.8132H27.0508Z" fill="black"/>
<path d="M38.4647 49.8133H27.0508C26.6144 49.8133 26.1957 49.6402 25.8867 49.332C25.5777 49.0238 25.4035 48.6056 25.4023 48.1691V46.8711C25.4035 46.4343 25.5775 46.0157 25.8864 45.7068C26.1953 45.3979 26.614 45.2238 27.0508 45.2227H38.4647C38.9011 45.2238 39.3193 45.398 39.6275 45.707C39.9357 46.016 40.1088 46.4347 40.1088 46.8711V48.1691C40.1088 48.6052 39.9356 49.0234 39.6272 49.3317C39.3189 49.6401 38.9007 49.8133 38.4647 49.8133ZM27.0508 46.5293C27.0048 46.5293 26.9592 46.5384 26.9167 46.556C26.8742 46.5736 26.8355 46.5994 26.803 46.632C26.7705 46.6645 26.7446 46.7032 26.727 46.7457C26.7094 46.7882 26.7004 46.8338 26.7004 46.8798V48.1778C26.7004 48.2236 26.7094 48.269 26.7271 48.3113C26.7448 48.3535 26.7707 48.3919 26.8033 48.4241C26.8359 48.4563 26.8745 48.4817 26.917 48.4988C26.9595 48.516 27.005 48.5245 27.0508 48.5239H38.4647C38.5101 48.5239 38.5551 48.515 38.5971 48.4976C38.6391 48.4802 38.6773 48.4547 38.7094 48.4225C38.7415 48.3904 38.767 48.3523 38.7844 48.3103C38.8018 48.2683 38.8108 48.2233 38.8108 48.1778V46.8798C38.8108 46.7876 38.7745 46.6991 38.7097 46.6335C38.6449 46.5679 38.5568 46.5305 38.4647 46.5293H27.0508Z" fill="black"/>
<path d="M34.4223 56.7274H31.0865C30.6902 56.7263 30.3105 56.5681 30.0307 56.2874C29.7509 56.0068 29.5937 55.6267 29.5938 55.2304V51.7993H35.9194V55.2304C35.9194 55.427 35.8807 55.6217 35.8054 55.8033C35.7302 55.9849 35.6199 56.1499 35.4809 56.289C35.3419 56.428 35.1769 56.5382 34.9952 56.6135C34.8136 56.6887 34.6189 56.7274 34.4223 56.7274ZM30.8744 53.0973V55.2304C30.8739 55.2563 30.8785 55.2821 30.888 55.3062C30.8975 55.3304 30.9118 55.3523 30.9299 55.3709C30.9481 55.3894 30.9697 55.4041 30.9936 55.4142C31.0175 55.4243 31.0432 55.4294 31.0692 55.4294H34.405C34.4578 55.4294 34.5084 55.4085 34.5458 55.3711C34.5831 55.3338 34.6041 55.2832 34.6041 55.2304V53.0973H30.8744Z" fill="black"/>
<path d="M32.7564 30.7498C32.0709 30.7541 31.3996 30.5547 30.8276 30.177C30.2555 29.7993 29.8085 29.2602 29.5432 28.6281C29.2779 27.996 29.2062 27.2994 29.3373 26.6265C29.4684 25.9537 29.7964 25.3349 30.2796 24.8486C30.7628 24.3624 31.3795 24.0306 32.0515 23.8953C32.7235 23.7599 33.4206 23.8272 34.0544 24.0886C34.6881 24.3499 35.23 24.7935 35.6113 25.3632C35.9926 25.9329 36.1961 26.6029 36.1962 27.2884C36.1962 28.2027 35.8345 29.0799 35.19 29.7284C34.5455 30.3769 33.6707 30.7441 32.7564 30.7498ZM32.7564 25.1597C32.3277 25.1554 31.9073 25.2786 31.5487 25.5137C31.1901 25.7488 30.9095 26.0852 30.7424 26.4801C30.5753 26.875 30.5294 27.3106 30.6104 27.7317C30.6914 28.1528 30.8957 28.5402 31.1974 28.845C31.4991 29.1497 31.8845 29.3579 32.3047 29.4431C32.725 29.5284 33.161 29.4868 33.5576 29.3237C33.9542 29.1606 34.2933 28.8834 34.532 28.5272C34.7707 28.171 34.8981 27.7518 34.8981 27.3231C34.8982 26.753 34.6732 26.206 34.2722 25.8009C33.8711 25.3958 33.3264 25.1654 32.7564 25.1597Z" fill="black"/>
<path d="M34.476 38.4298H31.5944C31.2501 38.4298 30.92 38.293 30.6766 38.0496C30.4331 37.8062 30.2964 37.476 30.2964 37.1318V33.8997L30.2228 33.8694L28.0595 36.0112C27.8117 36.2509 27.4805 36.385 27.1357 36.385C26.791 36.385 26.4597 36.2509 26.212 36.0112L24.1784 33.9776C24.0561 33.8569 23.959 33.713 23.8927 33.5545C23.8264 33.3959 23.7923 33.2257 23.7923 33.0539C23.7923 32.882 23.8264 32.7118 23.8927 32.5533C23.959 32.3947 24.0561 32.2509 24.1784 32.1301L26.2552 30.0533H22.6554C22.3112 30.0533 21.981 29.9165 21.7376 29.6731C21.4942 29.4297 21.3574 29.0995 21.3574 28.7553V25.8737C21.3574 25.5295 21.4942 25.1993 21.7376 24.9559C21.981 24.7124 22.3112 24.5757 22.6554 24.5757H25.9913L23.6376 22.2176C23.5159 22.097 23.4194 21.9534 23.3535 21.7952C23.2876 21.6371 23.2536 21.4674 23.2536 21.2961C23.2536 21.1247 23.2876 20.955 23.3535 20.7969C23.4194 20.6387 23.5159 20.4951 23.6376 20.3745L25.6711 18.3366C25.9199 18.0988 26.2508 17.9661 26.5949 17.9661C26.939 17.9661 27.2699 18.0988 27.5186 18.3366L29.8291 20.647L30.2921 20.448V17.216C30.2921 16.8717 30.4288 16.5416 30.6722 16.2981C30.9157 16.0547 31.2458 15.918 31.5901 15.918H34.4716C34.8159 15.918 35.1461 16.0547 35.3895 16.2981C35.6329 16.5416 35.7697 16.8717 35.7697 17.216V20.275L37.708 18.3366C37.9568 18.0988 38.2876 17.9661 38.6318 17.9661C38.9759 17.9661 39.3068 18.0988 39.5555 18.3366L41.5891 20.3745C41.7107 20.4951 41.8073 20.6387 41.8732 20.7969C41.9391 20.955 41.973 21.1247 41.973 21.2961C41.973 21.4674 41.9391 21.6371 41.8732 21.7952C41.8073 21.9534 41.7107 22.097 41.5891 22.2176L39.5296 24.2901C39.5685 24.381 39.6074 24.4718 39.6421 24.5627H42.5972C42.9414 24.5627 43.2716 24.6995 43.515 24.9429C43.7585 25.1863 43.8952 25.5165 43.8952 25.8607V28.7423C43.8952 29.0866 43.7585 29.4167 43.515 29.6601C43.2716 29.9036 42.9414 30.0403 42.5972 30.0403H39.8195L41.8963 32.1171C42.0186 32.2379 42.1157 32.3817 42.182 32.5403C42.2483 32.6989 42.2824 32.869 42.2824 33.0409C42.2824 33.2127 42.2483 33.3829 42.182 33.5415C42.1157 33.7001 42.0186 33.8439 41.8963 33.9646L39.8584 35.9982C39.6114 36.2377 39.2809 36.3716 38.9368 36.3716C38.5928 36.3716 38.2622 36.2377 38.0152 35.9982L35.7956 33.7829V37.1188C35.7974 37.2922 35.7644 37.4642 35.6986 37.6246C35.6328 37.785 35.5355 37.9306 35.4125 38.0528C35.2895 38.175 35.1432 38.2713 34.9824 38.3361C34.8215 38.4008 34.6493 38.4327 34.476 38.4298ZM29.9373 32.3118L30.3699 32.5109C30.6221 32.6301 30.8823 32.7313 31.1487 32.8137L31.6074 32.9565V37.1274H34.4933V33.4065L34.4327 32.8916L34.9259 32.7272C35.1624 32.6433 35.3923 32.542 35.6139 32.4243L36.0466 32.2037L38.9368 35.0896L40.9833 33.056L38.0628 30.1268L38.2618 29.6942C38.344 29.5211 38.4133 29.348 38.4825 29.162L38.6339 28.7293H42.6015V25.8434H38.7075L38.5647 25.3891C38.4612 25.0624 38.3295 24.7454 38.171 24.4416L37.9503 24.0089L40.6978 21.2614L38.6642 19.2149L35.8562 22.0273L35.4235 21.8282C35.2532 21.7463 35.0784 21.6741 34.9 21.6119L34.4024 21.4388L34.4673 20.9196V17.2073H31.5814V21.3869L31.1228 21.5254C30.7371 21.6443 30.3656 21.8054 30.0152 22.0056L29.5825 22.2436L29.1844 21.8585L26.5884 19.2625L24.5419 21.3004L27.1682 23.9397L27.7436 24.2166L27.4754 24.7964C27.3774 25.0108 27.295 25.232 27.2288 25.4583L27.0341 26.129L26.3807 25.8867H22.6554V28.7726H26.3807L27.06 28.3918L27.3153 29.1317C27.404 29.3934 27.5124 29.648 27.6398 29.8932L27.8648 30.3259L25.1173 33.0733L27.1509 35.1199L29.9373 32.3118ZM32.7583 30.7499C32.0728 30.7542 31.4015 30.5548 30.8294 30.1771C30.2573 29.7994 29.8103 29.2603 29.545 28.6282C29.2797 27.9961 29.2081 27.2995 29.3392 26.6266C29.4703 25.9538 29.7982 25.335 30.2814 24.8487C30.7646 24.3625 31.3813 24.0307 32.0534 23.8953C32.7254 23.76 33.4225 23.8273 34.0562 24.0886C34.6899 24.35 35.2318 24.7936 35.6131 25.3633C35.9944 25.933 36.198 26.603 36.198 27.2885C36.198 28.2028 35.8363 29.08 35.1919 29.7285C34.5474 30.377 33.6725 30.7442 32.7583 30.7499ZM32.7583 25.1598C32.3295 25.1555 31.9091 25.2787 31.5505 25.5138C31.1919 25.7489 30.9113 26.0853 30.7442 26.4802C30.5772 26.8751 30.5312 27.3107 30.6123 27.7318C30.6933 28.1528 30.8976 28.5403 31.1993 28.8451C31.5009 29.1498 31.8863 29.358 32.3066 29.4432C32.7268 29.5285 33.1629 29.4869 33.5594 29.3238C33.956 29.1607 34.2952 28.8835 34.5339 28.5273C34.7725 28.171 34.9 27.7519 34.9 27.3231C34.9 26.7531 34.6751 26.2061 34.274 25.801C33.873 25.3959 33.3283 25.1655 32.7583 25.1598Z" fill="black"/>
<path d="M32.7564 30.7498C32.0709 30.7541 31.3996 30.5547 30.8276 30.177C30.2555 29.7993 29.8085 29.2602 29.5432 28.6281C29.2779 27.996 29.2062 27.2994 29.3373 26.6265C29.4684 25.9537 29.7964 25.3349 30.2796 24.8486C30.7628 24.3624 31.3795 24.0306 32.0515 23.8953C32.7235 23.7599 33.4206 23.8272 34.0544 24.0886C34.6881 24.3499 35.23 24.7935 35.6113 25.3632C35.9926 25.9329 36.1961 26.6029 36.1962 27.2884C36.1962 28.2027 35.8345 29.0799 35.19 29.7284C34.5455 30.3769 33.6707 30.7441 32.7564 30.7498ZM32.7564 25.1597C32.3277 25.1554 31.9073 25.2786 31.5487 25.5137C31.1901 25.7488 30.9095 26.0852 30.7424 26.4801C30.5753 26.875 30.5294 27.3106 30.6104 27.7317C30.6914 28.1528 30.8957 28.5402 31.1974 28.845C31.4991 29.1497 31.8845 29.3579 32.3047 29.4431C32.725 29.5284 33.161 29.4868 33.5576 29.3237C33.9542 29.1606 34.2933 28.8834 34.532 28.5272C34.7707 28.171 34.8981 27.7518 34.8981 27.3231C34.8982 26.753 34.6732 26.206 34.2722 25.8009C33.8711 25.3958 33.3264 25.1654 32.7564 25.1597Z" fill="black"/>
<path d="M32.606 11.6128C32.4339 11.6128 32.2688 11.5444 32.1471 11.4227C32.0254 11.301 31.957 11.1359 31.957 10.9638V8.18172C31.957 8.00959 32.0254 7.84451 32.1471 7.7228C32.2688 7.60109 32.4339 7.53271 32.606 7.53271C32.7782 7.53271 32.9432 7.60109 33.065 7.7228C33.1867 7.84451 33.255 8.00959 33.255 8.18172V10.9724C33.2528 11.1431 33.1834 11.3059 33.0619 11.4258C32.9405 11.5456 32.7767 11.6128 32.606 11.6128Z" fill="black"/>
<path d="M16.135 28.3744H13.3443C13.1722 28.3744 13.0071 28.306 12.8854 28.1843C12.7637 28.0626 12.6953 27.8975 12.6953 27.7254C12.6953 27.5533 12.7637 27.3882 12.8854 27.2665C13.0071 27.1448 13.1722 27.0764 13.3443 27.0764H16.135C16.3072 27.0764 16.4722 27.1448 16.594 27.2665C16.7157 27.3882 16.784 27.5533 16.784 27.7254C16.784 27.8975 16.7157 28.0626 16.594 28.1843C16.4722 28.306 16.3072 28.3744 16.135 28.3744Z" fill="black"/>
<path d="M20.8845 16.3635C20.7992 16.3637 20.7148 16.347 20.6361 16.3143C20.5574 16.2816 20.4859 16.2336 20.4258 16.1732L18.6 14.3473C18.4853 14.2243 18.4229 14.0615 18.4259 13.8934C18.4288 13.7253 18.497 13.5648 18.6159 13.4459C18.7348 13.327 18.8952 13.2589 19.0633 13.256C19.2315 13.253 19.3942 13.3154 19.5172 13.43L21.3431 15.2559C21.4337 15.3467 21.4955 15.4623 21.5205 15.5881C21.5455 15.7139 21.5326 15.8443 21.4835 15.9628C21.4345 16.0813 21.3514 16.1827 21.2447 16.254C21.1381 16.3253 21.0127 16.3634 20.8845 16.3635Z" fill="black"/>
<path d="M44.4784 16.3635C44.3064 16.3629 44.1416 16.2945 44.0197 16.1732C43.959 16.1132 43.9108 16.0418 43.878 15.9631C43.8451 15.8843 43.8281 15.7999 43.8281 15.7145C43.8281 15.6292 43.8451 15.5447 43.878 15.466C43.9108 15.3873 43.959 15.3159 44.0197 15.2559L45.8456 13.43C45.9686 13.3154 46.1314 13.253 46.2995 13.256C46.4676 13.2589 46.6281 13.327 46.747 13.4459C46.8659 13.5648 46.934 13.7253 46.937 13.8934C46.9399 14.0615 46.8775 14.2243 46.7629 14.3473L44.937 16.1732C44.8151 16.2945 44.6503 16.3629 44.4784 16.3635Z" fill="black"/>
<path d="M19.0586 41.7828C18.9303 41.7827 18.8049 41.7446 18.6983 41.6733C18.5917 41.602 18.5086 41.5006 18.4595 41.3821C18.4105 41.2636 18.3976 41.1332 18.4226 41.0074C18.4476 40.8816 18.5093 40.766 18.6 40.6752L20.4258 38.8493C20.4858 38.7886 20.5572 38.7404 20.6359 38.7075C20.7147 38.6747 20.7991 38.6577 20.8845 38.6577C20.9698 38.6577 21.0543 38.6747 21.133 38.7075C21.2117 38.7404 21.2831 38.7886 21.3431 38.8493C21.4636 38.9716 21.5311 39.1363 21.5311 39.308C21.5311 39.4796 21.4636 39.6443 21.3431 39.7666L19.5172 41.5925C19.3954 41.7138 19.2306 41.7822 19.0586 41.7828Z" fill="black"/>
<path d="M46.1657 41.6445C46.0805 41.6447 45.9961 41.628 45.9173 41.5953C45.8386 41.5626 45.7671 41.5146 45.7071 41.4542L43.8812 39.6283C43.7666 39.5053 43.7042 39.3426 43.7071 39.1744C43.7101 39.0063 43.7782 38.8459 43.8971 38.727C44.016 38.6081 44.1764 38.5399 44.3446 38.537C44.5127 38.534 44.6754 38.5964 44.7985 38.711L46.6243 40.5369C46.7448 40.6592 46.8124 40.8239 46.8124 40.9955C46.8124 41.1672 46.7448 41.3319 46.6243 41.4542C46.502 41.5747 46.3375 41.643 46.1657 41.6445Z" fill="black"/>
<path d="M51.8889 28.3744H49.0982C48.9261 28.3744 48.761 28.306 48.6393 28.1843C48.5176 28.0626 48.4492 27.8975 48.4492 27.7254C48.4492 27.5533 48.5176 27.3882 48.6393 27.2665C48.761 27.1448 48.9261 27.0764 49.0982 27.0764H51.8889C52.0611 27.0764 52.2261 27.1448 52.3479 27.2665C52.4696 27.3882 52.5379 27.5533 52.5379 27.7254C52.5379 27.8975 52.4696 28.0626 52.3479 28.1843C52.2261 28.306 52.0611 28.3744 51.8889 28.3744Z" fill="black"/>
</g>
<defs>
<clipPath id="clip0_1490:143">
<rect width="65" height="65" fill="white"/>
</clipPath>
</defs>
</svg>
