<svg width="55" height="55" viewBox="0 0 55 55" fill="none" xmlns="http://www.w3.org/2000/svg">
<g clip-path="url(#clip0_1545:382)">
<path d="M11.2486 31.0702C11.208 31.0733 11.1672 31.0733 11.1266 31.0702C10.9385 31.0382 10.7709 30.933 10.6604 30.7775C10.5499 30.6221 10.5057 30.4291 10.5374 30.2411C11.1077 26.91 12.9172 23.918 15.6024 21.866C18.1913 19.8423 21.4508 18.8746 24.7245 19.1577C30.2272 19.6691 34.8441 23.7872 36.1487 29.2394L43.8378 29.2647C44.0287 29.2647 44.2118 29.3405 44.3467 29.4755C44.4817 29.6104 44.5575 29.7935 44.5575 29.9843C44.5575 30.1752 44.4817 30.3583 44.3467 30.4932C44.2118 30.6282 44.0287 30.704 43.8378 30.704V30.704L35.568 30.6767C35.401 30.6767 35.2392 30.6185 35.1106 30.5121C34.9819 30.4057 34.8944 30.2578 34.863 30.0938C33.8803 24.9677 29.657 21.06 24.594 20.5908C21.682 20.3398 18.7833 21.204 16.4841 23.0086C14.0865 24.8386 12.4701 27.5082 11.9599 30.481C11.9293 30.647 11.8412 30.797 11.7112 30.9047C11.5812 31.0124 11.4174 31.071 11.2486 31.0702V31.0702Z" fill="#80C5EF"/>
<path d="M11.2448 30.9496C11.0669 30.949 10.8955 30.8828 10.7634 30.7635C10.6314 30.6443 10.548 30.4805 10.5293 30.3036C10.4746 29.7779 10.4472 29.2497 10.4473 28.7212C10.4473 19.9 18.0795 12.7285 27.4605 12.7285C37.7716 12.7285 43.7015 21.9874 44.4632 28.2561C44.5311 28.8146 44.5606 29.377 44.5516 29.9396C44.5485 30.1304 44.4698 30.3123 44.3326 30.4451C44.1955 30.5778 44.0112 30.6507 43.8204 30.6476C43.6295 30.6446 43.4477 30.5658 43.3149 30.4287C43.1821 30.2915 43.1092 30.1073 43.1123 29.9164C43.1211 29.4158 43.0951 28.9152 43.0344 28.4182C42.7419 26.0087 41.4078 22.3157 38.5459 19.1845C36.4416 16.8908 32.8244 14.1573 27.4605 14.1573C18.8729 14.1573 11.8887 20.6806 11.8887 28.717C11.8889 29.1956 11.9135 29.6739 11.9624 30.15C11.9825 30.3384 11.9275 30.5272 11.8093 30.6753C11.6911 30.8235 11.5193 30.919 11.3311 30.9412L11.2448 30.9496Z" fill="#80C5EF"/>
<path d="M23.9792 34.4874C23.2651 34.4908 22.5717 34.2472 22.0164 33.798C21.4612 33.3488 21.0783 32.7215 20.9324 32.0224C20.7866 31.3232 20.8869 30.5952 21.2162 29.9615C21.5456 29.3278 22.0838 28.8273 22.7398 28.5449C22.827 28.5021 22.922 28.4773 23.0191 28.4722C23.1161 28.4671 23.2132 28.4816 23.3044 28.515C23.3957 28.5484 23.4792 28.6 23.55 28.6665C23.6208 28.7331 23.6774 28.8133 23.7164 28.9023C23.7553 28.9913 23.7759 29.0873 23.7767 29.1845C23.7776 29.2816 23.7588 29.378 23.7214 29.4677C23.684 29.5574 23.6289 29.6386 23.5593 29.7064C23.4897 29.7742 23.407 29.8272 23.3164 29.8622C23.0606 29.9741 22.8372 30.1487 22.6669 30.37C22.4966 30.5912 22.3849 30.8519 22.3422 31.1278C22.2995 31.4037 22.3271 31.6859 22.4226 31.9483C22.518 32.2107 22.6782 32.4447 22.8882 32.6287C23.0982 32.8127 23.3513 32.9406 23.6239 33.0007C23.8966 33.0608 24.18 33.0511 24.4479 32.9725C24.7158 32.8938 24.9595 32.7488 25.1564 32.5509C25.3533 32.353 25.4971 32.1085 25.5743 31.8402C25.6001 31.7493 25.6436 31.6644 25.7023 31.5903C25.761 31.5162 25.8336 31.4543 25.9162 31.4083C25.9988 31.3623 26.0896 31.333 26.1835 31.3221C26.2773 31.3112 26.3725 31.3188 26.4634 31.3447C26.5543 31.3705 26.6392 31.414 26.7133 31.4727C26.7874 31.5313 26.8493 31.604 26.8953 31.6866C26.9413 31.7691 26.9706 31.8599 26.9815 31.9538C26.9925 32.0477 26.9848 32.1428 26.9589 32.2337C26.7731 32.8813 26.3822 33.451 25.8449 33.8574C25.3076 34.2638 24.6529 34.4849 23.9792 34.4874V34.4874Z" fill="#80C5EF"/>
<path d="M26.0775 33.2331C25.9788 33.2336 25.8812 33.2128 25.7913 33.1721C25.7045 33.1345 25.6259 33.0803 25.5601 33.0124C25.4943 32.9444 25.4425 32.8642 25.4078 32.7763C25.373 32.6883 25.3559 32.5944 25.3574 32.4998C25.3589 32.4053 25.3791 32.3119 25.4167 32.2252L27.7167 26.9308L22.7022 30.2976C22.6237 30.3504 22.5356 30.3872 22.4429 30.4059C22.3502 30.4247 22.2547 30.425 22.1619 30.4068C21.9745 30.3701 21.8093 30.2604 21.7027 30.1019C21.5961 29.9434 21.5568 29.7491 21.5935 29.5616C21.6302 29.3742 21.7399 29.209 21.8984 29.1024L28.9562 24.353C29.0854 24.2702 29.2376 24.2309 29.3908 24.2407C29.5439 24.2506 29.6899 24.3092 29.8073 24.4079C29.9248 24.5066 30.0077 24.6402 30.0439 24.7894C30.08 24.9385 30.0676 25.0953 30.0083 25.2368L26.7298 32.7996C26.6746 32.9272 26.5836 33.036 26.4678 33.1129C26.352 33.1898 26.2165 33.2316 26.0775 33.2331V33.2331Z" fill="#80C5EF"/>
<path d="M27.5007 55.0001C12.3372 55.0001 0.00390625 42.6647 0.00390625 27.4928C0.00390625 12.3208 12.3414 -0.00830078 27.505 -0.00830078C42.6685 -0.00830078 55.0018 12.3418 55.0018 27.4928C55.0018 42.6437 42.6643 55.0001 27.5007 55.0001ZM27.5007 1.43946C22.3459 1.43946 17.3068 2.96816 13.0208 5.83223C8.73475 8.6963 5.39437 12.7671 3.42207 17.5297C1.44976 22.2924 0.934141 27.533 1.94042 32.5887C2.9467 37.6444 5.42967 42.2881 9.07531 45.9326C12.7209 49.577 17.3655 52.0585 22.4215 53.0631C27.4776 54.0678 32.718 53.5505 37.48 51.5766C42.242 49.6028 46.3117 46.2611 49.1744 41.9742C52.0371 37.6872 53.5641 32.6476 53.5625 27.4928C53.5519 20.5848 50.8024 13.9629 45.917 9.079C41.0315 4.19511 34.4087 1.4478 27.5007 1.43946Z" fill="#80C5EF"/>
<path d="M36.7971 21.9943C36.6399 21.9937 36.4872 21.9417 36.3622 21.8464C36.2372 21.751 36.1467 21.6175 36.1046 21.466C36.0624 21.3145 36.0709 21.1535 36.1286 21.0072C36.1864 20.861 36.2904 20.7377 36.4247 20.6559L39.3707 18.8757C39.4517 18.8269 39.5414 18.7946 39.6349 18.7805C39.7284 18.7664 39.8237 18.7709 39.9154 18.7937C40.0072 18.8164 40.0935 18.857 40.1696 18.9132C40.2456 18.9693 40.3099 19.0399 40.3587 19.1208C40.4074 19.2018 40.4398 19.2916 40.4539 19.3851C40.4679 19.4785 40.4635 19.5738 40.4407 19.6656C40.4179 19.7573 40.3773 19.8437 40.3212 19.9197C40.265 19.9958 40.1945 20.06 40.1135 20.1088L37.1675 21.889C37.0562 21.9579 36.928 21.9943 36.7971 21.9943V21.9943Z" fill="#80C5EF"/>
<path d="M32.7026 18.2547C32.5669 18.2548 32.4339 18.2165 32.3191 18.1443C32.2042 18.0721 32.1121 17.9689 32.0534 17.8466C31.9946 17.7243 31.9716 17.5879 31.9871 17.4531C32.0026 17.3183 32.0558 17.1906 32.1407 17.0847L33.9904 14.77C34.1132 14.6314 34.2845 14.5453 34.469 14.5295C34.6535 14.5137 34.837 14.5694 34.9815 14.685C35.1261 14.8007 35.2207 14.9675 35.2458 15.1509C35.2708 15.3344 35.2245 15.5204 35.1162 15.6706L33.2644 17.9854C33.1968 18.0694 33.1113 18.1372 33.0141 18.1838C32.9168 18.2304 32.8104 18.2546 32.7026 18.2547Z" fill="#80C5EF"/>
<path d="M26.8994 16.9712C26.7085 16.9712 26.5254 16.8954 26.3905 16.7604C26.2555 16.6255 26.1797 16.4424 26.1797 16.2516V13.4423C26.1797 13.2515 26.2555 13.0684 26.3905 12.9334C26.5254 12.7985 26.7085 12.7227 26.8994 12.7227C27.0902 12.7227 27.2733 12.7985 27.4082 12.9334C27.5432 13.0684 27.619 13.2515 27.619 13.4423V16.2537C27.6185 16.4442 27.5424 16.6267 27.4075 16.7612C27.2726 16.8957 27.0899 16.9712 26.8994 16.9712V16.9712Z" fill="#80C5EF"/>
<path d="M20.652 17.9704C20.5372 17.9705 20.4241 17.9432 20.322 17.8909C20.2199 17.8386 20.1318 17.7626 20.0649 17.6694L18.7665 15.8534C18.6549 15.6983 18.6095 15.5051 18.6403 15.3165C18.6711 15.1279 18.7755 14.9592 18.9307 14.8476C19.0858 14.7359 19.2789 14.6905 19.4676 14.7213C19.6562 14.7521 19.8249 14.8566 19.9365 15.0117L21.237 16.8256C21.3145 16.9332 21.3608 17.0601 21.3708 17.1923C21.3808 17.3245 21.354 17.4569 21.2935 17.5749C21.233 17.6929 21.1411 17.7919 21.0279 17.8609C20.9146 17.9299 20.7846 17.9664 20.652 17.9661V17.9704Z" fill="#80C5EF"/>
</g>
<defs>
<clipPath id="clip0_1545:382">
<rect width="55" height="55" fill="white"/>
</clipPath>
</defs>
</svg>
