<svg xmlns="http://www.w3.org/2000/svg" xmlns:xlink="http://www.w3.org/1999/xlink" width="26" height="26" viewBox="0 0 26 26">
  <defs>
    <clipPath id="clip-path">
      <rect id="Rectangle_2" data-name="Rectangle 2" width="26" height="26" transform="translate(2781 712)" fill="#fff" stroke="#707070" stroke-width="1"/>
    </clipPath>
  </defs>
  <g id="Mask_Group_2" data-name="Mask Group 2" transform="translate(-2781 -712)" clip-path="url(#clip-path)">
    <g id="Group_538" data-name="Group 538" transform="translate(2781.5 709.268)">
      <path id="Path_7" data-name="Path 7" d="M36.128,2.732V11h1.116V7.46h2.94V6.416h-2.94V3.776h3.708V2.732ZM46.223,11H47.3V5.4h-1.08v.84a2.269,2.269,0,0,0-1.968-.96,2.793,2.793,0,0,0-2.844,2.916,2.811,2.811,0,0,0,2.844,2.928,2.287,2.287,0,0,0,1.968-.984Zm-.012-2.82a1.842,1.842,0,1,1-3.684,0,1.768,1.768,0,0,1,1.824-1.836A1.807,1.807,0,0,1,46.211,8.18Zm4.192.348.768.18c.408.1.756.3.744.708s-.348.7-.852.732a1.481,1.481,0,0,1-.888-.192.868.868,0,0,1-.456-.636h-1a1.963,1.963,0,0,0,2.088,1.8c1.164,0,2.172-.636,2.172-1.68a1.618,1.618,0,0,0-1.452-1.632L50.7,7.6a.984.984,0,0,1-.66-.432.618.618,0,0,1-.012-.444.829.829,0,0,1,.84-.5.8.8,0,0,1,.876.636h1.044a1.74,1.74,0,0,0-1.944-1.584A1.837,1.837,0,0,0,48.9,6.7C48.807,7.736,49.383,8.252,50.4,8.528ZM55.916,5.4V3.284H54.824V5.4H53.816V6.32h1.008V11h1.092V6.32H57.1V5.4Zm7.8.54A1.107,1.107,0,0,1,62.664,4.8a1.033,1.033,0,0,1,1.1-1.02,1.307,1.307,0,0,1,1.1.684l.888-.552a2.331,2.331,0,0,0-1.992-1.176A2.091,2.091,0,0,0,61.62,4.8a2.035,2.035,0,0,0,.588,1.488,2.612,2.612,0,0,0,1.476,4.824,2.512,2.512,0,0,0,2.04-.888,2.151,2.151,0,0,0,1.9.888V10.1c-1.08,0-1.248-.732-1.248-1.632V6.824h1.044V5.948H66.372V4.868H65.34V5.936Zm1.62.888V8.54a1.659,1.659,0,0,1-3.312-.072A1.667,1.667,0,0,1,63.7,6.824Zm7.116-4.092V11h5.016V9.956h-3.9V7.46h3.3V6.416h-3.3V3.776h3.78V2.732ZM83.313,11h1.08V5.4h-1.08v.84a2.269,2.269,0,0,0-1.968-.96A2.793,2.793,0,0,0,78.5,8.192a2.811,2.811,0,0,0,2.844,2.928,2.287,2.287,0,0,0,1.968-.984ZM83.3,8.18a1.842,1.842,0,1,1-3.684,0,1.768,1.768,0,0,1,1.824-1.836A1.807,1.807,0,0,1,83.3,8.18Zm4.192.348.768.18c.408.1.756.3.744.708s-.348.7-.852.732a1.481,1.481,0,0,1-.888-.192.868.868,0,0,1-.456-.636h-1a1.963,1.963,0,0,0,2.088,1.8c1.164,0,2.172-.636,2.172-1.68a1.618,1.618,0,0,0-1.452-1.632l-.828-.2a.984.984,0,0,1-.66-.432.619.619,0,0,1-.012-.444.829.829,0,0,1,.84-.5.8.8,0,0,1,.876.636h1.044a1.74,1.74,0,0,0-1.944-1.584A1.837,1.837,0,0,0,85.993,6.7C85.9,7.736,86.473,8.252,87.493,8.528Zm5.42,5.2L96.392,5.4H95.228l-1.68,4.056L91.868,5.4H90.7l2.244,5.436-1.176,2.892ZM39.6,23.868a2.319,2.319,0,0,0,2.16-2.544,2.367,2.367,0,0,0-2.448-2.592h-3.18V27h1.128V23.9h1.056L40.448,27H41.8Zm-.324-4.092A1.367,1.367,0,0,1,40.6,21.324a1.361,1.361,0,0,1-1.38,1.536H37.256V19.776ZM43.8,23.76a1.7,1.7,0,0,1,1.776-1.5,1.646,1.646,0,0,1,1.7,1.5Zm4.56.42a2.71,2.71,0,0,0-2.784-2.9,2.776,2.776,0,0,0-2.868,2.9,2.909,2.909,0,0,0,5.448,1.452c-.3-.12-.648-.24-.936-.36a1.814,1.814,0,0,1-1.608.864A1.738,1.738,0,0,1,43.8,24.612h4.548C48.364,24.492,48.364,24.312,48.364,24.18Zm2.9-2.784V19.284H50.172V21.4H49.164v.924h1.008V27h1.092V22.32h1.188V21.4Zm6.253,3.024a1.483,1.483,0,0,1-1.584,1.632c-.768,0-1.224-.552-1.224-1.488V21.4H53.617v3.24c-.012,1.572.756,2.484,2.16,2.484a1.958,1.958,0,0,0,1.74-.96V27h1.092V21.4H57.517Zm4,.54c0-1.488.456-2.64,1.536-2.64a1.95,1.95,0,0,1,.828.192l.168-1.02a2.076,2.076,0,0,0-.972-.216c-.732,0-1.272.4-1.56,1.38V21.4H60.428V27H61.52Zm4.734-.984a1.489,1.489,0,0,1,1.584-1.632c.768,0,1.236.552,1.236,1.488V27h1.092V23.76c0-1.572-.768-2.484-2.16-2.484a1.977,1.977,0,0,0-1.752.96V21.4H65.162V27h1.092Zm6.942.552.768.18c.408.1.756.3.744.708s-.348.7-.852.732a1.481,1.481,0,0,1-.888-.192.868.868,0,0,1-.456-.636h-1a1.963,1.963,0,0,0,2.088,1.8c1.164,0,2.172-.636,2.172-1.68a1.618,1.618,0,0,0-1.452-1.632l-.828-.2a.984.984,0,0,1-.66-.432.619.619,0,0,1-.012-.444.829.829,0,0,1,.84-.5.8.8,0,0,1,.876.636h1.044a1.74,1.74,0,0,0-1.944-1.584A1.837,1.837,0,0,0,71.7,22.7C71.6,23.736,72.176,24.252,73.2,24.528Z" fill="#767474"/>
      <circle id="Ellipse_1" data-name="Ellipse 1" cx="12" cy="12" r="12" transform="translate(0.5 3.5)" fill="none" stroke="#767474" stroke-width="1"/>
      <path id="Path_8" data-name="Path 8" d="M4.566,17.971c-.072-.23-.134-.465-.185-.7a.223.223,0,0,0-.435.1c.054.246.119.494.195.736a.223.223,0,0,0,.425-.132Z" fill="#767474"/>
      <path id="Path_9" data-name="Path 9" d="M5.113,19.308c-.109-.214-.21-.435-.3-.657a.223.223,0,0,0-.048-.073.221.221,0,0,0-.072-.049.223.223,0,0,0-.293.29c.095.234.2.466.317.692a.223.223,0,0,0,.4-.2Z" fill="#767474"/>
      <path id="Path_10" data-name="Path 10" d="M4.064,16.81a.223.223,0,0,0,.192-.25c-.031-.238-.053-.479-.065-.72a.219.219,0,0,0-.233-.212.223.223,0,0,0-.212.233c.012.253.035.508.068.757a.223.223,0,0,0,.25.192Z" fill="#767474"/>
      <path id="Path_11" data-name="Path 11" d="M5.469,19.938a.223.223,0,1,0-.378.235c.134.214.277.425.428.628a.223.223,0,0,0,.233.083.221.221,0,0,0,.078-.037.223.223,0,0,0,.045-.312C5.733,20.342,5.6,20.141,5.469,19.938Z" fill="#767474"/>
      <path id="Path_12" data-name="Path 12" d="M7.956,22.523c-.2-.134-.395-.279-.582-.43a.223.223,0,1,0-.279.347c.2.158.4.31.612.452a.223.223,0,1,0,.249-.369Z" fill="#767474"/>
      <path id="Path_13" data-name="Path 13" d="M6.331,21.1a.223.223,0,0,0-.333.3c.168.189.346.374.528.548a.223.223,0,1,0,.307-.322C6.659,21.451,6.49,21.276,6.331,21.1Z" fill="#767474"/>
      <path id="Path_14" data-name="Path 14" d="M12.737,6.43a9.016,9.016,0,0,0-7.36,3.821.223.223,0,0,0,.364.256,8.55,8.55,0,1,1,3.48,12.718c-.218-.1-.436-.208-.646-.325a.223.223,0,1,0-.217.389c.221.124.45.239.68.342a9,9,0,1,0,3.7-17.2Z" fill="#767474"/>
      <path id="Path_15" data-name="Path 15" d="M4.832,10.617a.619.619,0,0,0,.709.513l1.15-.185a.223.223,0,0,0-.071-.44l-1.15.186a.174.174,0,0,1-.2-.144L5.086,9.4a.223.223,0,0,0-.44.071Z" fill="#767474"/>
      <path id="Path_16" data-name="Path 16" d="M18.394,12.256h0V18.6h0a.245.245,0,0,1-.129.215h0l-5.409,2.849h0a.242.242,0,0,1-.226,0h0l-5.41-2.85h0a.244.244,0,0,1-.13-.214V12.256h0a.24.24,0,0,1,.129-.213h0L12.63,9.191h0a.242.242,0,0,1,.226,0h0l1.714.9h0L16.287,11h0l1.978,1.042h0a.242.242,0,0,1,.128.214Z" fill="none" stroke="#767474" stroke-width="0.5"/>
      <path id="Path_17" data-name="Path 17" d="M12.744,15.11a.715.715,0,0,1-.323-.077L7.033,12.306a.223.223,0,0,1,.117-.423.224.224,0,0,1,.084.026l5.388,2.727a.271.271,0,0,0,.243,0l5.379-2.723a.223.223,0,1,1,.2.4l-5.379,2.722A.715.715,0,0,1,12.744,15.11Z" fill="#767474"/>
      <path id="Path_18" data-name="Path 18" d="M16.4,10.78l-5.672,2.871a.493.493,0,0,0-.27.439v2.544a.245.245,0,0,1-.423.169L9.552,16.3a.244.244,0,0,0-.229-.071l-.318.068a.246.246,0,0,1-.3-.24V13.2a.491.491,0,0,1,.27-.438l5.707-2.889h0Z" fill="#767474"/>
      <path id="Path_19" data-name="Path 19" d="M12.742,21.868a.223.223,0,0,1-.223-.223V14.888a.223.223,0,1,1,.445,0v6.757a.223.223,0,0,1-.223.223Z" fill="#767474"/>
    </g>
  </g>
</svg>
