<svg width="25" height="25" viewBox="0 0 25 25" fill="none" xmlns="http://www.w3.org/2000/svg">
<path d="M11.9799 6.77979C11.8367 6.77979 11.7199 6.89658 11.7199 7.03979V9.05479L10.4199 11.6548V11.1998C10.4199 11.0566 10.3031 10.9398 10.1599 10.9398H6.77993C6.70579 10.9398 6.63469 10.9733 6.58493 11.0292C6.53516 11.085 6.51079 11.1581 6.51993 11.2323L7.29993 17.4723C7.31618 17.6023 7.42891 17.6998 7.55993 17.6998H10.1599C10.3031 17.6998 10.4199 17.584 10.4199 17.4398V17.1798H10.7206C10.8282 17.4824 11.1207 17.6998 11.4599 17.6998H16.3999C16.9738 17.6998 17.4399 17.2336 17.4399 16.6598C17.4399 16.4455 17.3719 16.2485 17.2612 16.0829C17.6664 15.9407 17.9599 15.5528 17.9599 15.0998C17.9599 14.8449 17.8685 14.6143 17.7162 14.4335C18.0178 14.2517 18.2199 13.9176 18.2199 13.5398C18.2199 13.2849 18.1285 13.0543 17.9762 12.8735C18.2778 12.6917 18.4799 12.3576 18.4799 11.9798C18.4799 11.406 18.0138 10.9398 17.4399 10.9398H13.6374C13.7959 10.4381 14.0599 9.54025 14.0599 9.11979C14.0599 8.14072 13.3429 6.77979 12.6381 6.77979H11.9799ZM12.2399 7.29979H12.6381C12.8767 7.29979 13.5399 8.20471 13.5399 9.11979C13.5399 9.52705 13.1763 10.7011 13.0362 11.1185C13.0088 11.1978 13.0199 11.2861 13.0687 11.3542C13.1174 11.4222 13.1966 11.4598 13.2799 11.4598H17.4399C17.7263 11.4598 17.9599 11.6934 17.9599 11.9798C17.9599 12.2662 17.7263 12.4998 17.4399 12.4998H17.1799C17.0357 12.4998 16.9199 12.6156 16.9199 12.7598C16.9199 12.904 17.0357 13.0198 17.1799 13.0198C17.4663 13.0198 17.6999 13.2534 17.6999 13.5398C17.6999 13.8262 17.4663 14.0598 17.1799 14.0598H16.9199C16.7757 14.0598 16.6599 14.1756 16.6599 14.3198C16.6599 14.464 16.7757 14.5798 16.9199 14.5798C17.2063 14.5798 17.4399 14.8134 17.4399 15.0998C17.4399 15.3862 17.2063 15.6198 16.9199 15.6198H16.3999C16.2557 15.6198 16.1399 15.7356 16.1399 15.8798C16.1399 16.024 16.2557 16.1398 16.3999 16.1398C16.6863 16.1398 16.9199 16.3734 16.9199 16.6598C16.9199 16.9462 16.6863 17.1798 16.3999 17.1798H11.4599C11.3167 17.1798 11.1999 17.063 11.1999 16.9198C11.1999 16.7756 11.0831 16.6598 10.9399 16.6598H10.4199V12.2398H10.5499C10.6484 12.2398 10.7409 12.1819 10.7856 12.0935L12.2156 9.23354C12.2338 9.19799 12.2399 9.16041 12.2399 9.11979V7.29979ZM7.07243 11.4598H9.89993V17.1798H7.78743L7.07243 11.4598ZM8.98993 15.8798C8.77461 15.8798 8.59993 16.0545 8.59993 16.2698C8.59993 16.4851 8.77461 16.6598 8.98993 16.6598C9.20524 16.6598 9.37993 16.4851 9.37993 16.2698C9.37993 16.0545 9.20524 15.8798 8.98993 15.8798Z" fill="#767474"/>
<circle cx="12.5" cy="12.5" r="12" stroke="#767474"/>
</svg>
