<svg width="55" height="55" viewBox="0 0 55 55" fill="none" xmlns="http://www.w3.org/2000/svg">
<g clip-path="url(#clip0_1545:358)">
<path d="M34.835 47.3314H20.3414C19.3028 47.3303 18.307 46.9171 17.5725 46.1827C16.8381 45.4483 16.425 44.4525 16.4238 43.4138V11.5841C16.425 10.5454 16.8381 9.54965 17.5725 8.81521C18.307 8.08076 19.3028 7.66765 20.3414 7.6665H34.835C35.8737 7.66765 36.8695 8.08076 37.6039 8.81521C38.3384 9.54965 38.7515 10.5454 38.7526 11.5841V43.4138C38.7515 44.4525 38.3384 45.4483 37.6039 46.1827C36.8695 46.9171 35.8737 47.3303 34.835 47.3314V47.3314ZM20.3458 9.14183C19.6993 9.1424 19.0796 9.39944 18.6225 9.85652C18.1654 10.3136 17.9084 10.9334 17.9078 11.5798V43.4138C17.9084 44.0602 18.1654 44.68 18.6225 45.1371C19.0796 45.5941 19.6993 45.8512 20.3458 45.8518H34.8394C35.4858 45.8512 36.1055 45.5941 36.5626 45.1371C37.0197 44.68 37.2767 44.0602 37.2773 43.4138V11.5841C37.2776 11.2633 37.2146 10.9456 37.092 10.6492C36.9694 10.3527 36.7895 10.0834 36.5626 9.85652C36.3358 9.62968 36.0664 9.44979 35.77 9.32715C35.4736 9.20452 35.1558 9.14154 34.835 9.14183H20.3458Z" fill="#80C5EF"/>
<path d="M31.7943 9.1417H23.2496C23.0534 9.1417 22.8652 9.06375 22.7265 8.92501C22.5877 8.78626 22.5098 8.59809 22.5098 8.40187V7.0888C22.5103 6.51181 22.7398 5.95862 23.1478 5.55063C23.5558 5.14263 24.109 4.91317 24.686 4.9126H30.3579C30.6444 4.91231 30.9281 4.96852 31.1927 5.078C31.4574 5.18748 31.6979 5.34809 31.9004 5.55063C32.103 5.75316 32.2636 5.99365 32.3731 6.25834C32.4826 6.52302 32.5388 6.80669 32.5385 7.09313V8.4062C32.5379 8.50336 32.5182 8.59945 32.4805 8.68899C32.4428 8.77854 32.3878 8.85977 32.3187 8.92807C32.2496 8.99637 32.1678 9.05039 32.0778 9.08704C31.9878 9.1237 31.8915 9.14227 31.7943 9.1417V9.1417ZM23.9894 7.66206H31.0545V7.0888C31.0545 6.90406 30.9811 6.72689 30.8505 6.59626C30.7199 6.46563 30.5427 6.39224 30.3579 6.39224H24.686C24.5012 6.39224 24.3241 6.46563 24.1934 6.59626C24.0628 6.72689 23.9894 6.90406 23.9894 7.0888V7.66206Z" fill="#80C5EF"/>
<path d="M35.6273 13.0031H19.3707C19.1745 13.0031 18.9863 12.9251 18.8476 12.7864C18.7088 12.6476 18.6309 12.4595 18.6309 12.2633C18.6309 12.067 18.7088 11.8789 18.8476 11.7401C18.9863 11.6014 19.1745 11.5234 19.3707 11.5234H35.6273C35.8235 11.5234 36.0117 11.6014 36.1505 11.7401C36.2892 11.8789 36.3671 12.067 36.3671 12.2633C36.3671 12.4595 36.2892 12.6476 36.1505 12.7864C36.0117 12.9251 35.8235 13.0031 35.6273 13.0031V13.0031Z" fill="#80C5EF"/>
<path d="M35.6273 19.0926H19.3707C19.2735 19.0926 19.1773 19.0735 19.0876 19.0363C18.9978 18.9991 18.9163 18.9446 18.8476 18.8759C18.7789 18.8072 18.7244 18.7257 18.6872 18.6359C18.65 18.5462 18.6309 18.45 18.6309 18.3528V14.4244C18.6309 14.3272 18.65 14.231 18.6872 14.1413C18.7244 14.0515 18.7789 13.97 18.8476 13.9013C18.9163 13.8326 18.9978 13.7781 19.0876 13.7409C19.1773 13.7037 19.2735 13.6846 19.3707 13.6846H35.6273C35.7245 13.6846 35.8207 13.7037 35.9104 13.7409C36.0002 13.7781 36.0818 13.8326 36.1505 13.9013C36.2192 13.97 36.2736 14.0515 36.3108 14.1413C36.348 14.231 36.3671 14.3272 36.3671 14.4244V18.355C36.3666 18.5508 36.2884 18.7384 36.1497 18.8767C36.011 19.015 35.8232 19.0926 35.6273 19.0926V19.0926ZM20.1105 17.613H34.8875V15.1642H20.1105V17.613Z" fill="#80C5EF"/>
<path d="M35.6273 30.0971H19.3707C19.2735 30.0971 19.1773 30.078 19.0876 30.0408C18.9978 30.0036 18.9163 29.9491 18.8476 29.8804C18.7789 29.8117 18.7244 29.7302 18.6872 29.6404C18.65 29.5507 18.6309 29.4544 18.6309 29.3573V20.5162C18.6309 20.419 18.65 20.3228 18.6872 20.2331C18.7244 20.1433 18.7789 20.0618 18.8476 19.9931C18.9163 19.9244 18.9978 19.8699 19.0876 19.8327C19.1773 19.7955 19.2735 19.7764 19.3707 19.7764H35.6273C35.7245 19.7764 35.8207 19.7955 35.9104 19.8327C36.0002 19.8699 36.0818 19.9244 36.1505 19.9931C36.2192 20.0618 36.2736 20.1433 36.3108 20.2331C36.348 20.3228 36.3671 20.419 36.3671 20.5162V29.3573C36.3671 29.4544 36.348 29.5507 36.3108 29.6404C36.2736 29.7302 36.2192 29.8117 36.1505 29.8804C36.0818 29.9491 36.0002 30.0036 35.9104 30.0408C35.8207 30.078 35.7245 30.0971 35.6273 30.0971V30.0971ZM20.1105 28.611H34.8875V21.256H20.1105V28.611Z" fill="#80C5EF"/>
<path d="M35.6273 45.3217H19.3707C19.2735 45.3217 19.1773 45.3026 19.0876 45.2654C18.9978 45.2282 18.9163 45.1737 18.8476 45.105C18.7789 45.0363 18.7244 44.9548 18.6872 44.865C18.65 44.7752 18.6309 44.679 18.6309 44.5819V31.2716C18.6309 31.0753 18.7088 30.8872 18.8476 30.7484C18.9863 30.6097 19.1745 30.5317 19.3707 30.5317H35.6273C35.8235 30.5317 36.0117 30.6097 36.1505 30.7484C36.2892 30.8872 36.3671 31.0753 36.3671 31.2716V44.5819C36.3671 44.679 36.348 44.7752 36.3108 44.865C36.2736 44.9548 36.2192 45.0363 36.1505 45.105C36.0818 45.1737 36.0002 45.2282 35.9104 45.2654C35.8207 45.3026 35.7245 45.3217 35.6273 45.3217V45.3217ZM20.1105 43.8421H34.8875V32.0114H20.1105V43.8421Z" fill="#80C5EF"/>
<path d="M27.5013 55.0022C22.0621 55.0026 16.7449 53.3901 12.2222 50.3686C7.69939 47.3471 4.17417 43.0523 2.09228 38.0273C0.010395 33.0023 -0.534653 27.4728 0.526063 22.138C1.58678 16.8032 4.20562 11.9028 8.05141 8.05642C11.8972 4.21002 16.7972 1.59042 22.1318 0.528861C27.4664 -0.532694 32.996 0.0114813 38.0213 2.09258C43.0467 4.17367 47.342 7.69822 50.3642 12.2205C53.3865 16.7428 54.9998 22.0597 55.0002 27.4989C54.9928 34.7902 52.0933 41.7808 46.938 46.9369C41.7827 52.093 34.7926 54.9936 27.5013 55.0022V55.0022ZM27.5013 1.48182C22.3546 1.48182 17.3234 3.00806 13.0441 5.86753C8.76482 8.72699 5.42959 12.7912 3.46022 17.5463C1.49084 22.3013 0.975786 27.5336 1.98018 32.5814C2.98457 37.6292 5.4633 42.2657 9.1029 45.9047C12.7425 49.5437 17.3795 52.0217 22.4274 53.0252C27.4754 54.0288 32.7075 53.5129 37.4623 51.5427C42.217 49.5725 46.2807 46.2366 49.1394 41.9568C51.9982 37.6771 53.5236 32.6457 53.5227 27.4989C53.5147 20.6003 50.7705 13.9865 45.8922 9.10862C41.014 4.23073 34.4 1.4871 27.5013 1.47966V1.48182Z" fill="#80C5EF"/>
</g>
<defs>
<clipPath id="clip0_1545:358">
<rect width="55" height="55" fill="white"/>
</clipPath>
</defs>
</svg>
