<svg width="25" height="25" viewBox="0 0 25 25" fill="none" xmlns="http://www.w3.org/2000/svg">
<mask id="path-1-inside-1" fill="white">
<path d="M12.5001 6C11.8623 6 11.324 6.35242 10.5257 6.76375C9.72745 7.17508 8.65597 7.67172 6.98323 8.03937L6.78011 8.08812V8.29125C6.78011 12.2745 8.17659 14.9365 9.57511 16.5869C10.9736 18.2373 12.3945 18.8944 12.3945 18.8944L12.5082 18.9512L12.622 18.8944C12.622 18.8944 18.2201 16.0019 18.2201 8.29125V8.08812L18.017 8.03937C16.3443 7.67172 15.2728 7.17508 14.4745 6.76375C13.6762 6.35242 13.1379 6 12.5001 6ZM12.5001 6.52C12.9277 6.52 13.4233 6.80742 14.2389 7.22687C15.0138 7.625 16.1035 8.11352 17.6839 8.48625C17.5884 15.5367 12.8261 18.1814 12.492 18.3581C12.3305 18.2799 11.2052 17.7173 9.96511 16.2537C8.658 14.711 7.36409 12.2298 7.31636 8.48625C8.89667 8.11352 9.98644 7.625 10.7614 7.22687C11.5769 6.80742 12.0725 6.52 12.5001 6.52Z"/>
</mask>
<path d="M12.5001 6C11.8623 6 11.324 6.35242 10.5257 6.76375C9.72745 7.17508 8.65597 7.67172 6.98323 8.03937L6.78011 8.08812V8.29125C6.78011 12.2745 8.17659 14.9365 9.57511 16.5869C10.9736 18.2373 12.3945 18.8944 12.3945 18.8944L12.5082 18.9512L12.622 18.8944C12.622 18.8944 18.2201 16.0019 18.2201 8.29125V8.08812L18.017 8.03937C16.3443 7.67172 15.2728 7.17508 14.4745 6.76375C13.6762 6.35242 13.1379 6 12.5001 6ZM12.5001 6.52C12.9277 6.52 13.4233 6.80742 14.2389 7.22687C15.0138 7.625 16.1035 8.11352 17.6839 8.48625C17.5884 15.5367 12.8261 18.1814 12.492 18.3581C12.3305 18.2799 11.2052 17.7173 9.96511 16.2537C8.658 14.711 7.36409 12.2298 7.31636 8.48625C8.89667 8.11352 9.98644 7.625 10.7614 7.22687C11.5769 6.80742 12.0725 6.52 12.5001 6.52Z" fill="#767474"/>
<path d="M10.5257 6.76375L9.60966 4.98588L9.60966 4.98588L10.5257 6.76375ZM6.98323 8.03937L6.5539 6.086L6.53515 6.09012L6.51649 6.0946L6.98323 8.03937ZM6.78011 8.08812L6.31336 6.14335L4.78011 6.51133V8.08812H6.78011ZM12.3945 18.8944L13.2889 17.1055L13.2617 17.0919L13.234 17.0791L12.3945 18.8944ZM12.5082 18.9512L11.6138 20.7401L12.5082 21.1873L13.4027 20.7401L12.5082 18.9512ZM12.622 18.8944L13.5164 20.6832L13.5283 20.6773L13.5401 20.6712L12.622 18.8944ZM18.2201 8.08812H20.2201V6.51133L18.6869 6.14335L18.2201 8.08812ZM18.017 8.03937L18.4837 6.0946L18.4651 6.09012L18.4463 6.086L18.017 8.03937ZM14.4745 6.76375L13.5584 8.54162H13.5584L14.4745 6.76375ZM14.2389 7.22687L13.3241 9.00543L13.3249 9.00583L14.2389 7.22687ZM17.6839 8.48625L19.6837 8.51333L19.7054 6.90818L18.143 6.53966L17.6839 8.48625ZM12.492 18.3581L11.6203 20.1582L12.5318 20.5996L13.427 20.1261L12.492 18.3581ZM9.96511 16.2537L8.43918 17.5466L8.43922 17.5467L9.96511 16.2537ZM7.31636 8.48625L6.85723 6.53966L5.29607 6.90788L5.31652 8.51175L7.31636 8.48625ZM10.7614 7.22687L11.6753 9.00583L11.6761 9.00542L10.7614 7.22687ZM12.5001 4C11.794 4 11.2099 4.20053 10.7612 4.39985C10.3799 4.56923 9.89618 4.83825 9.60966 4.98588L11.4418 8.54162C11.6486 8.43505 11.869 8.31639 12.0128 8.24075C12.1769 8.15435 12.291 8.09716 12.385 8.0554C12.5645 7.97568 12.5684 8 12.5001 8V4ZM9.60966 4.98588C8.91204 5.34535 8.0075 5.76651 6.5539 6.086L7.41257 9.99275C9.30444 9.57693 10.5429 9.00481 11.4418 8.54162L9.60966 4.98588ZM6.51649 6.0946L6.31336 6.14335L7.24686 10.0329L7.44998 9.98415L6.51649 6.0946ZM4.78011 8.08812V8.29125H8.78011V8.08812H4.78011ZM4.78011 8.29125C4.78011 12.7867 6.37054 15.8988 8.04926 17.8799L11.101 15.2939C9.98265 13.9742 8.78011 11.7624 8.78011 8.29125H4.78011ZM8.04926 17.8799C8.87891 18.8589 9.71883 19.5481 10.3632 19.9986C10.6862 20.2244 10.9628 20.3922 11.1686 20.5082C11.2717 20.5663 11.3573 20.6116 11.4226 20.6449C11.4553 20.6615 11.4829 20.6752 11.505 20.6859C11.5161 20.6913 11.5259 20.696 11.5342 20.6999C11.5384 20.7019 11.5422 20.7037 11.5456 20.7053C11.5474 20.7061 11.549 20.7069 11.5506 20.7076C11.5514 20.708 11.5521 20.7083 11.5528 20.7087C11.5532 20.7088 11.5537 20.7091 11.5539 20.7092C11.5544 20.7094 11.555 20.7096 12.3945 18.8944C13.234 17.0791 13.2345 17.0793 13.235 17.0796C13.2352 17.0796 13.2357 17.0799 13.236 17.08C13.2366 17.0803 13.2373 17.0806 13.2379 17.0809C13.2391 17.0815 13.2402 17.082 13.2413 17.0825C13.2433 17.0835 13.2451 17.0843 13.2465 17.085C13.2494 17.0863 13.251 17.0871 13.2513 17.0873C13.252 17.0876 13.2477 17.0855 13.2388 17.081C13.2209 17.0719 13.1846 17.0529 13.1326 17.0236C13.0283 16.9648 12.8623 16.8652 12.6552 16.7204C12.2396 16.4298 11.6698 15.9652 11.101 15.2939L8.04926 17.8799ZM11.5001 20.6832L11.6138 20.7401L13.4027 17.1624L13.2889 17.1055L11.5001 20.6832ZM13.4027 20.7401L13.5164 20.6832L11.7276 17.1055L11.6138 17.1624L13.4027 20.7401ZM12.622 18.8944C13.5401 20.6712 13.541 20.6707 13.542 20.6702C13.5424 20.67 13.5434 20.6695 13.5441 20.6691C13.5455 20.6684 13.547 20.6676 13.5487 20.6667C13.5519 20.6651 13.5554 20.6632 13.5593 20.6611C13.5672 20.657 13.5763 20.6521 13.5869 20.6465C13.6079 20.6351 13.6342 20.6207 13.6655 20.6031C13.7281 20.5679 13.8107 20.5199 13.9103 20.4586C14.1095 20.3361 14.3781 20.1597 14.6928 19.9248C15.3207 19.4563 16.1421 18.7475 16.9603 17.7613C18.6144 15.7675 20.2201 12.6764 20.2201 8.29125H16.2201C16.2201 11.6167 15.0268 13.8272 13.8818 15.2073C13.3004 15.9081 12.7223 16.4043 12.3005 16.7191C12.0904 16.8759 11.9217 16.9857 11.8147 17.0515C11.7613 17.0843 11.7236 17.106 11.7042 17.1169C11.6945 17.1224 11.6894 17.1251 11.6892 17.1252C11.6892 17.1253 11.6903 17.1246 11.6927 17.1234C11.694 17.1227 11.6955 17.1219 11.6974 17.1209C11.6983 17.1205 11.6993 17.1199 11.7004 17.1194C11.7009 17.1191 11.7018 17.1186 11.7021 17.1185C11.703 17.118 11.7039 17.1175 12.622 18.8944ZM20.2201 8.29125V8.08812H16.2201V8.29125H20.2201ZM18.6869 6.14335L18.4837 6.0946L17.5502 9.98415L17.7534 10.0329L18.6869 6.14335ZM18.4463 6.086C16.9927 5.76651 16.0882 5.34535 15.3906 4.98588L13.5584 8.54162C14.4574 9.00481 15.6958 9.57693 17.5876 9.99275L18.4463 6.086ZM15.3906 4.98588C15.104 4.83825 14.6204 4.56923 14.2391 4.39985C13.7903 4.20053 13.2062 4 12.5001 4V8C12.4318 8 12.4357 7.97568 12.6152 8.0554C12.7092 8.09716 12.8233 8.15435 12.9875 8.24075C13.1312 8.31639 13.3516 8.43505 13.5584 8.54162L15.3906 4.98588ZM12.5001 8.52C12.285 8.52 12.2032 8.45096 12.4109 8.54339C12.4997 8.58291 12.6127 8.63825 12.7718 8.71969C12.9574 8.81472 13.0795 8.87962 13.3241 9.00542L15.1536 5.44832C14.8041 5.26858 14.3849 5.04367 14.0371 4.8889C13.6862 4.73275 13.1428 4.52 12.5001 4.52V8.52ZM13.3249 9.00583C14.2066 9.45882 15.4503 10.0143 17.2247 10.4328L18.143 6.53966C16.7568 6.21272 15.8209 5.79118 15.1528 5.44792L13.3249 9.00583ZM15.684 8.45917C15.6429 11.4987 14.6086 13.5019 13.6121 14.755C13.1052 15.3923 12.5961 15.8496 12.2069 16.1508C11.8174 16.4521 11.5569 16.5902 11.557 16.5902L13.427 20.1261C14.0368 19.8036 19.5737 16.6358 19.6837 8.51333L15.684 8.45917ZM13.3637 16.5581C13.3601 16.5563 13.3079 16.5314 13.2157 16.4772C13.1216 16.422 12.9833 16.335 12.8125 16.2103C12.4713 15.9611 11.9992 15.5606 11.491 14.9608L8.43922 17.5467C9.90671 19.2786 11.2829 19.9948 11.6203 20.1582L13.3637 16.5581ZM11.491 14.9609C10.4669 13.7521 9.35767 11.7133 9.3162 8.46075L5.31652 8.51175C5.37052 12.7464 6.84913 15.67 8.43918 17.5466L11.491 14.9609ZM7.77548 10.4328C9.54995 10.0143 10.7936 9.45882 11.6753 9.00583L9.8474 5.44792C9.17927 5.79118 8.24339 6.21272 6.85723 6.53966L7.77548 10.4328ZM11.6761 9.00542C11.9207 8.87962 12.0428 8.81472 12.2285 8.71969C12.3875 8.63825 12.5005 8.58291 12.5893 8.54339C12.7971 8.45096 12.7152 8.52 12.5001 8.52V4.52C11.8575 4.52 11.314 4.73275 10.9631 4.8889C10.6153 5.04367 10.1961 5.26858 9.84661 5.44832L11.6761 9.00542Z" fill="#767474" mask="url(#path-1-inside-1)"/>
<circle cx="12.5" cy="12.5" r="12" stroke="#767474"/>
</svg>
