<svg width="25" height="25" viewBox="0 0 25 25" fill="none" xmlns="http://www.w3.org/2000/svg">
<circle cx="12.5" cy="12.5" r="12" stroke="#767474"/>
<path d="M5.54533 22.1177C5.47737 22.1177 5.41218 22.0907 5.36412 22.0426C5.31606 21.9945 5.28906 21.9294 5.28906 21.8614V17.4672C5.28906 17.3992 5.31606 17.3341 5.36412 17.286C5.41218 17.2379 5.47737 17.2109 5.54533 17.2109C5.6133 17.2109 5.67848 17.2379 5.72654 17.286C5.7746 17.3341 5.8016 17.3992 5.8016 17.4672V21.8699C5.79939 21.9364 5.77141 21.9994 5.72359 22.0456C5.67577 22.0919 5.61184 22.1177 5.54533 22.1177Z" fill="#767474"/>
<path d="M5.54533 15.2549C5.47737 15.2549 5.41218 15.2279 5.36412 15.1798C5.31606 15.1317 5.28906 15.0666 5.28906 14.9986V9.79973C5.28906 9.73176 5.31606 9.66658 5.36412 9.61852C5.41218 9.57046 5.47737 9.54346 5.54533 9.54346C5.6133 9.54346 5.67848 9.57046 5.72654 9.61852C5.7746 9.66658 5.8016 9.73176 5.8016 9.79973V14.9986C5.8016 15.0666 5.7746 15.1317 5.72654 15.1798C5.67848 15.2279 5.6133 15.2549 5.54533 15.2549Z" fill="#767474"/>
<path d="M5.54533 6.91409C5.47737 6.91409 5.41218 6.88709 5.36412 6.83903C5.31606 6.79097 5.28906 6.72578 5.28906 6.65782V2.42082C5.28906 2.35285 5.31606 2.28767 5.36412 2.23961C5.41218 2.19155 5.47737 2.16455 5.54533 2.16455C5.6133 2.16455 5.67848 2.19155 5.72654 2.23961C5.7746 2.28767 5.8016 2.35285 5.8016 2.42082V6.66465C5.79982 6.73143 5.77203 6.79487 5.72417 6.84146C5.6763 6.88805 5.61213 6.91411 5.54533 6.91409Z" fill="#767474"/>
<path d="M19.1352 22.7498C19.0672 22.7498 19.002 22.7228 18.954 22.6747C18.9059 22.6267 18.8789 22.5615 18.8789 22.4935V17.4672C18.8789 17.3992 18.9059 17.3341 18.954 17.286C19.002 17.2379 19.0672 17.2109 19.1352 17.2109C19.2031 17.2109 19.2683 17.2379 19.3164 17.286C19.3644 17.3341 19.3914 17.3992 19.3914 17.4672V22.4935C19.3914 22.5615 19.3644 22.6267 19.3164 22.6747C19.2683 22.7228 19.2031 22.7498 19.1352 22.7498Z" fill="#767474"/>
<path d="M19.1352 15.2549C19.0672 15.2549 19.002 15.2279 18.954 15.1798C18.9059 15.1317 18.8789 15.0666 18.8789 14.9986V9.79973C18.8789 9.73176 18.9059 9.66658 18.954 9.61852C19.002 9.57046 19.0672 9.54346 19.1352 9.54346C19.2031 9.54346 19.2683 9.57046 19.3164 9.61852C19.3644 9.66658 19.3914 9.73176 19.3914 9.79973V14.9986C19.3914 15.0666 19.3644 15.1317 19.3164 15.1798C19.2683 15.2279 19.2031 15.2549 19.1352 15.2549Z" fill="#767474"/>
<path d="M19.1374 6.91428C19.0709 6.91386 19.0071 6.88761 18.9596 6.84106C18.9121 6.79452 18.8846 6.73133 18.8828 6.66485V2.25529C18.8828 2.18733 18.9098 2.12214 18.9579 2.07408C19.0059 2.02602 19.0711 1.99902 19.1391 1.99902C19.2071 1.99902 19.2722 2.02602 19.3203 2.07408C19.3684 2.12214 19.3954 2.18733 19.3954 2.25529V6.66485C19.3936 6.73192 19.3655 6.79561 19.3173 6.84225C19.2691 6.88889 19.2045 6.91475 19.1374 6.91428Z" fill="#767474"/>
<path d="M12.4281 24.8324C12.3602 24.8324 12.295 24.8054 12.2469 24.7573C12.1989 24.7093 12.1719 24.6441 12.1719 24.5761V22.2543C12.1719 22.1863 12.1989 22.1212 12.2469 22.0731C12.295 22.025 12.3602 21.998 12.4281 21.998C12.4961 21.998 12.5613 22.025 12.6094 22.0731C12.6574 22.1212 12.6844 22.1863 12.6844 22.2543V24.5761C12.6844 24.6441 12.6574 24.7093 12.6094 24.7573C12.5613 24.8054 12.4961 24.8324 12.4281 24.8324Z" fill="#767474"/>
<path d="M12.4281 20.2232C12.3602 20.2232 12.295 20.1962 12.2469 20.1482C12.1989 20.1001 12.1719 20.0349 12.1719 19.9669V13.4526C12.1719 13.3846 12.1989 13.3194 12.2469 13.2713C12.295 13.2233 12.3602 13.1963 12.4281 13.1963C12.4961 13.1963 12.5613 13.2233 12.6094 13.2713C12.6574 13.3194 12.6844 13.3846 12.6844 13.4526V19.9669C12.6844 20.0349 12.6574 20.1001 12.6094 20.1482C12.5613 20.1962 12.4961 20.2232 12.4281 20.2232Z" fill="#767474"/>
<path d="M12.4281 11.2397C12.3602 11.2397 12.295 11.2127 12.2469 11.1647C12.1989 11.1166 12.1719 11.0514 12.1719 10.9835V5.78459C12.1719 5.71662 12.1989 5.65144 12.2469 5.60338C12.295 5.55532 12.3602 5.52832 12.4281 5.52832C12.4961 5.52832 12.5613 5.55532 12.6094 5.60338C12.6574 5.65144 12.6844 5.71662 12.6844 5.78459V10.9835C12.6844 11.0514 12.6574 11.1166 12.6094 11.1647C12.5613 11.2127 12.4961 11.2397 12.4281 11.2397Z" fill="#767474"/>
<path d="M12.4281 3.36227C12.3602 3.36227 12.295 3.33526 12.2469 3.2872C12.1989 3.23914 12.1719 3.17396 12.1719 3.106V0.25627C12.1719 0.188303 12.1989 0.123123 12.2469 0.0750635C12.295 0.0270035 12.3602 0 12.4281 0C12.4961 0 12.5613 0.0270035 12.6094 0.0750635C12.6574 0.123123 12.6844 0.188303 12.6844 0.25627V3.106C12.6844 3.17396 12.6574 3.23914 12.6094 3.2872C12.5613 3.33526 12.4961 3.36227 12.4281 3.36227Z" fill="#767474"/>
<path d="M5.69368 8.49954H5.3144C3.96471 8.49954 3.0336 7.6846 2.21182 6.96192C2.06319 6.83036 1.91625 6.70223 1.76933 6.58093C1.7433 6.5595 1.72175 6.53316 1.7059 6.50341C1.69006 6.47365 1.68023 6.44107 1.67698 6.40751C1.67373 6.37396 1.67712 6.3401 1.68695 6.30785C1.69679 6.27561 1.71288 6.24561 1.7343 6.21959C1.75573 6.19356 1.78207 6.17201 1.81183 6.15617C1.84158 6.14032 1.87417 6.13049 1.90772 6.12724C1.94128 6.12399 1.97514 6.12738 2.00738 6.13721C2.03963 6.14705 2.06962 6.16314 2.09564 6.18456C2.24599 6.30928 2.39633 6.44084 2.5501 6.57581C3.33941 7.26773 4.15776 7.98187 5.3144 7.98187H5.69368C6.85031 7.98187 7.66696 7.26773 8.45798 6.57581C9.17041 5.95221 9.84354 5.36279 10.708 5.36279C10.776 5.36279 10.8412 5.38979 10.8892 5.43785C10.9373 5.48591 10.9643 5.5511 10.9643 5.61906C10.9643 5.68703 10.9373 5.75221 10.8892 5.80027C10.8412 5.84833 10.776 5.87533 10.708 5.87533C10.0366 5.87533 9.46085 6.37762 8.79455 6.96192C7.97448 7.68972 7.04336 8.49954 5.69368 8.49954Z" fill="#767474"/>
<path d="M19.2866 8.49954H18.9073C17.5577 8.49954 16.6265 7.6846 15.8065 6.96192C15.1402 6.37762 14.5644 5.87533 13.893 5.87533C13.825 5.87533 13.7598 5.84833 13.7118 5.80027C13.6637 5.75221 13.6367 5.68703 13.6367 5.61906C13.6367 5.5511 13.6637 5.48591 13.7118 5.43785C13.7598 5.38979 13.825 5.36279 13.893 5.36279C14.7575 5.36279 15.4306 5.95221 16.143 6.57581C16.9341 7.26773 17.7507 7.98187 18.9073 7.98187H19.2866C20.4433 7.98187 21.2599 7.26773 22.0509 6.57581C22.2303 6.41863 22.3926 6.26999 22.5754 6.12818C22.6282 6.08536 22.6958 6.06527 22.7634 6.07232C22.8311 6.07937 22.8931 6.11298 22.9359 6.16577C22.9787 6.21856 22.9988 6.2862 22.9918 6.3538C22.9847 6.4214 22.9511 6.48344 22.8983 6.52626C22.7275 6.66123 22.5566 6.80815 22.3858 6.96192C21.5674 7.68972 20.6363 8.49954 19.2866 8.49954Z" fill="#767474"/>
<path d="M8.12791 24.1236C8.09 24.1235 8.05259 24.115 8.01834 24.0988C7.98408 24.0825 7.95384 24.0589 7.92973 24.0297C7.90822 24.0037 7.89206 23.9738 7.88221 23.9416C7.87236 23.9093 7.86901 23.8755 7.87235 23.8419C7.87568 23.8084 7.88564 23.7759 7.90165 23.7462C7.91766 23.7165 7.9394 23.6904 7.96561 23.6692C8.13646 23.5308 8.29705 23.3873 8.45765 23.2472C9.17008 22.6236 9.84321 22.0342 10.7077 22.0342C10.7757 22.0342 10.8408 22.0612 10.8889 22.1092C10.937 22.1573 10.964 22.2225 10.964 22.2904C10.964 22.3584 10.937 22.4236 10.8889 22.4717C10.8408 22.5197 10.7757 22.5467 10.7077 22.5467C10.0363 22.5467 9.46052 23.049 8.79422 23.6333C8.62337 23.7768 8.46277 23.922 8.29022 24.0638C8.24461 24.1019 8.18728 24.123 8.12791 24.1236Z" fill="#767474"/>
<path d="M16.4718 24.1236C16.4122 24.1243 16.3544 24.103 16.3095 24.0638C16.1386 23.922 15.9678 23.7768 15.797 23.6333C15.1324 23.049 14.5566 22.5467 13.8852 22.5467C13.8172 22.5467 13.752 22.5197 13.704 22.4717C13.6559 22.4236 13.6289 22.3584 13.6289 22.2904C13.6289 22.2225 13.6559 22.1573 13.704 22.1092C13.752 22.0612 13.8172 22.0342 13.8852 22.0342C14.748 22.0342 15.4228 22.6236 16.1352 23.2472C16.2958 23.3873 16.4581 23.5308 16.6273 23.6692C16.6687 23.7031 16.6985 23.7492 16.7125 23.801C16.7264 23.8527 16.7237 23.9075 16.7048 23.9577C16.686 24.0079 16.6519 24.0508 16.6073 24.0806C16.5628 24.1104 16.51 24.1254 16.4564 24.1236H16.4718Z" fill="#767474"/>
<path d="M12.7476 12.6748H12.3683C11.0186 12.6748 10.0892 11.8599 9.26741 11.1372C8.6011 10.5529 8.02535 10.0506 7.35393 10.0506C7.28596 10.0506 7.22077 10.0236 7.17271 9.97556C7.12465 9.9275 7.09766 9.86232 7.09766 9.79436C7.09766 9.72639 7.12465 9.6612 7.17271 9.61314C7.22077 9.56508 7.28596 9.53809 7.35393 9.53809C8.21841 9.53809 8.89155 10.1275 9.60568 10.7511C10.395 11.443 11.2116 12.1572 12.3683 12.1572H12.7476C13.9059 12.1572 14.7225 11.443 15.5119 10.7511C16.226 10.1275 16.8991 9.53809 17.7636 9.53809C17.8316 9.53809 17.8968 9.56508 17.9448 9.61314C17.9929 9.6612 18.0199 9.72639 18.0199 9.79436C18.0199 9.86232 17.9929 9.9275 17.9448 9.97556C17.8968 10.0236 17.8316 10.0506 17.7636 10.0506C17.0922 10.0506 16.5164 10.5529 15.8501 11.1372C15.0284 11.8599 14.1007 12.6748 12.7476 12.6748Z" fill="#767474"/>
<path d="M24.3614 12.3197C24.3211 12.3198 24.2813 12.3104 24.2452 12.2924C23.68 11.9747 23.1561 11.5885 22.6854 11.1426C22.0191 10.5583 21.4433 10.056 20.7719 10.056C20.7039 10.056 20.6387 10.029 20.5907 9.98094C20.5426 9.93288 20.5156 9.86769 20.5156 9.79973C20.5156 9.73176 20.5426 9.66658 20.5907 9.61852C20.6387 9.57046 20.7039 9.54346 20.7719 9.54346C21.6347 9.54346 22.3095 10.1329 23.0219 10.7565C23.4611 11.1742 23.95 11.5363 24.4776 11.8345C24.5292 11.8605 24.5705 11.9031 24.5948 11.9555C24.6192 12.0079 24.6251 12.0669 24.6116 12.1231C24.5982 12.1793 24.5661 12.2293 24.5207 12.265C24.4753 12.3007 24.4191 12.3199 24.3614 12.3197Z" fill="#767474"/>
<path d="M0.257366 12.3109C0.199917 12.3112 0.144054 12.2921 0.0987403 12.2568C0.053427 12.2215 0.0212928 12.172 0.00749837 12.1162C-0.00629601 12.0604 -0.000954757 12.0016 0.0226706 11.9493C0.046296 11.8969 0.086832 11.854 0.137771 11.8274C0.656278 11.5309 1.13798 11.1742 1.57289 10.7648C2.28532 10.1412 2.95845 9.55176 3.82294 9.55176C3.8909 9.55176 3.95609 9.57876 4.00415 9.62682C4.05221 9.67488 4.07921 9.74006 4.07921 9.80803C4.07921 9.876 4.05221 9.94118 4.00415 9.98924C3.95609 10.0373 3.8909 10.0643 3.82294 10.0643C3.15151 10.0643 2.57576 10.5666 1.90946 11.1509C1.44537 11.5921 0.928989 11.9748 0.371835 12.2904C0.335947 12.3066 0.296627 12.3136 0.257366 12.3109Z" fill="#767474"/>
<path d="M22.4487 19.2816C22.3865 19.2836 22.3258 19.263 22.2778 19.2235C21.849 18.8733 21.3774 18.5487 20.8461 18.5487C20.7781 18.5487 20.713 18.5217 20.6649 18.4736C20.6168 18.4256 20.5898 18.3604 20.5898 18.2924C20.5898 18.2244 20.6168 18.1593 20.6649 18.1112C20.713 18.0631 20.7781 18.0361 20.8461 18.0361C21.5398 18.0361 22.1241 18.4359 22.6024 18.8272C22.6439 18.8611 22.6737 18.9072 22.6876 18.9589C22.7015 19.0107 22.6989 19.0655 22.68 19.1157C22.6611 19.1658 22.627 19.2088 22.5825 19.2386C22.5379 19.2683 22.4851 19.2834 22.4316 19.2816H22.4487Z" fill="#767474"/>
<path d="M2.22361 19.3551C2.17046 19.3564 2.11821 19.3412 2.0741 19.3115C2.02999 19.2818 1.99621 19.2391 1.97744 19.1894C1.95867 19.1396 1.95583 19.0853 1.96933 19.0338C1.98283 18.9824 2.01199 18.9364 2.05277 18.9023C2.59093 18.4513 3.18719 18.0361 3.90133 18.0361C3.9693 18.0361 4.03448 18.0631 4.08254 18.1112C4.1306 18.1593 4.1576 18.2244 4.1576 18.2924C4.1576 18.3604 4.1306 18.4256 4.08254 18.4736C4.03448 18.5217 3.9693 18.5487 3.90133 18.5487C3.38879 18.5487 2.91725 18.8459 2.38079 19.2953C2.3369 19.3328 2.28135 19.3539 2.22361 19.3551Z" fill="#767474"/>
<path d="M12.7476 4.32424H12.3683C11.0186 4.32424 10.0892 3.5093 9.26741 2.78662C8.6011 2.20233 8.02535 1.70004 7.35393 1.70004C7.28596 1.70004 7.22077 1.67304 7.17271 1.62498C7.12465 1.57692 7.09766 1.51174 7.09766 1.44377C7.09766 1.3758 7.12465 1.31062 7.17271 1.26256C7.22077 1.2145 7.28596 1.1875 7.35393 1.1875C8.21841 1.1875 8.89155 1.77692 9.60569 2.40051C10.395 3.09244 11.2116 3.80658 12.3683 3.80658H12.7476C13.9059 3.80658 14.7225 3.09244 15.5119 2.40051C16.1474 1.84355 16.7488 1.31734 17.4851 1.20459C17.5531 1.19439 17.6223 1.21161 17.6776 1.25246C17.7329 1.29332 17.7696 1.35445 17.7798 1.42241C17.79 1.49038 17.7728 1.55961 17.732 1.61488C17.6911 1.67015 17.63 1.70693 17.562 1.71713C16.9743 1.80426 16.4276 2.28263 15.8536 2.78833C15.0284 3.50931 14.1007 4.32424 12.7476 4.32424Z" fill="#767474"/>
<path d="M5.69287 16.3689H5.31359C3.9639 16.3689 3.03279 15.554 2.21101 14.8313C1.54471 14.247 0.970666 13.743 0.299239 13.743C0.231272 13.743 0.166087 13.716 0.118027 13.668C0.0699671 13.6199 0.0429688 13.5547 0.0429688 13.4867C0.0429688 13.4188 0.0699671 13.3536 0.118027 13.3055C0.166087 13.2575 0.231272 13.2305 0.299239 13.2305C1.15347 13.2305 1.83686 13.8216 2.54929 14.4452C3.3386 15.1371 4.15695 15.8513 5.31359 15.8513H5.69287C6.8495 15.8513 7.66615 15.1371 8.45717 14.4452C9.1696 13.8216 9.84273 13.2305 10.7072 13.2305C10.7752 13.2305 10.8404 13.2575 10.8884 13.3055C10.9365 13.3536 10.9635 13.4188 10.9635 13.4867C10.9635 13.5547 10.9365 13.6199 10.8884 13.668C10.8404 13.716 10.7752 13.743 10.7072 13.743C10.0358 13.743 9.46004 14.2555 8.79374 14.8313C7.97367 15.5489 7.04255 16.3689 5.69287 16.3689Z" fill="#767474"/>
<path d="M19.2866 16.3689H18.9073C17.5577 16.3689 16.6265 15.554 15.8065 14.8313C15.1402 14.247 14.5644 13.743 13.893 13.743C13.825 13.743 13.7598 13.716 13.7118 13.668C13.6637 13.6199 13.6367 13.5547 13.6367 13.4867C13.6367 13.4188 13.6637 13.3536 13.7118 13.3055C13.7598 13.2575 13.825 13.2305 13.893 13.2305C14.7575 13.2305 15.4306 13.8216 16.143 14.4452C16.9341 15.1371 17.7507 15.8513 18.9073 15.8513H19.2866C20.4432 15.8513 21.2599 15.1371 22.0509 14.4452C22.7634 13.8216 23.4365 13.2305 24.301 13.2305C24.3689 13.2305 24.4341 13.2575 24.4822 13.3055C24.5302 13.3536 24.5572 13.4188 24.5572 13.4867C24.5572 13.5547 24.5302 13.6199 24.4822 13.668C24.4341 13.716 24.3689 13.743 24.301 13.743C23.6295 13.743 23.0538 14.2555 22.3875 14.8313C21.5674 15.5489 20.6363 16.3689 19.2866 16.3689Z" fill="#767474"/>
<path d="M12.7476 21.3474H12.3683C11.0186 21.3474 10.0892 20.5325 9.26741 19.8098C8.6011 19.2255 8.02535 18.7215 7.35393 18.7215C7.28596 18.7215 7.22077 18.6945 7.17271 18.6465C7.12465 18.5984 7.09766 18.5332 7.09766 18.4653C7.09766 18.3973 7.12465 18.3321 7.17271 18.284C7.22077 18.236 7.28596 18.209 7.35393 18.209C8.21841 18.209 8.89155 18.7984 9.60568 19.4237C10.395 20.1071 11.2116 20.8298 12.3683 20.8298H12.7476C13.9059 20.8298 14.7225 20.1139 15.5119 19.4237C16.226 18.7984 16.8991 18.209 17.7636 18.209C17.8316 18.209 17.8968 18.236 17.9448 18.284C17.9929 18.3321 18.0199 18.3973 18.0199 18.4653C18.0199 18.5332 17.9929 18.5984 17.9448 18.6465C17.8968 18.6945 17.8316 18.7215 17.7636 18.7215C17.0922 18.7215 16.5164 19.2255 15.8501 19.8098C15.0284 20.5325 14.1007 21.3474 12.7476 21.3474Z" fill="#767474"/>
</svg>
