<svg width="57" height="57" viewBox="0 0 57 57" fill="none" xmlns="http://www.w3.org/2000/svg">
<path d="M28.5 56.1493H28.5002C35.8306 56.1405 42.8581 53.2247 48.0415 48.0413C53.2249 42.8579 56.1409 35.8303 56.1496 28.4998V28.4997C56.1496 23.0311 54.528 17.6853 51.4898 13.1383C48.4516 8.59138 44.1332 5.04745 39.0809 2.95472C34.0286 0.861983 28.4693 0.314424 23.1058 1.38129C17.7423 2.44816 12.8154 5.08153 8.94851 8.9484C5.08164 12.8153 2.44815 17.742 1.38128 23.1055C0.314411 28.469 0.86202 34.0284 2.95476 39.0807C5.04749 44.133 8.59157 48.4513 13.1385 51.4895C17.6855 54.5277 23.0315 56.1493 28.5 56.1493ZM13.5338 6.10136C17.9638 3.14137 23.1721 1.56146 28.4999 1.56144C35.6431 1.56578 42.4923 4.4053 47.5433 9.45627C52.5943 14.5072 55.4339 21.3566 55.4382 28.4998C55.4382 33.8276 53.858 39.0358 50.898 43.4657C47.938 47.8957 43.7309 51.3484 38.8086 53.3873C33.8863 55.4262 28.4698 55.9597 23.2443 54.9203C18.0188 53.8809 13.2189 51.3152 9.45154 47.5479C5.68416 43.7805 3.11872 38.9806 2.07931 33.755C1.03989 28.5295 1.57312 23.1132 3.61201 18.1909C5.6509 13.2686 9.10384 9.06137 13.5338 6.10136Z" fill="black" stroke="black" stroke-width="0.3"/>
<path d="M28.5006 40.9928H28.5008C31.8301 40.9884 35.0217 39.6639 37.3759 37.3097C39.7301 34.9555 41.0544 31.7637 41.0588 28.4344V28.4342C41.0588 25.9503 40.3222 23.5223 38.9422 21.457C37.5623 19.3918 35.601 17.7821 33.3062 16.8316C31.0114 15.8811 28.4863 15.6324 26.0502 16.117C23.614 16.6015 21.3763 17.7976 19.62 19.554C17.8636 21.3103 16.6676 23.548 16.1831 25.9842C15.6985 28.4203 15.9474 30.9454 16.8979 33.2402C17.8485 35.5349 19.4578 37.4963 21.523 38.8763C23.5883 40.2562 26.0167 40.9928 28.5006 40.9928ZM21.9183 18.5837C23.8665 17.2819 26.1573 16.5871 28.5004 16.5871C31.6412 16.5914 34.652 17.841 36.8729 20.0618C39.0938 22.2827 40.3431 25.2936 40.3474 28.4344C40.3473 30.7775 39.6526 33.0679 38.3509 35.0161C37.0491 36.9644 35.1987 38.4829 33.0339 39.3796C30.8691 40.2762 28.4872 40.5109 26.189 40.0537C23.8909 39.5966 21.7798 38.4683 20.123 36.8114C18.4661 35.1546 17.3378 33.0436 16.8807 30.7455C16.4236 28.4474 16.6585 26.0653 17.5552 23.9005C18.4519 21.7357 19.9701 19.8855 21.9183 18.5837Z" fill="black" stroke="black" stroke-width="0.3"/>
<path d="M22.932 36.8345C24.5805 37.936 26.5187 38.5239 28.5013 38.5239C31.1599 38.5239 33.7092 37.4678 35.5891 35.5879C37.469 33.708 38.5255 31.1583 38.5255 28.4997C38.5255 26.5171 37.9375 24.579 36.836 22.9306C35.7346 21.2821 34.1687 19.9973 32.3371 19.2386C30.5054 18.4798 28.49 18.2813 26.5455 18.6681C24.601 19.0549 22.815 20.0096 21.4131 21.4115C20.0112 22.8134 19.0564 24.5996 18.6696 26.5441C18.2828 28.4886 18.4811 30.5041 19.2399 32.3358C19.9986 34.1675 21.2836 35.733 22.932 36.8345ZM23.2769 20.6143C24.824 19.5839 26.6422 19.0356 28.501 19.0388C30.99 19.0431 33.3754 20.0348 35.1338 21.7963C36.8922 23.5577 37.8796 25.9449 37.8796 28.4339C37.8796 30.2927 37.3284 32.1098 36.2953 33.6551C35.2623 35.2005 33.7937 36.4047 32.0761 37.1153C30.3584 37.8259 28.4688 38.011 26.6459 37.6472C24.823 37.2834 23.1487 36.387 21.8354 35.0714C20.5221 33.7559 19.6287 32.0803 19.268 30.2568C18.9074 28.4333 19.0959 26.5437 19.8094 24.8273C20.523 23.1109 21.7298 21.6447 23.2769 20.6143Z" fill="black" stroke="black" stroke-width="0.3"/>
<path d="M34.4496 18.2161L34.4394 18.0772L33.6825 7.8091C33.6825 7.8089 33.6825 7.80871 33.6825 7.80851C33.64 7.28737 33.4035 6.80106 33.0198 6.44577C32.636 6.09044 32.1329 5.89205 31.6099 5.88984H25.3894H25.389C24.8651 5.8884 24.3602 6.08548 23.9758 6.44141C23.5914 6.79732 23.356 7.28561 23.3171 7.80796C23.3171 7.808 23.3171 7.80804 23.3171 7.80808L22.5767 18.0605L22.5666 18.1997H22.427H22.0156H21.8544L21.866 18.0388L22.6065 7.8031C22.6065 7.80302 22.6065 7.80293 22.6065 7.80285C22.6551 7.09845 22.9697 6.4389 23.4864 5.95772C24.0031 5.47652 24.6835 5.20971 25.3896 5.21134M34.4496 18.2161L25.3894 5.36134M34.4496 18.2161H34.589H35.0004H35.1619L35.15 18.0551L34.3931 7.78594L34.393 7.78572C34.3403 7.08435 34.0239 6.42896 33.5076 5.95135C32.9913 5.47379 32.3132 5.20941 31.61 5.21134M34.4496 18.2161L31.6102 5.36134M25.3896 5.21134C25.3896 5.21134 25.3897 5.21134 25.3897 5.21134L25.3894 5.36134M25.3896 5.21134H25.3894V5.36134M25.3896 5.21134H31.61M25.3894 5.36134H31.6102M31.61 5.21134C31.6099 5.21134 31.6098 5.21134 31.6098 5.21134L31.6102 5.36134M31.61 5.21134H31.6102V5.36134M22.0156 18.0497L22.0265 17.8997H22.0156V18.0497ZM22.0156 18.0497L22.1652 18.0605L22.166 18.0497H22.0156Z" fill="black" stroke="black" stroke-width="0.3"/>
<path d="M31.6267 51.8214L31.628 51.8214C32.3313 51.8149 33.0069 51.5456 33.5216 51.0662C34.0363 50.5869 34.353 49.9324 34.4095 49.2313L34.4095 49.2301L35.15 38.9938L35.1617 38.833H35.0004H34.589H34.4495L34.4394 38.9722L33.699 49.2072C33.699 49.2074 33.699 49.2076 33.6989 49.2078C33.6567 49.7307 33.4206 50.219 33.037 50.577C32.6535 50.9349 32.1503 51.1367 31.6258 51.1428L25.3901 51.1428C25.39 51.1428 25.39 51.1428 25.3899 51.1428C24.8687 51.1404 24.3677 50.9416 23.9866 50.5861L23.8843 50.6958L23.9866 50.5861C23.6055 50.2305 23.3722 49.7444 23.3336 49.2247C23.3336 49.2247 23.3336 49.2246 23.3336 49.2246L22.5766 38.9555L22.5664 38.8166H22.427H22.0156H21.8541L21.866 38.9776L22.6229 49.2296C22.6229 49.2297 22.623 49.2298 22.623 49.23C22.6714 49.9313 22.9835 50.5883 23.4965 51.069C24.0096 51.5498 24.6857 51.8186 25.3888 51.8214H25.3894L31.6267 51.8214Z" fill="black" stroke="black" stroke-width="0.3"/>
<path d="M22.919 32.0081C23.2544 32.3434 23.7086 32.5324 24.1827 32.534L24.1887 32.384C24.4156 32.4022 24.6437 32.3731 24.8588 32.2986C25.074 32.2241 25.2716 32.1058 25.4386 31.9511C25.6057 31.7965 25.7387 31.6088 25.8295 31.4001C25.9204 31.1913 25.9669 30.966 25.9662 30.7383H26.1162V30.7381V26.3937C26.1162 25.8999 25.9199 25.4264 25.5708 25.0774C25.2217 24.7283 24.7483 24.5321 24.2546 24.5321C23.7608 24.5321 23.2874 24.7283 22.9383 25.0774C22.5892 25.4264 22.393 25.8999 22.393 26.3937V30.7383C22.393 31.2146 22.5823 31.6713 22.919 32.0081ZM23.3755 25.5146C23.5911 25.2989 23.8836 25.1777 24.1887 25.1777C24.4937 25.1777 24.7862 25.2989 25.0019 25.5146C25.2176 25.7303 25.3388 26.0228 25.3388 26.3278V30.6725C25.3388 30.9775 25.2176 31.27 25.0019 31.4857C24.7862 31.7014 24.4937 31.8226 24.1887 31.8226C23.8836 31.8226 23.5911 31.7014 23.3755 31.4857C23.1598 31.27 23.0385 30.9775 23.0385 30.6725V26.3278C23.0385 26.0228 23.1597 25.7303 23.3755 25.5146Z" fill="black" stroke="black" stroke-width="0.3"/>
<path d="M22.6901 31.1022C22.0524 31.1021 21.4409 30.8488 20.99 30.3979C20.5391 29.947 20.2855 29.3353 20.2855 28.6976V28.2368C20.2855 27.599 20.5391 26.9874 20.99 26.5365C21.441 26.0855 22.0526 25.8322 22.6903 25.8322C22.7827 25.8322 22.8708 25.8689 22.9358 25.9339C23.001 25.9991 23.0376 26.0875 23.0376 26.1797V30.7329C23.0405 30.7786 23.0343 30.8244 23.0194 30.8676L22.8776 30.8189L23.0194 30.8676C23.0041 30.9124 22.9797 30.9544 22.9464 30.9904C22.9137 31.0259 22.8739 31.0541 22.8298 31.0733C22.7857 31.0925 22.7381 31.1023 22.6901 31.1022ZM22.6901 31.1022C22.69 31.1022 22.6899 31.1022 22.6898 31.1022L22.6903 30.9522V31.1022C22.6903 31.1022 22.6902 31.1022 22.6901 31.1022ZM21.4149 27.1187C21.6559 26.8487 21.9754 26.6633 22.3262 26.5869V30.3639C21.9754 30.2875 21.6559 30.1021 21.4149 29.8321C21.136 29.5198 20.9815 29.1161 20.9805 28.6974V28.2534C20.9815 27.8347 21.136 27.431 21.4149 27.1187Z" fill="black" stroke="black" stroke-width="0.3"/>
<path d="M20.9651 27.6278H20.9646C20.9646 27.7244 20.9262 27.817 20.858 27.8852C20.7899 27.9533 20.6975 27.9918 20.6009 27.9918H20.5888L20.5769 27.9898C20.5066 27.9785 20.4346 27.9825 20.366 28.0017C20.2973 28.0209 20.2336 28.0548 20.1794 28.1009C20.1253 28.1469 20.082 28.2042 20.052 28.2691C20.022 28.334 20.0064 28.4045 20.0064 28.4754C20.0064 28.5463 20.022 28.6167 20.052 28.6816C20.082 28.7465 20.1254 28.8039 20.1794 28.8499C20.2336 28.896 20.2973 28.9299 20.366 28.9491C20.4346 28.9682 20.5066 28.9723 20.5769 28.9609L20.5888 28.959H20.6009C20.6975 28.959 20.7899 28.9974 20.858 29.0656C20.9262 29.1338 20.9646 29.2264 20.9646 29.3229H20.8146L20.9646 29.3224C20.9648 29.3707 20.9549 29.4184 20.9357 29.4624C20.9165 29.5063 20.8885 29.5461 20.8529 29.5789C20.8173 29.6118 20.7753 29.6367 20.73 29.6522M20.9651 27.6278L20.73 29.6522M20.9651 27.6278L20.9642 27.6163C20.9571 27.5245 20.9154 27.4391 20.8481 27.3769C20.7833 27.3171 20.6993 27.2828 20.611 27.2805C20.4444 27.2607 20.2755 27.2761 20.1151 27.3255C19.952 27.3757 19.8015 27.4602 19.6736 27.573C19.5457 27.6858 19.4428 27.8246 19.3725 27.9804C19.3023 28.136 19.266 28.3047 19.266 28.4754C19.266 28.646 19.3023 28.8148 19.3725 28.9704C19.4428 29.1261 19.5457 29.2649 19.6736 29.3777C19.8015 29.4906 19.952 29.575 20.1151 29.6253C20.2738 29.6742 20.4408 29.6897 20.6057 29.6709M20.9651 27.6278L20.6057 29.6709M20.73 29.6522C20.69 29.666 20.648 29.6723 20.6057 29.6709M20.73 29.6522L20.6057 29.6709" fill="black" stroke="black" stroke-width="0.3"/>
<path d="M25.5739 29.5299L25.4724 29.6398C25.4051 29.5776 25.3634 29.4922 25.3563 29.4004L25.3554 29.3889H25.3559V27.6117V27.6115L25.5739 29.5299ZM25.5739 29.5299L25.4724 29.6398C25.5397 29.7019 25.6278 29.7366 25.7198 29.7364M25.5739 29.5299L31.1833 29.7364M31.5472 27.6117C31.5473 27.565 31.5384 27.5173 31.5186 27.472L31.5186 27.472C31.499 27.4269 31.4701 27.3875 31.4355 27.3555C31.4004 27.3231 31.3589 27.298 31.3129 27.2822L31.2642 27.424L31.3129 27.2822C31.2696 27.2673 31.2237 27.2611 31.1781 27.264H25.725L31.5472 27.612C31.5472 27.6119 31.5472 27.6118 31.5472 27.6117ZM31.5472 27.6117V29.3889V29.4004L31.5467 29.4004C31.5397 29.4914 31.4989 29.5772 31.431 29.6398C31.3636 29.7021 31.275 29.7366 31.1833 29.7364M31.5472 27.6117L31.1833 29.7364M31.1833 29.7364C31.1832 29.7364 31.1831 29.7364 31.183 29.7364L31.1834 29.5864V29.7364H31.1833ZM31.1833 29.7364H25.7198M25.7198 29.7364C25.7199 29.7364 25.72 29.7364 25.7201 29.7364L25.7196 29.5864V29.7364H25.7198ZM30.8358 27.9754V29.0249H26.0673V27.9754H30.8358Z" fill="black" stroke="black" stroke-width="0.3"/>
<path d="M31.4601 32.0081C31.7954 32.3434 32.2496 32.5324 32.7237 32.534L32.7297 32.384C32.9566 32.4022 33.1851 32.3731 33.4003 32.2986C33.6154 32.2241 33.8126 32.1058 33.9796 31.9511C34.1467 31.7965 34.2798 31.6088 34.3706 31.4001C34.4614 31.1913 34.5079 30.966 34.5072 30.7383H34.6572V30.7381V26.3937C34.6572 25.8999 34.4609 25.4264 34.1118 25.0774C33.7627 24.7283 33.2893 24.5321 32.7956 24.5321C32.3019 24.5321 31.8284 24.7283 31.4793 25.0774C31.1303 25.4264 30.934 25.8999 30.934 26.3937V30.7383C30.934 31.2146 31.1233 31.6713 31.4601 32.0081ZM31.9165 25.5146C32.1322 25.2989 32.4247 25.1777 32.7297 25.1777C33.0347 25.1777 33.3272 25.2989 33.5429 25.5146C33.7586 25.7303 33.8799 26.0228 33.8799 26.3278V30.6725C33.8799 30.9775 33.7586 31.27 33.5429 31.4857C33.3272 31.7014 33.0347 31.8226 32.7297 31.8226C32.4247 31.8226 32.1322 31.7014 31.9165 31.4857C31.7008 31.27 31.5795 30.9775 31.5795 30.6725V26.3278C31.5795 26.0228 31.7008 25.7303 31.9165 25.5146Z" fill="black" stroke="black" stroke-width="0.3"/>
<path d="M34.3095 31.1354L34.3105 31.1354C34.9466 31.1308 35.5552 30.8761 36.005 30.4263C36.4547 29.9766 36.7097 29.368 36.7142 28.7319H36.7143V28.7308V28.27H36.7143L36.7142 28.2689C36.7097 27.6329 36.4547 27.0242 36.005 26.5744C35.5552 26.1247 34.9466 25.87 34.3105 25.8654L34.3105 25.8654H34.3095C34.2127 25.8654 34.1204 25.9039 34.0523 25.972C33.9841 26.0402 33.9457 26.1328 33.9457 26.2293V30.7715C33.9457 30.868 33.9841 30.9606 34.0523 31.0288C34.1205 31.097 34.2128 31.1354 34.3095 31.1354ZM34.6571 30.3821V26.6187C35.0021 26.6909 35.3176 26.8694 35.5577 27.1312C35.8356 27.4341 35.9938 27.8278 36.0028 28.2387V28.7305C36.0015 29.1472 35.8466 29.5487 35.5677 29.8582C35.3264 30.126 35.0071 30.3087 34.6571 30.3821Z" fill="black" stroke="black" stroke-width="0.3"/>
<path d="M36.1422 29.5964C36.2103 29.6645 36.3026 29.703 36.3993 29.703M36.1422 29.5964L36.3993 29.703M36.1422 29.5964C36.0739 29.5282 36.0355 29.4356 36.0355 29.3391H36.1855L36.0355 29.3396C36.0354 29.2913 36.0453 29.2436 36.0645 29.1996M36.1422 29.5964L36.0645 29.1996M36.3993 29.703C36.7184 29.703 37.0246 29.5763 37.2503 29.3506C37.4759 29.125 37.6028 28.8189 37.6028 28.4998C37.6028 28.1806 37.4759 27.8746 37.2503 27.649C37.0246 27.4233 36.7184 27.2965 36.3993 27.2965C36.3026 27.2965 36.2103 27.335 36.1422 27.4031C36.0739 27.4713 36.0355 27.5639 36.0355 27.6605H36.1855L36.0355 27.6599C36.0354 27.7082 36.0453 27.7559 36.0645 27.8C36.0837 27.8439 36.1117 27.8836 36.1473 27.9165C36.1829 27.9493 36.2249 27.9742 36.2702 27.9898C36.3132 28.0046 36.3586 28.0108 36.4043 28.008C36.533 28.0093 36.6562 28.061 36.7472 28.152C36.8395 28.2443 36.8913 28.3694 36.8913 28.4998C36.8913 28.6302 36.8395 28.7553 36.7472 28.8475C36.6562 28.9386 36.533 28.9903 36.4043 28.9916C36.3587 28.9888 36.3133 28.9949 36.2702 29.0098L36.3189 29.1516M36.3993 29.703L36.3189 29.1516M36.3189 29.1516L36.2702 29.0098C36.2249 29.0253 36.1829 29.0502 36.1473 29.0831C36.1117 29.1159 36.0837 29.1556 36.0645 29.1996M36.3189 29.1516L36.0645 29.1996" fill="black" stroke="black" stroke-width="0.3"/>
</svg>
