<svg width="55" height="55" viewBox="0 0 55 55" fill="none" xmlns="http://www.w3.org/2000/svg">
<g clip-path="url(#clip0_1545:366)">
<path d="M27.4988 55.0002C20.2091 54.9918 13.2204 52.0925 8.06557 46.9381C2.91078 41.7837 0.010864 34.7951 0.00195312 27.5054C0.00195313 12.3419 12.3373 0.00439453 27.5009 0.00439453C42.6645 0.00439453 54.9998 12.3377 54.9998 27.5054C54.9998 42.6732 42.6624 55.0002 27.4988 55.0002ZM27.4988 1.43953C22.3445 1.43953 17.3059 2.96791 13.0201 5.83142C8.73438 8.69494 5.39399 12.765 3.42132 17.5269C1.44865 22.2888 0.932293 27.5287 1.93755 32.5841C2.9428 37.6394 5.42452 42.2832 9.0689 45.9282C12.7133 49.5731 17.3566 52.0556 22.4118 53.0617C27.467 54.0677 32.707 53.5522 37.4693 51.5803C42.2315 49.6084 46.3021 46.2687 49.1663 41.9834C52.0305 37.6981 53.5597 32.6598 53.5605 27.5054C53.5533 20.5953 50.8053 13.9702 45.9195 9.08354C41.0336 4.19692 34.409 1.44788 27.4988 1.43953V1.43953Z" fill="#80C5EF"/>
<path d="M23.5265 29.7002C23.3893 29.6993 23.2551 29.6592 23.1399 29.5847C23.0247 29.5101 22.9332 29.4041 22.8763 29.2793C21.7021 26.7899 19.4084 25.2517 17.0516 25.3527C15.3282 25.4284 14.0551 26.3796 13.449 26.9414C13.3813 27.0124 13.2997 27.0687 13.2094 27.1069C13.1191 27.1452 13.0219 27.1646 12.9238 27.1639C12.8257 27.1633 12.7288 27.1426 12.639 27.1031C12.5492 27.0636 12.4685 27.0062 12.4017 26.9344C12.3349 26.8626 12.2835 26.7778 12.2506 26.6854C12.2177 26.593 12.2041 26.4949 12.2105 26.397C12.217 26.2991 12.2434 26.2036 12.2881 26.1163C12.3328 26.029 12.3949 25.9517 12.4705 25.8893C13.2218 25.1949 14.8063 24.0144 16.9884 23.9176C19.9345 23.7871 22.7542 25.6536 24.1767 28.6691C24.2173 28.7544 24.2406 28.8469 24.2453 28.9413C24.25 29.0357 24.236 29.1301 24.2041 29.219C24.1723 29.308 24.1231 29.3898 24.0596 29.4597C23.996 29.5297 23.9193 29.5863 23.8337 29.6265C23.738 29.6733 23.6331 29.6985 23.5265 29.7002V29.7002Z" fill="#80C5EF"/>
<path d="M23.5262 29.7C23.4592 29.6994 23.3926 29.6894 23.3284 29.6705C23.1452 29.6181 22.9903 29.4952 22.8976 29.3288C22.8049 29.1623 22.782 28.9659 22.8339 28.7825C23.5178 26.3878 25.6768 24.7107 28.0946 24.7002H28.1157C29.1437 24.7148 30.1475 25.015 31.0148 25.5672C31.8821 26.1194 32.5789 26.9018 33.0271 27.8272C33.0734 27.9125 33.102 28.0064 33.1111 28.103C33.1202 28.1997 33.1097 28.2972 33.0801 28.3897C33.0505 28.4822 33.0025 28.5678 32.939 28.6412C32.8755 28.7147 32.7978 28.7745 32.7105 28.8172C32.6233 28.8598 32.5283 28.8843 32.4314 28.8893C32.3344 28.8942 32.2374 28.8795 32.1462 28.846C32.0551 28.8125 31.9717 28.7609 31.901 28.6943C31.8304 28.6277 31.7739 28.5475 31.735 28.4585C31.405 27.7755 30.8919 27.1976 30.2529 26.7889C29.6139 26.3803 28.874 26.1569 28.1157 26.1437H28.1009C27.2119 26.1643 26.3533 26.472 25.6535 27.0208C24.9538 27.5696 24.4504 28.3301 24.2185 29.1887C24.1733 29.3369 24.0816 29.4667 23.9569 29.5588C23.8322 29.6509 23.6812 29.7004 23.5262 29.7V29.7Z" fill="#80C5EF"/>
<path d="M32.369 28.8648C32.1935 28.8646 32.0242 28.8003 31.8929 28.6841C31.7615 28.5678 31.6771 28.4076 31.6556 28.2335C31.2266 24.236 31.5152 20.1939 32.5078 16.2979C32.555 16.1129 32.6737 15.9542 32.8379 15.8568C33.0021 15.7593 33.1982 15.731 33.3832 15.7782C33.5682 15.8253 33.7269 15.944 33.8244 16.1082C33.9219 16.2724 33.9501 16.4685 33.903 16.6536C32.9513 20.3831 32.6748 24.2529 33.0865 28.0799C33.1067 28.2683 33.0517 28.4571 32.9335 28.6052C32.8153 28.7534 32.6434 28.8489 32.4552 28.8711C32.4263 28.8717 32.3975 28.8695 32.369 28.8648Z" fill="#80C5EF"/>
<path d="M33.2045 17.1945C33.055 17.1941 32.9094 17.1473 32.7876 17.0606C32.6659 16.9739 32.574 16.8516 32.5248 16.7105C32.5012 16.6317 32.4594 16.5596 32.4027 16.5001C32.3083 16.4114 32.1867 16.3573 32.0576 16.3464C31.9635 16.3375 31.8721 16.31 31.7886 16.2657C31.7051 16.2214 31.6312 16.1611 31.571 16.0882C31.5108 16.0153 31.4656 15.9313 31.4379 15.8409C31.4102 15.7506 31.4005 15.6556 31.4095 15.5615C31.4185 15.4674 31.4459 15.376 31.4902 15.2925C31.5345 15.209 31.5948 15.1351 31.6677 15.0749C31.7406 15.0147 31.8246 14.9695 31.915 14.9418C32.0054 14.9141 32.1003 14.9044 32.1944 14.9134C32.657 14.956 33.0905 15.1575 33.4212 15.4837C33.6296 15.694 33.7878 15.9487 33.8842 16.2286C33.9154 16.3178 33.9286 16.4124 33.9232 16.5067C33.9177 16.6011 33.8937 16.6935 33.8524 16.7786C33.8112 16.8636 33.7535 16.9397 33.6828 17.0024C33.612 17.0651 33.5296 17.1132 33.4402 17.144C33.365 17.1741 33.2853 17.1912 33.2045 17.1945V17.1945Z" fill="#80C5EF"/>
<path d="M29.6055 17.2553C28.7659 17.2749 27.9493 16.9799 27.316 16.4283C26.6805 15.814 26.304 14.9798 26.2639 14.0968C26.2566 14.0025 26.2679 13.9078 26.2972 13.8179C26.3265 13.7281 26.3732 13.6449 26.4346 13.573C26.4961 13.5012 26.5711 13.4422 26.6553 13.3994C26.7396 13.3566 26.8315 13.3308 26.9257 13.3235C27.0199 13.3161 27.1147 13.3274 27.2045 13.3567C27.2944 13.386 27.3776 13.4327 27.4494 13.4942C27.5212 13.5556 27.5802 13.6306 27.6231 13.7149C27.6659 13.7992 27.6917 13.891 27.699 13.9853C27.719 14.5003 27.9289 14.9898 28.2882 15.3594C28.9553 15.9612 30.3778 16.0601 31.6993 15.0584C31.7744 14.9987 31.8606 14.9546 31.953 14.9287C32.0454 14.9027 32.142 14.8956 32.2372 14.9075C32.3324 14.9195 32.4242 14.9504 32.5073 14.9984C32.5904 15.0463 32.663 15.1105 32.721 15.1869C32.7789 15.2634 32.821 15.3507 32.8447 15.4436C32.8684 15.5366 32.8733 15.6334 32.8591 15.7282C32.8449 15.8231 32.8118 15.9142 32.7619 15.9961C32.712 16.0781 32.6462 16.1492 32.5684 16.2053C31.721 16.8678 30.681 17.2364 29.6055 17.2553V17.2553Z" fill="#80C5EF"/>
<path d="M29.3072 15.3447H29.2651C28.4101 15.3013 27.5752 15.0687 26.8209 14.6637C26.0666 14.2587 25.4115 13.6914 24.9029 13.0026C24.8467 12.9266 24.806 12.8403 24.7831 12.7486C24.7602 12.6568 24.7557 12.5615 24.7696 12.468C24.7836 12.3745 24.8158 12.2847 24.8645 12.2036C24.9132 12.1226 24.9774 12.0519 25.0534 11.9957C25.1294 11.9395 25.2157 11.8988 25.3074 11.8759C25.3992 11.853 25.4945 11.8484 25.588 11.8624C25.6815 11.8764 25.7713 11.9086 25.8524 11.9573C25.9334 12.006 26.0041 12.0702 26.0603 12.1462C26.372 12.5697 26.7585 12.9327 27.2008 13.2172C27.845 13.6284 28.5842 13.8668 29.3472 13.9096C29.5318 13.9233 29.704 14.0076 29.828 14.145C29.9521 14.2824 30.0184 14.4622 30.0132 14.6473C30.0081 14.8323 29.9319 15.0082 29.8004 15.1385C29.6689 15.2688 29.4923 15.3434 29.3072 15.3468V15.3447Z" fill="#80C5EF"/>
<path d="M25.4824 13.2911C25.3742 13.2906 25.2676 13.2659 25.1703 13.2187C25.0731 13.1715 24.9877 13.1031 24.9204 13.0184C24.8531 12.9338 24.8057 12.8351 24.7817 12.7297C24.7577 12.6243 24.7577 12.5148 24.7816 12.4094C25.0158 11.3933 25.5002 10.4519 26.1907 9.67061C26.8812 8.88932 27.756 8.29294 28.7356 7.93567C28.9147 7.86954 29.1128 7.87728 29.2862 7.95719C29.4597 8.0371 29.5943 8.18264 29.6604 8.36179C29.7266 8.54094 29.7188 8.73902 29.6389 8.91246C29.559 9.0859 29.4134 9.2205 29.2343 9.28663C28.4774 9.56038 27.8014 10.0198 27.2683 10.6228C26.7352 11.2258 26.362 11.953 26.1831 12.7377C26.1456 12.8953 26.0561 13.0358 25.9289 13.1362C25.8017 13.2366 25.6444 13.2912 25.4824 13.2911V13.2911Z" fill="#80C5EF"/>
<path d="M35.4467 12.8888C35.278 12.889 35.1147 12.8293 34.9859 12.7205C33.1529 11.1869 31.0407 10.0222 28.7656 9.29049C28.5889 9.2282 28.4434 9.09947 28.3602 8.93165C28.2769 8.76383 28.2623 8.57015 28.3196 8.39177C28.3769 8.21339 28.5014 8.06438 28.6668 7.9764C28.8322 7.88841 29.0254 7.86839 29.2054 7.92059C31.6583 8.7075 33.9352 9.96315 35.9096 11.6178C36.0196 11.7135 36.098 11.8404 36.1343 11.9816C36.1706 12.1228 36.1632 12.2717 36.113 12.4086C36.0628 12.5454 35.9722 12.6639 35.8532 12.7481C35.7342 12.8324 35.5925 12.8785 35.4467 12.8804V12.8888Z" fill="#80C5EF"/>
<path d="M39.7098 33.7106C39.5927 33.7104 39.4774 33.6816 39.3738 33.6267C39.2703 33.5719 39.1816 33.4927 39.1155 33.396C39.0495 33.2992 39.0079 33.1878 38.9945 33.0715C38.9811 32.9551 38.9962 32.8372 39.0386 32.7279C40.1076 29.9923 40.4758 27.2841 40.1286 24.6664C39.7982 22.177 38.885 20.2473 37.6182 17.558C36.8035 15.8345 35.8763 14.1664 34.8426 12.5646C34.7453 12.4042 34.7145 12.2122 34.7567 12.0294C34.7989 11.8467 34.9108 11.6876 35.0685 11.5862C35.2262 11.4847 35.4173 11.4488 35.6012 11.4861C35.785 11.5234 35.9469 11.631 36.0526 11.786C37.124 13.4403 38.0856 15.1632 38.9313 16.9436C40.1938 19.6371 41.2081 21.7645 41.5658 24.4791C41.9404 27.2988 41.5322 30.3332 40.3895 33.2519C40.3362 33.3883 40.2426 33.5052 40.1212 33.5872C39.9998 33.6691 39.8563 33.7122 39.7098 33.7106V33.7106Z" fill="#80C5EF"/>
<path d="M29.4276 36.4464C27.3995 36.4453 25.4105 35.8886 23.6765 34.8366C23.5957 34.7875 23.5253 34.723 23.4694 34.6468C23.4135 34.5705 23.3732 34.484 23.3507 34.3922C23.3282 34.3003 23.3241 34.205 23.3385 34.1115C23.3528 34.0181 23.3855 33.9284 23.4345 33.8476C23.4836 33.7667 23.5481 33.6964 23.6243 33.6404C23.7006 33.5845 23.7871 33.5442 23.8789 33.5217C23.9708 33.4993 24.0661 33.4951 24.1596 33.5095C24.253 33.5239 24.3427 33.5565 24.4236 33.6056C25.453 34.2341 26.5917 34.6631 27.7799 34.8703C29.114 35.1056 30.483 35.0525 31.7949 34.7145C32.3438 34.5707 32.8711 34.3542 33.3626 34.0706C33.8498 33.8055 34.3522 33.5694 34.8672 33.3636C36.3997 32.7599 38.0156 32.3945 39.6587 32.2799C39.7538 32.2711 39.8497 32.2815 39.9408 32.3102C40.0319 32.3389 40.1164 32.3855 40.1893 32.4472C40.2622 32.5089 40.3221 32.5845 40.3655 32.6696C40.4089 32.7547 40.4349 32.8476 40.442 32.9429C40.4491 33.0381 40.4372 33.1338 40.407 33.2244C40.3767 33.315 40.3287 33.3987 40.2658 33.4706C40.2029 33.5425 40.1263 33.6011 40.0405 33.643C39.9547 33.685 39.8614 33.7095 39.766 33.715C38.2694 33.818 36.7975 34.1501 35.4017 34.6998C34.9346 34.8859 34.4792 35.1002 34.0381 35.3416C33.4503 35.6764 32.8215 35.9332 32.1674 36.1055C31.2727 36.337 30.3517 36.4516 29.4276 36.4464V36.4464Z" fill="#80C5EF"/>
<path d="M14.4976 41.5895H14.4661C14.2755 41.5813 14.096 41.4978 13.967 41.3573C13.838 41.2169 13.77 41.0309 13.778 40.8404C13.7969 40.3275 13.8674 39.8178 13.9884 39.319C14.8554 35.8153 17.9655 33.8478 19.7415 32.9829C19.8267 32.9415 19.9191 32.9172 20.0136 32.9115C20.1081 32.9058 20.2028 32.9187 20.2923 32.9496C20.3818 32.9804 20.4643 33.0286 20.5352 33.0914C20.6061 33.1542 20.6639 33.2303 20.7053 33.3154C20.7468 33.4005 20.7711 33.493 20.7768 33.5875C20.7825 33.682 20.7696 33.7767 20.7387 33.8662C20.7078 33.9556 20.6596 34.0382 20.5968 34.1091C20.5341 34.1799 20.4579 34.2377 20.3728 34.2792C18.8241 35.0304 16.1158 36.7307 15.3899 39.6641C15.2904 40.0697 15.2312 40.4841 15.2131 40.9014C15.2055 41.0862 15.1269 41.2609 14.9936 41.3891C14.8603 41.5173 14.6826 41.5891 14.4976 41.5895Z" fill="#80C5EF"/>
<path d="M23.9069 37.7408C23.8059 37.7408 23.6965 37.7408 23.6081 37.7408C22.8114 37.6882 22.0249 37.5326 21.2682 37.2778C20.4075 37.0232 19.5952 36.7833 18.4694 36.8927C17.7083 36.9709 16.9665 37.1802 16.2768 37.5114C16.1059 37.5847 15.9132 37.589 15.7392 37.5234C15.5653 37.4578 15.4234 37.3274 15.3434 37.1595C15.2634 36.9917 15.2515 36.7994 15.3102 36.6229C15.3689 36.4465 15.4935 36.2996 15.6581 36.213C16.4982 35.808 17.4026 35.553 18.3305 35.4597C19.7362 35.325 20.721 35.6154 21.6764 35.8974C22.3222 36.1167 22.9932 36.2531 23.6734 36.3035C24.9549 36.3624 26.3143 35.9374 27.7094 35.0409C27.8701 34.938 28.0652 34.9031 28.2516 34.9439C28.4381 34.9848 28.6007 35.098 28.7037 35.2587C28.8067 35.4195 28.8416 35.6145 28.8007 35.801C28.7599 35.9874 28.6466 36.15 28.4859 36.253C26.9371 37.2399 25.3989 37.7408 23.9069 37.7408Z" fill="#80C5EF"/>
<path d="M26.2386 30.2069C26.1009 30.2068 25.9661 30.1671 25.8503 30.0927C25.7344 30.0183 25.6424 29.9122 25.585 29.7871C25.5276 29.6619 25.5074 29.5229 25.5266 29.3866C25.5458 29.2503 25.6038 29.1223 25.6936 29.0179L27.5516 26.8526C27.6194 26.7753 27.7029 26.7133 27.7965 26.6709C27.8901 26.6284 27.9918 26.6064 28.0946 26.6064C28.1974 26.6064 28.299 26.6284 28.3926 26.6709C28.4862 26.7133 28.5697 26.7753 28.6375 26.8526L30.5503 29.02C30.6694 29.1639 30.7279 29.3485 30.7134 29.5347C30.699 29.7209 30.6127 29.8942 30.4728 30.018C30.3329 30.1417 30.1504 30.2063 29.9638 30.1979C29.7772 30.1896 29.6012 30.109 29.4729 29.9733L28.1051 28.4266L26.7857 29.9649C26.7174 30.0423 26.6331 30.104 26.5386 30.1458C26.4442 30.1876 26.3418 30.2084 26.2386 30.2069V30.2069Z" fill="#80C5EF"/>
<path d="M28.126 34.3444C27.9358 34.3444 27.7534 34.2691 27.6185 34.1351C27.4837 34.001 27.4074 33.819 27.4063 33.6289L27.3789 27.316C27.3784 27.2216 27.3964 27.128 27.4321 27.0406C27.4678 26.9532 27.5204 26.8737 27.5869 26.8066C27.6533 26.7396 27.7324 26.6863 27.8195 26.6499C27.9065 26.6134 28 26.5945 28.0944 26.5942V26.5942C28.2845 26.5942 28.4669 26.6695 28.6018 26.8035C28.7366 26.9376 28.8129 27.1196 28.814 27.3097L28.8414 33.6226C28.8417 33.7171 28.8233 33.8107 28.7874 33.8981C28.7515 33.9856 28.6987 34.0651 28.6321 34.1321C28.5655 34.1991 28.4863 34.2523 28.3991 34.2888C28.3119 34.3252 28.2184 34.3441 28.1238 34.3444H28.126Z" fill="#80C5EF"/>
</g>
<defs>
<clipPath id="clip0_1545:366">
<rect width="55" height="55" fill="white"/>
</clipPath>
</defs>
</svg>
