<svg width="25" height="25" viewBox="0 0 25 25" fill="none" xmlns="http://www.w3.org/2000/svg">
<circle cx="12.5" cy="12.5" r="12" stroke="#767474"/>
<path d="M11.5736 6.26173C11.2211 6.27226 10.8805 6.45585 10.6865 6.77665L10.6179 6.8904C10.52 7.05204 10.3475 7.15159 10.1588 7.15548H10.1583L10.0253 7.15853C9.45437 7.17042 8.98929 7.63516 8.97767 8.20614L8.97463 8.33919C8.97074 8.52785 8.87088 8.70071 8.70955 8.79825L8.5958 8.86732C8.10728 9.16303 7.9367 9.79837 8.21189 10.2988H8.2124L8.27638 10.4156C8.36742 10.5809 8.36742 10.7805 8.27638 10.9458L8.2124 11.0621C7.93726 11.5625 8.10747 12.1979 8.59631 12.4936L8.71006 12.5622C8.87169 12.6601 8.97124 12.8326 8.97513 13.0212V13.0217L8.97818 13.1548C8.9878 13.6166 9.29572 14.0047 9.71451 14.144L8.36373 17.071C8.3454 17.1107 8.33734 17.1543 8.34031 17.1978C8.34327 17.2414 8.35716 17.2835 8.38068 17.3203C8.40421 17.3571 8.43662 17.3873 8.47493 17.4083C8.51323 17.4293 8.5562 17.4402 8.59986 17.4402H10.2949L11.2567 18.6427C11.2847 18.6777 11.3212 18.7048 11.3628 18.7215C11.4043 18.7382 11.4495 18.7439 11.4939 18.738C11.5382 18.7321 11.5804 18.7149 11.6161 18.688C11.6519 18.661 11.6801 18.6253 11.698 18.5843L12.508 16.7333L13.3179 18.5843C13.3359 18.6253 13.3641 18.661 13.3998 18.688C13.4356 18.7149 13.4777 18.7321 13.5221 18.738C13.5665 18.7439 13.6116 18.7382 13.6532 18.7215C13.6947 18.7048 13.7313 18.6777 13.7592 18.6427L14.721 17.4402H16.4161C16.4598 17.4402 16.5027 17.4293 16.541 17.4083C16.5793 17.3873 16.6118 17.3571 16.6353 17.3203C16.6588 17.2835 16.6727 17.2414 16.6757 17.1978C16.6786 17.1543 16.6706 17.1107 16.6522 17.071L15.2994 14.1394C15.7112 13.9962 16.0125 13.6115 16.022 13.1548V13.1543L16.0251 13.0217V13.0212C16.029 12.8326 16.1288 12.6597 16.2902 12.5622L16.4044 12.4931C16.893 12.1974 17.063 11.5625 16.7878 11.0621L16.7873 11.0616L16.7223 10.9443C16.6318 10.7792 16.632 10.5801 16.7228 10.4151L16.7873 10.2988V10.2983C17.0623 9.79816 16.8923 9.16318 16.4039 8.86732L16.4034 8.86681L16.2897 8.79825C16.128 8.7004 16.0285 8.52784 16.0246 8.33919V8.33868L16.0215 8.20614V8.20564C16.0096 7.63471 15.5449 7.16964 14.9739 7.15802L14.8409 7.15497C14.6522 7.15108 14.4794 7.05123 14.3818 6.88989L14.3128 6.77614C14.0171 6.2873 13.3816 6.11709 12.8812 6.39224V6.39275L12.7644 6.45673C12.5991 6.54777 12.3996 6.54777 12.2343 6.45673L12.118 6.39275C11.9929 6.32396 11.8595 6.28294 11.7249 6.26782C11.6745 6.26215 11.624 6.26023 11.5736 6.26173ZM11.5604 6.78021C11.6632 6.7727 11.7698 6.79446 11.8676 6.84825L11.9834 6.91224C12.3043 7.089 12.6949 7.089 13.0158 6.91224L13.1321 6.84775V6.84825C13.393 6.7048 13.7138 6.79052 13.8679 7.04528L13.937 7.15903C14.1264 7.47213 14.4638 7.66726 14.8297 7.67497L14.9633 7.67802C15.261 7.68408 15.496 7.91854 15.502 8.2163V8.21681L15.5046 8.34986C15.5121 8.71604 15.7074 9.05344 16.0205 9.2431L16.1343 9.31216C16.3889 9.46617 16.4749 9.78667 16.3318 10.0475L16.2673 10.1643C16.0906 10.4852 16.0906 10.8752 16.2673 11.1961L16.2678 11.1967V11.1972L16.3323 11.3124C16.4757 11.5732 16.3893 11.8942 16.1348 12.0483L16.021 12.1173C15.7076 12.3068 15.5126 12.6444 15.5051 13.0106L15.5026 13.1436V13.1441C15.4965 13.4419 15.2615 13.6763 14.9638 13.6824L14.8302 13.6854C14.4642 13.6932 14.127 13.8879 13.9375 14.2009V14.2014L13.8684 14.3151C13.7143 14.5699 13.3935 14.6556 13.1326 14.5122V14.5127L13.0163 14.4482C12.6954 14.2714 12.3048 14.2714 11.9839 14.4482L11.8676 14.5127V14.5122C11.6068 14.6556 11.2859 14.5697 11.1318 14.3151L11.0628 14.2014C10.8733 13.8883 10.5359 13.6932 10.17 13.6854H10.1695L10.0365 13.6824C9.7387 13.6763 9.50373 13.4419 9.49767 13.1441V13.1436L9.49513 13.0106C9.48758 12.6444 9.29232 12.307 8.9792 12.1173L8.86545 12.0483C8.61069 11.8941 8.52445 11.5733 8.66791 11.3124L8.73189 11.1967V11.1961C8.90841 10.8753 8.90857 10.485 8.73189 10.1643L8.6674 10.048H8.66791C8.5245 9.78717 8.61039 9.46624 8.86494 9.31216L8.97869 9.2431C9.29179 9.05365 9.48691 8.71623 9.49463 8.35036V8.34986L9.49767 8.21681C9.50373 7.91904 9.73819 7.68408 10.036 7.67802H10.0365L10.1695 7.67548C10.5357 7.66793 10.8731 7.47267 11.0628 7.15954L11.1318 7.04579C11.2089 6.91841 11.3272 6.83285 11.4594 6.79747C11.4924 6.78863 11.5261 6.78271 11.5604 6.78021ZM14.7622 14.2171L16.0094 16.9202H14.5961C14.5571 16.9202 14.5186 16.9289 14.4834 16.9458C14.4483 16.9627 14.4174 16.9873 14.393 17.0177L13.6216 17.9815L12.7919 16.0838L13.2296 15.0834C13.6475 15.1487 14.0831 14.9647 14.3133 14.5843L14.3823 14.4705C14.4661 14.3321 14.6057 14.2434 14.7622 14.2171ZM10.2528 14.2192C10.4034 14.2487 10.537 14.3367 10.6179 14.4705L10.687 14.5843C10.9827 15.0728 11.618 15.2434 12.1185 14.9682V14.9677L12.2353 14.9037C12.3939 14.8163 12.5834 14.8152 12.7446 14.8956L11.3944 17.9815L10.623 17.0177C10.5986 16.9873 10.5677 16.9627 10.5325 16.9458C10.4974 16.9289 10.4589 16.9202 10.4199 16.9202H9.00662L10.2528 14.2192Z" fill="#767474"/>
</svg>
