<svg width="60" height="60" viewBox="0 0 60 60" fill="none" xmlns="http://www.w3.org/2000/svg">
<g clip-path="url(#clip0_1490:209)">
<path d="M29.9978 60.0001C24.0643 59.9977 18.2648 58.236 13.3325 54.9378C8.40014 51.6395 4.5566 46.9527 2.28777 41.4701C0.0189469 35.9876 -0.57325 29.9553 0.58606 24.1362C1.74537 18.3171 4.60413 12.9723 8.80086 8.77784C12.9976 4.58334 18.3438 1.72743 24.1636 0.571222C29.9833 -0.58499 36.0152 0.0104288 41.4966 2.28217C46.978 4.55392 51.6627 8.39997 54.9583 13.334C58.254 18.2681 60.0126 24.0686 60.0118 30.0021C60.0023 37.9579 56.8365 45.5849 51.2094 51.209C45.5823 56.8331 37.9536 59.9948 29.9978 60.0001ZM29.9978 1.19826C24.3015 1.20063 18.7337 2.89196 13.9985 6.0584C9.26336 9.22485 5.57336 13.7242 3.39511 18.9876C1.21685 24.2511 0.64814 30.0422 1.76089 35.6288C2.87365 41.2154 5.61789 46.3466 9.64665 50.3737C13.6754 54.4008 18.8078 57.1429 24.3949 58.2534C29.9819 59.3638 35.7728 58.7927 41.0353 56.6122C46.2978 54.4318 50.7957 50.7399 53.9601 46.0034C57.1246 41.2669 58.8136 35.6984 58.8136 30.0021C58.8052 22.3634 55.7661 15.0401 50.3636 9.63982C44.9611 4.23955 37.6366 1.20355 29.9978 1.19826Z" fill="white"/>
<path d="M20.524 40.9532C20.1907 40.9536 19.8608 40.8874 19.5535 40.7585C19.2463 40.6295 18.9679 40.4405 18.7347 40.2024L18.547 40.0107C18.0808 39.5354 17.8222 38.8945 17.8282 38.2288C17.8342 37.563 18.1042 36.9269 18.579 36.4601L21.3747 33.7243C21.6058 33.4946 21.88 33.3128 22.1816 33.1894C22.4831 33.0661 22.8061 33.0035 23.132 33.0054H23.1559C23.4859 33.0068 23.8124 33.0739 24.1161 33.2028C24.4199 33.3317 24.695 33.5199 24.9252 33.7563L25.1129 33.944C25.5794 34.4199 25.838 35.0615 25.832 35.7279C25.8261 36.3943 25.556 37.0311 25.081 37.4985L22.2853 40.2343C21.8153 40.696 21.1827 40.9542 20.524 40.9532ZM19.5894 39.3557C19.8318 39.6058 20.1637 39.7495 20.512 39.7551C20.6851 39.7593 20.8573 39.7282 21.0179 39.6636C21.1786 39.5991 21.3245 39.5024 21.4466 39.3796L24.2423 36.6438C24.367 36.5236 24.4665 36.3797 24.5351 36.2207C24.6036 36.0616 24.6398 35.8905 24.6416 35.7173C24.6446 35.5449 24.613 35.3737 24.5485 35.2138C24.484 35.054 24.388 34.9087 24.2662 34.7867L24.0785 34.595C23.9591 34.4692 23.8154 34.369 23.6562 34.3003C23.4969 34.2317 23.3254 34.196 23.1519 34.1956C22.8082 34.1946 22.478 34.3295 22.2333 34.571L19.4376 37.3068C19.1925 37.5537 19.055 37.8875 19.055 38.2354C19.055 38.5833 19.1925 38.9171 19.4376 39.164L19.5894 39.3557Z" fill="white"/>
<path d="M42.487 41.0611C42.3448 41.059 42.2079 41.0063 42.101 40.9125C41.994 40.8187 41.9239 40.6899 41.9032 40.5491C41.8826 40.4083 41.9127 40.2648 41.9882 40.1442C42.0637 40.0236 42.1796 39.9338 42.3153 39.8909C42.5388 39.8234 42.742 39.7012 42.9064 39.5355C43.0407 39.4012 43.1472 39.2418 43.2199 39.0664C43.2926 38.8909 43.33 38.7029 43.33 38.513C43.33 38.3231 43.2926 38.1351 43.2199 37.9597C43.1472 37.7842 43.0407 37.6248 42.9064 37.4906L33.0016 27.3062C32.9438 27.2505 32.8978 27.1837 32.8663 27.1098C32.8348 27.0359 32.8185 26.9565 32.8184 26.8762C32.8182 26.7959 32.8342 26.7164 32.8654 26.6424C32.8965 26.5684 32.9423 26.5014 32.9999 26.4454C33.0574 26.3894 33.1257 26.3456 33.2005 26.3165C33.2754 26.2874 33.3553 26.2737 33.4356 26.2762C33.5158 26.2786 33.5948 26.2971 33.6677 26.3307C33.7407 26.3642 33.8062 26.4121 33.8603 26.4715L43.781 36.6679C44.2714 37.1684 44.5434 37.8429 44.5375 38.5436C44.5315 39.2443 44.248 39.914 43.7491 40.4061C43.4433 40.7047 43.071 40.9265 42.6628 41.0531C42.6048 41.0635 42.5457 41.0662 42.487 41.0611Z" fill="white"/>
<path d="M37.6463 43.5093C37.5666 43.5097 37.4877 43.494 37.4143 43.4631C37.3408 43.4322 37.2744 43.3868 37.219 43.3296L32.9775 38.9883C32.8662 38.8744 32.8048 38.721 32.8067 38.5619C32.8086 38.4027 32.8735 38.2508 32.9874 38.1396C33.1013 38.0284 33.2547 37.9669 33.4139 37.9688C33.573 37.9707 33.7249 38.0357 33.8361 38.1496L38.0457 42.4909C38.1302 42.5744 38.1878 42.6812 38.2111 42.7977C38.2344 42.9142 38.2222 43.035 38.1763 43.1446C38.1303 43.2541 38.0526 43.3474 37.9532 43.4124C37.8538 43.4774 37.7371 43.5112 37.6183 43.5093H37.6463Z" fill="white"/>
<path d="M39.2437 44.1164C39.0849 44.1222 38.9302 44.0647 38.8137 43.9564C38.6972 43.8482 38.6285 43.6981 38.6227 43.5392C38.6168 43.3804 38.6744 43.2257 38.7826 43.1092C38.8909 42.9927 39.0409 42.924 39.1998 42.9182C39.5401 42.8981 39.8619 42.7563 40.1064 42.5188C40.2407 42.3846 40.3472 42.2252 40.4199 42.0497C40.4926 41.8743 40.53 41.6863 40.53 41.4964C40.53 41.3065 40.4926 41.1185 40.4199 40.943C40.3472 40.7676 40.2407 40.6082 40.1064 40.4739L35.9688 36.2365C35.864 36.1215 35.8081 35.9703 35.8128 35.8148C35.8175 35.6593 35.8825 35.5118 35.994 35.4034C36.1056 35.295 36.2549 35.2342 36.4104 35.2339C36.5659 35.2336 36.7155 35.2938 36.8274 35.4017L40.9611 39.6352C41.3141 39.9956 41.5567 40.4494 41.6604 40.943C41.7642 41.4367 41.7249 41.9497 41.547 42.4217C41.3691 42.8937 41.0601 43.3051 40.6563 43.6075C40.2525 43.9098 39.7707 44.0905 39.2677 44.1283L39.2437 44.1164Z" fill="white"/>
<path d="M36.1219 46.9238C35.7702 46.9234 35.4222 46.8524 35.0985 46.7153C34.7747 46.5781 34.4817 46.3774 34.2367 46.1251C34.1785 46.0696 34.1321 46.0031 34.1001 45.9293C34.0682 45.8555 34.0514 45.7761 34.0508 45.6957C34.0502 45.6153 34.0657 45.5356 34.0966 45.4614C34.1274 45.3871 34.1729 45.3199 34.2303 45.2636C34.2876 45.2073 34.3557 45.1631 34.4305 45.1337C34.5053 45.1042 34.5853 45.0902 34.6657 45.0923C34.746 45.0944 34.8251 45.1127 34.8983 45.146C34.9714 45.1794 35.0371 45.2271 35.0914 45.2863C35.3631 45.5566 35.7307 45.7083 36.1139 45.7083C36.4971 45.7083 36.8646 45.5566 37.1363 45.2863C37.273 45.1543 37.3816 44.996 37.4557 44.821C37.5298 44.6461 37.5679 44.4579 37.5677 44.2679C37.5756 43.8864 37.432 43.5173 37.1683 43.2415C37.1101 43.186 37.0636 43.1195 37.0316 43.0457C36.9997 42.9719 36.9829 42.8925 36.9823 42.8121C36.9817 42.7317 36.9972 42.652 37.0281 42.5778C37.0589 42.5036 37.1044 42.4363 37.1618 42.38C37.2191 42.3237 37.2872 42.2795 37.362 42.2501C37.4368 42.2207 37.5168 42.2066 37.5972 42.2087C37.6775 42.2108 37.7567 42.2291 37.8298 42.2624C37.903 42.2958 37.9686 42.3435 38.0229 42.4028C38.3883 42.7745 38.6356 43.246 38.7338 43.7579C38.8319 44.2698 38.7766 44.7993 38.5748 45.2799C38.3729 45.7605 38.0335 46.1706 37.5992 46.4589C37.1649 46.7471 36.6551 46.9005 36.1338 46.8999L36.1219 46.9238Z" fill="white"/>
<path d="M33.3179 49.8952H33.2979C32.9497 49.8917 32.6057 49.8193 32.2856 49.6822C31.9655 49.5451 31.6756 49.346 31.4328 49.0964L30.662 48.2977C30.5514 48.1845 30.4897 48.0325 30.4902 47.8743C30.4936 47.7154 30.5579 47.5638 30.67 47.451L33.5935 44.5834C33.6487 44.5286 33.7141 44.4852 33.7861 44.4557C33.858 44.4262 33.9351 44.4113 34.0129 44.4116C34.1717 44.4118 34.324 44.475 34.4362 44.5873L35.203 45.3861C35.5659 45.7591 35.811 46.2307 35.9078 46.742C36.0046 47.2533 35.9489 47.7818 35.7475 48.2616C35.5461 48.7415 35.2079 49.1514 34.7752 49.4405C34.3425 49.7296 33.8343 49.8849 33.3139 49.8872L33.3179 49.8952ZM31.94 47.8983L32.2875 48.2497C32.4202 48.3859 32.5785 48.4944 32.7533 48.5691C32.9281 48.6438 33.1159 48.6832 33.3059 48.6851C33.6865 48.688 34.0538 48.545 34.3323 48.2857C34.6026 48.014 34.7543 47.6464 34.7543 47.2632C34.7543 46.8801 34.6026 46.5125 34.3323 46.2408L33.9849 45.8894L31.94 47.8983Z" fill="white"/>
<path d="M23.4931 43.701C22.9684 43.6997 22.4559 43.5426 22.0207 43.2496C21.5854 42.9565 21.247 42.5408 21.0485 42.0551C20.8499 41.5694 20.8001 41.0357 20.9054 40.5216C21.0108 40.0076 21.2664 39.5364 21.6399 39.168L25.0946 35.7732C25.6006 35.3099 26.2666 35.061 26.9524 35.079C27.6382 35.0971 28.2902 35.3805 28.7712 35.8697C29.2521 36.359 29.5244 37.0157 29.5307 37.7017C29.537 38.3877 29.2768 39.0494 28.805 39.5474L25.3502 42.9422C24.8554 43.43 24.188 43.7027 23.4931 43.701ZM22.4627 42.0715C22.7343 42.3417 23.1019 42.4934 23.4851 42.4934C23.8683 42.4934 24.2359 42.3417 24.5075 42.0715L27.9623 38.6767C28.1653 38.4758 28.3044 38.2195 28.3623 37.9398C28.4201 37.6601 28.3941 37.3696 28.2874 37.1047C28.1808 36.8398 27.9983 36.6123 27.7628 36.4507C27.5273 36.2891 27.2493 36.2007 26.9638 36.1965C26.5876 36.1919 26.2247 36.3354 25.9533 36.5959L22.4946 39.9907C22.3543 40.1245 22.2422 40.285 22.1648 40.4629C22.0875 40.6407 22.0465 40.8321 22.0442 41.026C22.042 41.2199 22.0786 41.4123 22.1518 41.5919C22.225 41.7714 22.3335 41.9345 22.4707 42.0715H22.4627Z" fill="white"/>
<path d="M26.2999 46.6523C25.9476 46.6519 25.599 46.581 25.2746 46.4438C24.9502 46.3067 24.6564 46.1059 24.4108 45.8535C23.9209 45.3524 23.6496 44.6776 23.6564 43.9769C23.6631 43.2762 23.9473 42.6068 24.4467 42.1152L27.9014 38.7164C28.4025 38.2266 29.0773 37.9553 29.778 37.962C30.4787 37.9688 31.1481 38.253 31.6397 38.7524C32.1311 39.2524 32.4037 39.9271 32.3978 40.6281C32.3918 41.3292 32.1076 41.9991 31.6078 42.4907L28.153 45.8894C27.6596 46.3774 26.9938 46.6515 26.2999 46.6523ZM29.7546 39.1678C29.3771 39.1625 29.0127 39.306 28.7401 39.5671L25.2855 42.9659C25.1488 43.098 25.0401 43.2562 24.966 43.4312C24.8919 43.6062 24.8539 43.7943 24.8541 43.9844C24.8461 44.3659 24.9898 44.735 25.2535 45.0108C25.3878 45.1457 25.5475 45.2527 25.7233 45.3257C25.8991 45.3988 26.0876 45.4364 26.2779 45.4364C26.4683 45.4364 26.6568 45.3988 26.8326 45.3257C27.0084 45.2527 27.168 45.1457 27.3023 45.0108L30.7571 41.616C30.8937 41.4839 31.0023 41.3257 31.0764 41.1507C31.1505 40.9757 31.1886 40.7876 31.1884 40.5976C31.191 40.4064 31.1556 40.2166 31.084 40.0393C31.0124 39.8621 30.9062 39.7008 30.7716 39.5651C30.637 39.4294 30.4766 39.3218 30.2999 39.2488C30.1233 39.1758 29.9338 39.1387 29.7426 39.1398L29.7546 39.1678Z" fill="white"/>
<path d="M29.2579 49.472C28.7344 49.4691 28.2235 49.3105 27.7903 49.0165C27.357 48.7225 27.021 48.3062 26.8249 47.8208C26.6289 47.3353 26.5815 46.8024 26.6891 46.29C26.7966 45.7776 27.0541 45.3087 27.4288 44.943L30.8834 41.5442C31.3898 41.0812 32.0562 40.8329 32.7421 40.8516C33.428 40.8702 34.0799 41.1544 34.5604 41.6442C35.0409 42.134 35.3125 42.7912 35.318 43.4774C35.3235 44.1635 35.0624 44.825 34.5897 45.3224L31.135 48.7132C30.8879 48.9575 30.5947 49.1504 30.2725 49.2806C29.9503 49.4109 29.6054 49.4759 29.2579 49.472ZM32.7126 41.9875C32.334 41.9825 31.9685 42.1259 31.6942 42.3869L28.2435 45.7857C28.0399 45.986 27.9002 46.2421 27.8421 46.5218C27.7839 46.8014 27.8099 47.092 27.9167 47.3569C28.0235 47.6217 28.2064 47.8491 28.4422 48.0101C28.6781 48.1712 28.9563 48.2588 29.2419 48.2619C29.6228 48.2664 29.9907 48.1233 30.2684 47.8625L33.7271 44.4677C33.9289 44.2664 34.067 44.01 34.124 43.7307C34.1809 43.4513 34.1542 43.1614 34.0472 42.8971C33.9402 42.6328 33.7577 42.406 33.5224 42.2449C33.2872 42.0838 33.0097 41.9957 32.7246 41.9915L32.7126 41.9875Z" fill="white"/>
<path d="M44.1793 36.1325C44.0306 36.1287 43.8885 36.0704 43.7799 35.9687C43.6677 35.8564 43.6047 35.7041 43.6047 35.5454C43.6047 35.3866 43.6677 35.2344 43.7799 35.122L44.6786 34.1835C49.2116 29.4387 49.5191 23.2642 45.4254 19.1705C43.766 17.5449 41.6641 16.4447 39.3827 16.0073C37.5575 15.6838 34.9095 15.7637 32.6969 17.9763L28.6431 21.8903C28.1171 22.4046 27.6859 23.0076 27.3691 23.6716L24.9728 28.7318C24.8907 28.9124 24.8451 29.1075 24.8387 29.3058C24.8322 29.504 24.865 29.7016 24.9351 29.8872C25.0052 30.0728 25.1114 30.2426 25.2474 30.3871C25.3834 30.5315 25.5466 30.6476 25.7276 30.7288C26.2828 30.925 26.8924 30.8992 27.429 30.6569C27.8997 30.4476 28.3209 30.1412 28.6651 29.7579C29.0092 29.3745 29.2685 28.9228 29.426 28.4323C29.7734 27.0704 29.8892 26.7069 30.5562 25.8283C30.9467 25.3489 31.5023 25.0327 32.1138 24.9416C32.1925 24.9222 32.2743 24.919 32.3543 24.9321C32.4343 24.9452 32.5108 24.9744 32.5791 25.018C32.6475 25.0615 32.7063 25.1184 32.7521 25.1854C32.7978 25.2523 32.8294 25.3278 32.8451 25.4073C32.8608 25.4868 32.8602 25.5687 32.8433 25.648C32.8265 25.7273 32.7937 25.8023 32.7469 25.8685C32.7002 25.9348 32.6406 25.9908 32.5716 26.0333C32.5026 26.0759 32.4256 26.1039 32.3455 26.1158C32.0226 26.1543 31.7253 26.3108 31.5108 26.5552C30.9556 27.282 30.8997 27.5057 30.5762 28.7638C30.5779 28.7837 30.5779 28.8037 30.5762 28.8237C30.3583 29.4753 30.0061 30.0739 29.5424 30.5809C29.0788 31.0879 28.5139 31.4921 27.8843 31.7672C27.4654 31.9509 27.0141 32.0494 26.5568 32.0569C26.0994 32.0645 25.6451 31.9809 25.2204 31.8111C24.8976 31.6619 24.6073 31.4506 24.3661 31.1892C24.1249 30.9278 23.9376 30.6215 23.8149 30.2877C23.6921 29.9539 23.6363 29.5992 23.6506 29.2438C23.665 28.8885 23.7492 28.5394 23.8984 28.2166L26.2947 23.1564C26.6713 22.3643 27.1867 21.6461 27.8164 21.0356L31.8103 17.1176C34.3863 14.5416 37.4417 14.4457 39.5504 14.8211C42.0719 15.3031 44.3949 16.5188 46.2282 18.3158C50.7373 22.8249 50.4338 29.8421 45.5013 35.0022L44.6027 35.9408C44.5487 35.9997 44.4834 36.047 44.4107 36.08C44.3379 36.1129 44.2592 36.1308 44.1793 36.1325Z" fill="white"/>
<path d="M17.8929 36.1327C17.7705 36.1335 17.6508 36.0973 17.5494 36.0288C13.899 33.4967 12.0019 28.8838 12.7208 24.2789C12.9895 22.4599 13.7121 20.738 14.822 19.2722C15.9319 17.8063 17.3932 16.6437 19.071 15.8917C22.8772 14.2622 27.4582 15.1169 31.0527 18.1283C31.1176 18.1771 31.172 18.2386 31.2124 18.3091C31.2529 18.3796 31.2786 18.4575 31.2879 18.5383C31.2973 18.619 31.2901 18.7007 31.2668 18.7786C31.2436 18.8565 31.2048 18.9288 31.1527 18.9912C31.1006 19.0535 31.0364 19.1047 30.964 19.1415C30.8915 19.1782 30.8123 19.1999 30.7312 19.2051C30.6502 19.2103 30.5689 19.199 30.4923 19.1718C30.4157 19.1446 30.3455 19.1021 30.2858 19.0469C27.0348 16.3271 22.9132 15.5403 19.5224 16.994C18.0314 17.666 16.7334 18.7023 15.7479 20.0074C14.7625 21.3125 14.1211 22.8446 13.883 24.4626C13.248 28.5523 14.9893 32.8058 18.2124 35.0424C18.3167 35.1152 18.3951 35.2193 18.4363 35.3396C18.4775 35.4599 18.4793 35.5903 18.4415 35.7117C18.4037 35.8332 18.3282 35.9394 18.226 36.0151C18.1237 36.0908 18.0001 36.132 17.8729 36.1327H17.8929Z" fill="white"/>
</g>
<defs>
<clipPath id="clip0_1490:209">
<rect width="60" height="60" fill="white"/>
</clipPath>
</defs>
</svg>
