<svg width="25" height="25" viewBox="0 0 25 25" fill="none" xmlns="http://www.w3.org/2000/svg">
<path d="M11.9814 6.77979C11.8382 6.77979 11.7214 6.89658 11.7214 7.03979V9.05479L10.4214 11.6548V11.1998C10.4214 11.0566 10.3046 10.9398 10.1614 10.9398H6.78142C6.70728 10.9398 6.63619 10.9733 6.58642 11.0292C6.53666 11.085 6.51228 11.1581 6.52142 11.2323L7.30142 17.4723C7.31767 17.6023 7.43041 17.6998 7.56142 17.6998H10.1614C10.3046 17.6998 10.4214 17.584 10.4214 17.4398V17.1798H10.722C10.8297 17.4824 11.1222 17.6998 11.4614 17.6998H16.4014C16.9752 17.6998 17.4414 17.2336 17.4414 16.6598C17.4414 16.4455 17.3734 16.2485 17.2627 16.0829C17.6679 15.9407 17.9614 15.5528 17.9614 15.0998C17.9614 14.8449 17.87 14.6143 17.7177 14.4335C18.0193 14.2517 18.2214 13.9176 18.2214 13.5398C18.2214 13.2849 18.13 13.0543 17.9777 12.8735C18.2793 12.6917 18.4814 12.3576 18.4814 11.9798C18.4814 11.406 18.0152 10.9398 17.4414 10.9398H13.6389C13.7974 10.4381 14.0614 9.54025 14.0614 9.11979C14.0614 8.14072 13.3444 6.77979 12.6395 6.77979H11.9814ZM12.2414 7.29979H12.6395C12.8782 7.29979 13.5414 8.20471 13.5414 9.11979C13.5414 9.52705 13.1778 10.7011 13.0377 11.1185C13.0103 11.1978 13.0214 11.2861 13.0702 11.3542C13.1189 11.4222 13.1981 11.4598 13.2814 11.4598H17.4414C17.7278 11.4598 17.9614 11.6934 17.9614 11.9798C17.9614 12.2662 17.7278 12.4998 17.4414 12.4998H17.1814C17.0372 12.4998 16.9214 12.6156 16.9214 12.7598C16.9214 12.904 17.0372 13.0198 17.1814 13.0198C17.4678 13.0198 17.7014 13.2534 17.7014 13.5398C17.7014 13.8262 17.4678 14.0598 17.1814 14.0598H16.9214C16.7772 14.0598 16.6614 14.1756 16.6614 14.3198C16.6614 14.464 16.7772 14.5798 16.9214 14.5798C17.2078 14.5798 17.4414 14.8134 17.4414 15.0998C17.4414 15.3862 17.2078 15.6198 16.9214 15.6198H16.4014C16.2572 15.6198 16.1414 15.7356 16.1414 15.8798C16.1414 16.024 16.2572 16.1398 16.4014 16.1398C16.6878 16.1398 16.9214 16.3734 16.9214 16.6598C16.9214 16.9462 16.6878 17.1798 16.4014 17.1798H11.4614C11.3182 17.1798 11.2014 17.063 11.2014 16.9198C11.2014 16.7756 11.0846 16.6598 10.9414 16.6598H10.4214V12.2398H10.5514C10.6499 12.2398 10.7424 12.1819 10.787 12.0935L12.217 9.23354C12.2353 9.19799 12.2414 9.16041 12.2414 9.11979V7.29979ZM7.07392 11.4598H9.90142V17.1798H7.78892L7.07392 11.4598ZM8.99142 15.8798C8.77611 15.8798 8.60142 16.0545 8.60142 16.2698C8.60142 16.4851 8.77611 16.6598 8.99142 16.6598C9.20673 16.6598 9.38142 16.4851 9.38142 16.2698C9.38142 16.0545 9.20673 15.8798 8.99142 15.8798Z" fill="#767474"/>
<circle cx="12.5" cy="12.5" r="12" stroke="#767474"/>
</svg>
