<svg width="65" height="65" viewBox="0 0 65 65" fill="none" xmlns="http://www.w3.org/2000/svg">
<g clip-path="url(#clip0_1490:189)">
<path d="M48.1614 34.3324H21.7685C21.6189 34.3324 21.4739 34.2807 21.358 34.1861C21.2421 34.0915 21.1624 33.9598 21.1325 33.8132L19.9643 28.1885C19.945 28.0942 19.947 27.9968 19.97 27.9033C19.9931 27.8099 20.0366 27.7227 20.0975 27.6482C20.1584 27.5736 20.2351 27.5135 20.3221 27.4723C20.409 27.431 20.5041 27.4096 20.6003 27.4097H49.8834C49.9848 27.4099 50.0847 27.4339 50.1751 27.4798C50.2655 27.5256 50.3439 27.592 50.4041 27.6736C50.4642 27.7552 50.5044 27.8497 50.5215 27.9497C50.5385 28.0496 50.5319 28.1521 50.5021 28.249L48.7715 33.8738C48.7313 34.0048 48.6506 34.1198 48.541 34.2022C48.4314 34.2846 48.2985 34.3302 48.1614 34.3324ZM22.2877 33.0344H47.6811L48.9791 28.7077H21.4008L22.2877 33.0344Z" fill="black"/>
<path d="M30.983 37.9669C30.8198 37.9664 30.6627 37.9049 30.5426 37.7944C30.4225 37.6839 30.3481 37.5324 30.334 37.3698L29.1875 22.9922C29.1809 22.9069 29.1912 22.8213 29.2178 22.74C29.2444 22.6588 29.2867 22.5836 29.3424 22.5187C29.398 22.4538 29.4659 22.4005 29.5421 22.3618C29.6184 22.3232 29.7015 22.2999 29.7867 22.2934C29.8719 22.2869 29.9576 22.2972 30.0388 22.3238C30.1201 22.3503 30.1953 22.3927 30.2602 22.4483C30.3251 22.504 30.3784 22.5718 30.417 22.6481C30.4557 22.7243 30.4789 22.8074 30.4855 22.8926L31.632 37.2703C31.6452 37.4418 31.5896 37.6115 31.4777 37.7422C31.3657 37.8728 31.2065 37.9536 31.035 37.9669H30.983Z" fill="black"/>
<path d="M39.0214 37.9668H38.9781C38.8063 37.9546 38.6462 37.875 38.5328 37.7454C38.4193 37.6157 38.3617 37.4465 38.3724 37.2746L39.3415 22.8796C39.3472 22.7944 39.3696 22.7111 39.4075 22.6346C39.4454 22.558 39.4979 22.4896 39.5622 22.4334C39.6265 22.3771 39.7012 22.3341 39.7822 22.3068C39.8631 22.2794 39.9486 22.2682 40.0338 22.2739C40.1191 22.2796 40.2023 22.302 40.2789 22.3399C40.3555 22.3777 40.4238 22.4303 40.4801 22.4946C40.5363 22.5589 40.5794 22.6336 40.6067 22.7145C40.6341 22.7954 40.6452 22.8809 40.6395 22.9662L39.666 37.3611C39.6551 37.5249 39.5825 37.6784 39.4629 37.7908C39.3433 37.9032 39.1855 37.9661 39.0214 37.9668Z" fill="black"/>
<path d="M49.8728 28.725H20.5898C20.4433 28.7249 20.3011 28.6752 20.1864 28.5841C20.0717 28.493 19.9912 28.3657 19.958 28.2231C19.2052 24.991 17.8553 19.5697 17.4313 18.7909C17.113 18.2219 16.6744 17.7292 16.1461 17.3474C15.6177 16.9655 15.0124 16.7036 14.3723 16.5799C13.688 16.4306 12.9794 16.433 12.2961 16.587C11.6129 16.741 10.9717 17.0428 10.4177 17.4712C10.2823 17.5779 10.11 17.6265 9.93882 17.6062C9.76761 17.5859 9.61147 17.4984 9.50475 17.363C9.39803 17.2276 9.34947 17.0554 9.36975 16.8842C9.39004 16.713 9.47751 16.5568 9.61292 16.4501C10.3162 15.9049 11.1303 15.5201 11.9981 15.3228C12.8658 15.1254 13.7663 15.1204 14.6362 15.3079C15.4613 15.4702 16.2411 15.8105 16.9211 16.3052C17.6012 16.7999 18.1651 17.437 18.5735 18.1721C19.1489 19.2365 20.646 25.4756 21.1046 27.4269H49.3926L50.3877 24.2468C50.4185 24.1421 50.4246 24.0317 50.4055 23.9243C50.3864 23.8168 50.3426 23.7153 50.2776 23.6277C50.2126 23.54 50.1282 23.4686 50.0309 23.4192C49.9336 23.3697 49.8262 23.3435 49.7171 23.3425H21.1998C21.0277 23.3425 20.8626 23.2742 20.7409 23.1525C20.6192 23.0307 20.5508 22.8657 20.5508 22.6935C20.5508 22.5214 20.6192 22.3563 20.7409 22.2346C20.8626 22.1129 21.0277 22.0445 21.1998 22.0445H49.6955C50.0095 22.0438 50.3192 22.117 50.5997 22.2583C50.8801 22.3997 51.1233 22.605 51.3096 22.8579C51.4958 23.1107 51.6199 23.4039 51.6717 23.7136C51.7235 24.0233 51.7017 24.3409 51.6079 24.6406L50.4916 28.2793C50.4492 28.4097 50.3664 28.5233 50.2552 28.6034C50.1439 28.6836 50.01 28.7261 49.8728 28.725Z" fill="black"/>
<path d="M47.3601 44.5089H23.4768C22.7199 44.4797 22.0038 44.1586 21.4787 43.6129C20.9535 43.0672 20.6602 42.3392 20.6602 41.5818C20.6602 40.8245 20.9535 40.0965 21.4787 39.5508C22.0038 39.005 22.7199 38.6839 23.4768 38.6548H44.9458C45.2175 38.6531 45.4819 38.5662 45.7015 38.4063C45.9212 38.2464 46.0852 38.0216 46.1703 37.7635L47.2736 34.3324H22.5552L23.2691 37.7549C23.2864 37.8384 23.2871 37.9245 23.2712 38.0083C23.2552 38.0921 23.2229 38.1719 23.1761 38.2433C23.1293 38.3146 23.0689 38.376 22.9984 38.4239C22.9278 38.4719 22.8486 38.5055 22.765 38.5229C22.6815 38.5402 22.5954 38.5409 22.5116 38.5249C22.4278 38.509 22.348 38.4767 22.2766 38.4299C22.2053 38.3831 22.1439 38.3227 22.096 38.2521C22.048 38.1816 22.0144 38.1023 21.997 38.0188L21.1317 33.8176C21.1121 33.7227 21.1136 33.6248 21.1361 33.5306C21.1585 33.4364 21.2013 33.3483 21.2615 33.2724C21.3228 33.1975 21.4001 33.1373 21.4877 33.0961C21.5752 33.0549 21.6709 33.0338 21.7677 33.0344H48.1606C48.2634 33.0348 48.3647 33.0592 48.4564 33.1058C48.5481 33.1524 48.6276 33.2198 48.6884 33.3027C48.7487 33.3851 48.7884 33.4807 48.8042 33.5816C48.82 33.6824 48.8115 33.7856 48.7793 33.8825L47.4077 38.1572C47.2425 38.68 46.9145 39.1362 46.4716 39.4592C46.0287 39.7823 45.4941 39.9552 44.9458 39.9528H23.4768C23.0592 39.9744 22.6659 40.1554 22.378 40.4585C22.0901 40.7616 21.9296 41.1638 21.9296 41.5818C21.9296 41.9999 22.0901 42.402 22.378 42.7052C22.6659 43.0083 23.0592 43.1893 23.4768 43.2108H47.3601C47.5323 43.2108 47.6974 43.2792 47.8191 43.4009C47.9408 43.5226 48.0092 43.6877 48.0092 43.8598C48.0092 44.032 47.9408 44.197 47.8191 44.3188C47.6974 44.4405 47.5323 44.5089 47.3601 44.5089Z" fill="black"/>
<path d="M23.3907 51.0724C22.8062 51.0724 22.2349 50.8991 21.7489 50.5743C21.2629 50.2496 20.8842 49.7881 20.6605 49.2481C20.4368 48.7081 20.3783 48.114 20.4923 47.5407C20.6064 46.9675 20.8878 46.4409 21.3011 46.0276C21.7144 45.6144 22.2409 45.3329 22.8142 45.2189C23.3874 45.1049 23.9816 45.1634 24.5216 45.387C25.0616 45.6107 25.5231 45.9895 25.8478 46.4755C26.1725 46.9614 26.3458 47.5328 26.3458 48.1172C26.3447 48.9006 26.033 49.6516 25.479 50.2056C24.9251 50.7595 24.1741 51.0712 23.3907 51.0724ZM23.3907 46.4601C23.0629 46.4601 22.7425 46.5573 22.47 46.7394C22.1975 46.9215 21.9851 47.1803 21.8597 47.4831C21.7343 47.7859 21.7014 48.1191 21.7654 48.4405C21.8293 48.762 21.9872 49.0573 22.2189 49.289C22.4507 49.5208 22.7459 49.6786 23.0674 49.7425C23.3888 49.8065 23.722 49.7737 24.0248 49.6482C24.3276 49.5228 24.5865 49.3104 24.7685 49.0379C24.9506 48.7654 25.0478 48.445 25.0478 48.1172C25.0467 47.6781 24.8717 47.2573 24.5612 46.9467C24.2507 46.6362 23.8298 46.4613 23.3907 46.4601Z" fill="black"/>
<path d="M43.2188 51.0724C42.6343 51.0724 42.063 50.8991 41.577 50.5743C41.091 50.2496 40.7123 49.7881 40.4886 49.2481C40.2649 48.7081 40.2064 48.114 40.3205 47.5407C40.4345 46.9675 40.7159 46.4409 41.1292 46.0276C41.5425 45.6144 42.069 45.3329 42.6423 45.2189C43.2155 45.1049 43.8097 45.1634 44.3497 45.387C44.8897 45.6107 45.3512 45.9895 45.6759 46.4755C46.0006 46.9614 46.1739 47.5328 46.1739 48.1172C46.1728 48.9006 45.8611 49.6516 45.3071 50.2056C44.7532 50.7595 44.0022 51.0712 43.2188 51.0724ZM43.2188 46.4601C42.891 46.4601 42.5707 46.5573 42.2982 46.7394C42.0256 46.9215 41.8132 47.1803 41.6878 47.4831C41.5624 47.7859 41.5296 48.1191 41.5935 48.4405C41.6575 48.762 41.8153 49.0573 42.047 49.289C42.2788 49.5208 42.5741 49.6786 42.8955 49.7425C43.217 49.8065 43.5502 49.7737 43.853 49.6482C44.1558 49.5228 44.4146 49.3104 44.5966 49.0379C44.7787 48.7654 44.8759 48.445 44.8759 48.1172C44.8748 47.6781 44.6998 47.2573 44.3893 46.9467C44.0788 46.6362 43.6579 46.4613 43.2188 46.4601Z" fill="black"/>
<path d="M32.4967 64.9999C26.0677 65.0008 19.7828 63.095 14.437 59.5235C9.09117 55.9521 4.92461 50.8755 2.46432 44.9358C0.00402207 38.9961 -0.639471 32.4602 0.615196 26.1548C1.86986 19.8494 4.96634 14.0576 9.51297 9.51222C14.0596 4.96679 19.8521 1.87186 26.1579 0.618875C32.4637 -0.634113 38.9994 0.0111369 44.9384 2.47301C50.8775 4.93489 55.953 9.10278 59.523 14.4495C63.093 19.7963 64.9971 26.0817 64.9946 32.5108C64.982 41.1251 61.5538 49.3828 55.4617 55.4732C49.3697 61.5637 41.111 64.9896 32.4967 64.9999ZM32.4967 1.29795C26.3253 1.29709 20.2922 3.12624 15.1603 6.55409C10.0285 9.98194 6.02828 14.8546 3.66559 20.5558C1.30291 26.257 0.683836 32.5308 1.88667 38.5839C3.08949 44.637 6.06021 50.1974 10.4232 54.5622C14.7861 58.9269 20.3453 61.9 26.3979 63.1053C32.4504 64.3107 38.7245 63.6942 44.4267 61.3339C50.1289 58.9736 55.0032 54.9754 58.4332 49.845C61.8632 44.7145 63.6949 38.6822 63.6966 32.5108C63.6897 24.237 60.4008 16.3038 54.5516 10.4521C48.7023 4.60047 40.7705 1.30826 32.4967 1.29795Z" fill="black"/>
</g>
<defs>
<clipPath id="clip0_1490:189">
<rect width="65" height="65" fill="white"/>
</clipPath>
</defs>
</svg>
