<svg width="65" height="65" viewBox="0 0 65 65" fill="none" xmlns="http://www.w3.org/2000/svg">
<g clip-path="url(#clip0_1489:134)">
<path d="M47.4651 50.6614H45.3537C44.8499 50.6569 44.3683 50.4532 44.0141 50.095C43.6599 49.7367 43.4617 49.2528 43.4629 48.749V34.0383C43.4629 33.8661 43.5313 33.701 43.653 33.5793C43.7747 33.4576 43.9398 33.3893 44.1119 33.3893C44.284 33.3893 44.4491 33.4576 44.5708 33.5793C44.6925 33.701 44.7609 33.8661 44.7609 34.0383V48.749C44.7609 48.9112 44.825 49.0669 44.9393 49.182C45.0536 49.2971 45.2088 49.3623 45.371 49.3634H47.4824C47.6446 49.3623 47.7998 49.2971 47.914 49.182C48.0283 49.0669 48.0925 48.9112 48.0925 48.749V24.6234C48.0925 24.4512 48.1608 24.2862 48.2826 24.1645C48.4043 24.0427 48.5693 23.9744 48.7415 23.9744C48.9136 23.9744 49.0787 24.0427 49.2004 24.1645C49.3221 24.2862 49.3905 24.4512 49.3905 24.6234V48.749C49.3905 49.0013 49.3406 49.251 49.2437 49.4839C49.1468 49.7168 49.0047 49.9282 48.8258 50.1059C48.6468 50.2837 48.4344 50.4243 48.2009 50.5196C47.9674 50.6149 47.7173 50.6632 47.4651 50.6614Z" fill="black"/>
<path d="M39.4648 50.6613H37.3534C37.1025 50.6613 36.854 50.6118 36.6222 50.5157C36.3904 50.4195 36.1799 50.2786 36.0026 50.1009C35.8254 49.9233 35.685 49.7124 35.5893 49.4804C35.4937 49.2484 35.4447 48.9999 35.4453 48.7489V40.6061C35.4453 40.4339 35.5137 40.2689 35.6354 40.1472C35.7571 40.0255 35.9222 39.9571 36.0943 39.9571C36.2664 39.9571 36.4315 40.0255 36.5532 40.1472C36.6749 40.2689 36.7433 40.4339 36.7433 40.6061V48.7489C36.7433 48.9111 36.8075 49.0667 36.9217 49.1818C37.036 49.2969 37.1912 49.3622 37.3534 49.3633H39.4648C39.6266 49.3633 39.7818 49.299 39.8962 49.1846C40.0106 49.0702 40.0749 48.9151 40.0749 48.7533V37.7591C40.0749 37.587 40.1433 37.4219 40.265 37.3002C40.3867 37.1785 40.5518 37.1101 40.7239 37.1101C40.896 37.1101 41.0611 37.1785 41.1828 37.3002C41.3045 37.4219 41.3729 37.587 41.3729 37.7591V48.7662C41.3683 49.2697 41.1654 49.751 40.8082 50.1058C40.451 50.4606 39.9683 50.6602 39.4648 50.6613Z" fill="black"/>
<path d="M31.464 50.6613H29.3526C28.8472 50.659 28.3635 50.4564 28.0074 50.0979C27.6513 49.7394 27.452 49.2542 27.4531 48.7489V43.1242C27.4531 42.9521 27.5215 42.787 27.6432 42.6653C27.7649 42.5436 27.93 42.4752 28.1021 42.4752C28.2743 42.4752 28.4393 42.5436 28.5611 42.6653C28.6828 42.787 28.7511 42.9521 28.7511 43.1242V48.7489C28.7511 48.9111 28.8153 49.0667 28.9296 49.1818C29.0438 49.2969 29.199 49.3622 29.3612 49.3633H31.4726C31.6348 49.3622 31.79 49.2969 31.9043 49.1818C32.0186 49.0667 32.0827 48.9111 32.0827 48.7489V42.2589C32.0827 42.0867 32.1511 41.9217 32.2728 41.7999C32.3945 41.6782 32.5596 41.6099 32.7317 41.6099C32.9038 41.6099 33.0689 41.6782 33.1906 41.7999C33.3123 41.9217 33.3807 42.0867 33.3807 42.2589V48.7489C33.3807 49.0004 33.3311 49.2495 33.2347 49.4818C33.1384 49.7141 32.9971 49.9251 32.8191 50.1027C32.641 50.2804 32.4297 50.4211 32.1972 50.517C31.9646 50.6128 31.7155 50.6619 31.464 50.6613Z" fill="black"/>
<path d="M23.4648 50.6614H21.3534C21.1025 50.6614 20.854 50.6119 20.6222 50.5158C20.3904 50.4196 20.1799 50.2787 20.0027 50.101C19.8254 49.9234 19.685 49.7125 19.5893 49.4805C19.4937 49.2485 19.4447 49 19.4453 48.749V44.1151C19.4453 43.943 19.5137 43.7779 19.6354 43.6562C19.7571 43.5345 19.9222 43.4661 20.0943 43.4661C20.2664 43.4661 20.4315 43.5345 20.5532 43.6562C20.675 43.7779 20.7433 43.943 20.7433 44.1151V48.749C20.7433 48.9112 20.8075 49.0668 20.9217 49.1819C21.036 49.297 21.1912 49.3623 21.3534 49.3634H23.4648C23.627 49.3623 23.7822 49.297 23.8965 49.1819C24.0108 49.0668 24.0749 48.9112 24.0749 48.749V43.4964C24.0749 43.3243 24.1433 43.1592 24.265 43.0375C24.3867 42.9158 24.5518 42.8474 24.7239 42.8474C24.896 42.8474 25.0611 42.9158 25.1828 43.0375C25.3045 43.1592 25.3729 43.3243 25.3729 43.4964V48.749C25.3729 49.2555 25.172 49.7412 24.8143 50.0998C24.4566 50.4583 23.9713 50.6603 23.4648 50.6614Z" fill="black"/>
<path d="M15.4648 50.6612H13.3534C13.1025 50.6612 12.854 50.6117 12.6222 50.5155C12.3904 50.4194 12.1799 50.2784 12.0026 50.1008C11.8254 49.9231 11.685 49.7123 11.5893 49.4803C11.4937 49.2483 11.4447 48.9997 11.4453 48.7488V44.4913C11.4453 44.3192 11.5137 44.1541 11.6354 44.0324C11.7571 43.9107 11.9222 43.8423 12.0943 43.8423C12.2664 43.8423 12.4315 43.9107 12.5532 44.0324C12.675 44.1541 12.7433 44.3192 12.7433 44.4913V48.7488C12.7433 48.911 12.8075 49.0666 12.9217 49.1817C13.036 49.2968 13.1912 49.362 13.3534 49.3632H15.4648C15.6266 49.3632 15.7818 49.2989 15.8962 49.1845C16.0106 49.0701 16.0749 48.9149 16.0749 48.7531V44.5562C16.0749 44.3841 16.1433 44.219 16.265 44.0973C16.3867 43.9756 16.5518 43.9072 16.7239 43.9072C16.896 43.9072 17.0611 43.9756 17.1828 44.0973C17.3045 44.219 17.3729 44.3841 17.3729 44.5562V48.7531C17.3718 49.2588 17.1704 49.7435 16.8128 50.101C16.4552 50.4586 15.9705 50.66 15.4648 50.6612Z" fill="black"/>
<path d="M32.4967 65.0173C26.0682 65.0181 19.7838 63.1126 14.4383 59.5418C9.0928 55.9709 4.92625 50.8951 2.46557 44.9562C0.00489581 39.0172 -0.639373 32.482 0.614241 26.1769C1.86786 19.8718 4.96305 14.0801 9.50838 9.53416C14.0537 4.98821 19.845 1.89224 26.15 0.637791C32.4549 -0.616663 38.9902 0.0267354 44.9295 2.48662C50.8687 4.9465 55.9451 9.11239 59.5167 14.4574C63.0882 19.8025 64.9946 26.0866 64.9946 32.5151C64.9854 41.1317 61.5587 49.3927 55.4663 55.486C49.3739 61.5792 41.1133 65.007 32.4967 65.0173ZM32.4967 1.31529C26.3248 1.31443 20.2912 3.14392 15.159 6.57235C10.0269 10.0008 6.02667 14.8741 3.66436 20.5761C1.30206 26.2781 0.683746 32.5526 1.88763 38.606C3.09151 44.6594 6.06351 50.2199 10.4277 54.5841C14.792 58.9484 20.3524 61.9204 26.4058 63.1242C32.4593 64.3281 38.7337 63.7098 44.4357 61.3475C50.1377 58.9852 55.0111 54.985 58.4395 49.8528C61.8679 44.7207 63.6974 38.6871 63.6966 32.5151C63.692 24.2402 60.4039 16.3053 54.5543 10.4524C48.7047 4.59959 40.7716 1.30716 32.4967 1.29799V1.31529Z" fill="black"/>
<path d="M42.2685 9.08178C42.373 9.08166 42.4766 9.10224 42.5731 9.14234C42.6696 9.18245 42.7573 9.24128 42.831 9.31542L52.4449 19.0375C52.5546 19.1466 52.6297 19.2856 52.6609 19.4371C52.692 19.5886 52.6779 19.7459 52.6202 19.8895C52.5625 20.033 52.4638 20.1563 52.3365 20.2441C52.2091 20.3319 52.0587 20.3803 51.9041 20.3831L47.0452 20.5172C46.9951 20.5194 46.9472 20.5386 46.9094 20.5716C46.8717 20.6047 46.8463 20.6496 46.8375 20.699C45.5135 28.1539 40.0576 34.5444 33.243 37.8716C28.8784 39.938 24.1008 40.984 19.2721 40.9306C16.9724 40.9261 14.6776 40.719 12.4143 40.3119C12.3646 40.2996 12.3207 40.2704 12.2901 40.2293C12.2595 40.1882 12.2442 40.1378 12.2468 40.0866C12.2493 40.0355 12.2696 39.9868 12.3041 39.949C12.3386 39.9111 12.3852 39.8865 12.4359 39.8792C18.013 39.3816 23.6075 38.1918 28.3841 35.3059C33.5459 32.1907 37.6216 26.778 37.8812 20.7639C37.8824 20.7049 37.8604 20.6479 37.82 20.605C37.7795 20.5621 37.7238 20.5368 37.6649 20.5345L32.5464 20.3874C32.393 20.3819 32.2446 20.3318 32.1191 20.2434C31.9937 20.155 31.8966 20.032 31.8398 19.8894C31.7829 19.7469 31.7688 19.5909 31.799 19.4404C31.8292 19.2899 31.9025 19.1514 32.0099 19.0418L41.706 9.31542C41.8564 9.16845 42.0583 9.08614 42.2685 9.08611V9.08178ZM42.2685 7.7881C41.9957 7.78714 41.7255 7.84059 41.4737 7.94535C41.2218 8.0501 40.9934 8.20405 40.8018 8.39816L31.1056 18.1202C30.8195 18.4061 30.6235 18.7695 30.5418 19.1656C30.4601 19.5616 30.4963 19.973 30.6459 20.3487C30.7955 20.7244 31.0521 21.048 31.3837 21.2794C31.7153 21.5109 32.1075 21.64 32.5118 21.6508L36.5097 21.7633C35.8996 26.5573 32.6156 31.2431 27.7221 34.1939C23.7286 36.6212 18.8351 38.0187 12.3104 38.6245C11.9517 38.6605 11.6179 38.8244 11.37 39.0862C11.1221 39.3481 10.9768 39.6904 10.9605 40.0506C10.9442 40.4108 11.0581 40.7648 11.2814 41.0479C11.5046 41.331 11.8223 41.5244 12.1763 41.5926C14.5139 42.0132 16.884 42.2261 19.2591 42.2286C24.2836 42.2901 29.2553 41.1992 33.7925 39.0398C40.9921 35.5352 46.3399 28.9803 47.9148 21.7979L51.93 21.6855C52.3329 21.6727 52.7232 21.5428 53.0534 21.3116C53.3835 21.0804 53.639 20.7579 53.7887 20.3837C53.9384 20.0095 53.9757 19.5998 53.8961 19.2047C53.8165 18.8096 53.6235 18.4462 53.3405 18.1592L43.7266 8.4371C43.5347 8.24188 43.3057 8.08695 43.0531 7.98145C42.8004 7.87594 42.5293 7.82197 42.2555 7.82271L42.2685 7.7881Z" fill="black"/>
</g>
<defs>
<clipPath id="clip0_1489:134">
<rect width="65" height="65" fill="white"/>
</clipPath>
</defs>
</svg>
