<svg width="60" height="60" viewBox="0 0 60 60" fill="none" xmlns="http://www.w3.org/2000/svg">
<g clip-path="url(#clip0_1490:225)">
<path d="M30.0021 60.0162C24.0681 60.017 18.2671 58.2581 13.3328 54.9619C8.39847 51.6657 4.55244 46.9803 2.28104 41.4983C0.00965119 36.0162 -0.585091 29.9837 0.572092 24.1636C1.72927 18.3435 4.58637 12.9973 8.78206 8.80102C12.9778 4.60477 18.3236 1.74695 24.1436 0.588993C29.9635 -0.568965 35.9961 0.0249418 41.4785 2.2956C46.9608 4.56627 51.6468 8.4117 54.9436 13.3456C58.2404 18.2795 60.0001 24.0802 60.0001 30.0142C59.9906 37.9676 56.8272 45.5926 51.2036 51.2169C45.5801 56.8412 37.9555 60.0057 30.0021 60.0162ZM30.0021 1.21438C24.3049 1.21359 18.7354 2.90234 13.998 6.06704C9.26066 9.23175 5.56819 13.7302 3.3876 18.9936C1.20701 24.257 0.636261 30.0488 1.74754 35.6366C2.85881 41.2244 5.60218 46.3571 9.63071 50.3856C13.6592 54.4141 18.792 57.1575 24.3797 58.2688C29.9675 59.3801 35.7593 58.8093 41.0227 56.6287C46.2861 54.4481 50.7846 50.7557 53.9493 46.0183C57.114 41.2809 58.8027 35.7114 58.8019 30.0142C58.7967 22.3762 55.7612 15.0523 50.3618 9.64984C44.9624 4.24743 37.6401 1.20793 30.0021 1.19841V1.21438Z" fill="white"/>
<path d="M29.7544 8.29557C31.5289 8.2934 33.296 8.52436 35.0103 8.98252C36.1046 9.27599 37.1731 9.65799 38.2054 10.1248C41.2701 11.5351 43.9335 13.6892 45.9535 16.3912C47.3553 18.2523 47.8866 19.1869 47.6789 19.1869C47.4712 19.1869 46.6844 18.4161 45.3624 16.8584C43.9964 15.2187 42.3624 13.8224 40.5298 12.7288C39.6236 12.1851 38.6738 11.7175 37.6902 11.3309C36.7092 10.9538 35.6994 10.6559 34.6708 10.4403C33.4297 10.1782 32.165 10.0443 30.8966 10.0409C28.4226 10.028 25.9713 10.5136 23.689 11.4688C21.4067 12.4239 19.3403 13.8291 17.613 15.6004C16.9481 16.2906 16.3367 17.0302 15.7838 17.813C15.7183 17.9067 15.6763 18.0148 15.6615 18.1281C15.6466 18.2415 15.6593 18.3567 15.6985 18.4641C15.7377 18.5715 15.8022 18.6679 15.8866 18.745C15.971 18.8222 16.0727 18.8778 16.1832 18.9073L18.5795 19.5703C18.7009 19.6031 18.8114 19.6676 18.8997 19.7571C18.9881 19.8466 19.0511 19.9579 19.0823 20.0798C19.1136 20.2016 19.112 20.3295 19.0777 20.4505C19.0434 20.5715 18.9776 20.6812 18.887 20.7684L11.6262 27.8775C11.4944 28.0081 11.3164 28.0813 11.1309 28.0812C10.9726 28.0817 10.8187 28.0293 10.6935 27.9324C10.5683 27.8354 10.4791 27.6995 10.44 27.5461L7.87989 17.7091C7.85323 17.6047 7.85071 17.4955 7.87248 17.3899C7.89425 17.2843 7.93973 17.185 8.00553 17.0996C8.07133 17.0141 8.15572 16.9448 8.25227 16.8968C8.34883 16.8488 8.45501 16.8234 8.56283 16.8225C8.62907 16.8223 8.69499 16.8317 8.75853 16.8505L11.8178 17.7051C11.8805 17.7209 11.9449 17.7289 12.0095 17.7291C12.1253 17.7286 12.2392 17.7 12.3415 17.6457C12.4438 17.5915 12.5314 17.5132 12.5967 17.4176C13.5202 16.0717 14.5919 14.8339 15.7918 13.7272C17.5074 12.1663 19.4679 10.898 21.5948 9.973C24.1734 8.86395 26.9514 8.29314 29.7584 8.29557H29.7544ZM29.7584 7.30908C26.8172 7.30977 23.9067 7.90761 21.2035 9.06638C18.9751 10.0353 16.9214 11.3644 15.1248 13.0004C13.9204 14.1138 12.841 15.3553 11.9057 16.7027L9.03413 15.9039C8.88444 15.8628 8.73004 15.8413 8.57482 15.84C8.31631 15.8411 8.06147 15.9011 7.82963 16.0155C7.59778 16.1299 7.39502 16.2955 7.23679 16.5C7.07855 16.7044 6.96901 16.9422 6.91643 17.1953C6.86385 17.4484 6.86962 17.7102 6.93335 17.9608L9.46145 27.8057C9.55542 28.1705 9.76813 28.4938 10.066 28.7244C10.364 28.9551 10.7301 29.0801 11.1069 29.0797C11.329 29.082 11.5493 29.0402 11.755 28.9565C11.9607 28.8729 12.1477 28.7491 12.3051 28.5924L19.566 21.4833C19.779 21.2753 19.9335 21.0148 20.0137 20.7281C20.094 20.4413 20.0972 20.1385 20.0231 19.8501C19.949 19.5617 19.8002 19.298 19.5916 19.0855C19.383 18.8729 19.1221 18.7192 18.8351 18.6397L16.8382 18.0766C17.3003 17.4527 17.8019 16.8591 18.3398 16.2993C19.9752 14.6239 21.9313 13.295 24.0914 12.392C26.2515 11.489 28.5714 11.0303 30.9126 11.0434C32.1121 11.0414 33.3086 11.1632 34.4831 11.4068C35.4609 11.6088 36.4201 11.892 37.3507 12.2535C38.2824 12.6203 39.1827 13.0624 40.0426 13.5755C41.779 14.6131 43.3277 15.9363 44.6236 17.4895C46.9001 20.1734 47.2675 20.1734 47.6948 20.1734C47.8858 20.1749 48.0733 20.1225 48.2358 20.0221C48.3983 19.9218 48.5292 19.7776 48.6134 19.6062C48.885 19.0631 48.921 18.6717 46.7563 15.8001C45.3555 13.9181 43.6474 12.2857 41.704 10.9715C38.186 8.58291 34.0306 7.30818 29.7783 7.31308L29.7584 7.30908Z" fill="white"/>
<path d="M48.785 32.7417C48.9435 32.7405 49.0978 32.7927 49.2231 32.8897C49.3484 32.9868 49.4375 33.1231 49.476 33.2769L52.0041 43.1218C52.0307 43.2263 52.0333 43.3354 52.0115 43.441C51.9898 43.5467 51.9442 43.6459 51.8784 43.7313C51.8126 43.8168 51.7283 43.8861 51.6317 43.9341C51.5351 43.9821 51.429 44.0075 51.3211 44.0084C51.2549 44.0086 51.189 43.9992 51.1254 43.9805L48.0621 43.1258C48.0007 43.1104 47.9377 43.1023 47.8744 43.1018C47.7576 43.1018 47.6425 43.1305 47.5394 43.1856C47.4363 43.2406 47.3483 43.3202 47.2833 43.4173C46.361 44.7629 45.2891 45.9995 44.0882 47.1037C42.3722 48.664 40.4118 49.9323 38.2851 50.8579C35.7052 51.9671 32.9259 52.5379 30.1177 52.5353C28.3445 52.5378 26.5786 52.3068 24.8657 51.8484C23.7714 51.5569 22.7028 51.1762 21.6706 50.7101C20.6492 50.2382 19.6687 49.6825 18.7391 49.0487C16.8931 47.7936 15.2727 46.2353 13.9464 44.4398C12.5446 42.5826 12.0134 41.644 12.2211 41.644C12.4288 41.644 13.2156 42.4188 14.5336 43.9725C16.5883 46.4278 19.2262 48.3284 22.2058 49.5C23.1862 49.879 24.196 50.1768 25.2252 50.3906C29.3287 51.2421 33.5993 50.6937 37.3546 48.833C39.1826 47.9099 40.8484 46.696 42.287 45.2385C42.9526 44.5501 43.5629 43.8103 44.1122 43.0259C44.1777 42.9322 44.2197 42.8241 44.2345 42.7108C44.2493 42.5974 44.2366 42.4822 44.1974 42.3748C44.1583 42.2674 44.0937 42.171 44.0094 42.0939C43.925 42.0167 43.8232 41.9611 43.7128 41.9316L41.3165 41.2686C41.1951 41.2358 41.0846 41.1713 40.9963 41.0818C40.9079 40.9923 40.8449 40.8809 40.8136 40.7591C40.7824 40.6373 40.7839 40.5094 40.8183 40.3884C40.8526 40.2674 40.9184 40.1577 41.0089 40.0705L48.2738 32.9574C48.3382 32.8926 48.4147 32.8413 48.4991 32.8064C48.5834 32.7714 48.6738 32.7535 48.7651 32.7537L48.785 32.7417ZM48.7651 31.7672C48.543 31.7648 48.3227 31.8067 48.117 31.8904C47.9113 31.974 47.7243 32.0978 47.5669 32.2544L40.3021 39.3635C40.0892 39.572 39.9349 39.8328 39.8547 40.1198C39.7746 40.4067 39.7714 40.7097 39.8455 40.9983C39.9195 41.2869 40.0683 41.5509 40.2767 41.7638C40.4851 41.9767 40.746 42.131 41.0329 42.2112L43.0299 42.7703C42.5675 43.394 42.0659 43.9876 41.5282 44.5476C39.8924 46.2228 37.9364 47.5518 35.7764 48.4555C33.6165 49.3591 31.2968 49.8189 28.9554 49.8075C27.7478 49.8095 26.5432 49.6864 25.3609 49.4401C24.3842 49.236 23.4252 48.9542 22.4933 48.5974C21.5625 48.2299 20.6635 47.7864 19.8055 47.2714C18.068 46.2353 16.519 44.9119 15.2245 43.3574C12.944 40.6735 12.5765 40.6735 12.1532 40.6735C11.9617 40.6722 11.7738 40.7246 11.6106 40.8249C11.4475 40.9252 11.3159 41.0692 11.2306 41.2407C10.959 41.7878 10.9271 42.1752 13.0918 45.0468C14.4903 46.932 16.1986 48.566 18.144 49.8794C19.1189 50.5409 20.1461 51.1219 21.2153 51.6168C22.2955 52.1055 23.4134 52.5062 24.5582 52.8149C26.3549 53.2931 28.2064 53.5347 30.0657 53.5338C33.0082 53.5331 35.9199 52.9353 38.6246 51.7765C40.8527 50.8071 42.9063 49.4781 44.7033 47.8425C45.9066 46.7295 46.9859 45.4896 47.9223 44.1442L50.7939 44.943C50.9431 44.9865 51.0978 45.008 51.2532 45.0069C51.5115 45.005 51.766 44.9447 51.9977 44.8306C52.2294 44.7165 52.4322 44.5515 52.5912 44.3479C52.7502 44.1445 52.86 43.907 52.9119 43.6541C52.9639 43.4012 52.9566 43.1398 52.8907 42.8901L50.3626 33.0452C50.2694 32.6796 50.057 32.3555 49.759 32.124C49.4611 31.8926 49.0944 31.767 48.7171 31.7672H48.7651Z" fill="white"/>
<path d="M27.0104 35.9089C26.9452 35.9093 26.8806 35.8967 26.8203 35.872C26.76 35.8474 26.7052 35.811 26.6589 35.7651L25.281 34.3872C25.1886 34.2944 25.1367 34.1688 25.1367 34.0378C25.1367 33.9068 25.1886 33.7811 25.281 33.6883L32.7416 26.2278C32.8357 26.1361 32.9617 26.0846 33.0931 26.084C33.2233 26.0844 33.3481 26.136 33.4405 26.2278L34.8184 27.6056C34.9108 27.6985 34.9628 27.8241 34.9628 27.9551C34.9628 28.0861 34.9108 28.2118 34.8184 28.3046L27.3579 35.7651C27.2655 35.8569 27.1406 35.9085 27.0104 35.9089ZM26.3274 34.0398L27.0104 34.7187L33.772 27.9571L33.0931 27.2742L26.3274 34.0398Z" fill="white"/>
<path d="M39.2193 23.7716C39.1548 23.7716 39.0909 23.759 39.0313 23.7343C38.9716 23.7096 38.9175 23.6735 38.8718 23.6278L37.494 22.25C37.4015 22.1571 37.3496 22.0315 37.3496 21.9005C37.3496 21.7695 37.4015 21.6438 37.494 21.551L40.0061 19.0389C40.2816 18.8005 40.6402 18.6806 41.0037 18.7053C41.3672 18.73 41.7063 18.8973 41.9471 19.1707C42.2057 19.4241 42.3704 19.7579 42.4144 20.1172C42.4367 20.2978 42.4185 20.4811 42.3612 20.6538C42.3039 20.8265 42.2088 20.9843 42.0829 21.1157L39.5668 23.6278C39.5211 23.6735 39.467 23.7096 39.4073 23.7343C39.3477 23.759 39.2838 23.7716 39.2193 23.7716ZM38.5404 21.8985L39.2193 22.5814L41.384 20.4168C41.4059 20.3905 41.4215 20.3596 41.4298 20.3264C41.4381 20.2932 41.4389 20.2586 41.4319 20.2251C41.4129 20.0891 41.3481 19.9637 41.2482 19.8696C41.0565 19.6739 40.8009 19.638 40.7011 19.7378L38.5404 21.8985Z" fill="white"/>
<path d="M19.3503 43.3333C19.3024 43.3373 19.2543 43.3373 19.2065 43.3333C18.8477 43.2904 18.514 43.1271 18.2599 42.8701C18.0014 42.6166 17.8366 42.2829 17.7926 41.9235C17.7701 41.7429 17.7881 41.5595 17.8455 41.3868C17.9028 41.214 17.998 41.0563 18.1242 40.925L20.6363 38.4129C20.7291 38.3205 20.8548 38.2686 20.9857 38.2686C21.1167 38.2686 21.2424 38.3205 21.3352 38.4129L22.7131 39.7908C22.8056 39.8836 22.8574 40.0092 22.8574 40.1402C22.8574 40.2712 22.8056 40.3969 22.7131 40.4897L20.201 43.0018C19.9723 43.2203 19.6665 43.3395 19.3503 43.3333ZM20.9877 39.4513L18.8231 41.616C18.7272 41.7118 18.7632 41.9674 18.9589 42.1631C19.0516 42.2628 19.1756 42.3276 19.3103 42.3469C19.3439 42.3522 19.3782 42.3507 19.4111 42.3425C19.4441 42.3343 19.475 42.3194 19.502 42.2989L21.6667 40.1342L20.9877 39.4513Z" fill="white"/>
<path d="M30.141 43.6409C29.7437 43.6378 29.3636 43.4785 29.0826 43.1976L17.4645 31.5994C17.3282 31.4691 17.219 31.3133 17.143 31.1408C17.0671 30.9683 17.0259 30.7825 17.0218 30.594C17.0177 30.4056 17.0508 30.2182 17.1192 30.0426C17.1876 29.8669 17.29 29.7065 17.4205 29.5705L18.6187 28.3484C18.7532 28.2161 18.9132 28.1124 19.0889 28.0438C19.2647 27.9751 19.4525 27.9429 19.6411 27.949C20.0217 27.9643 20.3825 28.1226 20.6516 28.3923L32.2578 40.0025C32.5316 40.2661 32.6902 40.6271 32.6991 41.0071C32.7081 41.387 32.5667 41.7552 32.3057 42.0314L31.0836 43.2535C30.83 43.4977 30.493 43.6362 30.141 43.6409ZM19.6252 28.9235C19.5223 28.9239 19.4236 28.9639 19.3496 29.0353L18.1274 30.2534C18.0491 30.3443 18.0098 30.4623 18.018 30.582C18.0263 30.7016 18.0814 30.8132 18.1714 30.8925L29.7816 42.4987C29.8601 42.5884 29.971 42.6434 30.09 42.6517C30.209 42.6599 30.3264 42.6207 30.4166 42.5426L31.6387 41.3444C31.717 41.2536 31.7563 41.1355 31.7481 41.0159C31.7399 40.8962 31.6848 40.7847 31.5948 40.7054L19.9846 29.0992C19.8944 29.0051 19.7714 28.9493 19.6411 28.9435L19.6252 28.9235Z" fill="white"/>
<path d="M40.1106 33.6801C39.9143 33.6795 39.72 33.64 39.539 33.5639C39.3581 33.4878 39.194 33.3766 39.0562 33.2368L27.45 21.6305C27.181 21.3611 27.0228 21.0005 27.0067 20.6201C27.0001 20.4314 27.0322 20.2435 27.1008 20.0676C27.1695 19.8918 27.2734 19.7319 27.4061 19.5976L28.6282 18.3795C28.7642 18.249 28.9246 18.1467 29.1003 18.0783C29.2759 18.0098 29.4633 17.9767 29.6518 17.9808C29.8402 17.9849 30.026 18.0261 30.1985 18.102C30.371 18.178 30.5269 18.2872 30.6571 18.4234L42.2673 30.0297C42.5383 30.2978 42.6968 30.6592 42.7106 31.0401C42.7181 31.2289 42.6866 31.4171 42.6178 31.5931C42.5491 31.769 42.4447 31.9289 42.3112 32.0625L41.0891 33.2807C40.9611 33.4095 40.8085 33.5112 40.6404 33.5798C40.4723 33.6484 40.2921 33.6825 40.1106 33.6801ZM29.5987 18.9666C29.4951 18.9649 29.3948 19.0036 29.3192 19.0745L28.121 20.2966C28.0837 20.3352 28.0546 20.3809 28.0354 20.431C28.0162 20.4811 28.0073 20.5345 28.0092 20.5881C28.015 20.7184 28.0708 20.8414 28.1649 20.9316L39.7711 32.5418C39.8504 32.6318 39.962 32.6869 40.0816 32.6951C40.2013 32.7034 40.3193 32.6641 40.4101 32.5857L41.6083 31.3636C41.6456 31.325 41.6747 31.2793 41.6939 31.2292C41.7131 31.1791 41.722 31.1257 41.7201 31.0721C41.7143 30.9418 41.6585 30.8188 41.5644 30.7286L29.9582 19.1184C29.8622 19.0237 29.7335 18.9694 29.5987 18.9666Z" fill="white"/>
<path d="M26.8823 44.7354C26.485 44.7323 26.1049 44.573 25.8239 44.2921L17.0374 35.5056C16.763 35.2413 16.6043 34.8791 16.596 34.4982C16.5878 34.1173 16.7307 33.7486 16.9934 33.4727L17.8761 32.59C18.0124 32.4598 18.173 32.3577 18.3488 32.2896C18.5245 32.2216 18.712 32.1888 18.9005 32.1933C19.0889 32.1977 19.2746 32.2393 19.447 32.3156C19.6194 32.3919 19.775 32.5014 19.905 32.638L28.6915 41.4245C28.828 41.5545 28.9376 41.7101 29.0139 41.8825C29.0902 42.0548 29.1317 42.2405 29.1362 42.429C29.1406 42.6174 29.1079 42.8049 29.0398 42.9807C28.9717 43.1565 28.8697 43.3171 28.7394 43.4534L27.8568 44.336C27.7287 44.4636 27.5767 44.5646 27.4094 44.6331C27.2422 44.7016 27.063 44.7364 26.8823 44.7354ZM18.8586 33.1851C18.7544 33.1845 18.6541 33.2246 18.579 33.2969L17.7004 34.1796C17.6223 34.2698 17.5831 34.3872 17.5913 34.5062C17.5995 34.6251 17.6545 34.736 17.7443 34.8146L26.5308 43.6011C26.6094 43.6909 26.7203 43.7459 26.8393 43.7541C26.9583 43.7624 27.0757 43.7232 27.1659 43.6451L28.0485 42.7664C28.1268 42.6756 28.1661 42.5575 28.1579 42.4379C28.1497 42.3182 28.0946 42.2067 28.0046 42.1274L19.218 33.3409C19.1224 33.245 18.9939 33.1893 18.8586 33.1851Z" fill="white"/>
<path d="M41.5314 30.0816H41.4835C41.1035 30.0688 40.743 29.9101 40.477 29.6383L31.6905 20.8518C31.4187 20.5858 31.26 20.2253 31.2472 19.8453C31.2397 19.6566 31.2713 19.4683 31.34 19.2923C31.4087 19.1164 31.5131 18.9566 31.6466 18.8229L32.5292 17.9402C32.8051 17.6775 33.1738 17.5346 33.5547 17.5428C33.9356 17.551 34.2978 17.7097 34.5621 17.9842L43.3486 26.7707C43.619 27.0393 43.7774 27.4004 43.792 27.7811C43.7985 27.9698 43.7664 28.1578 43.6978 28.3336C43.6291 28.5094 43.5253 28.6693 43.3926 28.8036L42.5099 29.6862C42.3809 29.8134 42.2281 29.9138 42.0601 29.9816C41.8922 30.0495 41.7125 30.0835 41.5314 30.0816ZM33.5077 18.5353C33.4566 18.5342 33.4058 18.5436 33.3584 18.5628C33.311 18.582 33.268 18.6107 33.2321 18.6472L32.3495 19.5258C32.3124 19.5652 32.2838 19.6117 32.2652 19.6625C32.2467 19.7133 32.2387 19.7673 32.2417 19.8213C32.2468 19.9509 32.3011 20.0737 32.3934 20.1648L41.1799 28.9514C41.271 29.0437 41.3938 29.0979 41.5234 29.1031C41.5774 29.1061 41.6315 29.0981 41.6823 29.0795C41.7331 29.061 41.7796 29.0323 41.819 28.9953L42.6976 28.1126C42.7349 28.074 42.764 28.0283 42.7832 27.9782C42.8024 27.9282 42.8113 27.8747 42.8094 27.8211C42.8036 27.6908 42.7478 27.5678 42.6537 27.4776L33.8671 18.6911C33.7725 18.5939 33.6434 18.5379 33.5077 18.5353Z" fill="white"/>
</g>
<defs>
<clipPath id="clip0_1490:225">
<rect width="60" height="60" fill="white"/>
</clipPath>
</defs>
</svg>
