<svg width="55" height="55" viewBox="0 0 55 55" fill="none" xmlns="http://www.w3.org/2000/svg">
<g clip-path="url(#clip0_1545:334)">
<path d="M30.1008 39.1539C29.9372 39.1542 29.7782 39.0994 29.6495 38.9985L20.6588 31.8984H17.2418C17.0487 31.8984 16.8635 31.8217 16.7269 31.6851C16.5904 31.5486 16.5137 31.3634 16.5137 31.1703V22.7651C16.5137 22.5731 16.5895 22.3888 16.7247 22.2525C16.8598 22.1161 17.0434 22.0386 17.2354 22.037L20.597 22.0157L22.7516 20.1613C22.8981 20.0354 23.0886 19.9729 23.2813 19.9874C23.4739 20.002 23.6529 20.0925 23.7788 20.239C23.9047 20.3856 23.9673 20.5761 23.9527 20.7687C23.9381 20.9614 23.8476 21.1403 23.7011 21.2663L21.3443 23.293C21.2132 23.4056 21.0466 23.4682 20.8738 23.4698L17.9699 23.4889V30.4422H20.9121C21.076 30.4424 21.2351 30.4979 21.3635 30.5997L29.3727 36.9249V29.6459C29.3727 29.4528 29.4494 29.2676 29.5859 29.1311C29.7225 28.9945 29.9077 28.9178 30.1008 28.9178C30.2939 28.9178 30.4791 28.9945 30.6157 29.1311C30.7522 29.2676 30.8289 29.4528 30.8289 29.6459V38.4258C30.8289 38.6189 30.7522 38.8041 30.6157 38.9407C30.4791 39.0772 30.2939 39.1539 30.1008 39.1539V39.1539Z" fill="#80C5EF"/>
<path d="M30.1017 26.7993C30.0061 26.7993 29.9114 26.7805 29.8231 26.7439C29.7348 26.7073 29.6545 26.6536 29.5869 26.586C29.5193 26.5184 29.4656 26.4382 29.4291 26.3498C29.3925 26.2615 29.3736 26.1668 29.3736 26.0712V16.3843L25.3733 19.8269C25.3015 19.8934 25.2171 19.9447 25.125 19.9778C25.0329 20.011 24.9351 20.0252 24.8375 20.0197C24.7398 20.0142 24.6442 19.989 24.5564 19.9457C24.4687 19.9025 24.3906 19.8419 24.3267 19.7678C24.2629 19.6937 24.2147 19.6074 24.1849 19.5142C24.1551 19.421 24.1445 19.3227 24.1535 19.2253C24.1626 19.1279 24.1912 19.0333 24.2376 18.9472C24.284 18.8611 24.3473 18.7852 24.4238 18.7241L29.627 14.2532C29.7326 14.1624 29.862 14.1038 30 14.0843C30.1379 14.0648 30.2785 14.0853 30.4051 14.1434C30.5318 14.2014 30.6391 14.2946 30.7144 14.4118C30.7896 14.529 30.8297 14.6653 30.8298 14.8046V26.0712C30.8298 26.2643 30.7531 26.4495 30.6166 26.586C30.48 26.7226 30.2948 26.7993 30.1017 26.7993Z" fill="#80C5EF"/>
<path d="M30.1012 26.8421C30.0055 26.8421 29.9109 26.8232 29.8225 26.7866C29.7342 26.75 29.6539 26.6964 29.5863 26.6288C29.5187 26.5612 29.4651 26.4809 29.4285 26.3926C29.3919 26.3042 29.373 26.2096 29.373 26.114V26.0714C29.373 25.8783 29.4498 25.6931 29.5863 25.5565C29.7229 25.42 29.9081 25.3433 30.1012 25.3433C30.2943 25.3433 30.4795 25.42 30.616 25.5565C30.7526 25.6931 30.8293 25.8783 30.8293 26.0714V26.114C30.8293 26.3071 30.7526 26.4923 30.616 26.6288C30.4795 26.7654 30.2943 26.8421 30.1012 26.8421Z" fill="#80C5EF"/>
<path d="M36.4509 38.7242C36.3386 38.7246 36.2279 38.6988 36.1273 38.6489C36.0268 38.599 35.9393 38.5264 35.8718 38.4368L29.5232 30.0954C29.4614 30.0197 29.4156 29.9324 29.3883 29.8386C29.3611 29.7448 29.3529 29.6465 29.3645 29.5495C29.376 29.4525 29.4069 29.3589 29.4553 29.2741C29.5038 29.1893 29.5688 29.1151 29.6465 29.0559C29.7243 28.9968 29.8131 28.9539 29.9077 28.9298C30.0024 28.9057 30.1009 28.9008 30.1975 28.9156C30.294 28.9303 30.3866 28.9644 30.4697 29.0156C30.5528 29.0669 30.6248 29.1344 30.6813 29.214L37.0299 37.5469C37.112 37.6548 37.1623 37.7835 37.1752 37.9184C37.188 38.0534 37.163 38.1893 37.1028 38.3108C37.0426 38.4323 36.9497 38.5346 36.8345 38.6061C36.7193 38.6776 36.5864 38.7156 36.4509 38.7157V38.7242Z" fill="#80C5EF"/>
<path d="M30.1023 30.3868C29.9901 30.3873 29.8793 30.3615 29.7788 30.3116C29.6782 30.2617 29.5907 30.1891 29.5232 30.0994L18.9294 16.1887C18.8677 16.113 18.8218 16.0256 18.7946 15.9319C18.7673 15.8381 18.7592 15.7398 18.7707 15.6428C18.7822 15.5458 18.8131 15.4521 18.8616 15.3673C18.91 15.2825 18.9751 15.2083 19.0528 15.1492C19.1305 15.09 19.2193 15.0471 19.314 15.023C19.4086 14.9989 19.5072 14.9941 19.6037 15.0088C19.7002 15.0236 19.7928 15.0576 19.876 15.1089C19.9591 15.1602 20.0311 15.2276 20.0876 15.3073L30.6856 29.218C30.7677 29.326 30.818 29.4547 30.8309 29.5896C30.8437 29.7246 30.8186 29.8605 30.7585 29.982C30.6983 30.1035 30.6053 30.2057 30.4902 30.2773C30.375 30.3488 30.2421 30.3867 30.1065 30.3868H30.1023Z" fill="#80C5EF"/>
<path d="M36.4654 35.2047C36.3197 35.2049 36.1773 35.1614 36.0566 35.0798C35.9358 34.9982 35.8424 34.8822 35.7883 34.747C35.7342 34.6117 35.7219 34.4633 35.753 34.3209C35.7842 34.1786 35.8573 34.0489 35.9629 33.9486C37.2786 32.6996 38.2345 31.1201 38.7306 29.3752C39.2267 27.6303 39.2449 25.7841 38.7831 24.0298C38.3214 22.2755 37.3967 20.6775 36.1058 19.4029C34.8149 18.1284 33.2053 17.2241 31.4453 16.7847C31.2578 16.7382 31.0965 16.619 30.9969 16.4535C30.8973 16.288 30.8675 16.0897 30.9141 15.9023C30.9607 15.7148 31.0798 15.5536 31.2453 15.4539C31.4108 15.3543 31.6091 15.3245 31.7965 15.3711C33.8074 15.8748 35.6462 16.9091 37.121 18.366C38.5957 19.8229 39.6523 21.649 40.1804 23.6536C40.7085 25.6582 40.6888 27.7678 40.1234 29.7622C39.5579 31.7566 38.4674 33.5627 36.9657 34.9918C36.8324 35.1243 36.6533 35.2005 36.4654 35.2047V35.2047Z" fill="#80C5EF"/>
<path d="M35.2508 33.7144C35.1056 33.7146 34.9637 33.6713 34.8433 33.5903C34.7229 33.5092 34.6294 33.394 34.575 33.2595C34.5205 33.1249 34.5075 32.9771 34.5376 32.8351C34.5678 32.6931 34.6397 32.5634 34.7441 32.4625C35.5101 31.7267 36.1189 30.8433 36.5339 29.8655C36.9488 28.8878 37.1613 27.8361 37.1583 26.7739C37.1532 25.0551 36.5916 23.3842 35.5578 22.0111C34.5239 20.638 33.0733 19.6365 31.4229 19.1564C31.3309 19.1302 31.245 19.086 31.1701 19.0265C31.0951 18.9671 31.0327 18.8934 30.9862 18.8098C30.9397 18.7261 30.9102 18.6342 30.8993 18.5392C30.8884 18.4441 30.8963 18.3479 30.9226 18.2559C30.9488 18.1639 30.993 18.078 31.0525 18.0031C31.1119 17.9281 31.1856 17.8657 31.2692 17.8192C31.3529 17.7728 31.4448 17.7432 31.5398 17.7323C31.6349 17.7214 31.7311 17.7293 31.8231 17.7556C33.7773 18.3235 35.4951 19.5091 36.7194 21.1348C37.9436 22.7604 38.6085 24.7388 38.6146 26.7739C38.6188 28.0325 38.3678 29.279 37.8768 30.4379C37.3857 31.5967 36.6647 32.644 35.7575 33.5164C35.6203 33.645 35.4388 33.7159 35.2508 33.7144V33.7144Z" fill="#80C5EF"/>
<path d="M34.0268 31.811C33.8541 31.811 33.6872 31.749 33.5563 31.6364C33.4092 31.5113 33.3178 31.333 33.3023 31.1405C33.2867 30.9481 33.3482 30.7574 33.4732 30.6103C34.0435 29.9404 34.4469 29.145 34.6503 28.2892C34.8538 27.4334 34.8516 26.5415 34.6439 25.6867C34.4362 24.8319 34.0288 24.0385 33.4553 23.3715C32.8817 22.7045 32.1583 22.183 31.3443 21.8495C31.1656 21.7761 31.0233 21.6347 30.9489 21.4565C30.8744 21.2782 30.8738 21.0777 30.9472 20.8989C31.0206 20.7202 31.162 20.578 31.3403 20.5035C31.5185 20.4291 31.7191 20.4285 31.8978 20.5019C32.9246 20.923 33.837 21.5813 34.5603 22.4229C35.2837 23.2646 35.7973 24.2656 36.0592 25.344C36.3212 26.4224 36.3239 27.5476 36.0672 28.6272C35.8105 29.7069 35.3017 30.7104 34.5824 31.5555C34.5137 31.6356 34.4285 31.7 34.3325 31.7441C34.2366 31.7881 34.1323 31.811 34.0268 31.811V31.811Z" fill="#80C5EF"/>
<path d="M32.3734 29.9526C32.2421 29.9524 32.1133 29.9166 32.0007 29.8491C31.8881 29.7817 31.7958 29.685 31.7336 29.5694C31.6714 29.4537 31.6417 29.3234 31.6475 29.1923C31.6533 29.0611 31.6945 28.9339 31.7667 28.8243C32.2199 28.1348 32.3997 27.3011 32.271 26.4861C32.1422 25.6711 31.7142 24.9334 31.0705 24.4173C30.996 24.3573 30.934 24.2833 30.8881 24.1993C30.8422 24.1154 30.8133 24.0233 30.803 23.9282C30.7928 23.8331 30.8013 23.7369 30.8282 23.6451C30.8551 23.5533 30.8998 23.4678 30.9598 23.3932C31.0198 23.3187 31.0938 23.2568 31.1777 23.2109C31.2616 23.165 31.3538 23.1361 31.4489 23.1258C31.544 23.1155 31.6401 23.1241 31.7319 23.151C31.8237 23.1779 31.9093 23.2226 31.9838 23.2825C32.9099 24.0256 33.5255 25.0875 33.7102 26.2605C33.8949 27.4334 33.6353 28.633 32.9823 29.6248C32.9164 29.726 32.8261 29.8091 32.7197 29.8664C32.6133 29.9237 32.4942 29.9533 32.3734 29.9526V29.9526Z" fill="#80C5EF"/>
<path d="M27.4902 55.0044C20.1968 55.0044 13.202 52.1071 8.0448 46.9498C2.88755 41.7926 -0.00976562 34.7978 -0.00976562 27.5044C-0.00976562 20.2109 2.88755 13.2162 8.0448 8.05896C13.202 2.90171 20.1968 0.00439453 27.4902 0.00439453C42.6528 0.00439453 54.9902 12.3525 54.9902 27.5044C54.9902 42.6563 42.6613 55.0044 27.4902 55.0044ZM27.4902 1.46061C22.3394 1.4623 17.3048 2.99128 13.023 5.85422C8.74112 8.71716 5.40434 12.7855 3.43458 17.5448C1.46482 22.304 0.950533 27.5405 1.95674 32.5921C2.96296 37.6436 5.44448 42.2834 9.08753 45.9246C12.7306 49.5659 17.3716 52.0452 22.4236 53.0489C27.4756 54.0526 32.7119 53.5358 37.4702 51.5637C42.2285 49.5916 46.2952 46.2528 49.156 41.9696C52.0169 37.6863 53.5434 32.6509 53.5425 27.5001C53.5346 20.5938 50.787 13.9728 45.9028 9.09011C41.0185 4.20742 34.3965 1.46199 27.4902 1.45636V1.46061Z" fill="#80C5EF"/>
</g>
<defs>
<clipPath id="clip0_1545:334">
<rect width="55" height="55" fill="white"/>
</clipPath>
</defs>
</svg>
