<svg width="57" height="57" viewBox="0 0 57 57" fill="none" xmlns="http://www.w3.org/2000/svg">
<path d="M28.5 56.1493H28.5002C35.8306 56.1405 42.8581 53.2247 48.0415 48.0413C53.2249 42.8579 56.1409 35.8303 56.1496 28.4998V28.4997C56.1496 23.0311 54.528 17.6853 51.4898 13.1383C48.4516 8.59138 44.1332 5.04745 39.0809 2.95472C34.0286 0.861983 28.4693 0.314424 23.1058 1.38129C17.7423 2.44816 12.8154 5.08153 8.94851 8.9484C5.08164 12.8153 2.44815 17.742 1.38128 23.1055C0.314411 28.469 0.86202 34.0284 2.95476 39.0807C5.04749 44.133 8.59157 48.4513 13.1385 51.4895C17.6855 54.5277 23.0315 56.1493 28.5 56.1493ZM13.5338 6.10136C17.9638 3.14137 23.1721 1.56146 28.4999 1.56144C35.6431 1.56578 42.4923 4.4053 47.5433 9.45627C52.5943 14.5072 55.4339 21.3566 55.4382 28.4998C55.4382 33.8276 53.858 39.0358 50.898 43.4657C47.938 47.8957 43.7309 51.3484 38.8086 53.3873C33.8863 55.4262 28.4698 55.9597 23.2443 54.9203C18.0188 53.8809 13.2189 51.3152 9.45154 47.5479C5.68416 43.7805 3.11872 38.9806 2.07931 33.755C1.03989 28.5295 1.57312 23.1132 3.61201 18.1909C5.6509 13.2686 9.10384 9.06137 13.5338 6.10136Z" fill="white" stroke="white" stroke-width="0.3"/>
<path d="M28.5001 40.9925H28.5003C31.8296 40.9881 35.0212 39.6636 37.3754 37.3094C39.7296 34.9552 41.0539 31.7635 41.0583 28.4342V28.434C41.0583 25.9501 40.3217 23.522 38.9418 21.4568C37.5618 19.3916 35.6005 17.7819 33.3057 16.8314C31.011 15.8808 28.4858 15.6321 26.0497 16.1167C23.6135 16.6013 21.3758 17.7974 19.6195 19.5537C17.8631 21.3101 16.6671 23.5478 16.1826 25.9839C15.698 28.42 15.9469 30.9452 16.8974 33.2399C17.848 35.5347 19.4573 37.4961 21.5226 38.876C23.5878 40.256 26.0162 40.9925 28.5001 40.9925ZM21.9178 18.5834C23.8661 17.2817 26.1568 16.5868 28.5 16.5868C31.6407 16.5911 34.6516 17.8407 36.8724 20.0616C39.0933 22.2824 40.3426 25.2934 40.3469 28.4342C40.3468 30.7772 39.6521 33.0677 38.3504 35.0159C37.0486 36.9641 35.1982 38.4826 33.0334 39.3793C30.8686 40.276 28.4867 40.5106 26.1886 40.0535C23.8904 39.5964 21.7794 38.468 20.1225 36.8112C18.4657 35.1543 17.3373 33.0433 16.8802 30.7452C16.4231 28.4471 16.658 26.065 17.5547 23.9002C18.4514 21.7355 19.9696 19.8852 21.9178 18.5834Z" fill="white" stroke="white" stroke-width="0.3"/>
<path d="M22.9311 36.8345C24.5795 37.936 26.5177 38.5239 28.5003 38.5239C31.1589 38.5239 33.7083 37.4678 35.5882 35.5879C37.4681 33.708 38.5245 31.1583 38.5245 28.4997C38.5245 26.5171 37.9365 24.579 36.8351 22.9306C35.7336 21.2821 34.1678 19.9973 32.3361 19.2386C30.5044 18.4798 28.489 18.2813 26.5445 18.6681C24.6 19.0549 22.814 20.0096 21.4121 21.4115C20.0102 22.8134 19.0554 24.5996 18.6686 26.5441C18.2819 28.4886 18.4802 30.5041 19.2389 32.3358C19.9976 34.1675 21.2826 35.733 22.9311 36.8345ZM23.2759 20.6143C24.8231 19.5839 26.6412 19.0356 28.5001 19.0388C30.989 19.0431 33.3744 20.0348 35.1329 21.7963C36.8913 23.5577 37.8786 25.9449 37.8786 28.4339C37.8786 30.2927 37.3274 32.1098 36.2943 33.6551C35.2613 35.2005 33.7928 36.4047 32.0751 37.1153C30.3574 37.8259 28.4678 38.011 26.6449 37.6472C24.822 37.2834 23.1477 36.387 21.8344 35.0714C20.5212 33.7559 19.6277 32.0803 19.2671 30.2568C18.9064 28.4333 19.0949 26.5437 19.8085 24.8273C20.522 23.1109 21.7288 21.6447 23.2759 20.6143Z" fill="white" stroke="white" stroke-width="0.3"/>
<path d="M34.4501 18.2161L34.4399 18.0772L33.683 7.8091C33.683 7.8089 33.683 7.80871 33.683 7.80851C33.6405 7.28737 33.404 6.80106 33.0203 6.44577C32.6365 6.09044 32.1334 5.89205 31.6104 5.88984H25.3899H25.3895C24.8656 5.8884 24.3607 6.08548 23.9763 6.44141C23.5919 6.79732 23.3564 7.28561 23.3176 7.80796C23.3176 7.808 23.3176 7.80804 23.3176 7.80808L22.5771 18.0605L22.5671 18.1997H22.4275H22.0161H21.8549L21.8665 18.0388L22.607 7.8031C22.607 7.80302 22.607 7.80293 22.607 7.80285C22.6556 7.09845 22.9702 6.4389 23.4869 5.95772C24.0036 5.47652 24.684 5.20971 25.3901 5.21134M34.4501 18.2161L25.3899 5.36134M34.4501 18.2161H34.5895H35.0009H35.1624L35.1505 18.0551L34.3935 7.78594L34.3935 7.78572C34.3408 7.08435 34.0244 6.42896 33.5081 5.95135C32.9918 5.47379 32.3137 5.20941 31.6105 5.21134M34.4501 18.2161L31.6107 5.36134M25.3901 5.21134C25.3901 5.21134 25.3902 5.21134 25.3902 5.21134L25.3899 5.36134M25.3901 5.21134H25.3899V5.36134M25.3901 5.21134H31.6105M25.3899 5.36134H31.6107M31.6105 5.21134C31.6104 5.21134 31.6103 5.21134 31.6102 5.21134L31.6107 5.36134M31.6105 5.21134H31.6107V5.36134M22.0161 18.0497L22.027 17.8997H22.0161V18.0497ZM22.0161 18.0497L22.1657 18.0605L22.1665 18.0497H22.0161Z" fill="white" stroke="white" stroke-width="0.3"/>
<path d="M31.6271 51.8211L31.6285 51.8211C32.3318 51.8147 33.0074 51.5453 33.5221 51.066C34.0368 50.5867 34.3535 49.9321 34.4099 49.231L34.41 49.2298L35.1505 38.9936L35.1621 38.8328H35.0009H34.5895H34.4499L34.4399 38.9719L33.6995 49.207C33.6995 49.2072 33.6994 49.2074 33.6994 49.2076C33.6572 49.7304 33.4211 50.2187 33.0375 50.5767C32.654 50.9346 32.1507 51.1364 31.6263 51.1426L25.3906 51.1426C25.3905 51.1426 25.3904 51.1426 25.3904 51.1426C24.8692 51.1401 24.3682 50.9413 23.9871 50.5858L23.8848 50.6955L23.9871 50.5858C23.606 50.2303 23.3727 49.7442 23.3341 49.2244C23.3341 49.2244 23.3341 49.2244 23.3341 49.2244L22.5771 38.9553L22.5669 38.8163H22.4275H22.0161H21.8546L21.8665 38.9774L22.6234 49.2293C22.6234 49.2295 22.6234 49.2296 22.6235 49.2297C22.6719 49.9311 22.984 50.5881 23.497 51.0688C24.01 51.5496 24.6862 51.8184 25.3893 51.8211H25.3899L31.6271 51.8211Z" fill="white" stroke="white" stroke-width="0.3"/>
<path d="M22.9186 32.0081C23.2539 32.3434 23.7081 32.5324 24.1822 32.534L24.1882 32.384C24.4151 32.4022 24.6432 32.3731 24.8584 32.2986C25.0735 32.2241 25.2711 32.1058 25.4381 31.9511C25.6052 31.7965 25.7382 31.6088 25.8291 31.4001C25.9199 31.1913 25.9664 30.966 25.9657 30.7383H26.1157V30.7381V26.3937C26.1157 25.8999 25.9194 25.4264 25.5703 25.0774C25.2212 24.7283 24.7478 24.5321 24.2541 24.5321C23.7604 24.5321 23.2869 24.7283 22.9378 25.0774C22.5888 25.4264 22.3925 25.8999 22.3925 26.3937V30.7383C22.3925 31.2146 22.5818 31.6713 22.9186 32.0081ZM23.375 25.5146C23.5907 25.2989 23.8832 25.1777 24.1882 25.1777C24.4932 25.1777 24.7857 25.2989 25.0014 25.5146C25.2171 25.7303 25.3383 26.0228 25.3383 26.3278V30.6725C25.3383 30.9775 25.2171 31.27 25.0014 31.4857C24.7857 31.7014 24.4932 31.8226 24.1882 31.8226C23.8832 31.8226 23.5907 31.7014 23.375 31.4857C23.1593 31.27 23.038 30.9775 23.038 30.6725V26.3278C23.038 26.0228 23.1593 25.7303 23.375 25.5146Z" fill="white" stroke="white" stroke-width="0.3"/>
<path d="M22.6906 31.1024C22.0529 31.1023 21.4414 30.849 20.9905 30.3981C20.5396 29.9472 20.286 29.3356 20.286 28.6978V28.237C20.286 27.5993 20.5396 26.9876 20.9905 26.5367C21.4415 26.0858 22.0531 25.8324 22.6908 25.8324C22.7832 25.8324 22.8713 25.8691 22.9363 25.9342C23.0015 25.9993 23.0381 26.0877 23.0381 26.1799V30.7331C23.041 30.7788 23.0348 30.8246 23.0199 30.8679L22.8781 30.8191L23.0199 30.8679C23.0045 30.9126 22.9801 30.9546 22.9469 30.9906C22.9142 31.0261 22.8744 31.0543 22.8303 31.0735C22.7862 31.0927 22.7386 31.1025 22.6906 31.1024ZM22.6906 31.1024C22.6905 31.1024 22.6904 31.1024 22.6903 31.1024L22.6908 30.9524V31.1024C22.6907 31.1024 22.6907 31.1024 22.6906 31.1024ZM21.4154 27.1189C21.6564 26.849 21.9759 26.6636 22.3267 26.5871V30.3642C21.9759 30.2877 21.6564 30.1023 21.4154 29.8324C21.1365 29.5201 20.982 29.1163 20.981 28.6977V28.2536C20.982 27.835 21.1365 27.4312 21.4154 27.1189Z" fill="white" stroke="white" stroke-width="0.3"/>
<path d="M20.9651 27.6276H20.9646C20.9646 27.7242 20.9262 27.8167 20.858 27.8849C20.7899 27.9531 20.6975 27.9915 20.6009 27.9915H20.5888L20.5769 27.9896C20.5066 27.9782 20.4346 27.9823 20.366 28.0015C20.2973 28.0207 20.2336 28.0545 20.1794 28.1006C20.1253 28.1467 20.082 28.204 20.052 28.2689C20.022 28.3338 20.0064 28.4042 20.0064 28.4751C20.0064 28.5461 20.022 28.6164 20.052 28.6814C20.082 28.7463 20.1254 28.8036 20.1794 28.8496C20.2336 28.8958 20.2973 28.9296 20.366 28.9488C20.4346 28.968 20.5066 28.972 20.5769 28.9606L20.5888 28.9587H20.6009C20.6975 28.9587 20.7899 28.9972 20.858 29.0653C20.9262 29.1336 20.9646 29.2261 20.9646 29.3227H20.8146L20.9646 29.3222C20.9648 29.3704 20.9549 29.4181 20.9357 29.4622C20.9165 29.5061 20.8885 29.5458 20.8529 29.5787C20.8173 29.6115 20.7753 29.6364 20.73 29.652M20.9651 27.6276L20.73 29.652M20.9651 27.6276L20.9642 27.6161C20.9571 27.5243 20.9154 27.4388 20.8481 27.3766C20.7833 27.3169 20.6993 27.2825 20.611 27.2802C20.4444 27.2605 20.2755 27.2758 20.1151 27.3252C19.952 27.3755 19.8015 27.4599 19.6736 27.5728C19.5457 27.6856 19.4428 27.8244 19.3725 27.9801C19.3023 28.1357 19.266 28.3045 19.266 28.4751C19.266 28.6458 19.3023 28.8145 19.3725 28.9701C19.4428 29.1258 19.5457 29.2647 19.6736 29.3775C19.8015 29.4904 19.952 29.5748 20.1151 29.625C20.2738 29.6739 20.4408 29.6894 20.6057 29.6706M20.9651 27.6276L20.6057 29.6706M20.73 29.652C20.69 29.6657 20.648 29.6721 20.6057 29.6706M20.73 29.652L20.6057 29.6706" fill="white" stroke="white" stroke-width="0.3"/>
<path d="M25.5729 29.5301L25.4714 29.6401C25.4041 29.5779 25.3624 29.4924 25.3553 29.4006L25.3544 29.3891H25.3549V27.612V27.6117L25.5729 29.5301ZM25.5729 29.5301L25.4714 29.6401C25.5387 29.7021 25.6268 29.7368 25.7188 29.7366M25.5729 29.5301L31.1823 29.7366M31.5462 27.6119C31.5463 27.5653 31.5374 27.5175 31.5177 27.4722L31.5177 27.4722C31.498 27.4272 31.4691 27.3877 31.4345 27.3557C31.3994 27.3233 31.358 27.2982 31.312 27.2824L31.2632 27.4243L31.312 27.2824C31.2687 27.2676 31.2227 27.2614 31.1771 27.2643H25.724L31.5462 27.6123C31.5462 27.6122 31.5462 27.6121 31.5462 27.6119ZM31.5462 27.6119V29.3891V29.4007L31.5458 29.4006C31.5387 29.4917 31.4979 29.5774 31.4301 29.6401C31.3626 29.7023 31.274 29.7368 31.1823 29.7366M31.5462 27.6119L31.1823 29.7366M31.1823 29.7366C31.1822 29.7366 31.1821 29.7366 31.182 29.7366L31.1825 29.5866V29.7366H31.1823ZM31.1823 29.7366H25.7188M25.7188 29.7366C25.7189 29.7366 25.719 29.7366 25.7191 29.7366L25.7186 29.5866V29.7366H25.7188ZM30.8348 27.9757V29.0252H26.0663V27.9757H30.8348Z" fill="white" stroke="white" stroke-width="0.3"/>
<path d="M31.4596 32.0081C31.7949 32.3434 32.2491 32.5324 32.7232 32.534L32.7292 32.384C32.9561 32.4022 33.1847 32.3731 33.3998 32.2986C33.6149 32.2241 33.8121 32.1058 33.9791 31.9511C34.1462 31.7965 34.2793 31.6088 34.3701 31.4001C34.4609 31.1913 34.5074 30.966 34.5067 30.7383H34.6567V30.7381V26.3937C34.6567 25.8999 34.4604 25.4264 34.1113 25.0774C33.7622 24.7283 33.2888 24.5321 32.7951 24.5321C32.3014 24.5321 31.828 24.7283 31.4789 25.0774C31.1298 25.4264 30.9335 25.8999 30.9335 26.3937V30.7383C30.9335 31.2146 31.1228 31.6713 31.4596 32.0081ZM31.916 25.5146C32.1317 25.2989 32.4242 25.1777 32.7292 25.1777C33.0342 25.1777 33.3267 25.2989 33.5424 25.5146C33.7581 25.7303 33.8794 26.0228 33.8794 26.3278V30.6725C33.8794 30.9775 33.7581 31.27 33.5424 31.4857C33.3267 31.7014 33.0342 31.8226 32.7292 31.8226C32.4242 31.8226 32.1317 31.7014 31.916 31.4857C31.7003 31.27 31.579 30.9775 31.579 30.6725V26.3278C31.579 26.0228 31.7003 25.7303 31.916 25.5146Z" fill="white" stroke="white" stroke-width="0.3"/>
<path d="M34.309 31.1352L34.31 31.1352C34.9461 31.1306 35.5547 30.8759 36.0045 30.4261C36.4542 29.9764 36.7092 29.3677 36.7138 28.7316H36.7138V28.7306V28.2698H36.7138L36.7138 28.2687C36.7092 27.6326 36.4542 27.0239 36.0045 26.5742C35.5547 26.1244 34.9461 25.8697 34.31 25.8651L34.31 25.8651H34.309C34.2123 25.8651 34.1199 25.9036 34.0518 25.9717C33.9836 26.04 33.9452 26.1325 33.9452 26.2291V30.7712C33.9452 30.8677 33.9836 30.9603 34.0518 31.0286C34.12 31.0967 34.2123 31.1352 34.309 31.1352ZM34.6566 30.3819V26.6184C35.0017 26.6907 35.3171 26.8692 35.5573 27.131C35.8351 27.4339 35.9933 27.8275 36.0023 28.2385V28.7303C36.001 29.147 35.8461 29.5485 35.5672 29.858C35.326 30.1258 35.0066 30.3085 34.6566 30.3819Z" fill="white" stroke="white" stroke-width="0.3"/>
<path d="M36.1422 29.5962C36.2103 29.6643 36.3026 29.7028 36.3993 29.7028M36.1422 29.5962L36.3993 29.7028M36.1422 29.5962C36.0739 29.5279 36.0355 29.4354 36.0355 29.3388H36.1855L36.0355 29.3394C36.0354 29.2911 36.0453 29.2434 36.0645 29.1993M36.1422 29.5962L36.0645 29.1993M36.3993 29.7028C36.7184 29.7028 37.0246 29.576 37.2503 29.3504C37.4759 29.1247 37.6028 28.8187 37.6028 28.4995C37.6028 28.1804 37.4759 27.8743 37.2503 27.6487C37.0246 27.423 36.7184 27.2963 36.3993 27.2963C36.3026 27.2963 36.2103 27.3347 36.1422 27.4029C36.0739 27.4711 36.0355 27.5637 36.0355 27.6602H36.1855L36.0355 27.6597C36.0354 27.708 36.0453 27.7557 36.0645 27.7997C36.0837 27.8436 36.1117 27.8834 36.1473 27.9162C36.1829 27.9491 36.2249 27.974 36.2702 27.9895C36.3132 28.0043 36.3586 28.0106 36.4043 28.0077C36.533 28.009 36.6562 28.0607 36.7472 28.1518C36.8395 28.244 36.8913 28.3691 36.8913 28.4995C36.8913 28.6299 36.8395 28.7551 36.7472 28.8473C36.6562 28.9383 36.533 28.99 36.4043 28.9913C36.3587 28.9885 36.3133 28.9947 36.2702 29.0095L36.3189 29.1514M36.3993 29.7028L36.3189 29.1514M36.3189 29.1514L36.2702 29.0095C36.2249 29.0251 36.1829 29.05 36.1473 29.0828C36.1117 29.1157 36.0837 29.1554 36.0645 29.1993M36.3189 29.1514L36.0645 29.1993" fill="white" stroke="white" stroke-width="0.3"/>
</svg>
