<svg width="11" height="15" viewBox="0 0 11 15" fill="none" xmlns="http://www.w3.org/2000/svg">
<path d="M5.5 0.625C3.42262 0.625 1.75 2.29762 1.75 4.375V6.07544C0.974087 6.95638 0.5 8.10891 0.5 9.375C0.5 12.1363 2.73875 14.375 5.5 14.375C8.26125 14.375 10.5 12.1363 10.5 9.375C10.5 8.10891 10.0259 6.95638 9.25 6.07544V4.375C9.25 2.29762 7.57738 0.625 5.5 0.625ZM5.5 1.875C6.92262 1.875 8 2.95238 8 4.375V5.05005C7.26382 4.62343 6.41202 4.375 5.5 4.375C4.58798 4.375 3.73618 4.62343 3 5.05005V4.375C3 2.95238 4.07738 1.875 5.5 1.875ZM5.52563 7.50122C6.2013 7.51465 6.75 8.07078 6.75 8.75C6.75 9.20938 6.49625 9.60794 6.125 9.82544V11.25C6.125 11.595 5.845 11.875 5.5 11.875C5.155 11.875 4.875 11.595 4.875 11.25V9.82544C4.42125 9.55982 4.14281 9.02316 4.28906 8.43628C4.40094 7.98815 4.77713 7.62555 5.229 7.5293C5.32947 7.50781 5.42911 7.4993 5.52563 7.50122Z" fill="black"/>
</svg>
