<svg width="150" height="20" viewBox="0 0 150 20" fill="none" xmlns="http://www.w3.org/2000/svg">
<path d="M7.6698 0.272339H0V7.62642H2.82371V2.87934H7.4027C9.46324 2.87934 10.8369 4.2023 10.8369 6.22565C10.8369 8.24899 9.46324 9.57195 7.4027 9.57195H4.08293H0V19.6498H2.82371V12.179H7.70796C11.2567 12.179 13.737 9.72759 13.737 6.22565C13.737 2.7237 11.2567 0.272339 7.6698 0.272339Z" fill="black"/>
<path d="M25.299 12.5292H22.4753V19.6498H25.299V12.5292Z" fill="black"/>
<path d="M38.4253 0.272339H35.6016V6.77039H38.4253V0.272339Z" fill="black"/>
<path d="M35.6017 8.36572H38.4254V19.6498H35.6017V10.9727H25.299H22.4753V0.272339H25.299V8.36572H35.6017Z" fill="black"/>
<path d="M56.6269 13.4241H53.8032V19.6887H56.6269V13.4241Z" fill="black"/>
<path d="M64.1058 0.272339L56.665 11.4786H53.8031L46.2859 0.272339H49.6057L55.215 8.83265L60.8242 0.272339H64.1058Z" fill="black"/>
<path d="M78.1099 8.21012L78.0336 8.17121C75.7823 7.54864 73.8362 7.00389 73.8362 5.33074C73.8362 3.73541 75.2862 2.607 77.3849 2.607C79.4455 2.607 81.277 3.38521 82.5363 4.78599L82.7271 5.01945L84.4442 2.87938L84.2915 2.72374C82.6126 0.894942 80.3231 0 77.5375 0C73.7217 0 70.9362 2.29572 70.9362 5.48638C70.9362 9.37743 74.3322 10.2724 77.3086 11.0506L77.3849 11.0895C79.7889 11.751 81.8876 12.3346 81.8876 14.3969C81.8876 15.8366 80.8191 17.393 77.8046 17.393C74.9046 17.393 73.0349 15.7588 72.1572 14.786L71.9664 14.5525L70.2875 16.7704L70.4401 16.9261C71.6612 18.3268 73.9125 20 77.7283 20C82.956 20 84.7876 17.0039 84.7876 14.2023C84.7876 10 81.0863 9.02724 78.1099 8.21012Z" fill="black"/>
<path d="M96.731 0.272339H93.9073V19.6498H96.731V0.272339Z" fill="#00E06E"/>
<path d="M116.344 0V2.64591C119.702 3.11284 121.954 5.99222 121.954 10C121.954 14.0078 119.702 16.8872 116.344 17.3541V20C121.343 19.572 124.854 15.4864 124.854 10.0389C124.854 4.51362 121.343 0.466926 116.344 0ZM108.598 2.84047C106.919 4.66926 106.004 7.19844 106.004 10C106.004 12.8016 106.919 15.3307 108.598 17.1595C110.086 18.7938 112.147 19.7665 114.475 20V17.3152C111.117 16.8872 108.904 14.0467 108.904 9.96109C108.904 5.9144 111.117 3.07393 114.475 2.607V0C112.147 0.233463 110.086 1.20623 108.598 2.84047Z" fill="black"/>
<path d="M147.176 0.272339V14.6303L136.912 0.272339H134.164V19.6498H136.988V5.01942L147.367 19.6498H150V0.272339H147.176Z" fill="black"/>
</svg>
