<svg width="180" height="30" viewBox="0 0 180 30" fill="none" xmlns="http://www.w3.org/2000/svg">
<g clip-path="url(#clip0_2_47)">
<path d="M63 0H73.3808C75.0506 0 76.4127 0.239391 77.4672 0.718173C78.5217 1.19695 79.3347 1.79543 79.9059 2.51361C80.4771 3.23178 80.8616 4.01523 81.0593 4.86399C81.279 5.71274 81.3888 6.49618 81.3888 7.21437C81.3888 7.93254 81.279 8.71599 81.0593 9.56475C80.8616 10.3917 80.4771 11.1643 79.9059 11.8825C79.3347 12.6007 78.5217 13.1991 77.4672 13.6779C76.4127 14.1349 75.0506 14.3634 73.3808 14.3634H67.1193V23.3079H63V0ZM67.1193 11.0337H73.1501C73.6115 11.0337 74.0838 10.9684 74.5672 10.8379C75.0505 10.7073 75.4899 10.5005 75.8853 10.2176C76.3027 9.91294 76.6323 9.52122 76.8739 9.04243C77.1376 8.5419 77.2695 7.92165 77.2695 7.18171C77.2695 6.42001 77.1597 5.7889 76.94 5.28835C76.7202 4.7878 76.4236 4.39608 76.0501 4.11317C75.6766 3.80849 75.2482 3.60174 74.7649 3.49293C74.2815 3.38412 73.7652 3.3297 73.216 3.3297H67.1193V11.0337Z" fill="#02111B"/>
<path d="M84.4534 0H88.2102V8.65071H88.2762C88.7376 7.88901 89.4186 7.25788 90.3193 6.75735C91.2421 6.23503 92.2636 5.97388 93.3841 5.97388C95.2516 5.97388 96.7236 6.45267 97.8002 7.41022C98.8767 8.36779 99.4149 9.80414 99.4149 11.7193V23.3079H95.658V12.6986C95.6142 11.3711 95.3285 10.4135 94.8012 9.8259C94.2739 9.21654 93.4501 8.91186 92.3296 8.91186C91.6924 8.91186 91.1212 9.03156 90.6159 9.27095C90.1107 9.48858 89.6823 9.80413 89.3307 10.2176C88.9792 10.6094 88.7046 11.0773 88.5069 11.6213C88.309 12.1654 88.2102 12.7421 88.2102 13.3515V23.3079H84.4534V0Z" fill="#02111B"/>
<path d="M101.498 6.4309H105.618L110.067 19.0315H110.133L114.45 6.4309H118.371L111.747 24.222C111.44 24.9837 111.132 25.7127 110.824 26.4091C110.539 27.1056 110.176 27.7149 109.737 28.2372C109.32 28.7812 108.792 29.2056 108.155 29.5104C107.518 29.8368 106.705 30 105.717 30C104.838 30 103.97 29.9347 103.113 29.8041V26.6703C103.421 26.7138 103.717 26.7573 104.003 26.8008C104.289 26.8662 104.585 26.8987 104.893 26.8987C105.332 26.8987 105.694 26.8444 105.98 26.7355C106.266 26.6268 106.496 26.4636 106.672 26.2459C106.87 26.05 107.035 25.8106 107.167 25.5277C107.298 25.2448 107.419 24.9184 107.529 24.5484L107.957 23.2426L101.498 6.4309Z" fill="#02111B"/>
<path d="M123.3 17.889C123.41 18.9771 123.827 19.7388 124.552 20.1741C125.277 20.6094 126.145 20.8271 127.155 20.8271C127.507 20.8271 127.902 20.8052 128.342 20.7617C128.803 20.6964 129.232 20.5877 129.627 20.4353C130.023 20.2829 130.341 20.0654 130.583 19.7823C130.847 19.4777 130.967 19.086 130.945 18.6072C130.923 18.1284 130.748 17.7366 130.418 17.432C130.089 17.1273 129.66 16.8879 129.133 16.7138C128.628 16.518 128.045 16.3548 127.386 16.2242C126.727 16.0937 126.057 15.9521 125.376 15.7998C124.673 15.6474 123.992 15.4625 123.333 15.2448C122.696 15.0272 122.113 14.7334 121.586 14.3634C121.081 13.9935 120.674 13.5256 120.367 12.9597C120.059 12.3722 119.905 11.654 119.905 10.8052C119.905 9.89118 120.125 9.1295 120.564 8.52014C121.026 7.88901 121.597 7.38846 122.278 7.0185C122.981 6.62677 123.75 6.35473 124.585 6.20239C125.442 6.05005 126.255 5.97388 127.024 5.97388C127.902 5.97388 128.737 6.07182 129.528 6.26769C130.341 6.44178 131.066 6.73558 131.703 7.14907C132.362 7.56256 132.901 8.10664 133.318 8.78129C133.757 9.43418 134.032 10.2285 134.142 11.1643H130.22C130.045 10.272 129.627 9.67356 128.968 9.36888C128.331 9.0642 127.595 8.91186 126.76 8.91186C126.496 8.91186 126.178 8.93363 125.804 8.97716C125.453 9.02067 125.112 9.10773 124.783 9.23831C124.475 9.34712 124.212 9.52122 123.992 9.76061C123.772 9.97824 123.662 10.272 123.662 10.642C123.662 11.099 123.816 11.469 124.124 11.7519C124.453 12.0348 124.871 12.2742 125.376 12.4701C125.903 12.6442 126.496 12.7965 127.155 12.9271C127.815 13.0577 128.496 13.1991 129.199 13.3515C129.88 13.5038 130.55 13.6888 131.209 13.9064C131.868 14.124 132.45 14.4179 132.956 14.7878C133.483 15.1578 133.9 15.6257 134.208 16.1915C134.537 16.7574 134.702 17.4537 134.702 18.2808C134.702 19.2819 134.472 20.1306 134.01 20.8271C133.549 21.5234 132.945 22.0893 132.198 22.5245C131.473 22.9598 130.66 23.2754 129.759 23.4711C128.858 23.667 127.968 23.765 127.09 23.765C126.013 23.765 125.013 23.6453 124.091 23.4059C123.19 23.1665 122.399 22.8074 121.718 22.3286C121.059 21.8282 120.532 21.2187 120.136 20.5005C119.763 19.7606 119.565 18.8901 119.543 17.889H123.3Z" fill="#02111B"/>
<path d="M137.654 0H141.41V3.52557H137.654V0ZM137.654 6.43091H141.41V23.3079H137.654V6.43091Z" fill="#02111B"/>
<path d="M153.314 23.765C151.952 23.765 150.732 23.5473 149.656 23.1122C148.601 22.6551 147.701 22.0349 146.954 21.2514C146.229 20.468 145.668 19.5321 145.273 18.444C144.9 17.3558 144.713 16.1589 144.713 14.8531C144.713 13.5691 144.9 12.383 145.273 11.2949C145.668 10.2068 146.229 9.27095 146.954 8.48748C147.701 7.70403 148.601 7.09467 149.656 6.65941C150.732 6.20239 151.952 5.97388 153.314 5.97388C154.676 5.97388 155.885 6.20239 156.939 6.65941C158.016 7.09467 158.916 7.70403 159.642 8.48748C160.389 9.27095 160.948 10.2068 161.322 11.2949C161.718 12.383 161.915 13.5691 161.915 14.8531C161.915 16.1589 161.718 17.3558 161.322 18.444C160.948 19.5321 160.389 20.468 159.642 21.2514C158.916 22.0349 158.016 22.6551 156.939 23.1122C155.885 23.5473 154.676 23.765 153.314 23.765ZM153.314 20.8271C154.149 20.8271 154.873 20.6529 155.488 20.3048C156.103 19.9565 156.609 19.4994 157.005 18.9336C157.401 18.3678 157.686 17.7366 157.861 17.0403C158.059 16.3221 158.159 15.5931 158.159 14.8531C158.159 14.1349 158.059 13.4168 157.861 12.6986C157.686 11.9804 157.401 11.3493 157.005 10.8052C156.609 10.2394 156.103 9.78237 155.488 9.43418C154.873 9.08597 154.149 8.91186 153.314 8.91186C152.48 8.91186 151.754 9.08597 151.139 9.43418C150.524 9.78237 150.018 10.2394 149.623 10.8052C149.228 11.3493 148.931 11.9804 148.733 12.6986C148.557 13.4168 148.47 14.1349 148.47 14.8531C148.47 15.5931 148.557 16.3221 148.733 17.0403C148.931 17.7366 149.228 18.3678 149.623 18.9336C150.018 19.4994 150.524 19.9565 151.139 20.3048C151.754 20.6529 152.48 20.8271 153.314 20.8271Z" fill="#02111B"/>
<path d="M165.039 6.43091H168.597V8.91186L168.663 8.97716C169.234 8.04135 169.981 7.31229 170.904 6.78999C171.826 6.24592 172.849 5.97388 173.968 5.97388C175.836 5.97388 177.309 6.45267 178.384 7.41023C179.461 8.3678 180 9.80414 180 11.7193V23.3079H176.243V12.6986C176.199 11.3711 175.914 10.4135 175.386 9.8259C174.86 9.21654 174.034 8.91186 172.914 8.91186C172.278 8.91186 171.706 9.03156 171.201 9.27095C170.695 9.48858 170.268 9.80414 169.915 10.2176C169.564 10.6094 169.29 11.0773 169.092 11.6213C168.894 12.1654 168.795 12.7421 168.795 13.3515V23.3079H165.039V6.43091Z" fill="#02111B"/>
<path d="M43.8852 6.06615e-06H18.6423C17.896 0.00284201 17.1646 0.206554 16.5265 0.589285C15.8886 0.972016 15.3679 1.51932 15.0205 2.17248L3.87615 23.1504L0 30L10.6688 23.202L19.0135 6.77121C19.2373 6.32925 19.581 5.95758 20.0062 5.6978C20.4313 5.43801 20.9212 5.30034 21.421 5.30019H31.9813C32.4577 5.3001 32.9256 5.42497 33.3373 5.66209C33.7489 5.8992 34.0897 6.24006 34.3246 6.64989C34.5597 7.05973 34.6806 7.52386 34.6749 7.99497C34.6693 8.46607 34.5375 8.92728 34.2928 9.33155L30.2497 16.0017C29.8638 16.6386 29.3173 17.1656 28.6641 17.5316C28.0107 17.8974 27.2727 18.0897 26.5218 18.0896H19.5288C19.0732 18.0917 18.6268 18.216 18.237 18.4493C17.8471 18.6825 17.5287 19.016 17.3154 19.4141L15.3126 23.1504H35.7573C36.5008 23.1501 37.2303 22.9504 37.8681 22.5726C38.5059 22.1947 39.028 21.6529 39.379 21.0048L47.5152 5.9769C47.8498 5.35743 48.0165 4.66271 47.9986 3.96054C47.9809 3.25839 47.7793 2.5728 47.4136 1.97067C47.0479 1.36856 46.5306 0.870495 45.9123 0.525103C45.2938 0.179712 44.5954 -0.00120759 43.8852 6.06615e-06Z" fill="#02111B"/>
</g>
<defs>
<clipPath id="clip0_2_47">
<rect width="180" height="30" fill="white"/>
</clipPath>
</defs>
</svg>
