<svg version="1.2" baseProfile="tiny-ps" xmlns="http://www.w3.org/2000/svg" viewBox="0 0 170 28" width="170" height="28">
	<title>Clip-Path</title>
	<defs>
		<clipPath clipPathUnits="userSpaceOnUse" id="cp1">
			<path d="m0 0h170v28h-170v-28z" />
		</clipPath>
	</defs>
	<style>
		tspan { white-space:pre }
		.s0 { fill: #02111b } 
	</style>
	<g id="Clip-Path" clip-path="url(#cp1)">
		<g id="Layer">
			<path id="Layer" fill-rule="evenodd" class="s0" d="m59.5 0h9.8c1.58 0 2.86 0.22 3.86 0.67c1 0.45 1.76 1.01 2.3 1.68c0.54 0.67 0.9 1.4 1.09 2.19c0.21 0.79 0.31 1.52 0.31 2.19c0 0.67-0.1 1.4-0.31 2.19c-0.19 0.77-0.55 1.49-1.09 2.16c-0.54 0.67-1.31 1.23-2.3 1.68c-1 0.43-2.28 0.64-3.86 0.64h-5.91v8.35h-3.89v-21.75zm3.89 10.3h5.7c0.44 0 0.88-0.06 1.34-0.18c0.46-0.12 0.87-0.31 1.24-0.58c0.39-0.28 0.71-0.65 0.93-1.1c0.25-0.47 0.37-1.05 0.37-1.74c0-0.71-0.1-1.3-0.31-1.77c-0.21-0.47-0.49-0.83-0.84-1.1c-0.35-0.28-0.76-0.48-1.21-0.58c-0.46-0.1-0.94-0.15-1.46-0.15h-5.76v7.19z" />
			<path id="Layer" class="s0" d="m79.76 0h3.55v8.07h0.06c0.44-0.71 1.08-1.3 1.93-1.77c0.87-0.49 1.84-0.73 2.89-0.73c1.76 0 3.15 0.45 4.17 1.34c1.02 0.89 1.52 2.23 1.52 4.02v10.82h-3.55v-9.9c-0.04-1.24-0.31-2.13-0.81-2.68c-0.5-0.57-1.28-0.85-2.33-0.85c-0.6 0-1.14 0.11-1.62 0.34c-0.48 0.2-0.88 0.5-1.21 0.88c-0.33 0.37-0.59 0.8-0.78 1.31c-0.19 0.51-0.28 1.05-0.28 1.61v9.29h-3.55v-21.75z" />
			<path id="Layer" class="s0" d="m95.86 6h3.89l4.2 11.76h0.06l4.08-11.76h3.7l-6.26 16.61c-0.29 0.71-0.58 1.39-0.87 2.04c-0.27 0.65-0.61 1.22-1.03 1.71c-0.39 0.51-0.89 0.9-1.49 1.19c-0.6 0.3-1.37 0.46-2.3 0.46c-0.83 0-1.65-0.06-2.46-0.18v-2.92c0.29 0.04 0.57 0.08 0.84 0.12c0.27 0.06 0.55 0.09 0.84 0.09c0.41 0 0.76-0.05 1.03-0.15c0.27-0.1 0.49-0.25 0.65-0.46c0.19-0.18 0.34-0.41 0.47-0.67c0.12-0.26 0.24-0.57 0.34-0.91l0.4-1.22l-6.1-15.69z" />
			<path id="Layer" class="s0" d="m116.45 16.7c0.1 1.02 0.5 1.73 1.18 2.13c0.68 0.41 1.5 0.61 2.46 0.61c0.33 0 0.71-0.02 1.12-0.06c0.44-0.06 0.84-0.16 1.21-0.3c0.37-0.14 0.67-0.35 0.9-0.61c0.25-0.28 0.36-0.65 0.34-1.1c-0.02-0.45-0.19-0.81-0.5-1.1c-0.31-0.28-0.72-0.51-1.21-0.67c-0.48-0.18-1.03-0.34-1.65-0.46c-0.62-0.12-1.26-0.25-1.9-0.4c-0.66-0.14-1.31-0.31-1.93-0.52c-0.6-0.2-1.15-0.48-1.65-0.82c-0.48-0.35-0.86-0.78-1.15-1.31c-0.29-0.55-0.44-1.22-0.44-2.01c0-0.85 0.21-1.56 0.62-2.13c0.44-0.59 0.98-1.06 1.62-1.4c0.66-0.37 1.39-0.62 2.18-0.76c0.81-0.14 1.58-0.21 2.3-0.21c0.83 0 1.62 0.09 2.36 0.27c0.77 0.16 1.45 0.44 2.05 0.82c0.62 0.39 1.13 0.89 1.53 1.52c0.41 0.61 0.67 1.35 0.78 2.22h-3.7c-0.17-0.83-0.56-1.39-1.18-1.68c-0.6-0.28-1.3-0.43-2.09-0.43c-0.25 0-0.55 0.02-0.9 0.06c-0.33 0.04-0.65 0.12-0.96 0.24c-0.29 0.1-0.54 0.26-0.75 0.49c-0.21 0.2-0.31 0.48-0.31 0.82c0 0.43 0.15 0.77 0.44 1.04c0.31 0.26 0.71 0.49 1.18 0.67c0.5 0.16 1.06 0.3 1.68 0.43c0.62 0.12 1.27 0.25 1.93 0.4c0.64 0.14 1.28 0.31 1.9 0.52c0.62 0.2 1.17 0.48 1.65 0.82c0.5 0.35 0.89 0.78 1.18 1.31c0.31 0.53 0.47 1.18 0.47 1.95c0 0.93-0.22 1.73-0.65 2.38c-0.44 0.65-1.01 1.18-1.71 1.58c-0.68 0.41-1.45 0.7-2.3 0.88c-0.85 0.18-1.69 0.27-2.52 0.27c-1.02 0-1.96-0.11-2.83-0.34c-0.85-0.22-1.6-0.56-2.24-1.01c-0.62-0.47-1.12-1.04-1.49-1.71c-0.35-0.69-0.54-1.5-0.56-2.44h3.55z" />
			<path id="Layer" class="s0" d="m130.01 0h3.55v3.29h-3.55v-3.29zm0 6h3.55v15.75h-3.55v-15.75z" />
			<path id="Layer" fill-rule="evenodd" class="s0" d="m144.8 22.18c-1.29 0-2.44-0.2-3.45-0.61c-1-0.43-1.85-1.01-2.55-1.74c-0.68-0.73-1.21-1.6-1.59-2.62c-0.35-1.02-0.53-2.13-0.53-3.35c0-1.2 0.18-2.31 0.53-3.32c0.37-1.02 0.9-1.89 1.59-2.62c0.71-0.73 1.56-1.3 2.55-1.71c1.02-0.43 2.17-0.64 3.45-0.64c1.29 0 2.43 0.21 3.42 0.64c1.02 0.41 1.87 0.97 2.55 1.71c0.71 0.73 1.23 1.6 1.59 2.62c0.37 1.02 0.56 2.12 0.56 3.32c0 1.22-0.19 2.34-0.56 3.35c-0.35 1.02-0.88 1.89-1.59 2.62c-0.69 0.73-1.54 1.31-2.55 1.74c-1 0.41-2.14 0.61-3.42 0.61zm0-2.74c0.79 0 1.47-0.16 2.05-0.49c0.58-0.33 1.06-0.75 1.43-1.28c0.37-0.53 0.64-1.12 0.81-1.77c0.19-0.67 0.28-1.35 0.28-2.04c0-0.67-0.09-1.34-0.28-2.01c-0.17-0.67-0.43-1.26-0.81-1.77c-0.37-0.53-0.85-0.95-1.43-1.28c-0.58-0.32-1.26-0.49-2.05-0.49c-0.79 0-1.47 0.16-2.05 0.49c-0.58 0.32-1.06 0.75-1.43 1.28c-0.37 0.51-0.65 1.1-0.84 1.77c-0.17 0.67-0.25 1.34-0.25 2.01c0 0.69 0.08 1.37 0.25 2.04c0.19 0.65 0.47 1.24 0.84 1.77c0.37 0.53 0.85 0.95 1.43 1.28c0.58 0.32 1.27 0.49 2.05 0.49z" />
			<path id="Layer" class="s0" d="m155.87 6h3.36v2.32l0.06 0.06c0.54-0.87 1.24-1.55 2.12-2.04c0.87-0.51 1.84-0.76 2.89-0.76c1.76 0 3.16 0.45 4.17 1.34c1.02 0.89 1.53 2.23 1.53 4.02v10.82h-3.55v-9.9c-0.04-1.24-0.31-2.13-0.81-2.68c-0.5-0.57-1.28-0.85-2.33-0.85c-0.6 0-1.14 0.11-1.62 0.34c-0.48 0.2-0.88 0.5-1.21 0.88c-0.33 0.37-0.59 0.8-0.78 1.31c-0.19 0.51-0.28 1.05-0.28 1.61v9.29h-3.55v-15.75z" />
			<path id="Layer" class="s0" d="m43.36 0.49c0.58 0.32 1.07 0.79 1.42 1.35c0.35 0.56 0.54 1.2 0.55 1.86c0.02 0.66-0.14 1.3-0.46 1.88l-7.68 14.03c-0.33 0.6-0.82 1.11-1.43 1.46c-0.6 0.35-1.29 0.54-1.99 0.54h-19.31l1.89-3.49c0.2-0.37 0.5-0.68 0.87-0.9c0.37-0.22 0.79-0.33 1.22-0.34h6.6c0.71 0 1.41-0.18 2.02-0.52c0.62-0.34 1.13-0.83 1.5-1.43l3.82-6.23c0.23-0.38 0.36-0.81 0.36-1.25c0.01-0.44-0.11-0.87-0.33-1.26c-0.22-0.38-0.54-0.7-0.93-0.92c-0.39-0.22-0.83-0.34-1.28-0.34h-9.97c-0.47 0-0.93 0.13-1.34 0.37c-0.4 0.24-0.73 0.59-0.94 1l-7.88 15.34l-10.08 6.34l3.66-6.39l10.53-19.58c0.33-0.61 0.82-1.12 1.42-1.48c0.6-0.36 1.29-0.55 2-0.55h23.84c0.67 0 1.33 0.17 1.91 0.49z" />
		</g>
	</g>
</svg>