<svg width="108" height="42" viewBox="0 0 108 42" fill="none" xmlns="http://www.w3.org/2000/svg">
<path d="M87.6761 22.2627C85.9927 22.2627 84.6185 20.8884 84.6185 19.205C84.6185 17.5044 85.9927 16.1473 87.6761 16.1473C89.3596 16.1473 90.7338 17.5215 90.7338 19.205C90.751 20.8884 89.3767 22.2627 87.6761 22.2627ZM87.6761 13.2271C84.378 13.2271 81.6982 15.9068 81.6982 19.205C81.6982 22.5031 84.378 25.1829 87.6761 25.1829C90.9743 25.1829 93.654 22.5031 93.654 19.205C93.654 15.8896 90.9743 13.2271 87.6761 13.2271Z" fill="black"/>
<path d="M60.226 22.2627C58.5425 22.2627 57.1683 20.8884 57.1683 19.205C57.1683 17.5044 58.5425 16.1473 60.226 16.1473C61.9094 16.1473 63.2836 17.5215 63.2836 19.205C63.2836 20.8884 61.9094 22.2627 60.226 22.2627ZM60.226 13.2271C56.9278 13.2271 54.248 15.9068 54.248 19.205C54.248 22.5031 56.9278 25.1829 60.226 25.1829C63.5241 25.1829 66.2039 22.5031 66.2039 19.205C66.1867 15.8896 63.5241 13.2271 60.226 13.2271Z" fill="black"/>
<path d="M81.32 22.4346C80.9421 22.5377 80.358 22.6579 80.1519 22.6579C79.1212 22.6579 78.9151 22.2972 78.9151 21.3352V15.8039H81.3543V13.5021H78.9151V10.2383H76.1666L75.5826 13.5021H73.6758H73.5212C71.958 13.5021 70.7728 14.464 70.0169 15.9585L69.0721 13.5021H67.0967V24.9598H70.4636V19.9782C70.4636 17.4702 71.958 15.8555 73.7102 15.8039H75.5482V21.507C75.5482 24.1868 76.9224 25.1831 79.1556 25.1831C80.3065 25.1831 81.1997 24.9426 81.7323 24.7708L81.32 22.4346Z" fill="black"/>
<path d="M97.7419 17.1094V24.9597H94.4609V13.4849H96.4536L97.1235 15.237" fill="black"/>
<path d="M97.1064 15.254C98.1028 14.1031 99.4598 13.2271 101.057 13.2271C103.789 13.2271 104.905 15.4087 104.905 17.4185V24.9596H101.538V17.5215C101.538 16.5424 100.714 16.0099 99.8377 16.0099C98.893 16.0099 98.2917 16.5596 97.7592 17.1264" fill="black"/>
<path d="M41.1748 9.34473H44.9368L50.0901 19.1533V9.34473H53.1993V24.9594H49.7981L44.284 14.1545V24.9594H41.1748V9.34473Z" fill="black"/>
<path d="M104.905 13.502V13.7253H105.214V14.8075H105.472V13.7253H105.799V13.502H104.905Z" fill="black"/>
<path d="M106.778 13.502L106.555 14.3608L106.314 13.502H105.971V14.8075H106.194V13.7768L106.469 14.8075H106.641L106.915 13.7768V14.8075H107.122V13.502H106.778Z" fill="black"/>
<path d="M45.2464 34.1668C45.2464 33.1705 44.9372 32.0024 43.8035 32.0024C43.271 32.0024 42.79 32.2429 42.3605 32.6895V35.9705C42.7556 36.4 43.1164 36.6233 43.666 36.6233C44.6795 36.6061 45.2464 35.73 45.2464 34.1668ZM42.1372 36.6061L41.8967 37.3448H41.2783V28.7729H42.3605V31.8993C42.7213 31.5042 43.3053 31.092 44.044 31.092C45.6759 31.092 46.3973 32.7067 46.3973 34.1668C46.3973 36.1251 45.3838 37.4478 43.8722 37.4478C43.082 37.4478 42.5495 37.1214 42.1372 36.6061Z" fill="#A0A0A0"/>
<path d="M47.085 31.2124H48.1844C48.1844 31.2124 49.7304 36.3829 49.7304 36.4001L51.1733 31.2124H52.2383L50.177 37.8087C49.8162 38.9424 49.215 39.578 48.0297 39.578C47.7893 39.578 47.5316 39.5437 47.2911 39.4749L47.4285 38.7019C47.5831 38.7191 47.7377 38.7707 47.9439 38.7707C48.5794 38.7707 49.0604 38.4786 49.3009 37.7228L47.085 31.2124Z" fill="#A0A0A0"/>
<path d="M55.4502 36.4518L55.9827 35.696C56.5152 36.0911 57.2711 36.5205 58.4048 36.5205C59.5214 36.5205 60.1741 35.988 60.1741 35.0604C60.1741 34.0297 59.3839 33.7033 58.2502 33.3082C57.0306 32.8788 55.914 32.3291 55.914 30.7659C55.914 29.3745 57.0134 28.6187 58.4563 28.6187C59.487 28.6187 60.0882 28.7904 60.7582 29.1683L60.3115 29.9929C59.779 29.7009 59.2122 29.5291 58.4391 29.5291C57.5287 29.5291 56.9103 29.8898 56.9103 30.7487C56.9103 31.6591 57.5115 31.9512 58.7655 32.3978C59.968 32.8101 61.2392 33.3426 61.2392 35.026C61.2392 36.5205 60.1741 37.4138 58.422 37.4138C56.9962 37.4481 56.0171 36.9328 55.4502 36.4518Z" fill="#A0A0A0"/>
<path d="M61.8574 31.2124H62.9568C62.9568 31.2124 64.5028 36.3829 64.5028 36.4001L65.9458 31.2124H67.0108L64.9494 37.8087C64.5887 38.9424 63.9875 39.578 62.8022 39.578C62.5617 39.578 62.304 39.5437 62.0636 39.4749L62.201 38.7019C62.3556 38.7191 62.5102 38.7707 62.7163 38.7707C63.3519 38.7707 63.8329 38.4786 64.0734 37.7228L61.8574 31.2124Z" fill="#A0A0A0"/>
<path d="M74.6212 31.0918C75.858 31.0918 76.1844 32.1397 76.1844 33.1532V37.3446H75.1022V33.1532C75.1022 32.5519 74.9991 32.0022 74.2604 32.0022C73.7623 32.0022 73.2298 32.3114 72.6973 32.844V37.3446H71.615V33.1532C71.615 32.5519 71.512 32.0022 70.7733 32.0022C70.258 32.0022 69.7083 32.363 69.2101 32.8611V37.3446H68.1279V31.212H68.7635L69.0384 32.2084C69.6052 31.59 70.2924 31.0918 71.1169 31.0918C71.9414 31.0918 72.285 31.5384 72.5255 32.1568C73.0923 31.5213 73.831 31.0918 74.6212 31.0918Z" fill="#A0A0A0"/>
<path d="M81.1825 34.1838C79.9629 34.4071 79.1727 34.6648 78.8635 35.0427C78.7089 35.2317 78.6746 35.4035 78.6746 35.6611C78.6746 36.2624 78.9666 36.6059 79.6194 36.6059C80.2378 36.6059 80.7874 36.2967 81.1825 36.0047V34.1838ZM81.1825 33.2047C81.1825 32.3801 80.9249 31.9679 80.0316 31.9679C79.4132 31.9679 78.8635 32.2084 78.2795 32.5004L77.8844 31.7789C78.52 31.3838 79.2071 31.0918 80.1003 31.0918C81.6292 31.0918 82.2304 31.9163 82.2304 33.2906V37.3618H81.612L81.3371 36.6231C80.9077 37.0526 80.2378 37.4477 79.4476 37.4477C78.3654 37.4477 77.5752 36.7777 77.5752 35.747C77.5752 35.0771 77.8329 34.5961 78.3997 34.2525C78.9494 33.909 79.9286 33.6685 81.1825 33.4795V33.2047Z" fill="#A0A0A0"/>
<path d="M84.0342 31.212H84.6698L84.9446 32.2256C85.5115 31.59 86.2329 31.0918 87.1434 31.0918C88.4661 31.0918 88.8096 32.1397 88.8096 33.1532V37.3446H87.7274V33.1532C87.7274 32.5519 87.5728 32.0022 86.7826 32.0022C86.2158 32.0022 85.6145 32.363 85.1164 32.8783V37.3446H84.0342V31.212Z" fill="#A0A0A0"/>
<path d="M89.96 31.9679V31.2121H90.9047L91.1796 29.46H91.9526V31.2121H93.3268V31.9679H91.9526V35.7471C91.9526 36.314 92.0557 36.6232 92.6397 36.6232C92.8802 36.6232 93.0692 36.5716 93.344 36.5029L93.4986 37.2416C93.2581 37.3447 92.8802 37.4305 92.5023 37.4305C91.3857 37.4305 90.8876 36.898 90.8876 35.7986V31.9508H89.96V31.9679Z" fill="#A0A0A0"/>
<path d="M98.1375 33.8575C98.1031 32.5691 97.6737 31.8992 96.8148 31.8992C96.0418 31.8992 95.5264 32.5004 95.4406 33.8575H98.1375ZM96.9694 36.5888C97.6737 36.5888 98.1203 36.3139 98.6357 35.9875L99.0823 36.6403C98.481 37.1213 97.9314 37.4477 96.8663 37.4477C95.286 37.4477 94.2725 36.228 94.2725 34.2869C94.2725 32.3973 95.2516 31.0918 96.7804 31.0918C98.3608 31.0918 99.2025 32.2771 99.2025 34.3213V34.5789H95.389C95.4749 35.8845 95.9387 36.5888 96.9694 36.5888Z" fill="#A0A0A0"/>
<path d="M100.198 34.3213C100.198 32.7409 100.903 31.0918 102.792 31.0918C103.582 31.0918 104.166 31.2808 104.716 31.7446L104.252 32.466C103.857 32.174 103.393 31.9679 102.809 31.9679C101.521 31.9679 101.332 33.2906 101.332 34.3384C101.332 35.3519 101.555 36.5888 102.844 36.5888C103.462 36.5888 103.891 36.3483 104.304 36.0047L104.819 36.6403C104.372 37.0869 103.754 37.4648 102.792 37.4648C100.92 37.4477 100.198 35.8501 100.198 34.3213Z" fill="#A0A0A0"/>
<path d="M17.8994 11.1999C14.6356 11.1999 11.5607 12.471 9.24172 14.7901C6.9227 17.1091 5.65153 20.1839 5.65153 23.4477C5.65153 26.7115 6.9227 29.7864 9.24172 32.1054C11.5607 34.4244 14.6356 35.6956 17.8994 35.6956C21.1632 35.6956 24.238 34.4244 26.5571 32.1054C28.8589 29.7864 30.1301 26.7115 30.1472 23.4477C30.1472 20.1839 28.8761 17.1091 26.5571 14.7901C24.238 12.4882 21.1632 11.1999 17.8994 11.1999ZM17.8994 41.3471C8.03926 41.3471 0 33.3078 0 23.4477C0 13.5704 8.03926 5.54834 17.8994 5.54834C27.7595 5.54834 35.7988 13.5704 35.7988 23.4477C35.7988 33.3078 27.7595 41.3471 17.8994 41.3471Z" fill="#FFC20E"/>
<path d="M38.7869 2.78271H37.3955V4.17413H38.7869V2.78271Z" fill="#FFC20E"/>
<path d="M38.7869 0H37.3955V1.39141H38.7869V0Z" fill="#FFC20E"/>
<path d="M34.785 4.17432H33.4795V5.53137H34.785V4.17432Z" fill="white"/>
<path d="M32.2084 6.854H30.8857V8.15952H32.2084V6.854Z" fill="black"/>
<path d="M36.2287 5.53125H34.7686V6.83677H36.2287V5.53125Z" fill="black"/>
<path d="M30.8856 5.6001H29.5801V6.85407H30.8856V5.6001Z" fill="black"/>
<path d="M34.785 6.854H33.4795V8.15952H34.785V6.854Z" fill="black"/>
<path d="M37.3957 1.40869H36.0215V2.80012H37.3957V1.40869Z" fill="black"/>
<path d="M36.0218 2.78271H33.4795V4.17413H36.0218V2.78271Z" fill="black"/>
<path d="M33.4792 4.17432H32.208V6.85407H33.4792V4.17432Z" fill="black"/>
<path d="M32.2087 8.15967V9.46519H30.886V8.15967H28.7044V9.10445H27.5363V10.2725H28.8418V11.5781H27.5363V10.2725H26.1449V12.3167H24.8394V13.6222H23.9633V14.9278H23.0013C21.9191 16.5253 19.2394 21.5069 18.4148 23.5339C15.4774 19.4456 13.1927 17.8308 11.4062 17.2468C10.4443 16.9548 9.27617 18.0026 10.8737 19.6689C14.567 23.74 15.7351 27.0897 16.8516 29.7867C17.4529 31.1953 20.1154 31.4186 20.6479 29.9756C21.7817 26.9351 23.4308 23.4995 25.389 20.6995V19.2394H26.4369V17.9339H27.5363V16.4051H28.8418V14.9449H27.5191V13.6051H28.8418V14.9449H30.1302V13.6222H31.1608V12.0247H32.3289V10.9253H33.4455V8.15967H32.2087Z" fill="black"/>
</svg>
