<svg width="150" height="20" viewBox="0 0 150 20" fill="none" xmlns="http://www.w3.org/2000/svg">
<path d="M7.6698 0.272461H0V7.62655H2.82371V2.87946H7.4027C9.46324 2.87946 10.8369 4.20242 10.8369 6.22577C10.8369 8.24911 9.46324 9.57207 7.4027 9.57207H4.08293H0V19.6499H2.82371V12.1791H7.70796C11.2567 12.1791 13.737 9.72771 13.737 6.22577C13.737 2.72382 11.2567 0.272461 7.6698 0.272461Z" fill="black"/>
<path d="M25.2988 12.5293H22.4751V19.6499H25.2988V12.5293Z" fill="black"/>
<path d="M38.4253 0.272461H35.6016V6.77052H38.4253V0.272461Z" fill="black"/>
<path d="M35.6015 8.36585H38.4252V19.6499H35.6015V10.9728H25.2988H22.4751V0.272461H25.2988V8.36585H35.6015Z" fill="black"/>
<path d="M56.6269 13.4243H53.8032V19.6889H56.6269V13.4243Z" fill="black"/>
<path d="M64.106 0.272461L56.6652 11.4787H53.8033L46.2861 0.272461H49.6059L55.2152 8.83277L60.8244 0.272461H64.106Z" fill="black"/>
<path d="M78.11 8.21012L78.0337 8.17121C75.7824 7.54864 73.8363 7.00389 73.8363 5.33074C73.8363 3.73541 75.2863 2.607 77.385 2.607C79.4456 2.607 81.2772 3.38521 82.5364 4.78599L82.7272 5.01945L84.4443 2.87938L84.2917 2.72374C82.6127 0.894942 80.3232 0 77.5377 0C73.7218 0 70.9363 2.29572 70.9363 5.48638C70.9363 9.37743 74.3324 10.2724 77.3087 11.0506L77.385 11.0895C79.789 11.751 81.8877 12.3346 81.8877 14.3969C81.8877 15.8366 80.8193 17.393 77.8048 17.393C74.9047 17.393 73.035 15.7588 72.1573 14.786L71.9666 14.5525L70.2876 16.7704L70.4402 16.9261C71.6613 18.3268 73.9126 20 77.7285 20C82.9561 20 84.7877 17.0039 84.7877 14.2023C84.7877 10 81.0864 9.02724 78.11 8.21012Z" fill="black"/>
<path d="M96.7309 0.272461H93.9072V19.6499H96.7309V0.272461Z" fill="#56BB68"/>
<path d="M116.344 0V2.64591C119.702 3.11284 121.954 5.99222 121.954 10C121.954 14.0078 119.702 16.8872 116.344 17.3541V20C121.343 19.572 124.854 15.4864 124.854 10.0389C124.854 4.51362 121.343 0.466926 116.344 0ZM108.598 2.84047C106.919 4.66926 106.003 7.19844 106.003 10C106.003 12.8016 106.919 15.3307 108.598 17.1595C110.086 18.7938 112.147 19.7665 114.475 20V17.3152C111.117 16.8872 108.903 14.0467 108.903 9.96109C108.903 5.9144 111.117 3.07393 114.475 2.607V0C112.147 0.233463 110.086 1.20623 108.598 2.84047Z" fill="black"/>
<path d="M147.176 0.272461V14.6304L136.912 0.272461H134.165V19.6499H136.988V5.01954L147.367 19.6499H150V0.272461H147.176Z" fill="black"/>
</svg>
