<svg width="28" height="29" viewBox="0 0 28 29" fill="none" xmlns="http://www.w3.org/2000/svg">
<path d="M18.6668 0.5L19.8334 8.66667L22.4539 6.48145C24.4388 8.57153 25.6668 11.3828 25.6668 14.5C25.6668 20.957 20.4571 26.1667 14.0001 26.1667C7.54316 26.1667 2.33345 20.957 2.33345 14.5C2.33564 14.3454 2.30707 14.1919 2.24943 14.0484C2.19178 13.905 2.10619 13.7744 1.99764 13.6643C1.88908 13.5542 1.75973 13.4668 1.6171 13.4071C1.47447 13.3474 1.3214 13.3167 1.16678 13.3167C1.01217 13.3167 0.8591 13.3474 0.716466 13.4071C0.573833 13.4668 0.444482 13.5542 0.33593 13.6643C0.227378 13.7744 0.141791 13.905 0.0841412 14.0484C0.0264918 14.1919 -0.00206971 14.3454 0.000116675 14.5C0.000116675 22.218 6.28207 28.5 14.0001 28.5C21.7182 28.5 28.0001 22.218 28.0001 14.5C28.0001 10.8277 26.5669 7.48871 24.2472 4.98893L26.8334 2.83333L18.6668 0.5ZM12.5144 0.579753L12.4005 0.595703L11.5437 1.19727L11.5141 2.24316L12.3344 2.89258L12.7446 2.90397L12.8608 2.88802L13.7153 2.28646L13.7449 1.24056L12.9269 0.591146L12.5144 0.579753ZM7.93664 1.93555L7.54927 2.07454L7.44901 2.13151L6.86796 3.00195L7.21887 3.98633L8.21691 4.29622L8.60428 4.15951L8.70682 4.10026L9.2856 3.22982L8.93469 2.24544L7.93664 1.93555ZM4.83996 4.94336L3.79634 5.00488L3.48189 5.27148L3.40897 5.36035L3.17199 6.37891L3.84647 7.17871L4.89009 7.11491L5.20454 6.85059L5.27746 6.76172L5.51444 5.74316L4.83996 4.94336ZM12.8334 7.5V9.389C11.2176 9.74833 10.2039 10.8399 10.2039 12.3717C10.2039 13.8942 11.0978 14.842 12.9178 15.2223L14.2189 15.5003C15.4439 15.764 15.9415 16.1303 15.9415 16.7673C15.9415 17.5221 15.1729 18.0479 14.0867 18.0479C12.9095 18.0479 12.0917 17.5291 11.9949 16.7194H9.97603C10.039 18.2606 11.1173 19.3141 12.8334 19.6361V21.5H15.1668V19.6315C16.9541 19.292 18.0242 18.1735 18.0242 16.5052C18.0242 14.9559 17.1609 14.0883 15.1531 13.666L13.9477 13.4108C12.7775 13.1623 12.3025 12.8077 12.3025 12.1917C12.3025 11.4299 12.9935 10.9453 14.0389 10.9453C15.0492 10.9453 15.7832 11.4714 15.88 12.2601H17.8465C17.7951 10.8099 16.7418 9.73677 15.1668 9.38444V7.5H12.8334ZM2.00077 8.93783L1.04602 9.36621L0.847773 9.72624L0.809036 9.83561L0.950312 10.8724L1.86405 11.3783L2.8188 10.9499L3.01704 10.5898L3.05578 10.4805L2.9145 9.44368L2.00077 8.93783Z" fill="#6A6A6A"/>
</svg>
