<svg width="31" height="33" viewBox="0 0 31 33" fill="none" xmlns="http://www.w3.org/2000/svg">
<path d="M15.5 0.5C7.25781 0.5 0.5 7.25781 0.5 15.5V24.25C0.5 26.3105 2.18945 28 4.25 28H6.75C7.44336 28 8 27.4434 8 26.75V19.25C8 18.5566 7.44336 18 6.75 18H3V15.5C3 8.61524 8.61524 3 15.5 3C22.3848 3 28 8.61524 28 15.5V18H24.25C23.5566 18 23 18.5566 23 19.25V26.75C23 27.4434 23.5566 28 24.25 28H25.2754C24.7676 29.4551 23.4004 30.5 21.75 30.5H16.75C16.3008 30.4902 15.8809 30.7344 15.6562 31.1152C15.4219 31.5059 15.4219 31.9941 15.6562 32.3848C15.8809 32.7656 16.3008 33.0098 16.75 33H21.75C24.8262 33 27.3848 30.7441 27.8926 27.8047C29.3965 27.3066 30.5 25.9102 30.5 24.25V15.5C30.5 7.25781 23.7422 0.5 15.5 0.5ZM3 20.5H5.5V25.5H4.25C3.54688 25.5 3 24.9531 3 24.25V20.5ZM25.5 20.5H28V24.25C28 24.9238 27.4922 25.4414 26.8281 25.4902C26.7988 25.4805 26.7598 25.4805 26.7305 25.4805C26.6719 25.4805 26.6035 25.4902 26.5449 25.5H25.5V20.5Z" fill="#6A6A6A"/>
</svg>
