<svg width="40" height="28" viewBox="0 0 40 28" fill="none" xmlns="http://www.w3.org/2000/svg">
<path d="M3.75 0C1.68945 0 0 1.68945 0 3.75V21.25C0 23.3105 1.68945 25 3.75 25H5.23438C5.75195 26.4453 7.12891 27.5 8.75 27.5C10.3711 27.5 11.748 26.4453 12.2656 25H27.666C28.1836 26.4453 29.5605 27.5 31.1816 27.5C32.8027 27.5 34.1797 26.4453 34.6973 25H36.25C38.3008 25 40 23.3105 40 21.25V17.0117C40 16.2695 39.7754 15.5371 39.3652 14.9219L35.4688 9.16992C34.7656 8.125 33.5938 7.5 32.3438 7.5H25V3.75C25 1.68945 23.3105 0 21.25 0H3.75ZM3.75 2.5H21.25C21.9531 2.5 22.5 3.04688 22.5 3.75V22.5H12.2656C11.748 21.0547 10.3711 20 8.75 20C7.12891 20 5.75195 21.0547 5.23438 22.5H3.75C3.04688 22.5 2.5 21.9531 2.5 21.25V3.75C2.5 3.04688 3.04688 2.5 3.75 2.5ZM25 10H32.3438C32.7637 10 33.1543 10.2148 33.3887 10.5566V10.5664L37.2852 16.3184C37.4219 16.5234 37.5 16.7578 37.5 17.0117V21.25C37.5 21.9531 36.9531 22.5 36.25 22.5H34.6973C34.1797 21.0547 32.8027 20 31.1816 20C29.5605 20 28.1836 21.0547 27.666 22.5H25V10ZM8.75 22.5C9.45312 22.5 10 23.0469 10 23.75C10 24.4531 9.45312 25 8.75 25C8.04688 25 7.5 24.4531 7.5 23.75C7.5 23.0469 8.04688 22.5 8.75 22.5ZM31.1816 22.5C31.8848 22.5 32.4316 23.0469 32.4316 23.75C32.4316 24.4531 31.8848 25 31.1816 25C30.4785 25 29.9316 24.4531 29.9316 23.75C29.9316 23.0469 30.4785 22.5 31.1816 22.5Z" fill="#6A6A6A"/>
</svg>
