<svg width="22" height="18" viewBox="0 0 22 18" fill="none" xmlns="http://www.w3.org/2000/svg">
<path d="M22 2.12216C21.1775 2.4929 20.3488 2.76776 19.4342 2.85724C20.3488 2.30753 21.0854 1.38068 21.4475 0.370739C20.5329 0.920455 19.6183 1.29119 18.6116 1.47656C17.6908 0.556108 16.5 0 15.2171 0C12.7433 0 10.7238 2.03267 10.7238 4.52557C10.7238 4.88991 10.7238 5.26065 10.8158 5.5419C6.08929 5.5419 2.84821 2.76776 0.65067 0C0.190291 0.645596 0.00613802 1.47656 0.00613802 2.30753C0.00613802 3.87358 0.834821 5.26065 2.02567 6.09162C1.28906 6.00213 0.558594 5.81676 0.00613802 5.5419C0.00613802 5.5419 0.00613802 5.5419 0.00613802 5.63139C0.00613802 7.84943 1.56529 9.69034 3.58482 10.0611C3.21652 10.1506 2.84821 10.2464 2.38783 10.2464C2.11775 10.2464 1.84152 10.2464 1.56529 10.157C2.11775 12.0043 4.67746 14.1264 6.69085 14.1264C5.1317 15.3217 3.68304 16.3636 0.785714 16.3636C0.417411 16.3636 0.712054 16.3636 0 16.3636C2.01339 17.6548 4.40123 18 6.875 18C15.2171 18 19.7104 11.0774 19.7104 5.07528C19.7104 4.88991 19.7104 4.71094 19.7104 4.52557C20.625 3.87358 21.3616 3.04901 22 2.12216Z" fill="white"/>
</svg>
