<svg width="33" height="28" viewBox="0 0 33 28" fill="none" xmlns="http://www.w3.org/2000/svg">
<path d="M3.75 0C1.68945 0 0 1.68945 0 3.75V23.75C0 25.8105 1.68945 27.5 3.75 27.5H28.75C30.8105 27.5 32.5 25.8105 32.5 23.75V3.75C32.5 1.68945 30.8105 0 28.75 0H3.75ZM3.75 2.5H28.75C29.4531 2.5 30 3.04688 30 3.75V23.75C30 24.4531 29.4531 25 28.75 25H3.75C3.04688 25 2.5 24.4531 2.5 23.75V3.75C2.5 3.04688 3.04688 2.5 3.75 2.5ZM16.25 5C15.5859 5.00977 14.9219 5.23438 14.3945 5.68359H14.3848H14.375L14.0625 5.95703L13.6328 5.99609C12.2363 6.10352 11.1035 7.23633 10.9961 8.63281L10.957 9.0625L10.6836 9.38476C9.77539 10.459 9.77539 12.0508 10.6836 13.125L10.957 13.4375L10.9961 13.8672C11.1035 15.2246 12.1777 16.3086 13.5254 16.4746L10 20H12.5V22.5L16.25 18.75L20 22.5V20H22.5L18.7695 16.5039H18.8672C20.2637 16.3965 21.3867 15.2637 21.5039 13.8672L21.543 13.4375L21.8164 13.125V13.1152C22.7246 12.0508 22.7246 10.459 21.8164 9.38476L21.543 9.0625L21.5039 8.63281C21.3965 7.23633 20.2637 6.10352 18.8672 5.99609L18.4375 5.95703L18.1152 5.68359C17.5781 5.23438 16.9141 5 16.25 5ZM16.25 7.5C16.3379 7.5 16.4258 7.5293 16.5039 7.59766L16.9141 7.94922C17.2559 8.23242 17.666 8.4082 18.1055 8.4375L18.6621 8.48633H18.6719C18.8574 8.50586 18.9941 8.64258 19.0137 8.82812V8.83789L19.0625 9.39453C19.0918 9.83399 19.2676 10.2441 19.5508 10.5859L19.9023 10.9961C20.0391 11.1523 20.0391 11.3477 19.9023 11.5039L19.5508 11.9238C19.2578 12.2559 19.0918 12.6758 19.0625 13.1055L19.0137 13.6621C18.9941 13.8574 18.8574 13.9941 18.6719 14.0137H18.6621L18.1055 14.0625C17.666 14.0918 17.2559 14.2578 16.9238 14.541L16.4941 14.9121C16.3477 15.0391 16.1523 15.0391 16.0059 14.9121H15.9961L15.5859 14.5508H15.5762C15.2441 14.2578 14.8242 14.0918 14.3945 14.0625L13.8379 14.0137C13.6426 13.9941 13.5059 13.8574 13.4863 13.6719V13.6621L13.4375 13.1055C13.4082 12.666 13.2422 12.2656 12.9688 11.9336L12.5879 11.4941C12.4609 11.3477 12.4609 11.1523 12.5977 10.9961L12.9492 10.5859C13.2324 10.2441 13.4082 9.83399 13.4375 9.39453L13.4863 8.83789V8.82812C13.5059 8.64258 13.6426 8.50586 13.8281 8.48633H13.8379L14.3945 8.4375C14.8242 8.4082 15.2441 8.23242 15.5762 7.94922H15.5859L16.0059 7.59766V7.58789C16.084 7.5293 16.1621 7.49023 16.25 7.5ZM11.0352 13.5156L11.0547 13.5449L11.0449 13.5352C11.0449 13.5352 11.0449 13.5254 11.0352 13.5156Z" fill="#6A6A6A"/>
</svg>
