<svg xmlns="http://www.w3.org/2000/svg" width="150" height="32" viewBox="0 0 150 32" fill="none">
<path d="M69.0996 3.37109H76.2775C77.432 3.37109 78.3739 3.53625 79.1031 3.86657C79.8322 4.19689 80.3943 4.60979 80.7893 5.10527C81.1843 5.60074 81.4501 6.14126 81.5868 6.72683C81.7388 7.31239 81.8147 7.85291 81.8147 8.34839C81.8147 8.84387 81.7388 9.38439 81.5868 9.96995C81.4501 10.5405 81.1843 11.0735 80.7893 11.569C80.3943 12.0645 79.8322 12.4774 79.1031 12.8077C78.3739 13.123 77.432 13.2806 76.2775 13.2806H71.948V19.4516H69.0996V3.37109ZM71.948 10.9834H76.118C76.437 10.9834 76.7636 10.9384 77.0978 10.8483C77.432 10.7582 77.7359 10.6156 78.0093 10.4204C78.2979 10.2102 78.5258 9.93992 78.6929 9.6096C78.8752 9.26427 78.9663 8.83636 78.9663 8.32587C78.9663 7.80036 78.8904 7.36494 78.7385 7.01961C78.5866 6.67428 78.3815 6.40402 78.1232 6.20883C77.865 5.99862 77.5687 5.85599 77.2345 5.78091C76.9003 5.70584 76.5433 5.66831 76.1636 5.66831H71.948V10.9834Z" fill="#F0F6F6"/>
<path d="M83.9337 3.37109H86.5314V9.33934H86.577C86.896 8.81384 87.3669 8.37842 87.9898 8.03308C88.6278 7.67274 89.3342 7.49256 90.109 7.49256C91.4002 7.49256 92.418 7.82288 93.1624 8.48352C93.9068 9.14415 94.279 10.1351 94.279 11.4564V19.4516H91.6813V12.132C91.6509 11.2162 91.4534 10.5555 91.0888 10.1501C90.7242 9.72972 90.1545 9.51952 89.3798 9.51952C88.9392 9.51952 88.5443 9.6021 88.1949 9.76726C87.8455 9.9174 87.5492 10.1351 87.3062 10.4204C87.0631 10.6906 86.8732 11.0135 86.7365 11.3888C86.5998 11.7642 86.5314 12.1621 86.5314 12.5825V19.4516H83.9337V3.37109Z" fill="#F0F6F6"/>
<path d="M95.7195 7.80787H98.5679L101.644 16.5012H101.69L104.675 7.80787H107.386L102.806 20.0822C102.594 20.6077 102.381 21.1107 102.168 21.5911C101.971 22.0716 101.72 22.492 101.416 22.8524C101.128 23.2277 100.763 23.5205 100.322 23.7307C99.8819 23.9559 99.3199 24.0685 98.6363 24.0685C98.0286 24.0685 97.4286 24.0235 96.8361 23.9334V21.7713C97.0488 21.8013 97.2539 21.8314 97.4513 21.8614C97.6488 21.9064 97.8539 21.929 98.0666 21.929C98.3704 21.929 98.6211 21.8914 98.8186 21.8164C99.016 21.7413 99.1756 21.6287 99.2971 21.4785C99.4338 21.3434 99.5477 21.1782 99.6389 20.9831C99.73 20.7879 99.8136 20.5627 99.8895 20.3074L100.186 19.4065L95.7195 7.80787Z" fill="#F0F6F6"/>
<path d="M110.794 15.713C110.87 16.4637 111.159 16.9892 111.66 17.2895C112.162 17.5898 112.762 17.7399 113.46 17.7399C113.703 17.7399 113.977 17.7249 114.281 17.6949C114.6 17.6498 114.896 17.5748 115.169 17.4697C115.443 17.3646 115.663 17.2144 115.83 17.0192C116.013 16.809 116.096 16.5388 116.081 16.2085C116.066 15.8781 115.944 15.6079 115.716 15.3977C115.488 15.1875 115.192 15.0223 114.828 14.9022C114.478 14.7671 114.076 14.6545 113.62 14.5644C113.164 14.4743 112.701 14.3767 112.23 14.2716C111.744 14.1665 111.273 14.0389 110.817 13.8887C110.377 13.7386 109.974 13.5359 109.609 13.2806C109.26 13.0254 108.979 12.7026 108.766 12.3122C108.554 11.9068 108.447 11.4113 108.447 10.8258C108.447 10.1952 108.599 9.66966 108.903 9.24926C109.222 8.81384 109.617 8.4685 110.088 8.21326C110.574 7.943 111.106 7.75532 111.683 7.65022C112.275 7.54511 112.838 7.49256 113.369 7.49256C113.977 7.49256 114.554 7.56013 115.101 7.69526C115.663 7.81538 116.164 8.01807 116.605 8.30334C117.061 8.58862 117.433 8.96398 117.722 9.42943C118.025 9.87986 118.215 10.4279 118.291 11.0735H115.58C115.458 10.4579 115.169 10.045 114.714 9.83482C114.273 9.62462 113.764 9.51952 113.187 9.51952C113.005 9.51952 112.784 9.53453 112.526 9.56456C112.283 9.59459 112.048 9.65465 111.82 9.74473C111.607 9.81981 111.425 9.93992 111.273 10.1051C111.121 10.2552 111.045 10.4579 111.045 10.7132C111.045 11.0285 111.151 11.2837 111.364 11.4789C111.592 11.6741 111.881 11.8393 112.23 11.9744C112.594 12.0945 113.005 12.1996 113.46 12.2897C113.916 12.3798 114.387 12.4774 114.873 12.5825C115.344 12.6876 115.807 12.8152 116.263 12.9653C116.719 13.1155 117.121 13.3182 117.471 13.5734C117.835 13.8287 118.124 14.1515 118.337 14.5419C118.565 14.9322 118.679 15.4127 118.679 15.9832C118.679 16.6739 118.519 17.2595 118.2 17.7399C117.881 18.2204 117.463 18.6108 116.947 18.9111C116.445 19.2114 115.883 19.4291 115.261 19.5642C114.638 19.6993 114.022 19.7669 113.415 19.7669C112.67 19.7669 111.979 19.6843 111.341 19.5191C110.718 19.354 110.171 19.1063 109.701 18.7759C109.245 18.4306 108.88 18.0102 108.607 17.5147C108.349 17.0042 108.212 16.4036 108.197 15.713H110.794Z" fill="#F0F6F6"/>
<path d="M120.719 3.37109H123.317V5.80344H120.719V3.37109ZM120.719 7.80787H123.317V19.4516H120.719V7.80787Z" fill="#F0F6F6"/>
<path d="M131.548 19.7669C130.606 19.7669 129.763 19.6167 129.019 19.3165C128.289 19.0011 127.667 18.5732 127.15 18.0327C126.649 17.4922 126.261 16.8466 125.988 16.0959C125.73 15.3451 125.6 14.5193 125.6 13.6185C125.6 12.7326 125.73 11.9143 125.988 11.1636C126.261 10.4129 126.649 9.76726 127.15 9.22673C127.667 8.68621 128.289 8.26581 129.019 7.96552C129.763 7.65022 130.606 7.49256 131.548 7.49256C132.49 7.49256 133.325 7.65022 134.054 7.96552C134.799 8.26581 135.422 8.68621 135.923 9.22673C136.439 9.76726 136.827 10.4129 137.085 11.1636C137.359 11.9143 137.495 12.7326 137.495 13.6185C137.495 14.5193 137.359 15.3451 137.085 16.0959C136.827 16.8466 136.439 17.4922 135.923 18.0327C135.422 18.5732 134.799 19.0011 134.054 19.3165C133.325 19.6167 132.49 19.7669 131.548 19.7669ZM131.548 17.7399C132.125 17.7399 132.626 17.6198 133.052 17.3796C133.477 17.1394 133.827 16.8241 134.1 16.4337C134.373 16.0433 134.571 15.6079 134.692 15.1274C134.829 14.6319 134.898 14.129 134.898 13.6185C134.898 13.123 134.829 12.6275 134.692 12.132C134.571 11.6366 134.373 11.2011 134.1 10.8258C133.827 10.4354 133.477 10.1201 133.052 9.87986C132.626 9.63963 132.125 9.51952 131.548 9.51952C130.971 9.51952 130.469 9.63963 130.044 9.87986C129.619 10.1201 129.269 10.4354 128.996 10.8258C128.722 11.2011 128.517 11.6366 128.38 12.132C128.259 12.6275 128.198 13.123 128.198 13.6185C128.198 14.129 128.259 14.6319 128.38 15.1274C128.517 15.6079 128.722 16.0433 128.996 16.4337C129.269 16.8241 129.619 17.1394 130.044 17.3796C130.469 17.6198 130.971 17.7399 131.548 17.7399Z" fill="#F0F6F6"/>
<path d="M139.655 7.80787H142.116V9.51952L142.161 9.56456C142.556 8.91894 143.073 8.41595 143.711 8.05561C144.349 7.68024 145.055 7.49256 145.83 7.49256C147.121 7.49256 148.139 7.82288 148.884 8.48352C149.628 9.14415 150 10.1351 150 11.4564V19.4516H147.402V12.132C147.372 11.2162 147.175 10.5555 146.81 10.1501C146.445 9.72972 145.876 9.51952 145.101 9.51952C144.66 9.51952 144.265 9.6021 143.916 9.76726C143.567 9.9174 143.27 10.1351 143.027 10.4204C142.784 10.6906 142.594 11.0135 142.458 11.3888C142.321 11.7642 142.253 12.1621 142.253 12.5825V19.4516H139.655V7.80787Z" fill="#F0F6F6"/>
<path d="M46.8385 6.47059e-06H19.8968C19.1004 0.00303148 18.3198 0.220324 17.6388 0.628571C16.9578 1.03682 16.4022 1.62061 16.0314 2.31732L4.137 24.6938L0 32L11.3868 24.7488L20.2931 7.22262C20.532 6.7512 20.8988 6.35476 21.3526 6.07765C21.8064 5.80054 22.3292 5.65369 22.8626 5.65354H34.1336C34.6421 5.65344 35.1415 5.78664 35.5809 6.03956C36.0202 6.29248 36.3839 6.65607 36.6347 7.09322C36.8855 7.53038 37.0145 8.02546 37.0085 8.52797C37.0025 9.03049 36.8618 9.52244 36.6007 9.95365L32.2855 17.0684C31.8735 17.7478 31.2904 18.31 30.5931 18.7003C29.8958 19.0906 29.108 19.2957 28.3066 19.2955H20.8431C20.3568 19.2977 19.8803 19.4303 19.4643 19.6791C19.0482 19.9279 18.7083 20.2836 18.4807 20.7083L16.3432 24.6938H38.1637C38.9572 24.6935 39.7358 24.4805 40.4165 24.0775C41.0972 23.6744 41.6545 23.0964 42.0291 22.4051L50.7128 6.37536C51.0701 5.71458 51.2479 4.97355 51.2289 4.22458C51.2099 3.47562 50.9948 2.74431 50.6045 2.10205C50.2142 1.4598 49.6621 0.928528 49.002 0.56011C48.342 0.191692 47.5966 -0.0012881 46.8385 6.47059e-06V6.47059e-06Z" fill="#F0F6F6"/>
</svg>